%TF.GenerationSoftware,KiCad,Pcbnew,9.0.7*%
%TF.CreationDate,2026-02-08T15:09:09+00:00*%
%TF.ProjectId,lnb_control,6c6e625f-636f-46e7-9472-6f6c2e6b6963,rev?*%
%TF.SameCoordinates,Original*%
%TF.FileFunction,Soldermask,Top*%
%TF.FilePolarity,Negative*%
%FSLAX46Y46*%
G04 Gerber Fmt 4.6, Leading zero omitted, Abs format (unit mm)*
G04 Created by KiCad (PCBNEW 9.0.7) date 2026-02-08 15:09:09*
%MOMM*%
%LPD*%
G01*
G04 APERTURE LIST*
G04 Aperture macros list*
%AMRoundRect*
0 Rectangle with rounded corners*
0 $1 Rounding radius*
0 $2 $3 $4 $5 $6 $7 $8 $9 X,Y pos of 4 corners*
0 Add a 4 corners polygon primitive as box body*
4,1,4,$2,$3,$4,$5,$6,$7,$8,$9,$2,$3,0*
0 Add four circle primitives for the rounded corners*
1,1,$1+$1,$2,$3*
1,1,$1+$1,$4,$5*
1,1,$1+$1,$6,$7*
1,1,$1+$1,$8,$9*
0 Add four rect primitives between the rounded corners*
20,1,$1+$1,$2,$3,$4,$5,0*
20,1,$1+$1,$4,$5,$6,$7,0*
20,1,$1+$1,$6,$7,$8,$9,0*
20,1,$1+$1,$8,$9,$2,$3,0*%
%AMOutline4P*
0 Free polygon, 4 corners , with rotation*
0 The origin of the aperture is its center*
0 number of corners: always 4*
0 $1 to $8 corner X, Y*
0 $9 Rotation angle, in degrees counterclockwise*
0 create outline with 4 corners*
4,1,4,$1,$2,$3,$4,$5,$6,$7,$8,$1,$2,$9*%
G04 Aperture macros list end*
%ADD10RoundRect,0.237500X-0.300000X-0.237500X0.300000X-0.237500X0.300000X0.237500X-0.300000X0.237500X0*%
%ADD11RoundRect,0.237500X0.300000X0.237500X-0.300000X0.237500X-0.300000X-0.237500X0.300000X-0.237500X0*%
%ADD12RoundRect,0.237500X-0.237500X0.300000X-0.237500X-0.300000X0.237500X-0.300000X0.237500X0.300000X0*%
%ADD13R,0.400000X0.850000*%
%ADD14RoundRect,0.237500X0.237500X-0.250000X0.237500X0.250000X-0.237500X0.250000X-0.237500X-0.250000X0*%
%ADD15C,0.650000*%
%ADD16R,1.150000X0.300000*%
%ADD17R,2.000000X2.180000*%
%ADD18R,0.600000X1.200000*%
%ADD19Outline4P,-1.800000X-1.150000X1.800000X-0.550000X1.800000X0.550000X-1.800000X1.150000X270.000000*%
%ADD20Outline4P,-1.800000X-1.150000X1.800000X-0.550000X1.800000X0.550000X-1.800000X1.150000X90.000000*%
%ADD21R,2.100000X5.600000*%
%ADD22RoundRect,0.237500X-0.237500X0.250000X-0.237500X-0.250000X0.237500X-0.250000X0.237500X0.250000X0*%
%ADD23C,1.000000*%
%ADD24R,2.900000X1.300000*%
%ADD25RoundRect,0.237500X0.237500X-0.300000X0.237500X0.300000X-0.237500X0.300000X-0.237500X-0.300000X0*%
%ADD26C,0.900000*%
%ADD27R,0.700000X1.500000*%
%ADD28R,0.800000X1.000000*%
%ADD29R,0.850000X2.350000*%
%ADD30RoundRect,0.237500X-0.250000X-0.237500X0.250000X-0.237500X0.250000X0.237500X-0.250000X0.237500X0*%
%ADD31C,3.300000*%
%ADD32R,3.050000X0.610000*%
%ADD33R,3.900000X2.500000*%
%ADD34C,3.200000*%
%ADD35RoundRect,0.237500X0.250000X0.237500X-0.250000X0.237500X-0.250000X-0.237500X0.250000X-0.237500X0*%
%ADD36R,1.640000X1.400000*%
%ADD37R,1.650000X1.650000*%
%ADD38C,1.650000*%
%ADD39R,1.800000X2.500000*%
%ADD40R,1.700000X2.600000*%
%ADD41R,1.820000X1.160000*%
%ADD42R,0.540000X0.420000*%
%ADD43R,0.940000X0.750000*%
%ADD44R,0.900000X0.400000*%
%ADD45R,1.630000X1.530000*%
%ADD46RoundRect,0.237500X0.237500X-0.287500X0.237500X0.287500X-0.237500X0.287500X-0.237500X-0.287500X0*%
%ADD47R,2.350000X0.850000*%
%ADD48R,1.475000X0.300000*%
%ADD49R,0.300000X1.475000*%
%ADD50R,2.200000X2.150000*%
%ADD51R,1.645000X0.800000*%
%ADD52R,5.080000X2.290000*%
%ADD53R,5.080000X2.420000*%
%ADD54R,1.551000X0.650000*%
%ADD55R,1.800000X3.150000*%
%ADD56R,0.990000X0.300000*%
%ADD57RoundRect,0.237500X-0.287500X-0.237500X0.287500X-0.237500X0.287500X0.237500X-0.287500X0.237500X0*%
%ADD58R,0.300000X0.750000*%
%ADD59R,0.750000X0.300000*%
%ADD60R,2.800000X2.800000*%
%ADD61RoundRect,0.237500X0.287500X0.237500X-0.287500X0.237500X-0.287500X-0.237500X0.287500X-0.237500X0*%
G04 APERTURE END LIST*
D10*
%TO.C,C20*%
X117387500Y-90700000D03*
X119112500Y-90700000D03*
%TD*%
D11*
%TO.C,C40*%
X91762500Y-108650000D03*
X90037500Y-108650000D03*
%TD*%
D12*
%TO.C,C19*%
X108900000Y-97075000D03*
X108900000Y-98800000D03*
%TD*%
D13*
%TO.C,L5*%
X129200000Y-135550000D03*
X130490000Y-135550000D03*
%TD*%
D14*
%TO.C,R9*%
X132100000Y-89462500D03*
X132100000Y-87637500D03*
%TD*%
D15*
%TO.C,J4*%
X57305000Y-126775000D03*
X57305000Y-132555000D03*
D16*
X58380000Y-126315000D03*
X58380000Y-127115000D03*
X58380000Y-128415000D03*
X58380000Y-129415000D03*
X58380000Y-129915000D03*
X58380000Y-130915000D03*
X58380000Y-132215000D03*
X58380000Y-133015000D03*
X58380000Y-132715000D03*
X58380000Y-131915000D03*
X58380000Y-131415000D03*
X58380000Y-130415000D03*
X58380000Y-128915000D03*
X58380000Y-127915000D03*
X58380000Y-127415000D03*
X58380000Y-126615000D03*
D17*
X53875000Y-124555000D03*
X53875000Y-134775000D03*
X57805000Y-124555000D03*
X57805000Y-134775000D03*
%TD*%
D12*
%TO.C,C5*%
X74100000Y-59437500D03*
X74100000Y-61162500D03*
%TD*%
D14*
%TO.C,R4*%
X81050000Y-56650000D03*
X81050000Y-54825000D03*
%TD*%
%TO.C,R21*%
X108650000Y-109587500D03*
X108650000Y-107762500D03*
%TD*%
D18*
%TO.C,IC1*%
X79150000Y-68500000D03*
X80100000Y-68500000D03*
X81050000Y-68500000D03*
X81050000Y-66000000D03*
X79150000Y-66000000D03*
%TD*%
D19*
%TO.C,D5*%
X84380908Y-128521565D03*
D20*
X84380908Y-134321565D03*
%TD*%
D21*
%TO.C,Y1*%
X83750000Y-80300000D03*
X83750000Y-89800000D03*
%TD*%
D22*
%TO.C,R7*%
X112900000Y-71725000D03*
X112900000Y-73550000D03*
%TD*%
%TO.C,R6*%
X100500000Y-72050000D03*
X100500000Y-73875000D03*
%TD*%
D10*
%TO.C,C33*%
X105368750Y-112481250D03*
X107093750Y-112481250D03*
%TD*%
D12*
%TO.C,C7*%
X69800000Y-88462500D03*
X69800000Y-90187500D03*
%TD*%
D23*
%TO.C,J1*%
X59375000Y-75125000D03*
X54375000Y-75125000D03*
D24*
X57375000Y-70475000D03*
X52875000Y-70475000D03*
X52875000Y-79775000D03*
X57375000Y-79775000D03*
%TD*%
D25*
%TO.C,C41*%
X86800000Y-110662500D03*
X86800000Y-108937500D03*
%TD*%
D26*
%TO.C,S1*%
X96750000Y-54115000D03*
X93750000Y-54115000D03*
D27*
X97500000Y-55865000D03*
X94500000Y-55865000D03*
X93000000Y-55865000D03*
D28*
X98900000Y-55080000D03*
X91600000Y-55080000D03*
X98900000Y-53150000D03*
X91600000Y-53150000D03*
%TD*%
D29*
%TO.C,J2*%
X107850000Y-54700000D03*
X109850000Y-52350000D03*
X111850000Y-54700000D03*
X113850000Y-52350000D03*
%TD*%
D30*
%TO.C,R27*%
X86725000Y-117900000D03*
X88550000Y-117900000D03*
%TD*%
D31*
%TO.C,J8*%
X56360000Y-104840000D03*
X56360000Y-117540000D03*
D32*
X66340000Y-114760000D03*
X66340000Y-113740000D03*
X66340000Y-112720000D03*
X66340000Y-111700000D03*
X66340000Y-110680000D03*
X66340000Y-109660000D03*
X66340000Y-108640000D03*
X66340000Y-107620000D03*
X67160000Y-118180000D03*
X67160000Y-116910000D03*
X67160000Y-105470000D03*
X67160000Y-104200000D03*
D33*
X56360000Y-102530000D03*
X56360000Y-119850000D03*
%TD*%
D10*
%TO.C,C1*%
X77187500Y-81200000D03*
X78912500Y-81200000D03*
%TD*%
D18*
%TO.C,PS1*%
X71750000Y-59000000D03*
X70800000Y-59000000D03*
X69850000Y-59000000D03*
X69850000Y-61500000D03*
X70800000Y-61500000D03*
X71750000Y-61500000D03*
%TD*%
D12*
%TO.C,C18*%
X83700000Y-94687500D03*
X83700000Y-96412500D03*
%TD*%
D22*
%TO.C,R19*%
X104650000Y-104987500D03*
X104650000Y-106812500D03*
%TD*%
D34*
%TO.C,REF\u002A\u002A*%
X55000000Y-145000000D03*
%TD*%
D35*
%TO.C,R14*%
X64514500Y-125865000D03*
X62689500Y-125865000D03*
%TD*%
%TO.C,R22*%
X112575000Y-107625000D03*
X110750000Y-107625000D03*
%TD*%
D14*
%TO.C,R11*%
X92750000Y-98762500D03*
X92750000Y-96937500D03*
%TD*%
%TO.C,R25*%
X82700000Y-108812500D03*
X82700000Y-106987500D03*
%TD*%
D36*
%TO.C,D4*%
X97080908Y-129421565D03*
X97080908Y-133451565D03*
%TD*%
D37*
%TO.C,J5*%
X114055000Y-59685000D03*
D38*
X114055000Y-62225000D03*
X111515000Y-59685000D03*
X111515000Y-62225000D03*
X108975000Y-59685000D03*
X108975000Y-62225000D03*
X106435000Y-59685000D03*
X106435000Y-62225000D03*
X103895000Y-59685000D03*
X103895000Y-62225000D03*
%TD*%
D39*
%TO.C,C6*%
X85500000Y-61250000D03*
X85500000Y-57850000D03*
%TD*%
D30*
%TO.C,R3*%
X77187500Y-78100000D03*
X79012500Y-78100000D03*
%TD*%
D12*
%TO.C,C11*%
X71900000Y-91850000D03*
X71900000Y-93575000D03*
%TD*%
D40*
%TO.C,L2*%
X77850000Y-60150000D03*
X80350000Y-60150000D03*
%TD*%
D12*
%TO.C,C10*%
X69800000Y-91875000D03*
X69800000Y-93600000D03*
%TD*%
D41*
%TO.C,F1*%
X66530000Y-75210000D03*
X66530000Y-72260000D03*
%TD*%
D25*
%TO.C,C15*%
X82050000Y-75462500D03*
X82050000Y-73737500D03*
%TD*%
D42*
%TO.C,D6*%
X98880908Y-138071565D03*
X100480908Y-138071565D03*
%TD*%
D43*
%TO.C,C29*%
X130950000Y-126850000D03*
X130950000Y-125450000D03*
%TD*%
D44*
%TO.C,D7*%
X131050000Y-120450000D03*
X131050000Y-119450000D03*
X129450000Y-119950000D03*
%TD*%
D45*
%TO.C,D1*%
X66600000Y-65330000D03*
X66600000Y-69130000D03*
%TD*%
D46*
%TO.C,L1*%
X84250000Y-68525000D03*
X84250000Y-66775000D03*
%TD*%
D22*
%TO.C,R5*%
X76450000Y-54837500D03*
X76450000Y-56662500D03*
%TD*%
D47*
%TO.C,J3*%
X129400000Y-90500000D03*
X127050000Y-88500000D03*
X129400000Y-86500000D03*
X127050000Y-84500000D03*
%TD*%
D48*
%TO.C,IC2*%
X93612000Y-80212000D03*
X93612000Y-80712000D03*
X93612000Y-81212000D03*
X93612000Y-81712000D03*
X93612000Y-82212000D03*
X93612000Y-82712000D03*
X93612000Y-83212000D03*
X93612000Y-83712000D03*
X93612000Y-84212000D03*
X93612000Y-84712000D03*
X93612000Y-85212000D03*
X93612000Y-85712000D03*
X93612000Y-86212000D03*
X93612000Y-86712000D03*
X93612000Y-87212000D03*
X93612000Y-87712000D03*
X93612000Y-88212000D03*
X93612000Y-88712000D03*
X93612000Y-89212000D03*
X93612000Y-89712000D03*
X93612000Y-90212000D03*
X93612000Y-90712000D03*
X93612000Y-91212000D03*
X93612000Y-91712000D03*
X93612000Y-92212000D03*
D49*
X95350000Y-93950000D03*
X95850000Y-93950000D03*
X96350000Y-93950000D03*
X96850000Y-93950000D03*
X97350000Y-93950000D03*
X97850000Y-93950000D03*
X98350000Y-93950000D03*
X98850000Y-93950000D03*
X99350000Y-93950000D03*
X99850000Y-93950000D03*
X100350000Y-93950000D03*
X100850000Y-93950000D03*
X101350000Y-93950000D03*
X101850000Y-93950000D03*
X102350000Y-93950000D03*
X102850000Y-93950000D03*
X103350000Y-93950000D03*
X103850000Y-93950000D03*
X104350000Y-93950000D03*
X104850000Y-93950000D03*
X105350000Y-93950000D03*
X105850000Y-93950000D03*
X106350000Y-93950000D03*
X106850000Y-93950000D03*
X107350000Y-93950000D03*
D48*
X109088000Y-92212000D03*
X109088000Y-91712000D03*
X109088000Y-91212000D03*
X109088000Y-90712000D03*
X109088000Y-90212000D03*
X109088000Y-89712000D03*
X109088000Y-89212000D03*
X109088000Y-88712000D03*
X109088000Y-88212000D03*
X109088000Y-87712000D03*
X109088000Y-87212000D03*
X109088000Y-86712000D03*
X109088000Y-86212000D03*
X109088000Y-85712000D03*
X109088000Y-85212000D03*
X109088000Y-84712000D03*
X109088000Y-84212000D03*
X109088000Y-83712000D03*
X109088000Y-83212000D03*
X109088000Y-82712000D03*
X109088000Y-82212000D03*
X109088000Y-81712000D03*
X109088000Y-81212000D03*
X109088000Y-80712000D03*
X109088000Y-80212000D03*
D49*
X107350000Y-78474000D03*
X106850000Y-78474000D03*
X106350000Y-78474000D03*
X105850000Y-78474000D03*
X105350000Y-78474000D03*
X104850000Y-78474000D03*
X104350000Y-78474000D03*
X103850000Y-78474000D03*
X103350000Y-78474000D03*
X102850000Y-78474000D03*
X102350000Y-78474000D03*
X101850000Y-78474000D03*
X101350000Y-78474000D03*
X100850000Y-78474000D03*
X100350000Y-78474000D03*
X99850000Y-78474000D03*
X99350000Y-78474000D03*
X98850000Y-78474000D03*
X98350000Y-78474000D03*
X97850000Y-78474000D03*
X97350000Y-78474000D03*
X96850000Y-78474000D03*
X96350000Y-78474000D03*
X95850000Y-78474000D03*
X95350000Y-78474000D03*
%TD*%
D50*
%TO.C,D2*%
X66800000Y-61750000D03*
X62400000Y-61750000D03*
%TD*%
D46*
%TO.C,D3*%
X90900000Y-98700000D03*
X90900000Y-96950000D03*
%TD*%
D25*
%TO.C,C32*%
X100650000Y-118812500D03*
X100650000Y-117087500D03*
%TD*%
D14*
%TO.C,R24*%
X77700000Y-108887500D03*
X77700000Y-107062500D03*
%TD*%
D22*
%TO.C,R12*%
X96400000Y-72725000D03*
X96400000Y-74550000D03*
%TD*%
%TO.C,R1*%
X74750000Y-66525000D03*
X74750000Y-68350000D03*
%TD*%
D35*
%TO.C,R30*%
X66502500Y-99390000D03*
X64677500Y-99390000D03*
%TD*%
D34*
%TO.C,REF\u002A\u002A*%
X135000000Y-55000000D03*
%TD*%
D30*
%TO.C,R28*%
X86725000Y-121300000D03*
X88550000Y-121300000D03*
%TD*%
D11*
%TO.C,C38*%
X91512500Y-115600000D03*
X89787500Y-115600000D03*
%TD*%
D35*
%TO.C,R16*%
X100193408Y-141271565D03*
X98368408Y-141271565D03*
%TD*%
%TO.C,R29*%
X66522500Y-97800000D03*
X64697500Y-97800000D03*
%TD*%
D51*
%TO.C,T1*%
X84500000Y-120800000D03*
X84500000Y-119530000D03*
X84500000Y-118260000D03*
X84500000Y-116990000D03*
X84500000Y-115720000D03*
X84500000Y-114450000D03*
X84500000Y-113180000D03*
X84500000Y-111910000D03*
X75744000Y-111910000D03*
X75744000Y-113180000D03*
X75744000Y-114450000D03*
X75744000Y-115720000D03*
X75744000Y-116990000D03*
X75744000Y-118260000D03*
X75744000Y-119530000D03*
X75744000Y-120800000D03*
%TD*%
D10*
%TO.C,C27*%
X98418408Y-139571565D03*
X100143408Y-139571565D03*
%TD*%
D14*
%TO.C,R23*%
X79400000Y-108887500D03*
X79400000Y-107062500D03*
%TD*%
%TO.C,R13*%
X89450000Y-61312500D03*
X89450000Y-59487500D03*
%TD*%
D52*
%TO.C,J6*%
X136950000Y-119650000D03*
D53*
X136950000Y-124030000D03*
X136950000Y-115270000D03*
%TD*%
D12*
%TO.C,C34*%
X99000000Y-117087500D03*
X99000000Y-118812500D03*
%TD*%
D10*
%TO.C,C3*%
X77237500Y-71850000D03*
X78962500Y-71850000D03*
%TD*%
%TO.C,C42*%
X86787500Y-119550000D03*
X88512500Y-119550000D03*
%TD*%
D25*
%TO.C,C9*%
X100550000Y-70075000D03*
X100550000Y-68350000D03*
%TD*%
D12*
%TO.C,C36*%
X97350000Y-117087500D03*
X97350000Y-118812500D03*
%TD*%
D25*
%TO.C,C8*%
X94700000Y-76500000D03*
X94700000Y-74775000D03*
%TD*%
%TO.C,C16*%
X110950000Y-79650000D03*
X110950000Y-77925000D03*
%TD*%
D12*
%TO.C,C21*%
X107100000Y-97075000D03*
X107100000Y-98800000D03*
%TD*%
D11*
%TO.C,C28*%
X92493408Y-136921565D03*
X90768408Y-136921565D03*
%TD*%
D54*
%TO.C,IC4*%
X123050000Y-88250000D03*
X123050000Y-86980000D03*
X123050000Y-85710000D03*
X123050000Y-84440000D03*
X117600000Y-84440000D03*
X117600000Y-85710000D03*
X117600000Y-86980000D03*
X117600000Y-88250000D03*
%TD*%
D52*
%TO.C,J7*%
X136950000Y-132870000D03*
D53*
X136950000Y-137250000D03*
X136950000Y-128490000D03*
%TD*%
D22*
%TO.C,R8*%
X114750000Y-71725000D03*
X114750000Y-73550000D03*
%TD*%
D11*
%TO.C,C2*%
X67325000Y-58300000D03*
X65600000Y-58300000D03*
%TD*%
D25*
%TO.C,C37*%
X112600000Y-105462500D03*
X112600000Y-103737500D03*
%TD*%
D55*
%TO.C,C24*%
X103530908Y-134571565D03*
X103530908Y-129471565D03*
%TD*%
D14*
%TO.C,R10*%
X124250000Y-92212500D03*
X124250000Y-90387500D03*
%TD*%
D11*
%TO.C,C12*%
X90700000Y-88350000D03*
X88975000Y-88350000D03*
%TD*%
D25*
%TO.C,C31*%
X102400000Y-118812500D03*
X102400000Y-117087500D03*
%TD*%
D14*
%TO.C,R2*%
X73000000Y-80362500D03*
X73000000Y-78537500D03*
%TD*%
D35*
%TO.C,R18*%
X91662500Y-113850000D03*
X89837500Y-113850000D03*
%TD*%
%TO.C,R15*%
X64464500Y-132215000D03*
X62639500Y-132215000D03*
%TD*%
D56*
%TO.C,IC3*%
X64952000Y-129615000D03*
X64952000Y-129115000D03*
X64952000Y-128615000D03*
X63342000Y-128615000D03*
X63342000Y-129115000D03*
X63342000Y-129615000D03*
%TD*%
D10*
%TO.C,C23*%
X85293408Y-142421565D03*
X87018408Y-142421565D03*
%TD*%
D14*
%TO.C,R26*%
X81000000Y-108850000D03*
X81000000Y-107025000D03*
%TD*%
D57*
%TO.C,L3*%
X70075000Y-86700000D03*
X71825000Y-86700000D03*
%TD*%
D11*
%TO.C,C35*%
X110850000Y-112500000D03*
X109125000Y-112500000D03*
%TD*%
D21*
%TO.C,Y2*%
X116850000Y-112400000D03*
X116850000Y-102900000D03*
%TD*%
D22*
%TO.C,R20*%
X99500000Y-102775000D03*
X99500000Y-104600000D03*
%TD*%
D12*
%TO.C,C22*%
X113700000Y-78037500D03*
X113700000Y-79762500D03*
%TD*%
D34*
%TO.C,REF\u002A\u002A*%
X135000000Y-145000000D03*
%TD*%
D12*
%TO.C,C13*%
X71900000Y-88412500D03*
X71900000Y-90137500D03*
%TD*%
D11*
%TO.C,C39*%
X91612500Y-112150000D03*
X89887500Y-112150000D03*
%TD*%
D25*
%TO.C,C25*%
X81030908Y-136421565D03*
X81030908Y-134696565D03*
%TD*%
D35*
%TO.C,R17*%
X103025000Y-104600000D03*
X101200000Y-104600000D03*
%TD*%
D48*
%TO.C,IC6*%
X94212000Y-107988000D03*
X94212000Y-108488000D03*
X94212000Y-108988000D03*
X94212000Y-109488000D03*
X94212000Y-109988000D03*
X94212000Y-110488000D03*
X94212000Y-110988000D03*
X94212000Y-111488000D03*
X94212000Y-111988000D03*
X94212000Y-112488000D03*
X94212000Y-112988000D03*
X94212000Y-113488000D03*
D49*
X95700000Y-114976000D03*
X96200000Y-114976000D03*
X96700000Y-114976000D03*
X97200000Y-114976000D03*
X97700000Y-114976000D03*
X98200000Y-114976000D03*
X98700000Y-114976000D03*
X99200000Y-114976000D03*
X99700000Y-114976000D03*
X100200000Y-114976000D03*
X100700000Y-114976000D03*
X101200000Y-114976000D03*
D48*
X102688000Y-113488000D03*
X102688000Y-112988000D03*
X102688000Y-112488000D03*
X102688000Y-111988000D03*
X102688000Y-111488000D03*
X102688000Y-110988000D03*
X102688000Y-110488000D03*
X102688000Y-109988000D03*
X102688000Y-109488000D03*
X102688000Y-108988000D03*
X102688000Y-108488000D03*
X102688000Y-107988000D03*
D49*
X101200000Y-106500000D03*
X100700000Y-106500000D03*
X100200000Y-106500000D03*
X99700000Y-106500000D03*
X99200000Y-106500000D03*
X98700000Y-106500000D03*
X98200000Y-106500000D03*
X97700000Y-106500000D03*
X97200000Y-106500000D03*
X96700000Y-106500000D03*
X96200000Y-106500000D03*
X95700000Y-106500000D03*
%TD*%
D25*
%TO.C,C30*%
X104680908Y-140721565D03*
X104680908Y-138996565D03*
%TD*%
D34*
%TO.C,REF\u002A\u002A*%
X55000000Y-55000000D03*
%TD*%
D58*
%TO.C,IC5*%
X90280908Y-143271565D03*
X90780908Y-143271565D03*
X91280908Y-143271565D03*
X91780908Y-143271565D03*
X92280908Y-143271565D03*
X92780908Y-143271565D03*
D59*
X93530908Y-142521565D03*
X93530908Y-142021565D03*
X93530908Y-141521565D03*
X93530908Y-141021565D03*
X93530908Y-140521565D03*
X93530908Y-140021565D03*
D58*
X92780908Y-139271565D03*
X92280908Y-139271565D03*
X91780908Y-139271565D03*
X91280908Y-139271565D03*
X90780908Y-139271565D03*
X90280908Y-139271565D03*
D59*
X89530908Y-140021565D03*
X89530908Y-140521565D03*
X89530908Y-141021565D03*
X89530908Y-141521565D03*
X89530908Y-142021565D03*
X89530908Y-142521565D03*
D60*
X91530908Y-141271565D03*
%TD*%
D12*
%TO.C,C14*%
X96350000Y-96687500D03*
X96350000Y-98412500D03*
%TD*%
D61*
%TO.C,L4*%
X96280908Y-145421565D03*
X94530908Y-145421565D03*
%TD*%
D25*
%TO.C,C17*%
X91488000Y-83038000D03*
X91488000Y-81313000D03*
%TD*%
D10*
%TO.C,C4*%
X77237500Y-74900000D03*
X78962500Y-74900000D03*
%TD*%
D55*
%TO.C,C26*%
X90780908Y-128971565D03*
X90780908Y-134071565D03*
%TD*%
M02*
