%TF.GenerationSoftware,KiCad,Pcbnew,9.0.7*%
%TF.CreationDate,2026-02-08T15:09:09+00:00*%
%TF.ProjectId,lnb_control,6c6e625f-636f-46e7-9472-6f6c2e6b6963,rev?*%
%TF.SameCoordinates,Original*%
%TF.FileFunction,Copper,L3,Inr*%
%TF.FilePolarity,Positive*%
%FSLAX46Y46*%
G04 Gerber Fmt 4.6, Leading zero omitted, Abs format (unit mm)*
G04 Created by KiCad (PCBNEW 9.0.7) date 2026-02-08 15:09:09*
%MOMM*%
%LPD*%
G01*
G04 APERTURE LIST*
%TA.AperFunction,ComponentPad*%
%ADD10R,1.650000X1.650000*%
%TD*%
%TA.AperFunction,ComponentPad*%
%ADD11C,1.650000*%
%TD*%
%TA.AperFunction,ComponentPad*%
%ADD12C,0.970000*%
%TD*%
%TA.AperFunction,ViaPad*%
%ADD13C,0.800000*%
%TD*%
%TA.AperFunction,Conductor*%
%ADD14C,0.200000*%
%TD*%
%TA.AperFunction,Conductor*%
%ADD15C,0.600000*%
%TD*%
%TA.AperFunction,Conductor*%
%ADD16C,0.300000*%
%TD*%
G04 APERTURE END LIST*
D10*
%TO.N,+3V3*%
%TO.C,J5*%
X114055000Y-59685000D03*
D11*
%TO.N,/MCU/SWDIO*%
X114055000Y-62225000D03*
%TO.N,GND*%
X111515000Y-59685000D03*
%TO.N,/MCU/SWCLK*%
X111515000Y-62225000D03*
%TO.N,GND*%
X108975000Y-59685000D03*
%TO.N,/MCU/SWO*%
X108975000Y-62225000D03*
%TO.N,GND*%
X106435000Y-59685000D03*
%TO.N,unconnected-(J5-Pad8)*%
X106435000Y-62225000D03*
%TO.N,GND*%
X103895000Y-59685000D03*
%TO.N,/MCU/NRST*%
X103895000Y-62225000D03*
%TD*%
D12*
%TO.N,GND*%
%TO.C,J6*%
X133510000Y-124030000D03*
X133510000Y-115270000D03*
%TD*%
%TO.N,GND*%
%TO.C,J7*%
X133510000Y-137250000D03*
X133510000Y-128490000D03*
%TD*%
D13*
%TO.N,GND*%
X63156634Y-77300040D03*
X89949997Y-107350000D03*
X61202000Y-126515000D03*
X124950000Y-84450000D03*
X91538000Y-79938000D03*
X101050000Y-55100000D03*
X76450000Y-93850000D03*
X65902000Y-131415000D03*
X94350000Y-95850000D03*
X94700000Y-116400000D03*
X56370000Y-99220000D03*
X95700000Y-104000000D03*
X101950000Y-68350000D03*
X101000000Y-53150000D03*
X61102000Y-132815000D03*
X116350000Y-52400000D03*
X115950000Y-87000000D03*
X57375000Y-67900000D03*
X86150000Y-55200000D03*
X112200000Y-77925000D03*
X100050000Y-147400000D03*
X90000000Y-119600000D03*
X60125000Y-82575000D03*
X92880908Y-138171565D03*
X89450000Y-55100000D03*
X79850000Y-70300000D03*
X53025000Y-67975000D03*
X63188247Y-72052347D03*
X87600000Y-88350000D03*
X88549997Y-110950000D03*
X83650000Y-97850000D03*
X89450000Y-53150000D03*
X120650000Y-90750000D03*
X94700000Y-73300000D03*
X103630908Y-126321565D03*
X128050000Y-120000000D03*
X108850000Y-100200000D03*
X63850000Y-58600000D03*
X108550000Y-113800000D03*
X53050000Y-82475000D03*
X74930000Y-58000000D03*
%TO.N,+3V3*%
X92050000Y-88150000D03*
X107131250Y-113631250D03*
X95750000Y-117000000D03*
X113750000Y-70100000D03*
X70570000Y-104260000D03*
X70290000Y-118740000D03*
X97050000Y-104200000D03*
X91538000Y-84488000D03*
X104450000Y-103612500D03*
X88550000Y-122650000D03*
X84300000Y-64900000D03*
X92800000Y-115250000D03*
X102000000Y-73900000D03*
X127200000Y-92700000D03*
X90950000Y-107350000D03*
X109088000Y-76850000D03*
X93400000Y-77000000D03*
X79150000Y-64000000D03*
X97550000Y-96800000D03*
X89550000Y-110950000D03*
X94850000Y-71900000D03*
X75900000Y-86650000D03*
X117450000Y-89500000D03*
X75850000Y-70200000D03*
X108950000Y-95551000D03*
X101100000Y-56800000D03*
%TO.N,/MCU/NRST*%
X97850000Y-71100000D03*
X91950000Y-86912000D03*
%TO.N,+12V*%
X98400000Y-144721565D03*
X97180908Y-137171565D03*
X83200000Y-52800000D03*
X89230908Y-137721565D03*
%TO.N,/MCU/W5500 Ethernet/SCSN*%
X106276958Y-109714958D03*
X111350000Y-93250000D03*
%TO.N,/MCU/W5500 Ethernet/SCLK*%
X111550148Y-92150452D03*
X106839434Y-108888142D03*
%TO.N,/MCU/W5500 Ethernet/MISO*%
X111239270Y-91200000D03*
X106166228Y-108148685D03*
%TO.N,/MCU/BOOT0*%
X89450000Y-63250000D03*
X97950000Y-75900000D03*
%TO.N,/MCU/I2C1_SDA*%
X113000000Y-75200000D03*
X100400000Y-75400000D03*
X96000000Y-144300000D03*
%TO.N,/MCU/I2C3_SCL*%
X124800000Y-86750000D03*
X115200000Y-85850000D03*
%TO.N,/MCU/W5500 Ethernet/W5500_RST*%
X101150000Y-101800000D03*
X111500000Y-87150000D03*
%TO.N,/MCU/USART3_RX*%
X104050000Y-96700000D03*
X104850000Y-56600000D03*
%TO.N,/MCU/LNBH26PQR/LNB_FLT*%
X103700000Y-73150000D03*
X90780908Y-145421565D03*
%TO.N,/MCU/SWCLK*%
X107450000Y-72500000D03*
%TO.N,/MCU/W5500 Ethernet/MOSI*%
X110923042Y-90251315D03*
X105850000Y-107200000D03*
%TO.N,/MCU/W5500 Ethernet/W5500_INT*%
X111500000Y-86100000D03*
X104200000Y-101250000D03*
%TO.N,/MCU/I2C3_SDA*%
X125550000Y-82450000D03*
X115600000Y-84550000D03*
%TO.N,/MCU/SWDIO*%
X108446684Y-72418604D03*
%TO.N,/MCU/I2C1_SCL*%
X100400000Y-76400000D03*
X114250000Y-75900000D03*
X95200000Y-143150000D03*
%TO.N,/MCU/SWO*%
X106450000Y-72451000D03*
%TO.N,/MCU/USART3_TX*%
X105600000Y-51900000D03*
X103049997Y-96700000D03*
%TO.N,VBUS*%
X55002000Y-129615000D03*
X61352000Y-129115000D03*
%TO.N,/MCU/W5500 Ethernet/RXP*%
X82600000Y-104950000D03*
X90700000Y-110500000D03*
%TO.N,/MCU/W5500 Ethernet/TXN*%
X77750000Y-104950000D03*
X92750000Y-106050000D03*
%TO.N,/MCU/W5500 Ethernet/RXN*%
X80950000Y-104950000D03*
X91550000Y-109850000D03*
%TO.N,/MCU/W5500 Ethernet/LNKLED*%
X68470000Y-99300000D03*
X104300000Y-114900000D03*
%TO.N,/MCU/W5500 Ethernet/ACTLED*%
X68470000Y-98000000D03*
X104300000Y-113800000D03*
%TO.N,/MCU/W5500 Ethernet/TXP*%
X92250000Y-107000000D03*
X79400000Y-104950000D03*
%TO.N,+3V3_ANA*%
X91800000Y-91500000D03*
X73450000Y-91050000D03*
%TO.N,VSSA*%
X91800000Y-90400000D03*
X68500000Y-90300000D03*
%TO.N,USB_D-*%
X67502000Y-128565000D03*
X113213131Y-83250000D03*
%TO.N,USB_D+*%
X67502000Y-129615000D03*
X114213134Y-83250000D03*
%TO.N,Net-(IC2-PA8)*%
X83455908Y-142621565D03*
X111550000Y-83450000D03*
%TO.N,Net-(D4-K)*%
X80450000Y-130100000D03*
X80950000Y-141000000D03*
%TO.N,Net-(D5-A)*%
X84400000Y-139550000D03*
X127250000Y-135600000D03*
X95980908Y-139571565D03*
%TO.N,USB_DP*%
X56452000Y-130815000D03*
X61352000Y-130265000D03*
%TO.N,USB_DN*%
X56452000Y-128615000D03*
X61352000Y-128065000D03*
%TO.N,PGND*%
X81030908Y-133221565D03*
X92430908Y-144671565D03*
X94580908Y-137221565D03*
X99150000Y-142900000D03*
%TD*%
D14*
%TO.N,GND*%
X100050000Y-145340657D02*
X100050000Y-147400000D01*
X100050000Y-147400000D02*
X100030908Y-147380908D01*
X92880908Y-138171565D02*
X100050000Y-145340657D01*
D15*
%TO.N,+12V*%
X51400000Y-137750000D02*
X51400000Y-64950000D01*
X51428435Y-137721565D02*
X51400000Y-137750000D01*
D16*
X97021565Y-137171565D02*
X97180908Y-137171565D01*
D15*
X89230908Y-137721565D02*
X51428435Y-137721565D01*
X63550000Y-52800000D02*
X83200000Y-52800000D01*
X51400000Y-64950000D02*
X63550000Y-52800000D01*
D14*
%TO.N,VBUS*%
X60852000Y-129615000D02*
X55002000Y-129615000D01*
X61352000Y-129115000D02*
X60852000Y-129615000D01*
%TO.N,+3V3_ANA*%
X73900000Y-91500000D02*
X73450000Y-91050000D01*
X91800000Y-91500000D02*
X73900000Y-91500000D01*
%TO.N,VSSA*%
X91800000Y-90400000D02*
X91700000Y-90300000D01*
X91700000Y-90300000D02*
X68500000Y-90300000D01*
%TD*%
%TA.AperFunction,Conductor*%
%TO.N,+3V3*%
G36*
X131341509Y-54369963D02*
G01*
X131387514Y-54422549D01*
X131398961Y-54475620D01*
X130651005Y-144978332D01*
X130630767Y-145045206D01*
X130577587Y-145090523D01*
X130528334Y-145101300D01*
X109326860Y-145327839D01*
X109259614Y-145308872D01*
X109213297Y-145256560D01*
X109201544Y-145205278D01*
X109090062Y-135520943D01*
X126649500Y-135520943D01*
X126649500Y-135679056D01*
X126690423Y-135831783D01*
X126690426Y-135831790D01*
X126769475Y-135968709D01*
X126769479Y-135968714D01*
X126769480Y-135968716D01*
X126881284Y-136080520D01*
X126881286Y-136080521D01*
X126881290Y-136080524D01*
X127018209Y-136159573D01*
X127018216Y-136159577D01*
X127170943Y-136200500D01*
X127170945Y-136200500D01*
X127329055Y-136200500D01*
X127329057Y-136200500D01*
X127481784Y-136159577D01*
X127618716Y-136080520D01*
X127730520Y-135968716D01*
X127809577Y-135831784D01*
X127850500Y-135679057D01*
X127850500Y-135520943D01*
X127809577Y-135368216D01*
X127809573Y-135368209D01*
X127730524Y-135231290D01*
X127730518Y-135231282D01*
X127618717Y-135119481D01*
X127618709Y-135119475D01*
X127481790Y-135040426D01*
X127481786Y-135040424D01*
X127481784Y-135040423D01*
X127329057Y-134999500D01*
X127170943Y-134999500D01*
X127018216Y-135040423D01*
X127018209Y-135040426D01*
X126881290Y-135119475D01*
X126881282Y-135119481D01*
X126769481Y-135231282D01*
X126769475Y-135231290D01*
X126690426Y-135368209D01*
X126690423Y-135368216D01*
X126649500Y-135520943D01*
X109090062Y-135520943D01*
X109050583Y-132091445D01*
X109045610Y-132048812D01*
X109034330Y-131998548D01*
X109032047Y-131989368D01*
X108988909Y-131908725D01*
X108988907Y-131908723D01*
X108988907Y-131908722D01*
X108943076Y-131856000D01*
X108925450Y-131838068D01*
X108893471Y-131820247D01*
X108845562Y-131793548D01*
X108845561Y-131793547D01*
X108845560Y-131793547D01*
X108778498Y-131773971D01*
X108778494Y-131773970D01*
X108778493Y-131773970D01*
X108720582Y-131765737D01*
X108720578Y-131765737D01*
X77568121Y-131815343D01*
X77568118Y-131815343D01*
X77523827Y-131820247D01*
X77471631Y-131831858D01*
X77460857Y-131834563D01*
X77460851Y-131834565D01*
X77380487Y-131878198D01*
X77380481Y-131878202D01*
X77328044Y-131924359D01*
X77310220Y-131942098D01*
X77266197Y-132022261D01*
X77247036Y-132089453D01*
X77247035Y-132089458D01*
X77239162Y-132147415D01*
X77246938Y-133144110D01*
X77247137Y-133169563D01*
X77247137Y-133169565D01*
X77277766Y-137096098D01*
X77258605Y-137163289D01*
X77206160Y-137209454D01*
X77153770Y-137221065D01*
X52024500Y-137221065D01*
X51957461Y-137201380D01*
X51911706Y-137148576D01*
X51900500Y-137097065D01*
X51900500Y-132498982D01*
X56879500Y-132498982D01*
X56879500Y-132611018D01*
X56908497Y-132719237D01*
X56964515Y-132816263D01*
X57043737Y-132895485D01*
X57140763Y-132951503D01*
X57248982Y-132980500D01*
X57248984Y-132980500D01*
X57361016Y-132980500D01*
X57361018Y-132980500D01*
X57469237Y-132951503D01*
X57566263Y-132895485D01*
X57645485Y-132816263D01*
X57691858Y-132735943D01*
X60501500Y-132735943D01*
X60501500Y-132894057D01*
X60524663Y-132980500D01*
X60542423Y-133046783D01*
X60542426Y-133046790D01*
X60621475Y-133183709D01*
X60621479Y-133183714D01*
X60621480Y-133183716D01*
X60733284Y-133295520D01*
X60733286Y-133295521D01*
X60733290Y-133295524D01*
X60870209Y-133374573D01*
X60870216Y-133374577D01*
X61022943Y-133415500D01*
X61022945Y-133415500D01*
X61181055Y-133415500D01*
X61181057Y-133415500D01*
X61333784Y-133374577D01*
X61470716Y-133295520D01*
X61582520Y-133183716D01*
X61661577Y-133046784D01*
X61702500Y-132894057D01*
X61702500Y-132735943D01*
X61661577Y-132583216D01*
X61612945Y-132498982D01*
X61582524Y-132446290D01*
X61582518Y-132446282D01*
X61470717Y-132334481D01*
X61470709Y-132334475D01*
X61333790Y-132255426D01*
X61333786Y-132255424D01*
X61333784Y-132255423D01*
X61181057Y-132214500D01*
X61022943Y-132214500D01*
X60870216Y-132255423D01*
X60870209Y-132255426D01*
X60733290Y-132334475D01*
X60733282Y-132334481D01*
X60621481Y-132446282D01*
X60621475Y-132446290D01*
X60542426Y-132583209D01*
X60542423Y-132583216D01*
X60501500Y-132735943D01*
X57691858Y-132735943D01*
X57701503Y-132719237D01*
X57730500Y-132611018D01*
X57730500Y-132498982D01*
X57701503Y-132390763D01*
X57645485Y-132293737D01*
X57566263Y-132214515D01*
X57469237Y-132158497D01*
X57361018Y-132129500D01*
X57248982Y-132129500D01*
X57140763Y-132158497D01*
X57140760Y-132158498D01*
X57043740Y-132214513D01*
X57043734Y-132214517D01*
X56964517Y-132293734D01*
X56964513Y-132293740D01*
X56908498Y-132390760D01*
X56908497Y-132390763D01*
X56879500Y-132498982D01*
X51900500Y-132498982D01*
X51900500Y-130735943D01*
X55851500Y-130735943D01*
X55851500Y-130894057D01*
X55892289Y-131046282D01*
X55892423Y-131046783D01*
X55892426Y-131046790D01*
X55971475Y-131183709D01*
X55971479Y-131183714D01*
X55971480Y-131183716D01*
X56083284Y-131295520D01*
X56083286Y-131295521D01*
X56083290Y-131295524D01*
X56220209Y-131374573D01*
X56220216Y-131374577D01*
X56372943Y-131415500D01*
X56372945Y-131415500D01*
X56531055Y-131415500D01*
X56531057Y-131415500D01*
X56683784Y-131374577D01*
X56750701Y-131335943D01*
X65301500Y-131335943D01*
X65301500Y-131494056D01*
X65342423Y-131646783D01*
X65342426Y-131646790D01*
X65421475Y-131783709D01*
X65421479Y-131783714D01*
X65421480Y-131783716D01*
X65533284Y-131895520D01*
X65533286Y-131895521D01*
X65533290Y-131895524D01*
X65613960Y-131942098D01*
X65670216Y-131974577D01*
X65822943Y-132015500D01*
X65822945Y-132015500D01*
X65981055Y-132015500D01*
X65981057Y-132015500D01*
X66133784Y-131974577D01*
X66270716Y-131895520D01*
X66382520Y-131783716D01*
X66461577Y-131646784D01*
X66502500Y-131494057D01*
X66502500Y-131335943D01*
X66461577Y-131183216D01*
X66461573Y-131183209D01*
X66382524Y-131046290D01*
X66382518Y-131046282D01*
X66270717Y-130934481D01*
X66270709Y-130934475D01*
X66133790Y-130855426D01*
X66133786Y-130855424D01*
X66133784Y-130855423D01*
X65981057Y-130814500D01*
X65822943Y-130814500D01*
X65670216Y-130855423D01*
X65670209Y-130855426D01*
X65533290Y-130934475D01*
X65533282Y-130934481D01*
X65421481Y-131046282D01*
X65421475Y-131046290D01*
X65342426Y-131183209D01*
X65342423Y-131183216D01*
X65301500Y-131335943D01*
X56750701Y-131335943D01*
X56820716Y-131295520D01*
X56932520Y-131183716D01*
X57011577Y-131046784D01*
X57052500Y-130894057D01*
X57052500Y-130735943D01*
X57011577Y-130583216D01*
X57010023Y-130580524D01*
X56932524Y-130446290D01*
X56932518Y-130446282D01*
X56820717Y-130334481D01*
X56820709Y-130334475D01*
X56683790Y-130255426D01*
X56683786Y-130255424D01*
X56683784Y-130255423D01*
X56531057Y-130214500D01*
X56372943Y-130214500D01*
X56220216Y-130255423D01*
X56220209Y-130255426D01*
X56083290Y-130334475D01*
X56083282Y-130334481D01*
X55971481Y-130446282D01*
X55971475Y-130446290D01*
X55892426Y-130583209D01*
X55892423Y-130583216D01*
X55851500Y-130735943D01*
X51900500Y-130735943D01*
X51900500Y-129535943D01*
X54401500Y-129535943D01*
X54401500Y-129694057D01*
X54411475Y-129731282D01*
X54442423Y-129846783D01*
X54442426Y-129846790D01*
X54521475Y-129983709D01*
X54521479Y-129983714D01*
X54521480Y-129983716D01*
X54633284Y-130095520D01*
X54633286Y-130095521D01*
X54633290Y-130095524D01*
X54770209Y-130174573D01*
X54770216Y-130174577D01*
X54922943Y-130215500D01*
X54922945Y-130215500D01*
X55081055Y-130215500D01*
X55081057Y-130215500D01*
X55233784Y-130174577D01*
X55370716Y-130095520D01*
X55482520Y-129983716D01*
X55486108Y-129977500D01*
X55536675Y-129929285D01*
X55593496Y-129915500D01*
X60662365Y-129915500D01*
X60729404Y-129935185D01*
X60775159Y-129987989D01*
X60785103Y-130057147D01*
X60782140Y-130071591D01*
X60751500Y-130185943D01*
X60751500Y-130344057D01*
X60784903Y-130468717D01*
X60792423Y-130496783D01*
X60792426Y-130496790D01*
X60871475Y-130633709D01*
X60871479Y-130633714D01*
X60871480Y-130633716D01*
X60983284Y-130745520D01*
X60983286Y-130745521D01*
X60983290Y-130745524D01*
X61102762Y-130814500D01*
X61120216Y-130824577D01*
X61272943Y-130865500D01*
X61272945Y-130865500D01*
X61431055Y-130865500D01*
X61431057Y-130865500D01*
X61583784Y-130824577D01*
X61720716Y-130745520D01*
X61832520Y-130633716D01*
X61911577Y-130496784D01*
X61952500Y-130344057D01*
X61952500Y-130185943D01*
X61911577Y-130033216D01*
X61904491Y-130020943D01*
X61832524Y-129896290D01*
X61832518Y-129896282D01*
X61714969Y-129778733D01*
X61717155Y-129776546D01*
X61684590Y-129731948D01*
X61680435Y-129662202D01*
X61714647Y-129601282D01*
X61716946Y-129599289D01*
X61720713Y-129595521D01*
X61720716Y-129595520D01*
X61832520Y-129483716D01*
X61911577Y-129346784D01*
X61952500Y-129194057D01*
X61952500Y-129035943D01*
X61911577Y-128883216D01*
X61890543Y-128846783D01*
X61832524Y-128746290D01*
X61832518Y-128746282D01*
X61763917Y-128677681D01*
X61761507Y-128673268D01*
X61757298Y-128670520D01*
X61744929Y-128642907D01*
X61730432Y-128616358D01*
X61730790Y-128611343D01*
X61728735Y-128606755D01*
X61733257Y-128576842D01*
X61735416Y-128546666D01*
X61738634Y-128541286D01*
X61739181Y-128537670D01*
X61750331Y-128521734D01*
X61758477Y-128508119D01*
X61761099Y-128505136D01*
X61780292Y-128485943D01*
X66901500Y-128485943D01*
X66901500Y-128644057D01*
X66914898Y-128694057D01*
X66942423Y-128796783D01*
X66942426Y-128796790D01*
X67021475Y-128933709D01*
X67021481Y-128933717D01*
X67090083Y-129002319D01*
X67123568Y-129063642D01*
X67118584Y-129133334D01*
X67090083Y-129177681D01*
X67021481Y-129246282D01*
X67021475Y-129246290D01*
X66942426Y-129383209D01*
X66942423Y-129383216D01*
X66901500Y-129535943D01*
X66901500Y-129694057D01*
X66911475Y-129731282D01*
X66942423Y-129846783D01*
X66942426Y-129846790D01*
X67021475Y-129983709D01*
X67021479Y-129983714D01*
X67021480Y-129983716D01*
X67133284Y-130095520D01*
X67133286Y-130095521D01*
X67133290Y-130095524D01*
X67270209Y-130174573D01*
X67270216Y-130174577D01*
X67422943Y-130215500D01*
X67422945Y-130215500D01*
X67581055Y-130215500D01*
X67581057Y-130215500D01*
X67733784Y-130174577D01*
X67870716Y-130095520D01*
X67945293Y-130020943D01*
X79849500Y-130020943D01*
X79849500Y-130179056D01*
X79890423Y-130331783D01*
X79890426Y-130331790D01*
X79969475Y-130468709D01*
X79969479Y-130468714D01*
X79969480Y-130468716D01*
X80081284Y-130580520D01*
X80081286Y-130580521D01*
X80081290Y-130580524D01*
X80218209Y-130659573D01*
X80218216Y-130659577D01*
X80370943Y-130700500D01*
X80370945Y-130700500D01*
X80529055Y-130700500D01*
X80529057Y-130700500D01*
X80681784Y-130659577D01*
X80818716Y-130580520D01*
X80930520Y-130468716D01*
X81009577Y-130331784D01*
X81050500Y-130179057D01*
X81050500Y-130020943D01*
X81009577Y-129868216D01*
X80997203Y-129846783D01*
X80930524Y-129731290D01*
X80930518Y-129731282D01*
X80818717Y-129619481D01*
X80818709Y-129619475D01*
X80681790Y-129540426D01*
X80681786Y-129540424D01*
X80681784Y-129540423D01*
X80529057Y-129499500D01*
X80370943Y-129499500D01*
X80218216Y-129540423D01*
X80218209Y-129540426D01*
X80081290Y-129619475D01*
X80081282Y-129619481D01*
X79969481Y-129731282D01*
X79969475Y-129731290D01*
X79890426Y-129868209D01*
X79890423Y-129868216D01*
X79849500Y-130020943D01*
X67945293Y-130020943D01*
X67982520Y-129983716D01*
X68013946Y-129929285D01*
X68032998Y-129896284D01*
X68061577Y-129846784D01*
X68102500Y-129694057D01*
X68102500Y-129535943D01*
X68061577Y-129383216D01*
X68021904Y-129314500D01*
X67982524Y-129246290D01*
X67982518Y-129246282D01*
X67913917Y-129177681D01*
X67880432Y-129116358D01*
X67885416Y-129046666D01*
X67913917Y-129002319D01*
X67932527Y-128983709D01*
X67982520Y-128933716D01*
X68061577Y-128796784D01*
X68102500Y-128644057D01*
X68102500Y-128485943D01*
X68061577Y-128333216D01*
X68011391Y-128246290D01*
X67982524Y-128196290D01*
X67982518Y-128196282D01*
X67870717Y-128084481D01*
X67870709Y-128084475D01*
X67733790Y-128005426D01*
X67733786Y-128005424D01*
X67733784Y-128005423D01*
X67581057Y-127964500D01*
X67422943Y-127964500D01*
X67270216Y-128005423D01*
X67270209Y-128005426D01*
X67133290Y-128084475D01*
X67133282Y-128084481D01*
X67021481Y-128196282D01*
X67021475Y-128196290D01*
X66942426Y-128333209D01*
X66942423Y-128333216D01*
X66901500Y-128485943D01*
X61780292Y-128485943D01*
X61832520Y-128433716D01*
X61911577Y-128296784D01*
X61952500Y-128144057D01*
X61952500Y-127985943D01*
X61911577Y-127833216D01*
X61911573Y-127833209D01*
X61832524Y-127696290D01*
X61832518Y-127696282D01*
X61720717Y-127584481D01*
X61720709Y-127584475D01*
X61583790Y-127505426D01*
X61583786Y-127505424D01*
X61583784Y-127505423D01*
X61431057Y-127464500D01*
X61272943Y-127464500D01*
X61120216Y-127505423D01*
X61120209Y-127505426D01*
X60983290Y-127584475D01*
X60983282Y-127584481D01*
X60871481Y-127696282D01*
X60871475Y-127696290D01*
X60792426Y-127833209D01*
X60792423Y-127833216D01*
X60751500Y-127985943D01*
X60751500Y-128144056D01*
X60792423Y-128296783D01*
X60792426Y-128296790D01*
X60871475Y-128433709D01*
X60871481Y-128433717D01*
X60940083Y-128502319D01*
X60973568Y-128563642D01*
X60968584Y-128633334D01*
X60940083Y-128677681D01*
X60871481Y-128746282D01*
X60871475Y-128746290D01*
X60792426Y-128883209D01*
X60792423Y-128883216D01*
X60751500Y-129035943D01*
X60751500Y-129190500D01*
X60731815Y-129257539D01*
X60679011Y-129303294D01*
X60627500Y-129314500D01*
X56900628Y-129314500D01*
X56833589Y-129294815D01*
X56787834Y-129242011D01*
X56777890Y-129172853D01*
X56806915Y-129109297D01*
X56815195Y-129101493D01*
X56814969Y-129101267D01*
X56870716Y-129045520D01*
X56932520Y-128983716D01*
X57011577Y-128846784D01*
X57052500Y-128694057D01*
X57052500Y-128535943D01*
X57011577Y-128383216D01*
X56982706Y-128333209D01*
X56932524Y-128246290D01*
X56932518Y-128246282D01*
X56820717Y-128134481D01*
X56820709Y-128134475D01*
X56683790Y-128055426D01*
X56683786Y-128055424D01*
X56683784Y-128055423D01*
X56531057Y-128014500D01*
X56372943Y-128014500D01*
X56220216Y-128055423D01*
X56220209Y-128055426D01*
X56083290Y-128134475D01*
X56083282Y-128134481D01*
X55971481Y-128246282D01*
X55971475Y-128246290D01*
X55892426Y-128383209D01*
X55892423Y-128383216D01*
X55851500Y-128535943D01*
X55851500Y-128694057D01*
X55879026Y-128796783D01*
X55892423Y-128846783D01*
X55892426Y-128846790D01*
X55971475Y-128983709D01*
X55971481Y-128983717D01*
X56089031Y-129101267D01*
X56087012Y-129103285D01*
X56120067Y-129148569D01*
X56124212Y-129218316D01*
X56089991Y-129279231D01*
X56028269Y-129311975D01*
X56003372Y-129314500D01*
X55593496Y-129314500D01*
X55526457Y-129294815D01*
X55486108Y-129252499D01*
X55482520Y-129246284D01*
X55370717Y-129134481D01*
X55370709Y-129134475D01*
X55233790Y-129055426D01*
X55233786Y-129055424D01*
X55233784Y-129055423D01*
X55081057Y-129014500D01*
X54922943Y-129014500D01*
X54770216Y-129055423D01*
X54770209Y-129055426D01*
X54633290Y-129134475D01*
X54633282Y-129134481D01*
X54521481Y-129246282D01*
X54521475Y-129246290D01*
X54442426Y-129383209D01*
X54442423Y-129383216D01*
X54401500Y-129535943D01*
X51900500Y-129535943D01*
X51900500Y-126718982D01*
X56879500Y-126718982D01*
X56879500Y-126831018D01*
X56908497Y-126939237D01*
X56964515Y-127036263D01*
X57043737Y-127115485D01*
X57140763Y-127171503D01*
X57248982Y-127200500D01*
X57248984Y-127200500D01*
X57361016Y-127200500D01*
X57361018Y-127200500D01*
X57469237Y-127171503D01*
X57566263Y-127115485D01*
X57645485Y-127036263D01*
X57701503Y-126939237D01*
X57730500Y-126831018D01*
X57730500Y-126718982D01*
X57701503Y-126610763D01*
X57645485Y-126513737D01*
X57567691Y-126435943D01*
X60601500Y-126435943D01*
X60601500Y-126594057D01*
X60634974Y-126718982D01*
X60642423Y-126746783D01*
X60642426Y-126746790D01*
X60721475Y-126883709D01*
X60721479Y-126883714D01*
X60721480Y-126883716D01*
X60833284Y-126995520D01*
X60833286Y-126995521D01*
X60833290Y-126995524D01*
X60903857Y-127036265D01*
X60970216Y-127074577D01*
X61122943Y-127115500D01*
X61122945Y-127115500D01*
X61281055Y-127115500D01*
X61281057Y-127115500D01*
X61433784Y-127074577D01*
X61570716Y-126995520D01*
X61682520Y-126883716D01*
X61761577Y-126746784D01*
X61802500Y-126594057D01*
X61802500Y-126435943D01*
X61761577Y-126283216D01*
X61761575Y-126283212D01*
X61761574Y-126283209D01*
X61738075Y-126242508D01*
X103030408Y-126242508D01*
X103030408Y-126400621D01*
X103071331Y-126553348D01*
X103071334Y-126553355D01*
X103150383Y-126690274D01*
X103150387Y-126690279D01*
X103150388Y-126690281D01*
X103262192Y-126802085D01*
X103262194Y-126802086D01*
X103262198Y-126802089D01*
X103399117Y-126881138D01*
X103399124Y-126881142D01*
X103551851Y-126922065D01*
X103551853Y-126922065D01*
X103709963Y-126922065D01*
X103709965Y-126922065D01*
X103862692Y-126881142D01*
X103999624Y-126802085D01*
X104111428Y-126690281D01*
X104190485Y-126553349D01*
X104231408Y-126400622D01*
X104231408Y-126242508D01*
X104190485Y-126089781D01*
X104158557Y-126034480D01*
X104111432Y-125952855D01*
X104111426Y-125952847D01*
X103999625Y-125841046D01*
X103999617Y-125841040D01*
X103862698Y-125761991D01*
X103862694Y-125761989D01*
X103862692Y-125761988D01*
X103709965Y-125721065D01*
X103551851Y-125721065D01*
X103399124Y-125761988D01*
X103399117Y-125761991D01*
X103262198Y-125841040D01*
X103262190Y-125841046D01*
X103150389Y-125952847D01*
X103150383Y-125952855D01*
X103071334Y-126089774D01*
X103071331Y-126089781D01*
X103030408Y-126242508D01*
X61738075Y-126242508D01*
X61682524Y-126146290D01*
X61682518Y-126146282D01*
X61570717Y-126034481D01*
X61570709Y-126034475D01*
X61433790Y-125955426D01*
X61433786Y-125955424D01*
X61433784Y-125955423D01*
X61281057Y-125914500D01*
X61122943Y-125914500D01*
X60970216Y-125955423D01*
X60970209Y-125955426D01*
X60833290Y-126034475D01*
X60833282Y-126034481D01*
X60721481Y-126146282D01*
X60721475Y-126146290D01*
X60642426Y-126283209D01*
X60642423Y-126283216D01*
X60601500Y-126435943D01*
X57567691Y-126435943D01*
X57566263Y-126434515D01*
X57469237Y-126378497D01*
X57361018Y-126349500D01*
X57248982Y-126349500D01*
X57140763Y-126378497D01*
X57140760Y-126378498D01*
X57043740Y-126434513D01*
X57043734Y-126434517D01*
X56964517Y-126513734D01*
X56964513Y-126513740D01*
X56908498Y-126610760D01*
X56908497Y-126610763D01*
X56879500Y-126718982D01*
X51900500Y-126718982D01*
X51900500Y-119520943D01*
X89399500Y-119520943D01*
X89399500Y-119679056D01*
X89440423Y-119831783D01*
X89440426Y-119831790D01*
X89519475Y-119968709D01*
X89519479Y-119968714D01*
X89519480Y-119968716D01*
X89631284Y-120080520D01*
X89631286Y-120080521D01*
X89631290Y-120080524D01*
X89768209Y-120159573D01*
X89768216Y-120159577D01*
X89920943Y-120200500D01*
X89920945Y-120200500D01*
X90079055Y-120200500D01*
X90079057Y-120200500D01*
X90231784Y-120159577D01*
X90368716Y-120080520D01*
X90480520Y-119968716D01*
X90508102Y-119920943D01*
X127449500Y-119920943D01*
X127449500Y-120079057D01*
X127482041Y-120200500D01*
X127490423Y-120231783D01*
X127490426Y-120231790D01*
X127569475Y-120368709D01*
X127569479Y-120368714D01*
X127569480Y-120368716D01*
X127681284Y-120480520D01*
X127681286Y-120480521D01*
X127681290Y-120480524D01*
X127818209Y-120559573D01*
X127818216Y-120559577D01*
X127970943Y-120600500D01*
X127970945Y-120600500D01*
X128129055Y-120600500D01*
X128129057Y-120600500D01*
X128281784Y-120559577D01*
X128418716Y-120480520D01*
X128530520Y-120368716D01*
X128609577Y-120231784D01*
X128650500Y-120079057D01*
X128650500Y-119920943D01*
X128609577Y-119768216D01*
X128558101Y-119679056D01*
X128530524Y-119631290D01*
X128530518Y-119631282D01*
X128418717Y-119519481D01*
X128418709Y-119519475D01*
X128281790Y-119440426D01*
X128281786Y-119440424D01*
X128281784Y-119440423D01*
X128129057Y-119399500D01*
X127970943Y-119399500D01*
X127818216Y-119440423D01*
X127818209Y-119440426D01*
X127681290Y-119519475D01*
X127681282Y-119519481D01*
X127569481Y-119631282D01*
X127569475Y-119631290D01*
X127490426Y-119768209D01*
X127490423Y-119768216D01*
X127449500Y-119920943D01*
X90508102Y-119920943D01*
X90559577Y-119831784D01*
X90600500Y-119679057D01*
X90600500Y-119520943D01*
X90559577Y-119368216D01*
X90514708Y-119290500D01*
X90480524Y-119231290D01*
X90480518Y-119231282D01*
X90368717Y-119119481D01*
X90368709Y-119119475D01*
X90231790Y-119040426D01*
X90231786Y-119040424D01*
X90231784Y-119040423D01*
X90079057Y-118999500D01*
X89920943Y-118999500D01*
X89768216Y-119040423D01*
X89768209Y-119040426D01*
X89631290Y-119119475D01*
X89631282Y-119119481D01*
X89519481Y-119231282D01*
X89519475Y-119231290D01*
X89440426Y-119368209D01*
X89440423Y-119368216D01*
X89399500Y-119520943D01*
X51900500Y-119520943D01*
X51900500Y-117425258D01*
X54609500Y-117425258D01*
X54609500Y-117654741D01*
X54634446Y-117844215D01*
X54639452Y-117882238D01*
X54639453Y-117882240D01*
X54698842Y-118103887D01*
X54786650Y-118315876D01*
X54786657Y-118315890D01*
X54901392Y-118514617D01*
X55041081Y-118696661D01*
X55041089Y-118696670D01*
X55203330Y-118858911D01*
X55203338Y-118858918D01*
X55385382Y-118998607D01*
X55385385Y-118998608D01*
X55385388Y-118998611D01*
X55584112Y-119113344D01*
X55584117Y-119113346D01*
X55584123Y-119113349D01*
X55675480Y-119151190D01*
X55796113Y-119201158D01*
X56017762Y-119260548D01*
X56245266Y-119290500D01*
X56245273Y-119290500D01*
X56474727Y-119290500D01*
X56474734Y-119290500D01*
X56702238Y-119260548D01*
X56923887Y-119201158D01*
X57135888Y-119113344D01*
X57334612Y-118998611D01*
X57516661Y-118858919D01*
X57516665Y-118858914D01*
X57516670Y-118858911D01*
X57678911Y-118696670D01*
X57678914Y-118696665D01*
X57678919Y-118696661D01*
X57818611Y-118514612D01*
X57933344Y-118315888D01*
X58021158Y-118103887D01*
X58080548Y-117882238D01*
X58110500Y-117654734D01*
X58110500Y-117425266D01*
X58080548Y-117197762D01*
X58021158Y-116976113D01*
X57971190Y-116855480D01*
X57933349Y-116764123D01*
X57933346Y-116764117D01*
X57933344Y-116764112D01*
X57818611Y-116565388D01*
X57818608Y-116565385D01*
X57818607Y-116565382D01*
X57682730Y-116388306D01*
X57678919Y-116383339D01*
X57678915Y-116383335D01*
X57678912Y-116383331D01*
X57616524Y-116320943D01*
X94099500Y-116320943D01*
X94099500Y-116479057D01*
X94122633Y-116565388D01*
X94140423Y-116631783D01*
X94140426Y-116631790D01*
X94219475Y-116768709D01*
X94219479Y-116768714D01*
X94219480Y-116768716D01*
X94331284Y-116880520D01*
X94331286Y-116880521D01*
X94331290Y-116880524D01*
X94468209Y-116959573D01*
X94468216Y-116959577D01*
X94620943Y-117000500D01*
X94620945Y-117000500D01*
X94779055Y-117000500D01*
X94779057Y-117000500D01*
X94931784Y-116959577D01*
X95068716Y-116880520D01*
X95180520Y-116768716D01*
X95259577Y-116631784D01*
X95300500Y-116479057D01*
X95300500Y-116320943D01*
X95259577Y-116168216D01*
X95209448Y-116081389D01*
X95180524Y-116031290D01*
X95180518Y-116031282D01*
X95068717Y-115919481D01*
X95068709Y-115919475D01*
X94931790Y-115840426D01*
X94931786Y-115840424D01*
X94931784Y-115840423D01*
X94779057Y-115799500D01*
X94620943Y-115799500D01*
X94468216Y-115840423D01*
X94468209Y-115840426D01*
X94331290Y-115919475D01*
X94331282Y-115919481D01*
X94219481Y-116031282D01*
X94219475Y-116031290D01*
X94140426Y-116168209D01*
X94140423Y-116168216D01*
X94099500Y-116320943D01*
X57616524Y-116320943D01*
X57516670Y-116221089D01*
X57516661Y-116221081D01*
X57334617Y-116081392D01*
X57135890Y-115966657D01*
X57135876Y-115966650D01*
X56923887Y-115878842D01*
X56702238Y-115819452D01*
X56664215Y-115814446D01*
X56474741Y-115789500D01*
X56474734Y-115789500D01*
X56245266Y-115789500D01*
X56245258Y-115789500D01*
X56028715Y-115818009D01*
X56017762Y-115819452D01*
X55939496Y-115840423D01*
X55796112Y-115878842D01*
X55584123Y-115966650D01*
X55584109Y-115966657D01*
X55385382Y-116081392D01*
X55203338Y-116221081D01*
X55041081Y-116383338D01*
X54901392Y-116565382D01*
X54786657Y-116764109D01*
X54786650Y-116764123D01*
X54698842Y-116976112D01*
X54639453Y-117197759D01*
X54639451Y-117197770D01*
X54609500Y-117425258D01*
X51900500Y-117425258D01*
X51900500Y-113720943D01*
X103699500Y-113720943D01*
X103699500Y-113879056D01*
X103740423Y-114031783D01*
X103740426Y-114031790D01*
X103819475Y-114168709D01*
X103819481Y-114168717D01*
X103913083Y-114262319D01*
X103946568Y-114323642D01*
X103941584Y-114393334D01*
X103913083Y-114437681D01*
X103819481Y-114531282D01*
X103819475Y-114531290D01*
X103740426Y-114668209D01*
X103740423Y-114668216D01*
X103699500Y-114820943D01*
X103699500Y-114979056D01*
X103740423Y-115131783D01*
X103740426Y-115131790D01*
X103819475Y-115268709D01*
X103819479Y-115268714D01*
X103819480Y-115268716D01*
X103931284Y-115380520D01*
X103931286Y-115380521D01*
X103931290Y-115380524D01*
X104068209Y-115459573D01*
X104068216Y-115459577D01*
X104220943Y-115500500D01*
X104220945Y-115500500D01*
X104379055Y-115500500D01*
X104379057Y-115500500D01*
X104531784Y-115459577D01*
X104668716Y-115380520D01*
X104780520Y-115268716D01*
X104859577Y-115131784D01*
X104900500Y-114979057D01*
X104900500Y-114820943D01*
X104859577Y-114668216D01*
X104859573Y-114668209D01*
X104780524Y-114531290D01*
X104780518Y-114531282D01*
X104686917Y-114437681D01*
X104653432Y-114376358D01*
X104658416Y-114306666D01*
X104686917Y-114262319D01*
X104780520Y-114168716D01*
X104859577Y-114031784D01*
X104900500Y-113879057D01*
X104900500Y-113720943D01*
X107949500Y-113720943D01*
X107949500Y-113879056D01*
X107990423Y-114031783D01*
X107990426Y-114031790D01*
X108069475Y-114168709D01*
X108069479Y-114168714D01*
X108069480Y-114168716D01*
X108181284Y-114280520D01*
X108181286Y-114280521D01*
X108181290Y-114280524D01*
X108255974Y-114323642D01*
X108318216Y-114359577D01*
X108470943Y-114400500D01*
X108470945Y-114400500D01*
X108629055Y-114400500D01*
X108629057Y-114400500D01*
X108781784Y-114359577D01*
X108918716Y-114280520D01*
X109030520Y-114168716D01*
X109109577Y-114031784D01*
X109150500Y-113879057D01*
X109150500Y-113720943D01*
X109109577Y-113568216D01*
X109109573Y-113568209D01*
X109030524Y-113431290D01*
X109030518Y-113431282D01*
X108918717Y-113319481D01*
X108918709Y-113319475D01*
X108781790Y-113240426D01*
X108781786Y-113240424D01*
X108781784Y-113240423D01*
X108629057Y-113199500D01*
X108470943Y-113199500D01*
X108318216Y-113240423D01*
X108318209Y-113240426D01*
X108181290Y-113319475D01*
X108181282Y-113319481D01*
X108069481Y-113431282D01*
X108069475Y-113431290D01*
X107990426Y-113568209D01*
X107990423Y-113568216D01*
X107949500Y-113720943D01*
X104900500Y-113720943D01*
X104859577Y-113568216D01*
X104859573Y-113568209D01*
X104780524Y-113431290D01*
X104780518Y-113431282D01*
X104668717Y-113319481D01*
X104668709Y-113319475D01*
X104531790Y-113240426D01*
X104531786Y-113240424D01*
X104531784Y-113240423D01*
X104379057Y-113199500D01*
X104220943Y-113199500D01*
X104068216Y-113240423D01*
X104068209Y-113240426D01*
X103931290Y-113319475D01*
X103931282Y-113319481D01*
X103819481Y-113431282D01*
X103819475Y-113431290D01*
X103740426Y-113568209D01*
X103740423Y-113568216D01*
X103699500Y-113720943D01*
X51900500Y-113720943D01*
X51900500Y-110870943D01*
X87949497Y-110870943D01*
X87949497Y-111029056D01*
X87990420Y-111181783D01*
X87990423Y-111181790D01*
X88069472Y-111318709D01*
X88069476Y-111318714D01*
X88069477Y-111318716D01*
X88181281Y-111430520D01*
X88181283Y-111430521D01*
X88181287Y-111430524D01*
X88318206Y-111509573D01*
X88318213Y-111509577D01*
X88470940Y-111550500D01*
X88470942Y-111550500D01*
X88629052Y-111550500D01*
X88629054Y-111550500D01*
X88781781Y-111509577D01*
X88918713Y-111430520D01*
X89030517Y-111318716D01*
X89109574Y-111181784D01*
X89150497Y-111029057D01*
X89150497Y-110870943D01*
X89109574Y-110718216D01*
X89109570Y-110718209D01*
X89030521Y-110581290D01*
X89030515Y-110581282D01*
X88918714Y-110469481D01*
X88918706Y-110469475D01*
X88834645Y-110420943D01*
X90099500Y-110420943D01*
X90099500Y-110579057D01*
X90136788Y-110718216D01*
X90140423Y-110731783D01*
X90140426Y-110731790D01*
X90219475Y-110868709D01*
X90219479Y-110868714D01*
X90219480Y-110868716D01*
X90331284Y-110980520D01*
X90331286Y-110980521D01*
X90331290Y-110980524D01*
X90415353Y-111029057D01*
X90468216Y-111059577D01*
X90620943Y-111100500D01*
X90620945Y-111100500D01*
X90779055Y-111100500D01*
X90779057Y-111100500D01*
X90931784Y-111059577D01*
X91068716Y-110980520D01*
X91180520Y-110868716D01*
X91259577Y-110731784D01*
X91300500Y-110579057D01*
X91300500Y-110566429D01*
X91320185Y-110499390D01*
X91372989Y-110453635D01*
X91442147Y-110443691D01*
X91456584Y-110446652D01*
X91470943Y-110450500D01*
X91470945Y-110450500D01*
X91629055Y-110450500D01*
X91629057Y-110450500D01*
X91781784Y-110409577D01*
X91918716Y-110330520D01*
X92030520Y-110218716D01*
X92109577Y-110081784D01*
X92150500Y-109929057D01*
X92150500Y-109770943D01*
X92109577Y-109618216D01*
X92109573Y-109618209D01*
X92030524Y-109481290D01*
X92030518Y-109481282D01*
X91918717Y-109369481D01*
X91918709Y-109369475D01*
X91781790Y-109290426D01*
X91781786Y-109290424D01*
X91781784Y-109290423D01*
X91629057Y-109249500D01*
X91470943Y-109249500D01*
X91318216Y-109290423D01*
X91318209Y-109290426D01*
X91181290Y-109369475D01*
X91181282Y-109369481D01*
X91069481Y-109481282D01*
X91069475Y-109481290D01*
X90990426Y-109618209D01*
X90990423Y-109618216D01*
X90949500Y-109770943D01*
X90949500Y-109783570D01*
X90929815Y-109850609D01*
X90877011Y-109896364D01*
X90807853Y-109906308D01*
X90793409Y-109903345D01*
X90779061Y-109899500D01*
X90779057Y-109899500D01*
X90620943Y-109899500D01*
X90468216Y-109940423D01*
X90468209Y-109940426D01*
X90331290Y-110019475D01*
X90331282Y-110019481D01*
X90219481Y-110131282D01*
X90219475Y-110131290D01*
X90140426Y-110268209D01*
X90140423Y-110268216D01*
X90099500Y-110420943D01*
X88834645Y-110420943D01*
X88781787Y-110390426D01*
X88781783Y-110390424D01*
X88781781Y-110390423D01*
X88629054Y-110349500D01*
X88470940Y-110349500D01*
X88318213Y-110390423D01*
X88318206Y-110390426D01*
X88181287Y-110469475D01*
X88181279Y-110469481D01*
X88069478Y-110581282D01*
X88069472Y-110581290D01*
X87990423Y-110718209D01*
X87990420Y-110718216D01*
X87949497Y-110870943D01*
X51900500Y-110870943D01*
X51900500Y-107270943D01*
X89349497Y-107270943D01*
X89349497Y-107429057D01*
X89386919Y-107568716D01*
X89390420Y-107581783D01*
X89390423Y-107581790D01*
X89469472Y-107718709D01*
X89469476Y-107718714D01*
X89469477Y-107718716D01*
X89581281Y-107830520D01*
X89581283Y-107830521D01*
X89581287Y-107830524D01*
X89703849Y-107901284D01*
X89718213Y-107909577D01*
X89870940Y-107950500D01*
X89870942Y-107950500D01*
X90029052Y-107950500D01*
X90029054Y-107950500D01*
X90181781Y-107909577D01*
X90318713Y-107830520D01*
X90430517Y-107718716D01*
X90509574Y-107581784D01*
X90550497Y-107429057D01*
X90550497Y-107270943D01*
X90509574Y-107118216D01*
X90486966Y-107079057D01*
X90430521Y-106981289D01*
X90430515Y-106981282D01*
X90370176Y-106920943D01*
X91649500Y-106920943D01*
X91649500Y-107079057D01*
X91660724Y-107120943D01*
X91690423Y-107231783D01*
X91690426Y-107231790D01*
X91769475Y-107368709D01*
X91769479Y-107368714D01*
X91769480Y-107368716D01*
X91881284Y-107480520D01*
X91881286Y-107480521D01*
X91881290Y-107480524D01*
X92018209Y-107559573D01*
X92018216Y-107559577D01*
X92170943Y-107600500D01*
X92170945Y-107600500D01*
X92329055Y-107600500D01*
X92329057Y-107600500D01*
X92481784Y-107559577D01*
X92618716Y-107480520D01*
X92730520Y-107368716D01*
X92809577Y-107231784D01*
X92839277Y-107120943D01*
X105249500Y-107120943D01*
X105249500Y-107279057D01*
X105289693Y-107429057D01*
X105290423Y-107431783D01*
X105290426Y-107431790D01*
X105369475Y-107568709D01*
X105369479Y-107568714D01*
X105369480Y-107568716D01*
X105481284Y-107680520D01*
X105570278Y-107731900D01*
X105618493Y-107782466D01*
X105631717Y-107851073D01*
X105615667Y-107901284D01*
X105606652Y-107916898D01*
X105606651Y-107916901D01*
X105565728Y-108069628D01*
X105565728Y-108227742D01*
X105592744Y-108328565D01*
X105606651Y-108380468D01*
X105606654Y-108380475D01*
X105685703Y-108517394D01*
X105685707Y-108517399D01*
X105685708Y-108517401D01*
X105797512Y-108629205D01*
X105797514Y-108629206D01*
X105797518Y-108629209D01*
X105934437Y-108708258D01*
X105934444Y-108708262D01*
X106087171Y-108749185D01*
X106087173Y-108749185D01*
X106114934Y-108749185D01*
X106120832Y-108750916D01*
X106126869Y-108749761D01*
X106153962Y-108760645D01*
X106181973Y-108768870D01*
X106185997Y-108773514D01*
X106191702Y-108775806D01*
X106208613Y-108799614D01*
X106227728Y-108821674D01*
X106229508Y-108829031D01*
X106232163Y-108832769D01*
X106236101Y-108856276D01*
X106238801Y-108867433D01*
X106238934Y-108870297D01*
X106238934Y-108967199D01*
X106244377Y-108987513D01*
X106244999Y-109000902D01*
X106239769Y-109022346D01*
X106239244Y-109044411D01*
X106231653Y-109055625D01*
X106228445Y-109068782D01*
X106212453Y-109083993D01*
X106200081Y-109102273D01*
X106185136Y-109109977D01*
X106177820Y-109116937D01*
X106167983Y-109118820D01*
X106153227Y-109126428D01*
X106107567Y-109138662D01*
X106045172Y-109155381D01*
X106045167Y-109155384D01*
X105908248Y-109234433D01*
X105908240Y-109234439D01*
X105796439Y-109346240D01*
X105796433Y-109346248D01*
X105717384Y-109483167D01*
X105717381Y-109483174D01*
X105676458Y-109635901D01*
X105676458Y-109794015D01*
X105712643Y-109929057D01*
X105717381Y-109946741D01*
X105717384Y-109946748D01*
X105796433Y-110083667D01*
X105796437Y-110083672D01*
X105796438Y-110083674D01*
X105908242Y-110195478D01*
X105908244Y-110195479D01*
X105908248Y-110195482D01*
X105948493Y-110218717D01*
X106045174Y-110274535D01*
X106197901Y-110315458D01*
X106197903Y-110315458D01*
X106356013Y-110315458D01*
X106356015Y-110315458D01*
X106508742Y-110274535D01*
X106645674Y-110195478D01*
X106757478Y-110083674D01*
X106836535Y-109946742D01*
X106877458Y-109794015D01*
X106877458Y-109635901D01*
X106875486Y-109628541D01*
X106877145Y-109558694D01*
X106916305Y-109500829D01*
X106963162Y-109476672D01*
X107071218Y-109447719D01*
X107208150Y-109368662D01*
X107319954Y-109256858D01*
X107399011Y-109119926D01*
X107439934Y-108967199D01*
X107439934Y-108809085D01*
X107399011Y-108656358D01*
X107383333Y-108629203D01*
X107319958Y-108519432D01*
X107319952Y-108519424D01*
X107208151Y-108407623D01*
X107208143Y-108407617D01*
X107071224Y-108328568D01*
X107071220Y-108328566D01*
X107071218Y-108328565D01*
X106918491Y-108287642D01*
X106890728Y-108287642D01*
X106823689Y-108267957D01*
X106777934Y-108215153D01*
X106766728Y-108163642D01*
X106766728Y-108069630D01*
X106766728Y-108069628D01*
X106725805Y-107916901D01*
X106675936Y-107830524D01*
X106646752Y-107779975D01*
X106646746Y-107779967D01*
X106534945Y-107668166D01*
X106534937Y-107668160D01*
X106445950Y-107616784D01*
X106397734Y-107566218D01*
X106384510Y-107497611D01*
X106400563Y-107447396D01*
X106409577Y-107431784D01*
X106450500Y-107279057D01*
X106450500Y-107120943D01*
X106409577Y-106968216D01*
X106409573Y-106968209D01*
X106330524Y-106831290D01*
X106330518Y-106831282D01*
X106218717Y-106719481D01*
X106218709Y-106719475D01*
X106081790Y-106640426D01*
X106081786Y-106640424D01*
X106081784Y-106640423D01*
X105929057Y-106599500D01*
X105770943Y-106599500D01*
X105618216Y-106640423D01*
X105618209Y-106640426D01*
X105481290Y-106719475D01*
X105481282Y-106719481D01*
X105369481Y-106831282D01*
X105369475Y-106831290D01*
X105290426Y-106968209D01*
X105290423Y-106968216D01*
X105249500Y-107120943D01*
X92839277Y-107120943D01*
X92850500Y-107079057D01*
X92850500Y-106920943D01*
X92813545Y-106783025D01*
X92815208Y-106713180D01*
X92854370Y-106655317D01*
X92901224Y-106631162D01*
X92981784Y-106609577D01*
X93118716Y-106530520D01*
X93230520Y-106418716D01*
X93309577Y-106281784D01*
X93350500Y-106129057D01*
X93350500Y-105970943D01*
X93309577Y-105818216D01*
X93307496Y-105814612D01*
X93230524Y-105681290D01*
X93230518Y-105681282D01*
X93118717Y-105569481D01*
X93118709Y-105569475D01*
X92981790Y-105490426D01*
X92981786Y-105490424D01*
X92981784Y-105490423D01*
X92829057Y-105449500D01*
X92670943Y-105449500D01*
X92518216Y-105490423D01*
X92518209Y-105490426D01*
X92381290Y-105569475D01*
X92381282Y-105569481D01*
X92269481Y-105681282D01*
X92269475Y-105681290D01*
X92190426Y-105818209D01*
X92190423Y-105818216D01*
X92149500Y-105970943D01*
X92149500Y-106129057D01*
X92186453Y-106266971D01*
X92184791Y-106336819D01*
X92145629Y-106394682D01*
X92098773Y-106418837D01*
X92081819Y-106423380D01*
X92018214Y-106440423D01*
X92018209Y-106440426D01*
X91881290Y-106519475D01*
X91881282Y-106519481D01*
X91769481Y-106631282D01*
X91769475Y-106631290D01*
X91690426Y-106768209D01*
X91690423Y-106768216D01*
X91649500Y-106920943D01*
X90370176Y-106920943D01*
X90318714Y-106869481D01*
X90318706Y-106869475D01*
X90181787Y-106790426D01*
X90181783Y-106790424D01*
X90181781Y-106790423D01*
X90029054Y-106749500D01*
X89870940Y-106749500D01*
X89718213Y-106790423D01*
X89718206Y-106790426D01*
X89581287Y-106869475D01*
X89581279Y-106869481D01*
X89469478Y-106981282D01*
X89469472Y-106981290D01*
X89390423Y-107118209D01*
X89390420Y-107118216D01*
X89349497Y-107270943D01*
X51900500Y-107270943D01*
X51900500Y-104725272D01*
X54609500Y-104725272D01*
X54609500Y-104954741D01*
X54634446Y-105144215D01*
X54639452Y-105182238D01*
X54639453Y-105182240D01*
X54698842Y-105403887D01*
X54786650Y-105615876D01*
X54786657Y-105615890D01*
X54901392Y-105814617D01*
X55041081Y-105996661D01*
X55041089Y-105996670D01*
X55203330Y-106158911D01*
X55203338Y-106158918D01*
X55385382Y-106298607D01*
X55385385Y-106298608D01*
X55385388Y-106298611D01*
X55584112Y-106413344D01*
X55584117Y-106413346D01*
X55584123Y-106413349D01*
X55675480Y-106451190D01*
X55796113Y-106501158D01*
X56017762Y-106560548D01*
X56245266Y-106590500D01*
X56245273Y-106590500D01*
X56474727Y-106590500D01*
X56474734Y-106590500D01*
X56702238Y-106560548D01*
X56923887Y-106501158D01*
X57135888Y-106413344D01*
X57334612Y-106298611D01*
X57516661Y-106158919D01*
X57516665Y-106158914D01*
X57516670Y-106158911D01*
X57678911Y-105996670D01*
X57678914Y-105996665D01*
X57678919Y-105996661D01*
X57818611Y-105814612D01*
X57933344Y-105615888D01*
X58021158Y-105403887D01*
X58080548Y-105182238D01*
X58110500Y-104954734D01*
X58110500Y-104870943D01*
X77149500Y-104870943D01*
X77149500Y-105029056D01*
X77190423Y-105181783D01*
X77190426Y-105181790D01*
X77269475Y-105318709D01*
X77269479Y-105318714D01*
X77269480Y-105318716D01*
X77381284Y-105430520D01*
X77381286Y-105430521D01*
X77381290Y-105430524D01*
X77485040Y-105490423D01*
X77518216Y-105509577D01*
X77670943Y-105550500D01*
X77670945Y-105550500D01*
X77829055Y-105550500D01*
X77829057Y-105550500D01*
X77981784Y-105509577D01*
X78118716Y-105430520D01*
X78230520Y-105318716D01*
X78309577Y-105181784D01*
X78350500Y-105029057D01*
X78350500Y-104870943D01*
X78799500Y-104870943D01*
X78799500Y-105029056D01*
X78840423Y-105181783D01*
X78840426Y-105181790D01*
X78919475Y-105318709D01*
X78919479Y-105318714D01*
X78919480Y-105318716D01*
X79031284Y-105430520D01*
X79031286Y-105430521D01*
X79031290Y-105430524D01*
X79135040Y-105490423D01*
X79168216Y-105509577D01*
X79320943Y-105550500D01*
X79320945Y-105550500D01*
X79479055Y-105550500D01*
X79479057Y-105550500D01*
X79631784Y-105509577D01*
X79768716Y-105430520D01*
X79880520Y-105318716D01*
X79959577Y-105181784D01*
X80000500Y-105029057D01*
X80000500Y-104870943D01*
X80349500Y-104870943D01*
X80349500Y-105029056D01*
X80390423Y-105181783D01*
X80390426Y-105181790D01*
X80469475Y-105318709D01*
X80469479Y-105318714D01*
X80469480Y-105318716D01*
X80581284Y-105430520D01*
X80581286Y-105430521D01*
X80581290Y-105430524D01*
X80685040Y-105490423D01*
X80718216Y-105509577D01*
X80870943Y-105550500D01*
X80870945Y-105550500D01*
X81029055Y-105550500D01*
X81029057Y-105550500D01*
X81181784Y-105509577D01*
X81318716Y-105430520D01*
X81430520Y-105318716D01*
X81509577Y-105181784D01*
X81550500Y-105029057D01*
X81550500Y-104870943D01*
X81999500Y-104870943D01*
X81999500Y-105029056D01*
X82040423Y-105181783D01*
X82040426Y-105181790D01*
X82119475Y-105318709D01*
X82119479Y-105318714D01*
X82119480Y-105318716D01*
X82231284Y-105430520D01*
X82231286Y-105430521D01*
X82231290Y-105430524D01*
X82335040Y-105490423D01*
X82368216Y-105509577D01*
X82520943Y-105550500D01*
X82520945Y-105550500D01*
X82679055Y-105550500D01*
X82679057Y-105550500D01*
X82831784Y-105509577D01*
X82968716Y-105430520D01*
X83080520Y-105318716D01*
X83159577Y-105181784D01*
X83200500Y-105029057D01*
X83200500Y-104870943D01*
X83159577Y-104718216D01*
X83159573Y-104718209D01*
X83080524Y-104581290D01*
X83080518Y-104581282D01*
X82968717Y-104469481D01*
X82968709Y-104469475D01*
X82831790Y-104390426D01*
X82831786Y-104390424D01*
X82831784Y-104390423D01*
X82679057Y-104349500D01*
X82520943Y-104349500D01*
X82368216Y-104390423D01*
X82368209Y-104390426D01*
X82231290Y-104469475D01*
X82231282Y-104469481D01*
X82119481Y-104581282D01*
X82119475Y-104581290D01*
X82040426Y-104718209D01*
X82040423Y-104718216D01*
X81999500Y-104870943D01*
X81550500Y-104870943D01*
X81509577Y-104718216D01*
X81509573Y-104718209D01*
X81430524Y-104581290D01*
X81430518Y-104581282D01*
X81318717Y-104469481D01*
X81318709Y-104469475D01*
X81181790Y-104390426D01*
X81181786Y-104390424D01*
X81181784Y-104390423D01*
X81029057Y-104349500D01*
X80870943Y-104349500D01*
X80718216Y-104390423D01*
X80718209Y-104390426D01*
X80581290Y-104469475D01*
X80581282Y-104469481D01*
X80469481Y-104581282D01*
X80469475Y-104581290D01*
X80390426Y-104718209D01*
X80390423Y-104718216D01*
X80349500Y-104870943D01*
X80000500Y-104870943D01*
X79959577Y-104718216D01*
X79959573Y-104718209D01*
X79880524Y-104581290D01*
X79880518Y-104581282D01*
X79768717Y-104469481D01*
X79768709Y-104469475D01*
X79631790Y-104390426D01*
X79631786Y-104390424D01*
X79631784Y-104390423D01*
X79479057Y-104349500D01*
X79320943Y-104349500D01*
X79168216Y-104390423D01*
X79168209Y-104390426D01*
X79031290Y-104469475D01*
X79031282Y-104469481D01*
X78919481Y-104581282D01*
X78919475Y-104581290D01*
X78840426Y-104718209D01*
X78840423Y-104718216D01*
X78799500Y-104870943D01*
X78350500Y-104870943D01*
X78309577Y-104718216D01*
X78309573Y-104718209D01*
X78230524Y-104581290D01*
X78230518Y-104581282D01*
X78118717Y-104469481D01*
X78118709Y-104469475D01*
X77981790Y-104390426D01*
X77981786Y-104390424D01*
X77981784Y-104390423D01*
X77829057Y-104349500D01*
X77670943Y-104349500D01*
X77518216Y-104390423D01*
X77518209Y-104390426D01*
X77381290Y-104469475D01*
X77381282Y-104469481D01*
X77269481Y-104581282D01*
X77269475Y-104581290D01*
X77190426Y-104718209D01*
X77190423Y-104718216D01*
X77149500Y-104870943D01*
X58110500Y-104870943D01*
X58110500Y-104725266D01*
X58110499Y-104725261D01*
X58110499Y-104725254D01*
X58094074Y-104600499D01*
X58080548Y-104497762D01*
X58021158Y-104276113D01*
X57971190Y-104155480D01*
X57933349Y-104064123D01*
X57933346Y-104064117D01*
X57933344Y-104064112D01*
X57850686Y-103920943D01*
X95099500Y-103920943D01*
X95099500Y-104079056D01*
X95140423Y-104231783D01*
X95140426Y-104231790D01*
X95219475Y-104368709D01*
X95219479Y-104368714D01*
X95219480Y-104368716D01*
X95331284Y-104480520D01*
X95331286Y-104480521D01*
X95331290Y-104480524D01*
X95468209Y-104559573D01*
X95468216Y-104559577D01*
X95620943Y-104600500D01*
X95620945Y-104600500D01*
X95779055Y-104600500D01*
X95779057Y-104600500D01*
X95931784Y-104559577D01*
X96068716Y-104480520D01*
X96180520Y-104368716D01*
X96259577Y-104231784D01*
X96300500Y-104079057D01*
X96300500Y-103920943D01*
X96259577Y-103768216D01*
X96210573Y-103683338D01*
X96180524Y-103631290D01*
X96180518Y-103631282D01*
X96068717Y-103519481D01*
X96068709Y-103519475D01*
X95931790Y-103440426D01*
X95931786Y-103440424D01*
X95931784Y-103440423D01*
X95779057Y-103399500D01*
X95620943Y-103399500D01*
X95468216Y-103440423D01*
X95468209Y-103440426D01*
X95331290Y-103519475D01*
X95331282Y-103519481D01*
X95219481Y-103631282D01*
X95219475Y-103631290D01*
X95140426Y-103768209D01*
X95140423Y-103768216D01*
X95099500Y-103920943D01*
X57850686Y-103920943D01*
X57818611Y-103865388D01*
X57818608Y-103865385D01*
X57818607Y-103865382D01*
X57678918Y-103683338D01*
X57678911Y-103683330D01*
X57516670Y-103521089D01*
X57516661Y-103521081D01*
X57334617Y-103381392D01*
X57135890Y-103266657D01*
X57135876Y-103266650D01*
X56923887Y-103178842D01*
X56702238Y-103119452D01*
X56664215Y-103114446D01*
X56474741Y-103089500D01*
X56474734Y-103089500D01*
X56245266Y-103089500D01*
X56245258Y-103089500D01*
X56028715Y-103118009D01*
X56017762Y-103119452D01*
X55924076Y-103144554D01*
X55796112Y-103178842D01*
X55584123Y-103266650D01*
X55584109Y-103266657D01*
X55385382Y-103381392D01*
X55203338Y-103521081D01*
X55041081Y-103683338D01*
X54901392Y-103865382D01*
X54786657Y-104064109D01*
X54786650Y-104064123D01*
X54717201Y-104231790D01*
X54698842Y-104276113D01*
X54644073Y-104480518D01*
X54639453Y-104497759D01*
X54639451Y-104497770D01*
X54609501Y-104725254D01*
X54609500Y-104725272D01*
X51900500Y-104725272D01*
X51900500Y-101720943D01*
X100549500Y-101720943D01*
X100549500Y-101879056D01*
X100590423Y-102031783D01*
X100590426Y-102031790D01*
X100669475Y-102168709D01*
X100669479Y-102168714D01*
X100669480Y-102168716D01*
X100781284Y-102280520D01*
X100781286Y-102280521D01*
X100781290Y-102280524D01*
X100918209Y-102359573D01*
X100918216Y-102359577D01*
X101070943Y-102400500D01*
X101070945Y-102400500D01*
X101229055Y-102400500D01*
X101229057Y-102400500D01*
X101381784Y-102359577D01*
X101518716Y-102280520D01*
X101630520Y-102168716D01*
X101709577Y-102031784D01*
X101750500Y-101879057D01*
X101750500Y-101720943D01*
X101709577Y-101568216D01*
X101709573Y-101568209D01*
X101630524Y-101431290D01*
X101630518Y-101431282D01*
X101518717Y-101319481D01*
X101518716Y-101319480D01*
X101381784Y-101240423D01*
X101229057Y-101199500D01*
X101070943Y-101199500D01*
X100918216Y-101240423D01*
X100918209Y-101240426D01*
X100781290Y-101319475D01*
X100781282Y-101319481D01*
X100669481Y-101431282D01*
X100669475Y-101431290D01*
X100590426Y-101568209D01*
X100590423Y-101568216D01*
X100549500Y-101720943D01*
X51900500Y-101720943D01*
X51900500Y-101316284D01*
X51920185Y-101249245D01*
X51972989Y-101203490D01*
X52023463Y-101192288D01*
X54579532Y-101170943D01*
X103599500Y-101170943D01*
X103599500Y-101329056D01*
X103640423Y-101481783D01*
X103640426Y-101481790D01*
X103719475Y-101618709D01*
X103719479Y-101618714D01*
X103719480Y-101618716D01*
X103831284Y-101730520D01*
X103831286Y-101730521D01*
X103831290Y-101730524D01*
X103968209Y-101809573D01*
X103968216Y-101809577D01*
X104120943Y-101850500D01*
X104120945Y-101850500D01*
X104279055Y-101850500D01*
X104279057Y-101850500D01*
X104431784Y-101809577D01*
X104568716Y-101730520D01*
X104680520Y-101618716D01*
X104759577Y-101481784D01*
X104800500Y-101329057D01*
X104800500Y-101170943D01*
X104759577Y-101018216D01*
X104749060Y-100999999D01*
X104680524Y-100881290D01*
X104680518Y-100881282D01*
X104568717Y-100769481D01*
X104568709Y-100769475D01*
X104431790Y-100690426D01*
X104431786Y-100690424D01*
X104431784Y-100690423D01*
X104279057Y-100649500D01*
X104120943Y-100649500D01*
X103968216Y-100690423D01*
X103968209Y-100690426D01*
X103831290Y-100769475D01*
X103831282Y-100769481D01*
X103719481Y-100881282D01*
X103719475Y-100881290D01*
X103640426Y-101018209D01*
X103640423Y-101018216D01*
X103599500Y-101170943D01*
X54579532Y-101170943D01*
X75050000Y-101000000D01*
X75050000Y-100999999D01*
X75057014Y-100120943D01*
X108249500Y-100120943D01*
X108249500Y-100279056D01*
X108290423Y-100431783D01*
X108290426Y-100431790D01*
X108369475Y-100568709D01*
X108369479Y-100568714D01*
X108369480Y-100568716D01*
X108481284Y-100680520D01*
X108481286Y-100680521D01*
X108481290Y-100680524D01*
X108618209Y-100759573D01*
X108618216Y-100759577D01*
X108770943Y-100800500D01*
X108770945Y-100800500D01*
X108929055Y-100800500D01*
X108929057Y-100800500D01*
X109081784Y-100759577D01*
X109218716Y-100680520D01*
X109330520Y-100568716D01*
X109409577Y-100431784D01*
X109450500Y-100279057D01*
X109450500Y-100120943D01*
X109409577Y-99968216D01*
X109346855Y-99859577D01*
X109330524Y-99831290D01*
X109330518Y-99831282D01*
X109218717Y-99719481D01*
X109218709Y-99719475D01*
X109081790Y-99640426D01*
X109081786Y-99640424D01*
X109081784Y-99640423D01*
X108929057Y-99599500D01*
X108770943Y-99599500D01*
X108618216Y-99640423D01*
X108618209Y-99640426D01*
X108481290Y-99719475D01*
X108481282Y-99719481D01*
X108369481Y-99831282D01*
X108369475Y-99831290D01*
X108290426Y-99968209D01*
X108290423Y-99968216D01*
X108249500Y-100120943D01*
X75057014Y-100120943D01*
X75057087Y-100111827D01*
X75075764Y-97770943D01*
X83049500Y-97770943D01*
X83049500Y-97929057D01*
X83089693Y-98079057D01*
X83090423Y-98081783D01*
X83090426Y-98081790D01*
X83169475Y-98218709D01*
X83169479Y-98218714D01*
X83169480Y-98218716D01*
X83281284Y-98330520D01*
X83281286Y-98330521D01*
X83281290Y-98330524D01*
X83347442Y-98368716D01*
X83418216Y-98409577D01*
X83570943Y-98450500D01*
X83570945Y-98450500D01*
X83729055Y-98450500D01*
X83729057Y-98450500D01*
X83881784Y-98409577D01*
X84018716Y-98330520D01*
X84130520Y-98218716D01*
X84209577Y-98081784D01*
X84250500Y-97929057D01*
X84250500Y-97770943D01*
X84209577Y-97618216D01*
X84209573Y-97618209D01*
X84130524Y-97481290D01*
X84130518Y-97481282D01*
X84018717Y-97369481D01*
X84018709Y-97369475D01*
X83881790Y-97290426D01*
X83881786Y-97290424D01*
X83881784Y-97290423D01*
X83729057Y-97249500D01*
X83570943Y-97249500D01*
X83418216Y-97290423D01*
X83418209Y-97290426D01*
X83281290Y-97369475D01*
X83281282Y-97369481D01*
X83169481Y-97481282D01*
X83169475Y-97481290D01*
X83090426Y-97618209D01*
X83090423Y-97618216D01*
X83049500Y-97770943D01*
X75075764Y-97770943D01*
X75075837Y-97761827D01*
X75084940Y-96620943D01*
X102449497Y-96620943D01*
X102449497Y-96779056D01*
X102490420Y-96931783D01*
X102490423Y-96931790D01*
X102569472Y-97068709D01*
X102569476Y-97068714D01*
X102569477Y-97068716D01*
X102681281Y-97180520D01*
X102681283Y-97180521D01*
X102681287Y-97180524D01*
X102800759Y-97249500D01*
X102818213Y-97259577D01*
X102970940Y-97300500D01*
X102970942Y-97300500D01*
X103129052Y-97300500D01*
X103129054Y-97300500D01*
X103281781Y-97259577D01*
X103418713Y-97180520D01*
X103462318Y-97136914D01*
X103523639Y-97103430D01*
X103593330Y-97108414D01*
X103637679Y-97136915D01*
X103681284Y-97180520D01*
X103681286Y-97180521D01*
X103681290Y-97180524D01*
X103800762Y-97249500D01*
X103818216Y-97259577D01*
X103970943Y-97300500D01*
X103970945Y-97300500D01*
X104129055Y-97300500D01*
X104129057Y-97300500D01*
X104281784Y-97259577D01*
X104418716Y-97180520D01*
X104530520Y-97068716D01*
X104609577Y-96931784D01*
X104650500Y-96779057D01*
X104650500Y-96620943D01*
X104609577Y-96468216D01*
X104575722Y-96409577D01*
X104530524Y-96331290D01*
X104530518Y-96331282D01*
X104418717Y-96219481D01*
X104418709Y-96219475D01*
X104281790Y-96140426D01*
X104281786Y-96140424D01*
X104281784Y-96140423D01*
X104129057Y-96099500D01*
X103970943Y-96099500D01*
X103818216Y-96140423D01*
X103818209Y-96140426D01*
X103681290Y-96219475D01*
X103681282Y-96219481D01*
X103637678Y-96263085D01*
X103576355Y-96296569D01*
X103506663Y-96291584D01*
X103462317Y-96263084D01*
X103418714Y-96219481D01*
X103418706Y-96219475D01*
X103281787Y-96140426D01*
X103281783Y-96140424D01*
X103281781Y-96140423D01*
X103129054Y-96099500D01*
X102970940Y-96099500D01*
X102818213Y-96140423D01*
X102818206Y-96140426D01*
X102681287Y-96219475D01*
X102681279Y-96219481D01*
X102569478Y-96331282D01*
X102569472Y-96331290D01*
X102490423Y-96468209D01*
X102490420Y-96468216D01*
X102449497Y-96620943D01*
X75084940Y-96620943D01*
X75085013Y-96611827D01*
X75091722Y-95770943D01*
X93749500Y-95770943D01*
X93749500Y-95929056D01*
X93790423Y-96081783D01*
X93790426Y-96081790D01*
X93869475Y-96218709D01*
X93869479Y-96218714D01*
X93869480Y-96218716D01*
X93981284Y-96330520D01*
X93981286Y-96330521D01*
X93981290Y-96330524D01*
X94041052Y-96365027D01*
X94118216Y-96409577D01*
X94270943Y-96450500D01*
X94270945Y-96450500D01*
X94429055Y-96450500D01*
X94429057Y-96450500D01*
X94581784Y-96409577D01*
X94718716Y-96330520D01*
X94830520Y-96218716D01*
X94909577Y-96081784D01*
X94950500Y-95929057D01*
X94950500Y-95770943D01*
X94909577Y-95618216D01*
X94909573Y-95618209D01*
X94830524Y-95481290D01*
X94830518Y-95481282D01*
X94718717Y-95369481D01*
X94718709Y-95369475D01*
X94581790Y-95290426D01*
X94581786Y-95290424D01*
X94581784Y-95290423D01*
X94429057Y-95249500D01*
X94270943Y-95249500D01*
X94118216Y-95290423D01*
X94118209Y-95290426D01*
X93981290Y-95369475D01*
X93981282Y-95369481D01*
X93869481Y-95481282D01*
X93869475Y-95481290D01*
X93790426Y-95618209D01*
X93790423Y-95618216D01*
X93749500Y-95770943D01*
X75091722Y-95770943D01*
X75091795Y-95761827D01*
X75107679Y-93770943D01*
X75849500Y-93770943D01*
X75849500Y-93929056D01*
X75890423Y-94081783D01*
X75890426Y-94081790D01*
X75969475Y-94218709D01*
X75969479Y-94218714D01*
X75969480Y-94218716D01*
X76081284Y-94330520D01*
X76081286Y-94330521D01*
X76081290Y-94330524D01*
X76218209Y-94409573D01*
X76218216Y-94409577D01*
X76370943Y-94450500D01*
X76370945Y-94450500D01*
X76529055Y-94450500D01*
X76529057Y-94450500D01*
X76681784Y-94409577D01*
X76818716Y-94330520D01*
X76930520Y-94218716D01*
X77009577Y-94081784D01*
X77050500Y-93929057D01*
X77050500Y-93770943D01*
X77009577Y-93618216D01*
X77009573Y-93618209D01*
X76930524Y-93481290D01*
X76930518Y-93481282D01*
X76818717Y-93369481D01*
X76818709Y-93369475D01*
X76681790Y-93290426D01*
X76681786Y-93290424D01*
X76681784Y-93290423D01*
X76529057Y-93249500D01*
X76370943Y-93249500D01*
X76218216Y-93290423D01*
X76218209Y-93290426D01*
X76081290Y-93369475D01*
X76081282Y-93369481D01*
X75969481Y-93481282D01*
X75969475Y-93481290D01*
X75890426Y-93618209D01*
X75890423Y-93618216D01*
X75849500Y-93770943D01*
X75107679Y-93770943D01*
X75107752Y-93761827D01*
X75122419Y-91923511D01*
X75142638Y-91856630D01*
X75195805Y-91811298D01*
X75246415Y-91800500D01*
X91208504Y-91800500D01*
X91275543Y-91820185D01*
X91315891Y-91862500D01*
X91319480Y-91868716D01*
X91431284Y-91980520D01*
X91431286Y-91980521D01*
X91431290Y-91980524D01*
X91568209Y-92059573D01*
X91568216Y-92059577D01*
X91720943Y-92100500D01*
X91720945Y-92100500D01*
X91879055Y-92100500D01*
X91879057Y-92100500D01*
X92031784Y-92059577D01*
X92168716Y-91980520D01*
X92280520Y-91868716D01*
X92359577Y-91731784D01*
X92400500Y-91579057D01*
X92400500Y-91420943D01*
X92359577Y-91268216D01*
X92337816Y-91230524D01*
X92280524Y-91131290D01*
X92280518Y-91131282D01*
X92186917Y-91037681D01*
X92153432Y-90976358D01*
X92158416Y-90906666D01*
X92186917Y-90862319D01*
X92220181Y-90829055D01*
X92280520Y-90768716D01*
X92359577Y-90631784D01*
X92400500Y-90479057D01*
X92400500Y-90320943D01*
X92360660Y-90172258D01*
X110322542Y-90172258D01*
X110322542Y-90330372D01*
X110362382Y-90479055D01*
X110363465Y-90483098D01*
X110363468Y-90483105D01*
X110442517Y-90620024D01*
X110442521Y-90620029D01*
X110442522Y-90620031D01*
X110554326Y-90731835D01*
X110643320Y-90783215D01*
X110691535Y-90833781D01*
X110704759Y-90902388D01*
X110688709Y-90952599D01*
X110679694Y-90968213D01*
X110679693Y-90968216D01*
X110638770Y-91120943D01*
X110638770Y-91279056D01*
X110679693Y-91431783D01*
X110679696Y-91431790D01*
X110758745Y-91568709D01*
X110758749Y-91568714D01*
X110758750Y-91568716D01*
X110870554Y-91680520D01*
X110956299Y-91730024D01*
X111004515Y-91780591D01*
X111017739Y-91849198D01*
X111001690Y-91899408D01*
X110990571Y-91918667D01*
X110990571Y-91918668D01*
X110949648Y-92071395D01*
X110949648Y-92229508D01*
X110990571Y-92382235D01*
X110990574Y-92382242D01*
X111069623Y-92519161D01*
X111069629Y-92519169D01*
X111081715Y-92531255D01*
X111115200Y-92592578D01*
X111110216Y-92662270D01*
X111068344Y-92718203D01*
X111056034Y-92726323D01*
X110981287Y-92769477D01*
X110981282Y-92769481D01*
X110869481Y-92881282D01*
X110869475Y-92881290D01*
X110790426Y-93018209D01*
X110790423Y-93018216D01*
X110749500Y-93170943D01*
X110749500Y-93329057D01*
X110790289Y-93481282D01*
X110790423Y-93481783D01*
X110790426Y-93481790D01*
X110869475Y-93618709D01*
X110869479Y-93618714D01*
X110869480Y-93618716D01*
X110981284Y-93730520D01*
X110981286Y-93730521D01*
X110981290Y-93730524D01*
X111118209Y-93809573D01*
X111118216Y-93809577D01*
X111270943Y-93850500D01*
X111270945Y-93850500D01*
X111429055Y-93850500D01*
X111429057Y-93850500D01*
X111581784Y-93809577D01*
X111718716Y-93730520D01*
X111830520Y-93618716D01*
X111909577Y-93481784D01*
X111950500Y-93329057D01*
X111950500Y-93170943D01*
X111909577Y-93018216D01*
X111909573Y-93018209D01*
X111830524Y-92881290D01*
X111830518Y-92881282D01*
X111818432Y-92869196D01*
X111784947Y-92807873D01*
X111789931Y-92738181D01*
X111831803Y-92682248D01*
X111844103Y-92674134D01*
X111918864Y-92630972D01*
X112030668Y-92519168D01*
X112109725Y-92382236D01*
X112150648Y-92229509D01*
X112150648Y-92071395D01*
X112109725Y-91918668D01*
X112080886Y-91868717D01*
X112030672Y-91781742D01*
X112030666Y-91781734D01*
X111918865Y-91669933D01*
X111918860Y-91669929D01*
X111833117Y-91620426D01*
X111784902Y-91569859D01*
X111771678Y-91501252D01*
X111787730Y-91451039D01*
X111798847Y-91431784D01*
X111839770Y-91279057D01*
X111839770Y-91120943D01*
X111798847Y-90968216D01*
X111777047Y-90930457D01*
X111719794Y-90831290D01*
X111719788Y-90831282D01*
X111646658Y-90758152D01*
X111607986Y-90719480D01*
X111523918Y-90670943D01*
X120049500Y-90670943D01*
X120049500Y-90829057D01*
X120086788Y-90968216D01*
X120090423Y-90981783D01*
X120090426Y-90981790D01*
X120169475Y-91118709D01*
X120169479Y-91118714D01*
X120169480Y-91118716D01*
X120281284Y-91230520D01*
X120281286Y-91230521D01*
X120281290Y-91230524D01*
X120365353Y-91279057D01*
X120418216Y-91309577D01*
X120570943Y-91350500D01*
X120570945Y-91350500D01*
X120729055Y-91350500D01*
X120729057Y-91350500D01*
X120881784Y-91309577D01*
X121018716Y-91230520D01*
X121130520Y-91118716D01*
X121209577Y-90981784D01*
X121250500Y-90829057D01*
X121250500Y-90670943D01*
X121209577Y-90518216D01*
X121189304Y-90483101D01*
X121130524Y-90381290D01*
X121130518Y-90381282D01*
X121018717Y-90269481D01*
X121018709Y-90269475D01*
X120881790Y-90190426D01*
X120881786Y-90190424D01*
X120881784Y-90190423D01*
X120729057Y-90149500D01*
X120570943Y-90149500D01*
X120418216Y-90190423D01*
X120418209Y-90190426D01*
X120281290Y-90269475D01*
X120281282Y-90269481D01*
X120169481Y-90381282D01*
X120169475Y-90381290D01*
X120090426Y-90518209D01*
X120090423Y-90518216D01*
X120049500Y-90670943D01*
X111523918Y-90670943D01*
X111514279Y-90665378D01*
X111509826Y-90662258D01*
X111491278Y-90639034D01*
X111470776Y-90617533D01*
X111469716Y-90612037D01*
X111466223Y-90607663D01*
X111463176Y-90578104D01*
X111457552Y-90548926D01*
X111459530Y-90542736D01*
X111459059Y-90538162D01*
X111464311Y-90527783D01*
X111473605Y-90498711D01*
X111482619Y-90483099D01*
X111523542Y-90330372D01*
X111523542Y-90172258D01*
X111482619Y-90019531D01*
X111424855Y-89919480D01*
X111403566Y-89882605D01*
X111403560Y-89882597D01*
X111291759Y-89770796D01*
X111291751Y-89770790D01*
X111154832Y-89691741D01*
X111154828Y-89691739D01*
X111154826Y-89691738D01*
X111002099Y-89650815D01*
X110843985Y-89650815D01*
X110691258Y-89691738D01*
X110691251Y-89691741D01*
X110554332Y-89770790D01*
X110554324Y-89770796D01*
X110442523Y-89882597D01*
X110442517Y-89882605D01*
X110363468Y-90019524D01*
X110363465Y-90019531D01*
X110322542Y-90172258D01*
X92360660Y-90172258D01*
X92359577Y-90168216D01*
X92359573Y-90168209D01*
X92280524Y-90031290D01*
X92280518Y-90031282D01*
X92168717Y-89919481D01*
X92168709Y-89919475D01*
X92031790Y-89840426D01*
X92031786Y-89840424D01*
X92031784Y-89840423D01*
X91879057Y-89799500D01*
X91720943Y-89799500D01*
X91568216Y-89840423D01*
X91568209Y-89840426D01*
X91431290Y-89919475D01*
X91431282Y-89919481D01*
X91387583Y-89963181D01*
X91326260Y-89996666D01*
X91299902Y-89999500D01*
X75262763Y-89999500D01*
X75195724Y-89979815D01*
X75149969Y-89927011D01*
X75138767Y-89874511D01*
X75139039Y-89840423D01*
X75151561Y-88270943D01*
X86999500Y-88270943D01*
X86999500Y-88429056D01*
X87040423Y-88581783D01*
X87040426Y-88581790D01*
X87119475Y-88718709D01*
X87119479Y-88718714D01*
X87119480Y-88718716D01*
X87231284Y-88830520D01*
X87231286Y-88830521D01*
X87231290Y-88830524D01*
X87368209Y-88909573D01*
X87368216Y-88909577D01*
X87520943Y-88950500D01*
X87520945Y-88950500D01*
X87679055Y-88950500D01*
X87679057Y-88950500D01*
X87831784Y-88909577D01*
X87968716Y-88830520D01*
X88080520Y-88718716D01*
X88159577Y-88581784D01*
X88200500Y-88429057D01*
X88200500Y-88270943D01*
X88159577Y-88118216D01*
X88159573Y-88118209D01*
X88080524Y-87981290D01*
X88080518Y-87981282D01*
X87968717Y-87869481D01*
X87968709Y-87869475D01*
X87831790Y-87790426D01*
X87831786Y-87790424D01*
X87831784Y-87790423D01*
X87679057Y-87749500D01*
X87520943Y-87749500D01*
X87368216Y-87790423D01*
X87368209Y-87790426D01*
X87231290Y-87869475D01*
X87231282Y-87869481D01*
X87119481Y-87981282D01*
X87119475Y-87981290D01*
X87040426Y-88118209D01*
X87040423Y-88118216D01*
X86999500Y-88270943D01*
X75151561Y-88270943D01*
X75163034Y-86832943D01*
X91349500Y-86832943D01*
X91349500Y-86991057D01*
X91383707Y-87118717D01*
X91390423Y-87143783D01*
X91390426Y-87143790D01*
X91469475Y-87280709D01*
X91469479Y-87280714D01*
X91469480Y-87280716D01*
X91581284Y-87392520D01*
X91581286Y-87392521D01*
X91581290Y-87392524D01*
X91718209Y-87471573D01*
X91718216Y-87471577D01*
X91870943Y-87512500D01*
X91870945Y-87512500D01*
X92029055Y-87512500D01*
X92029057Y-87512500D01*
X92181784Y-87471577D01*
X92318716Y-87392520D01*
X92430520Y-87280716D01*
X92509577Y-87143784D01*
X92550500Y-86991057D01*
X92550500Y-86832943D01*
X92509577Y-86680216D01*
X92509573Y-86680209D01*
X92430524Y-86543290D01*
X92430518Y-86543282D01*
X92318717Y-86431481D01*
X92318709Y-86431475D01*
X92181790Y-86352426D01*
X92181786Y-86352424D01*
X92181784Y-86352423D01*
X92029057Y-86311500D01*
X91870943Y-86311500D01*
X91718216Y-86352423D01*
X91718209Y-86352426D01*
X91581290Y-86431475D01*
X91581282Y-86431481D01*
X91469481Y-86543282D01*
X91469475Y-86543290D01*
X91390426Y-86680209D01*
X91390423Y-86680216D01*
X91349500Y-86832943D01*
X75163034Y-86832943D01*
X75169513Y-86020943D01*
X110899500Y-86020943D01*
X110899500Y-86179057D01*
X110940086Y-86330524D01*
X110940423Y-86331783D01*
X110940426Y-86331790D01*
X111019475Y-86468709D01*
X111019481Y-86468717D01*
X111088083Y-86537319D01*
X111121568Y-86598642D01*
X111116584Y-86668334D01*
X111088083Y-86712681D01*
X111019481Y-86781282D01*
X111019475Y-86781290D01*
X110940426Y-86918209D01*
X110940423Y-86918216D01*
X110899500Y-87070943D01*
X110899500Y-87229057D01*
X110936922Y-87368716D01*
X110940423Y-87381783D01*
X110940426Y-87381790D01*
X111019475Y-87518709D01*
X111019479Y-87518714D01*
X111019480Y-87518716D01*
X111131284Y-87630520D01*
X111131286Y-87630521D01*
X111131290Y-87630524D01*
X111268209Y-87709573D01*
X111268216Y-87709577D01*
X111420943Y-87750500D01*
X111420945Y-87750500D01*
X111579055Y-87750500D01*
X111579057Y-87750500D01*
X111731784Y-87709577D01*
X111868716Y-87630520D01*
X111980520Y-87518716D01*
X112059577Y-87381784D01*
X112100500Y-87229057D01*
X112100500Y-87070943D01*
X112059577Y-86918216D01*
X112059573Y-86918209D01*
X111980524Y-86781290D01*
X111980518Y-86781282D01*
X111911917Y-86712681D01*
X111878432Y-86651358D01*
X111883416Y-86581666D01*
X111911917Y-86537319D01*
X111931027Y-86518209D01*
X111980520Y-86468716D01*
X112059577Y-86331784D01*
X112100500Y-86179057D01*
X112100500Y-86020943D01*
X112059577Y-85868216D01*
X112003417Y-85770943D01*
X114599500Y-85770943D01*
X114599500Y-85929057D01*
X114624122Y-86020945D01*
X114640423Y-86081783D01*
X114640426Y-86081790D01*
X114719475Y-86218709D01*
X114719479Y-86218714D01*
X114719480Y-86218716D01*
X114831284Y-86330520D01*
X114831286Y-86330521D01*
X114831290Y-86330524D01*
X114919221Y-86381290D01*
X114968216Y-86409577D01*
X115120943Y-86450500D01*
X115120945Y-86450500D01*
X115279054Y-86450500D01*
X115279057Y-86450500D01*
X115340546Y-86434024D01*
X115410393Y-86435687D01*
X115468256Y-86474849D01*
X115495760Y-86539077D01*
X115484174Y-86607980D01*
X115471016Y-86629281D01*
X115469478Y-86631284D01*
X115390426Y-86768209D01*
X115390423Y-86768216D01*
X115349500Y-86920943D01*
X115349500Y-87079057D01*
X115390086Y-87230524D01*
X115390423Y-87231783D01*
X115390426Y-87231790D01*
X115469475Y-87368709D01*
X115469479Y-87368714D01*
X115469480Y-87368716D01*
X115581284Y-87480520D01*
X115581286Y-87480521D01*
X115581290Y-87480524D01*
X115718209Y-87559573D01*
X115718216Y-87559577D01*
X115870943Y-87600500D01*
X115870945Y-87600500D01*
X116029055Y-87600500D01*
X116029057Y-87600500D01*
X116181784Y-87559577D01*
X116318716Y-87480520D01*
X116430520Y-87368716D01*
X116509577Y-87231784D01*
X116550500Y-87079057D01*
X116550500Y-86920943D01*
X116509577Y-86768216D01*
X116453417Y-86670943D01*
X124199500Y-86670943D01*
X124199500Y-86829057D01*
X124224122Y-86920945D01*
X124240423Y-86981783D01*
X124240426Y-86981790D01*
X124319475Y-87118709D01*
X124319479Y-87118714D01*
X124319480Y-87118716D01*
X124431284Y-87230520D01*
X124431286Y-87230521D01*
X124431290Y-87230524D01*
X124568209Y-87309573D01*
X124568216Y-87309577D01*
X124720943Y-87350500D01*
X124720945Y-87350500D01*
X124879055Y-87350500D01*
X124879057Y-87350500D01*
X125031784Y-87309577D01*
X125168716Y-87230520D01*
X125280520Y-87118716D01*
X125359577Y-86981784D01*
X125400500Y-86829057D01*
X125400500Y-86670943D01*
X125359577Y-86518216D01*
X125330999Y-86468717D01*
X125280524Y-86381290D01*
X125280518Y-86381282D01*
X125168717Y-86269481D01*
X125168709Y-86269475D01*
X125031790Y-86190426D01*
X125031786Y-86190424D01*
X125031784Y-86190423D01*
X124879057Y-86149500D01*
X124720943Y-86149500D01*
X124568216Y-86190423D01*
X124568209Y-86190426D01*
X124431290Y-86269475D01*
X124431282Y-86269481D01*
X124319481Y-86381282D01*
X124319475Y-86381290D01*
X124240426Y-86518209D01*
X124240423Y-86518216D01*
X124199500Y-86670943D01*
X116453417Y-86670943D01*
X116430520Y-86631284D01*
X116318716Y-86519480D01*
X116318714Y-86519479D01*
X116318709Y-86519475D01*
X116181790Y-86440426D01*
X116181786Y-86440424D01*
X116181784Y-86440423D01*
X116029057Y-86399500D01*
X115870943Y-86399500D01*
X115870941Y-86399500D01*
X115809454Y-86415975D01*
X115739604Y-86414312D01*
X115681742Y-86375148D01*
X115654239Y-86310919D01*
X115665826Y-86242017D01*
X115678993Y-86220705D01*
X115680515Y-86218720D01*
X115680520Y-86218716D01*
X115759577Y-86081784D01*
X115800500Y-85929057D01*
X115800500Y-85770943D01*
X115759577Y-85618216D01*
X115745427Y-85593707D01*
X115680524Y-85481290D01*
X115680518Y-85481282D01*
X115562969Y-85363733D01*
X115564987Y-85361714D01*
X115531933Y-85316431D01*
X115527788Y-85246684D01*
X115562009Y-85185769D01*
X115623731Y-85153025D01*
X115648628Y-85150500D01*
X115679055Y-85150500D01*
X115679057Y-85150500D01*
X115831784Y-85109577D01*
X115968716Y-85030520D01*
X116080520Y-84918716D01*
X116159577Y-84781784D01*
X116200500Y-84629057D01*
X116200500Y-84470943D01*
X116173705Y-84370943D01*
X124349500Y-84370943D01*
X124349500Y-84529057D01*
X124376295Y-84629055D01*
X124390423Y-84681783D01*
X124390426Y-84681790D01*
X124469475Y-84818709D01*
X124469479Y-84818714D01*
X124469480Y-84818716D01*
X124581284Y-84930520D01*
X124581286Y-84930521D01*
X124581290Y-84930524D01*
X124718209Y-85009573D01*
X124718216Y-85009577D01*
X124870943Y-85050500D01*
X124870945Y-85050500D01*
X125029055Y-85050500D01*
X125029057Y-85050500D01*
X125181784Y-85009577D01*
X125318716Y-84930520D01*
X125430520Y-84818716D01*
X125509577Y-84681784D01*
X125550500Y-84529057D01*
X125550500Y-84370943D01*
X125509577Y-84218216D01*
X125488258Y-84181290D01*
X125430524Y-84081290D01*
X125430518Y-84081282D01*
X125318717Y-83969481D01*
X125318709Y-83969475D01*
X125181790Y-83890426D01*
X125181786Y-83890424D01*
X125181784Y-83890423D01*
X125029057Y-83849500D01*
X124870943Y-83849500D01*
X124718216Y-83890423D01*
X124718209Y-83890426D01*
X124581290Y-83969475D01*
X124581282Y-83969481D01*
X124469481Y-84081282D01*
X124469475Y-84081290D01*
X124390426Y-84218209D01*
X124390423Y-84218216D01*
X124349500Y-84370943D01*
X116173705Y-84370943D01*
X116159577Y-84318216D01*
X116101843Y-84218216D01*
X116080524Y-84181290D01*
X116080518Y-84181282D01*
X115968717Y-84069481D01*
X115968709Y-84069475D01*
X115831790Y-83990426D01*
X115831786Y-83990424D01*
X115831784Y-83990423D01*
X115679057Y-83949500D01*
X115520943Y-83949500D01*
X115368216Y-83990423D01*
X115368209Y-83990426D01*
X115231290Y-84069475D01*
X115231282Y-84069481D01*
X115119481Y-84181282D01*
X115119475Y-84181290D01*
X115040426Y-84318209D01*
X115040423Y-84318216D01*
X114999500Y-84470943D01*
X114999500Y-84629056D01*
X115040423Y-84781783D01*
X115040426Y-84781790D01*
X115119475Y-84918709D01*
X115119481Y-84918717D01*
X115237031Y-85036267D01*
X115235012Y-85038285D01*
X115268067Y-85083569D01*
X115272212Y-85153316D01*
X115237991Y-85214231D01*
X115176269Y-85246975D01*
X115151372Y-85249500D01*
X115120943Y-85249500D01*
X114968216Y-85290423D01*
X114968209Y-85290426D01*
X114831290Y-85369475D01*
X114831282Y-85369481D01*
X114719481Y-85481282D01*
X114719475Y-85481290D01*
X114640426Y-85618209D01*
X114640423Y-85618216D01*
X114599500Y-85770943D01*
X112003417Y-85770943D01*
X111980520Y-85731284D01*
X111868716Y-85619480D01*
X111868714Y-85619479D01*
X111868709Y-85619475D01*
X111731790Y-85540426D01*
X111731786Y-85540424D01*
X111731784Y-85540423D01*
X111579057Y-85499500D01*
X111420943Y-85499500D01*
X111268216Y-85540423D01*
X111268209Y-85540426D01*
X111131290Y-85619475D01*
X111131282Y-85619481D01*
X111019481Y-85731282D01*
X111019475Y-85731290D01*
X110940426Y-85868209D01*
X110940423Y-85868216D01*
X110899500Y-86020943D01*
X75169513Y-86020943D01*
X75190657Y-83370943D01*
X110949500Y-83370943D01*
X110949500Y-83529057D01*
X110973525Y-83618717D01*
X110990423Y-83681783D01*
X110990426Y-83681790D01*
X111069475Y-83818709D01*
X111069479Y-83818714D01*
X111069480Y-83818716D01*
X111181284Y-83930520D01*
X111181286Y-83930521D01*
X111181290Y-83930524D01*
X111248765Y-83969480D01*
X111318216Y-84009577D01*
X111470943Y-84050500D01*
X111470945Y-84050500D01*
X111629055Y-84050500D01*
X111629057Y-84050500D01*
X111781784Y-84009577D01*
X111918716Y-83930520D01*
X112030520Y-83818716D01*
X112109577Y-83681784D01*
X112150500Y-83529057D01*
X112150500Y-83370943D01*
X112109577Y-83218216D01*
X112084915Y-83175500D01*
X112082284Y-83170943D01*
X112612631Y-83170943D01*
X112612631Y-83329057D01*
X112623855Y-83370943D01*
X112653554Y-83481783D01*
X112653557Y-83481790D01*
X112732606Y-83618709D01*
X112732610Y-83618714D01*
X112732611Y-83618716D01*
X112844415Y-83730520D01*
X112844417Y-83730521D01*
X112844421Y-83730524D01*
X112981340Y-83809573D01*
X112981347Y-83809577D01*
X113134074Y-83850500D01*
X113134076Y-83850500D01*
X113292186Y-83850500D01*
X113292188Y-83850500D01*
X113444915Y-83809577D01*
X113581847Y-83730520D01*
X113625452Y-83686914D01*
X113686773Y-83653430D01*
X113756464Y-83658414D01*
X113800813Y-83686915D01*
X113844418Y-83730520D01*
X113844420Y-83730521D01*
X113844424Y-83730524D01*
X113981343Y-83809573D01*
X113981350Y-83809577D01*
X114134077Y-83850500D01*
X114134079Y-83850500D01*
X114292189Y-83850500D01*
X114292191Y-83850500D01*
X114444918Y-83809577D01*
X114581850Y-83730520D01*
X114693654Y-83618716D01*
X114772711Y-83481784D01*
X114813634Y-83329057D01*
X114813634Y-83170943D01*
X114772711Y-83018216D01*
X114729699Y-82943716D01*
X114693658Y-82881290D01*
X114693652Y-82881282D01*
X114581851Y-82769481D01*
X114581843Y-82769475D01*
X114444924Y-82690426D01*
X114444920Y-82690424D01*
X114444918Y-82690423D01*
X114292191Y-82649500D01*
X114134077Y-82649500D01*
X113981350Y-82690423D01*
X113981343Y-82690426D01*
X113844424Y-82769475D01*
X113844416Y-82769481D01*
X113800812Y-82813085D01*
X113739489Y-82846569D01*
X113669797Y-82841584D01*
X113625451Y-82813084D01*
X113581848Y-82769481D01*
X113581840Y-82769475D01*
X113444921Y-82690426D01*
X113444917Y-82690424D01*
X113444915Y-82690423D01*
X113292188Y-82649500D01*
X113134074Y-82649500D01*
X112981347Y-82690423D01*
X112981340Y-82690426D01*
X112844421Y-82769475D01*
X112844413Y-82769481D01*
X112732612Y-82881282D01*
X112732606Y-82881290D01*
X112653557Y-83018209D01*
X112653554Y-83018216D01*
X112612631Y-83170943D01*
X112082284Y-83170943D01*
X112030522Y-83081287D01*
X112030518Y-83081282D01*
X111918717Y-82969481D01*
X111918709Y-82969475D01*
X111781790Y-82890426D01*
X111781786Y-82890424D01*
X111781784Y-82890423D01*
X111629057Y-82849500D01*
X111470943Y-82849500D01*
X111318216Y-82890423D01*
X111318209Y-82890426D01*
X111181290Y-82969475D01*
X111181282Y-82969481D01*
X111069481Y-83081282D01*
X111069475Y-83081290D01*
X110990426Y-83218209D01*
X110990426Y-83218210D01*
X110990423Y-83218216D01*
X110949500Y-83370943D01*
X75190657Y-83370943D01*
X75195063Y-82818717D01*
X75198636Y-82370943D01*
X124949500Y-82370943D01*
X124949500Y-82529056D01*
X124990423Y-82681783D01*
X124990426Y-82681790D01*
X125069475Y-82818709D01*
X125069479Y-82818714D01*
X125069480Y-82818716D01*
X125181284Y-82930520D01*
X125181286Y-82930521D01*
X125181290Y-82930524D01*
X125248765Y-82969480D01*
X125318216Y-83009577D01*
X125470943Y-83050500D01*
X125470945Y-83050500D01*
X125629055Y-83050500D01*
X125629057Y-83050500D01*
X125781784Y-83009577D01*
X125918716Y-82930520D01*
X126030520Y-82818716D01*
X126109577Y-82681784D01*
X126150500Y-82529057D01*
X126150500Y-82370943D01*
X126109577Y-82218216D01*
X126038139Y-82094480D01*
X126030524Y-82081290D01*
X126030518Y-82081282D01*
X125918717Y-81969481D01*
X125918709Y-81969475D01*
X125781790Y-81890426D01*
X125781786Y-81890424D01*
X125781784Y-81890423D01*
X125629057Y-81849500D01*
X125470943Y-81849500D01*
X125318216Y-81890423D01*
X125318209Y-81890426D01*
X125181290Y-81969475D01*
X125181282Y-81969481D01*
X125069481Y-82081282D01*
X125069475Y-82081290D01*
X124990426Y-82218209D01*
X124990423Y-82218216D01*
X124949500Y-82370943D01*
X75198636Y-82370943D01*
X75198709Y-82361827D01*
X75204972Y-81576827D01*
X75218678Y-79858943D01*
X90937500Y-79858943D01*
X90937500Y-80017056D01*
X90978423Y-80169783D01*
X90978426Y-80169790D01*
X91057475Y-80306709D01*
X91057479Y-80306714D01*
X91057480Y-80306716D01*
X91169284Y-80418520D01*
X91169286Y-80418521D01*
X91169290Y-80418524D01*
X91306209Y-80497573D01*
X91306216Y-80497577D01*
X91458943Y-80538500D01*
X91458945Y-80538500D01*
X91617055Y-80538500D01*
X91617057Y-80538500D01*
X91769784Y-80497577D01*
X91906716Y-80418520D01*
X92018520Y-80306716D01*
X92097577Y-80169784D01*
X92138500Y-80017057D01*
X92138500Y-79858943D01*
X92097577Y-79706216D01*
X92097573Y-79706209D01*
X92018524Y-79569290D01*
X92018518Y-79569282D01*
X91906717Y-79457481D01*
X91906709Y-79457475D01*
X91769790Y-79378426D01*
X91769786Y-79378424D01*
X91769784Y-79378423D01*
X91617057Y-79337500D01*
X91458943Y-79337500D01*
X91306216Y-79378423D01*
X91306209Y-79378426D01*
X91169290Y-79457475D01*
X91169282Y-79457481D01*
X91057481Y-79569282D01*
X91057475Y-79569290D01*
X90978426Y-79706209D01*
X90978423Y-79706216D01*
X90937500Y-79858943D01*
X75218678Y-79858943D01*
X75234739Y-77845943D01*
X111599500Y-77845943D01*
X111599500Y-78004056D01*
X111640423Y-78156783D01*
X111640426Y-78156790D01*
X111719475Y-78293709D01*
X111719479Y-78293714D01*
X111719480Y-78293716D01*
X111831284Y-78405520D01*
X111831286Y-78405521D01*
X111831290Y-78405524D01*
X111968209Y-78484573D01*
X111968216Y-78484577D01*
X112120943Y-78525500D01*
X112120945Y-78525500D01*
X112279055Y-78525500D01*
X112279057Y-78525500D01*
X112431784Y-78484577D01*
X112568716Y-78405520D01*
X112680520Y-78293716D01*
X112759577Y-78156784D01*
X112800500Y-78004057D01*
X112800500Y-77845943D01*
X112759577Y-77693216D01*
X112745455Y-77668756D01*
X112680524Y-77556290D01*
X112680518Y-77556282D01*
X112568717Y-77444481D01*
X112568709Y-77444475D01*
X112431790Y-77365426D01*
X112431786Y-77365424D01*
X112431784Y-77365423D01*
X112279057Y-77324500D01*
X112120943Y-77324500D01*
X111968216Y-77365423D01*
X111968209Y-77365426D01*
X111831290Y-77444475D01*
X111831282Y-77444481D01*
X111719481Y-77556282D01*
X111719475Y-77556290D01*
X111640426Y-77693209D01*
X111640423Y-77693216D01*
X111599500Y-77845943D01*
X75234739Y-77845943D01*
X75250896Y-75820943D01*
X97349500Y-75820943D01*
X97349500Y-75979056D01*
X97390423Y-76131783D01*
X97390426Y-76131790D01*
X97469475Y-76268709D01*
X97469479Y-76268714D01*
X97469480Y-76268716D01*
X97581284Y-76380520D01*
X97581286Y-76380521D01*
X97581290Y-76380524D01*
X97718209Y-76459573D01*
X97718216Y-76459577D01*
X97870943Y-76500500D01*
X97870945Y-76500500D01*
X98029055Y-76500500D01*
X98029057Y-76500500D01*
X98181784Y-76459577D01*
X98318716Y-76380520D01*
X98430520Y-76268716D01*
X98509577Y-76131784D01*
X98550500Y-75979057D01*
X98550500Y-75820943D01*
X98509577Y-75668216D01*
X98509573Y-75668209D01*
X98430524Y-75531290D01*
X98430518Y-75531282D01*
X98318717Y-75419481D01*
X98318716Y-75419480D01*
X98181784Y-75340423D01*
X98109084Y-75320943D01*
X99799500Y-75320943D01*
X99799500Y-75479057D01*
X99824617Y-75572793D01*
X99840423Y-75631783D01*
X99840426Y-75631790D01*
X99919475Y-75768709D01*
X99919481Y-75768717D01*
X99963083Y-75812319D01*
X99996568Y-75873642D01*
X99991584Y-75943334D01*
X99963083Y-75987681D01*
X99919481Y-76031282D01*
X99919475Y-76031290D01*
X99840426Y-76168209D01*
X99840423Y-76168216D01*
X99799500Y-76320943D01*
X99799500Y-76479057D01*
X99805246Y-76500499D01*
X99840423Y-76631783D01*
X99840426Y-76631790D01*
X99919475Y-76768709D01*
X99919479Y-76768714D01*
X99919480Y-76768716D01*
X100031284Y-76880520D01*
X100031286Y-76880521D01*
X100031290Y-76880524D01*
X100119280Y-76931324D01*
X100168216Y-76959577D01*
X100320943Y-77000500D01*
X100320945Y-77000500D01*
X100479055Y-77000500D01*
X100479057Y-77000500D01*
X100631784Y-76959577D01*
X100768716Y-76880520D01*
X100880520Y-76768716D01*
X100959577Y-76631784D01*
X101000500Y-76479057D01*
X101000500Y-76320943D01*
X100959577Y-76168216D01*
X100938543Y-76131783D01*
X100880524Y-76031290D01*
X100880518Y-76031282D01*
X100836917Y-75987681D01*
X100803432Y-75926358D01*
X100808416Y-75856666D01*
X100836917Y-75812319D01*
X100848737Y-75800499D01*
X100880520Y-75768716D01*
X100959577Y-75631784D01*
X101000500Y-75479057D01*
X101000500Y-75320943D01*
X100959577Y-75168216D01*
X100932285Y-75120945D01*
X100932284Y-75120943D01*
X112399500Y-75120943D01*
X112399500Y-75279057D01*
X112437127Y-75419481D01*
X112440423Y-75431783D01*
X112440426Y-75431790D01*
X112519475Y-75568709D01*
X112519479Y-75568714D01*
X112519480Y-75568716D01*
X112631284Y-75680520D01*
X112631286Y-75680521D01*
X112631290Y-75680524D01*
X112709192Y-75725500D01*
X112768216Y-75759577D01*
X112920943Y-75800500D01*
X112920945Y-75800500D01*
X113079055Y-75800500D01*
X113079057Y-75800500D01*
X113231784Y-75759577D01*
X113368716Y-75680520D01*
X113476445Y-75572790D01*
X113537764Y-75539308D01*
X113607456Y-75544292D01*
X113663390Y-75586163D01*
X113687807Y-75651627D01*
X113683898Y-75692567D01*
X113649500Y-75820943D01*
X113649500Y-75979056D01*
X113690423Y-76131783D01*
X113690426Y-76131790D01*
X113769475Y-76268709D01*
X113769479Y-76268714D01*
X113769480Y-76268716D01*
X113881284Y-76380520D01*
X113881286Y-76380521D01*
X113881290Y-76380524D01*
X114018209Y-76459573D01*
X114018216Y-76459577D01*
X114170943Y-76500500D01*
X114170945Y-76500500D01*
X114329055Y-76500500D01*
X114329057Y-76500500D01*
X114481784Y-76459577D01*
X114618716Y-76380520D01*
X114730520Y-76268716D01*
X114809577Y-76131784D01*
X114850500Y-75979057D01*
X114850500Y-75820943D01*
X114809577Y-75668216D01*
X114809573Y-75668209D01*
X114730524Y-75531290D01*
X114730518Y-75531282D01*
X114618717Y-75419481D01*
X114618709Y-75419475D01*
X114481790Y-75340426D01*
X114481786Y-75340424D01*
X114481784Y-75340423D01*
X114329057Y-75299500D01*
X114170943Y-75299500D01*
X114018216Y-75340423D01*
X114018209Y-75340426D01*
X113881290Y-75419475D01*
X113881286Y-75419478D01*
X113773557Y-75527207D01*
X113712234Y-75560691D01*
X113642542Y-75555707D01*
X113586609Y-75513835D01*
X113562192Y-75448371D01*
X113566100Y-75407438D01*
X113600500Y-75279057D01*
X113600500Y-75120943D01*
X113559577Y-74968216D01*
X113516276Y-74893216D01*
X113480524Y-74831290D01*
X113480518Y-74831282D01*
X113368717Y-74719481D01*
X113368709Y-74719475D01*
X113231790Y-74640426D01*
X113231786Y-74640424D01*
X113231784Y-74640423D01*
X113079057Y-74599500D01*
X112920943Y-74599500D01*
X112768216Y-74640423D01*
X112768209Y-74640426D01*
X112631290Y-74719475D01*
X112631282Y-74719481D01*
X112519481Y-74831282D01*
X112519475Y-74831290D01*
X112440426Y-74968209D01*
X112440423Y-74968216D01*
X112399500Y-75120943D01*
X100932284Y-75120943D01*
X100880522Y-75031287D01*
X100880518Y-75031282D01*
X100768717Y-74919481D01*
X100768709Y-74919475D01*
X100631790Y-74840426D01*
X100631786Y-74840424D01*
X100631784Y-74840423D01*
X100479057Y-74799500D01*
X100320943Y-74799500D01*
X100168216Y-74840423D01*
X100168209Y-74840426D01*
X100031290Y-74919475D01*
X100031282Y-74919481D01*
X99919481Y-75031282D01*
X99919475Y-75031290D01*
X99840426Y-75168209D01*
X99840426Y-75168210D01*
X99840423Y-75168216D01*
X99799500Y-75320943D01*
X98109084Y-75320943D01*
X98029057Y-75299500D01*
X97870943Y-75299500D01*
X97718216Y-75340423D01*
X97718209Y-75340426D01*
X97581290Y-75419475D01*
X97581282Y-75419481D01*
X97469481Y-75531282D01*
X97469475Y-75531290D01*
X97390426Y-75668209D01*
X97390423Y-75668216D01*
X97349500Y-75820943D01*
X75250896Y-75820943D01*
X75271641Y-73220943D01*
X94099500Y-73220943D01*
X94099500Y-73379057D01*
X94136922Y-73518716D01*
X94140423Y-73531783D01*
X94140426Y-73531790D01*
X94219475Y-73668709D01*
X94219479Y-73668714D01*
X94219480Y-73668716D01*
X94331284Y-73780520D01*
X94331286Y-73780521D01*
X94331290Y-73780524D01*
X94468209Y-73859573D01*
X94468216Y-73859577D01*
X94620943Y-73900500D01*
X94620945Y-73900500D01*
X94779055Y-73900500D01*
X94779057Y-73900500D01*
X94931784Y-73859577D01*
X95068716Y-73780520D01*
X95180520Y-73668716D01*
X95259577Y-73531784D01*
X95300500Y-73379057D01*
X95300500Y-73220943D01*
X95260308Y-73070943D01*
X103099500Y-73070943D01*
X103099500Y-73229057D01*
X103139693Y-73379057D01*
X103140423Y-73381783D01*
X103140426Y-73381790D01*
X103219475Y-73518709D01*
X103219479Y-73518714D01*
X103219480Y-73518716D01*
X103331284Y-73630520D01*
X103331286Y-73630521D01*
X103331290Y-73630524D01*
X103468209Y-73709573D01*
X103468216Y-73709577D01*
X103620943Y-73750500D01*
X103620945Y-73750500D01*
X103779055Y-73750500D01*
X103779057Y-73750500D01*
X103931784Y-73709577D01*
X104068716Y-73630520D01*
X104180520Y-73518716D01*
X104259577Y-73381784D01*
X104300500Y-73229057D01*
X104300500Y-73070943D01*
X104259577Y-72918216D01*
X104236897Y-72878932D01*
X104180524Y-72781290D01*
X104180518Y-72781282D01*
X104068717Y-72669481D01*
X104068709Y-72669475D01*
X103931790Y-72590426D01*
X103931786Y-72590424D01*
X103931784Y-72590423D01*
X103779057Y-72549500D01*
X103620943Y-72549500D01*
X103468216Y-72590423D01*
X103468209Y-72590426D01*
X103331290Y-72669475D01*
X103331282Y-72669481D01*
X103219481Y-72781282D01*
X103219475Y-72781290D01*
X103140426Y-72918209D01*
X103140423Y-72918216D01*
X103099500Y-73070943D01*
X95260308Y-73070943D01*
X95259577Y-73068216D01*
X95249926Y-73051499D01*
X95180524Y-72931290D01*
X95180518Y-72931282D01*
X95068717Y-72819481D01*
X95068709Y-72819475D01*
X94931790Y-72740426D01*
X94931786Y-72740424D01*
X94931784Y-72740423D01*
X94779057Y-72699500D01*
X94620943Y-72699500D01*
X94468216Y-72740423D01*
X94468209Y-72740426D01*
X94331290Y-72819475D01*
X94331282Y-72819481D01*
X94219481Y-72931282D01*
X94219475Y-72931290D01*
X94140426Y-73068209D01*
X94140423Y-73068216D01*
X94099500Y-73220943D01*
X75271641Y-73220943D01*
X75278415Y-72371943D01*
X105849500Y-72371943D01*
X105849500Y-72530057D01*
X105886859Y-72669481D01*
X105890423Y-72682783D01*
X105890426Y-72682790D01*
X105969475Y-72819709D01*
X105969479Y-72819714D01*
X105969480Y-72819716D01*
X106081284Y-72931520D01*
X106081286Y-72931521D01*
X106081290Y-72931524D01*
X106166155Y-72980520D01*
X106218216Y-73010577D01*
X106370943Y-73051500D01*
X106370945Y-73051500D01*
X106529055Y-73051500D01*
X106529057Y-73051500D01*
X106681784Y-73010577D01*
X106818716Y-72931520D01*
X106837819Y-72912417D01*
X106899142Y-72878932D01*
X106968834Y-72883916D01*
X107013181Y-72912417D01*
X107081284Y-72980520D01*
X107081286Y-72980521D01*
X107081290Y-72980524D01*
X107148112Y-73019103D01*
X107218216Y-73059577D01*
X107370943Y-73100500D01*
X107370945Y-73100500D01*
X107529055Y-73100500D01*
X107529057Y-73100500D01*
X107681784Y-73059577D01*
X107818716Y-72980520D01*
X107901359Y-72897877D01*
X107962682Y-72864392D01*
X108032374Y-72869376D01*
X108071338Y-72894417D01*
X108071523Y-72894178D01*
X108074396Y-72896383D01*
X108076721Y-72897877D01*
X108077968Y-72899124D01*
X108077970Y-72899125D01*
X108077974Y-72899128D01*
X108214893Y-72978177D01*
X108214900Y-72978181D01*
X108367627Y-73019104D01*
X108367629Y-73019104D01*
X108525739Y-73019104D01*
X108525741Y-73019104D01*
X108678468Y-72978181D01*
X108815400Y-72899124D01*
X108927204Y-72787320D01*
X109006261Y-72650388D01*
X109047184Y-72497661D01*
X109047184Y-72339547D01*
X109006261Y-72186820D01*
X108970043Y-72124088D01*
X108927208Y-72049894D01*
X108927202Y-72049886D01*
X108815401Y-71938085D01*
X108815393Y-71938079D01*
X108678474Y-71859030D01*
X108678470Y-71859028D01*
X108678468Y-71859027D01*
X108525741Y-71818104D01*
X108367627Y-71818104D01*
X108214900Y-71859027D01*
X108214893Y-71859030D01*
X108077974Y-71938079D01*
X108077966Y-71938085D01*
X107995325Y-72020727D01*
X107934002Y-72054212D01*
X107864310Y-72049228D01*
X107825345Y-72024186D01*
X107825161Y-72024426D01*
X107822287Y-72022220D01*
X107819963Y-72020727D01*
X107818717Y-72019481D01*
X107818709Y-72019475D01*
X107681790Y-71940426D01*
X107681786Y-71940424D01*
X107681784Y-71940423D01*
X107529057Y-71899500D01*
X107370943Y-71899500D01*
X107218216Y-71940423D01*
X107218209Y-71940426D01*
X107081290Y-72019475D01*
X107081285Y-72019479D01*
X107062177Y-72038586D01*
X107000852Y-72072068D01*
X106931161Y-72067081D01*
X106886818Y-72038582D01*
X106818717Y-71970481D01*
X106818709Y-71970475D01*
X106681790Y-71891426D01*
X106681786Y-71891424D01*
X106681784Y-71891423D01*
X106529057Y-71850500D01*
X106370943Y-71850500D01*
X106218216Y-71891423D01*
X106218209Y-71891426D01*
X106081290Y-71970475D01*
X106081282Y-71970481D01*
X105969481Y-72082282D01*
X105969475Y-72082290D01*
X105890426Y-72219209D01*
X105890423Y-72219216D01*
X105849500Y-72371943D01*
X75278415Y-72371943D01*
X75289194Y-71020943D01*
X97249500Y-71020943D01*
X97249500Y-71179056D01*
X97290423Y-71331783D01*
X97290426Y-71331790D01*
X97369475Y-71468709D01*
X97369479Y-71468714D01*
X97369480Y-71468716D01*
X97481284Y-71580520D01*
X97481286Y-71580521D01*
X97481290Y-71580524D01*
X97618209Y-71659573D01*
X97618216Y-71659577D01*
X97770943Y-71700500D01*
X97770945Y-71700500D01*
X97929055Y-71700500D01*
X97929057Y-71700500D01*
X98081784Y-71659577D01*
X98218716Y-71580520D01*
X98330520Y-71468716D01*
X98409577Y-71331784D01*
X98450500Y-71179057D01*
X98450500Y-71020943D01*
X98409577Y-70868216D01*
X98404587Y-70859573D01*
X98330524Y-70731290D01*
X98330518Y-70731282D01*
X98218717Y-70619481D01*
X98218709Y-70619475D01*
X98081790Y-70540426D01*
X98081786Y-70540424D01*
X98081784Y-70540423D01*
X97929057Y-70499500D01*
X97770943Y-70499500D01*
X97618216Y-70540423D01*
X97618209Y-70540426D01*
X97481290Y-70619475D01*
X97481282Y-70619481D01*
X97369481Y-70731282D01*
X97369475Y-70731290D01*
X97290426Y-70868209D01*
X97290423Y-70868216D01*
X97249500Y-71020943D01*
X75289194Y-71020943D01*
X75295577Y-70220943D01*
X79249500Y-70220943D01*
X79249500Y-70379056D01*
X79290423Y-70531783D01*
X79290426Y-70531790D01*
X79369475Y-70668709D01*
X79369479Y-70668714D01*
X79369480Y-70668716D01*
X79481284Y-70780520D01*
X79481286Y-70780521D01*
X79481290Y-70780524D01*
X79618209Y-70859573D01*
X79618216Y-70859577D01*
X79770943Y-70900500D01*
X79770945Y-70900500D01*
X79929055Y-70900500D01*
X79929057Y-70900500D01*
X80081784Y-70859577D01*
X80218716Y-70780520D01*
X80330520Y-70668716D01*
X80409577Y-70531784D01*
X80450500Y-70379057D01*
X80450500Y-70220943D01*
X80409577Y-70068216D01*
X80409573Y-70068209D01*
X80330524Y-69931290D01*
X80330518Y-69931282D01*
X80218717Y-69819481D01*
X80218709Y-69819475D01*
X80081790Y-69740426D01*
X80081786Y-69740424D01*
X80081784Y-69740423D01*
X79929057Y-69699500D01*
X79770943Y-69699500D01*
X79618216Y-69740423D01*
X79618209Y-69740426D01*
X79481290Y-69819475D01*
X79481282Y-69819481D01*
X79369481Y-69931282D01*
X79369475Y-69931290D01*
X79290426Y-70068209D01*
X79290423Y-70068216D01*
X79249500Y-70220943D01*
X75295577Y-70220943D01*
X75311136Y-68270943D01*
X101349500Y-68270943D01*
X101349500Y-68429056D01*
X101390423Y-68581783D01*
X101390426Y-68581790D01*
X101469475Y-68718709D01*
X101469479Y-68718714D01*
X101469480Y-68718716D01*
X101581284Y-68830520D01*
X101581286Y-68830521D01*
X101581290Y-68830524D01*
X101718209Y-68909573D01*
X101718216Y-68909577D01*
X101870943Y-68950500D01*
X101870945Y-68950500D01*
X102029055Y-68950500D01*
X102029057Y-68950500D01*
X102181784Y-68909577D01*
X102318716Y-68830520D01*
X102430520Y-68718716D01*
X102509577Y-68581784D01*
X102550500Y-68429057D01*
X102550500Y-68270943D01*
X102509577Y-68118216D01*
X102472535Y-68054057D01*
X102430524Y-67981290D01*
X102430518Y-67981282D01*
X102318717Y-67869481D01*
X102318709Y-67869475D01*
X102181790Y-67790426D01*
X102181786Y-67790424D01*
X102181784Y-67790423D01*
X102029057Y-67749500D01*
X101870943Y-67749500D01*
X101718216Y-67790423D01*
X101718209Y-67790426D01*
X101581290Y-67869475D01*
X101581282Y-67869481D01*
X101469481Y-67981282D01*
X101469475Y-67981290D01*
X101390426Y-68118209D01*
X101390423Y-68118216D01*
X101349500Y-68270943D01*
X75311136Y-68270943D01*
X75349027Y-63521888D01*
X75369246Y-63455009D01*
X75422413Y-63409677D01*
X75471886Y-63398884D01*
X88739388Y-63277442D01*
X88806602Y-63296512D01*
X88852838Y-63348895D01*
X88860295Y-63369343D01*
X88890423Y-63481785D01*
X88890426Y-63481790D01*
X88969475Y-63618709D01*
X88969479Y-63618714D01*
X88969480Y-63618716D01*
X89081284Y-63730520D01*
X89081286Y-63730521D01*
X89081290Y-63730524D01*
X89218209Y-63809573D01*
X89218216Y-63809577D01*
X89370943Y-63850500D01*
X89370945Y-63850500D01*
X89529055Y-63850500D01*
X89529057Y-63850500D01*
X89681784Y-63809577D01*
X89818716Y-63730520D01*
X89930520Y-63618716D01*
X90009577Y-63481784D01*
X90043194Y-63356319D01*
X90079558Y-63296663D01*
X90142404Y-63266133D01*
X90161809Y-63264423D01*
X99842914Y-63175809D01*
X99842151Y-63021558D01*
X99837712Y-62123992D01*
X102869500Y-62123992D01*
X102869500Y-62326007D01*
X102908907Y-62524119D01*
X102908909Y-62524127D01*
X102986212Y-62710752D01*
X102986217Y-62710762D01*
X103098441Y-62878718D01*
X103241281Y-63021558D01*
X103409237Y-63133782D01*
X103409241Y-63133784D01*
X103409244Y-63133786D01*
X103595873Y-63211091D01*
X103793992Y-63250499D01*
X103793996Y-63250500D01*
X103793997Y-63250500D01*
X103996004Y-63250500D01*
X103996005Y-63250499D01*
X104194127Y-63211091D01*
X104380756Y-63133786D01*
X104548718Y-63021558D01*
X104691558Y-62878718D01*
X104803786Y-62710756D01*
X104881091Y-62524127D01*
X104920500Y-62326003D01*
X104920500Y-62123997D01*
X104920499Y-62123992D01*
X105409500Y-62123992D01*
X105409500Y-62326007D01*
X105448907Y-62524119D01*
X105448909Y-62524127D01*
X105526212Y-62710752D01*
X105526217Y-62710762D01*
X105638441Y-62878718D01*
X105781281Y-63021558D01*
X105949237Y-63133782D01*
X105949241Y-63133784D01*
X105949244Y-63133786D01*
X106135873Y-63211091D01*
X106333992Y-63250499D01*
X106333996Y-63250500D01*
X106333997Y-63250500D01*
X106536004Y-63250500D01*
X106536005Y-63250499D01*
X106734127Y-63211091D01*
X106920756Y-63133786D01*
X107088718Y-63021558D01*
X107231558Y-62878718D01*
X107343786Y-62710756D01*
X107421091Y-62524127D01*
X107460500Y-62326003D01*
X107460500Y-62123997D01*
X107460499Y-62123992D01*
X107949500Y-62123992D01*
X107949500Y-62326007D01*
X107988907Y-62524119D01*
X107988909Y-62524127D01*
X108066212Y-62710752D01*
X108066217Y-62710762D01*
X108178441Y-62878718D01*
X108321281Y-63021558D01*
X108489237Y-63133782D01*
X108489241Y-63133784D01*
X108489244Y-63133786D01*
X108675873Y-63211091D01*
X108873992Y-63250499D01*
X108873996Y-63250500D01*
X108873997Y-63250500D01*
X109076004Y-63250500D01*
X109076005Y-63250499D01*
X109274127Y-63211091D01*
X109460756Y-63133786D01*
X109628718Y-63021558D01*
X109771558Y-62878718D01*
X109883786Y-62710756D01*
X109961091Y-62524127D01*
X110000500Y-62326003D01*
X110000500Y-62123997D01*
X110000499Y-62123992D01*
X110489500Y-62123992D01*
X110489500Y-62326007D01*
X110528907Y-62524119D01*
X110528909Y-62524127D01*
X110606212Y-62710752D01*
X110606217Y-62710762D01*
X110718441Y-62878718D01*
X110861281Y-63021558D01*
X111029237Y-63133782D01*
X111029241Y-63133784D01*
X111029244Y-63133786D01*
X111215873Y-63211091D01*
X111413992Y-63250499D01*
X111413996Y-63250500D01*
X111413997Y-63250500D01*
X111616004Y-63250500D01*
X111616005Y-63250499D01*
X111814127Y-63211091D01*
X112000756Y-63133786D01*
X112168718Y-63021558D01*
X112311558Y-62878718D01*
X112423786Y-62710756D01*
X112501091Y-62524127D01*
X112540500Y-62326003D01*
X112540500Y-62123997D01*
X112501091Y-61925873D01*
X112423786Y-61739244D01*
X112423784Y-61739241D01*
X112423782Y-61739237D01*
X112311558Y-61571281D01*
X112168718Y-61428441D01*
X112000762Y-61316217D01*
X112000752Y-61316212D01*
X111814127Y-61238909D01*
X111814119Y-61238907D01*
X111616007Y-61199500D01*
X111616003Y-61199500D01*
X111413997Y-61199500D01*
X111413992Y-61199500D01*
X111215880Y-61238907D01*
X111215872Y-61238909D01*
X111029247Y-61316212D01*
X111029237Y-61316217D01*
X110861281Y-61428441D01*
X110718441Y-61571281D01*
X110606217Y-61739237D01*
X110606212Y-61739247D01*
X110528909Y-61925872D01*
X110528907Y-61925880D01*
X110489500Y-62123992D01*
X110000499Y-62123992D01*
X109961091Y-61925873D01*
X109883786Y-61739244D01*
X109883784Y-61739241D01*
X109883782Y-61739237D01*
X109771558Y-61571281D01*
X109628718Y-61428441D01*
X109460762Y-61316217D01*
X109460752Y-61316212D01*
X109274127Y-61238909D01*
X109274119Y-61238907D01*
X109076007Y-61199500D01*
X109076003Y-61199500D01*
X108873997Y-61199500D01*
X108873992Y-61199500D01*
X108675880Y-61238907D01*
X108675872Y-61238909D01*
X108489247Y-61316212D01*
X108489237Y-61316217D01*
X108321281Y-61428441D01*
X108178441Y-61571281D01*
X108066217Y-61739237D01*
X108066212Y-61739247D01*
X107988909Y-61925872D01*
X107988907Y-61925880D01*
X107949500Y-62123992D01*
X107460499Y-62123992D01*
X107421091Y-61925873D01*
X107343786Y-61739244D01*
X107343784Y-61739241D01*
X107343782Y-61739237D01*
X107231558Y-61571281D01*
X107088718Y-61428441D01*
X106920762Y-61316217D01*
X106920752Y-61316212D01*
X106734127Y-61238909D01*
X106734119Y-61238907D01*
X106536007Y-61199500D01*
X106536003Y-61199500D01*
X106333997Y-61199500D01*
X106333992Y-61199500D01*
X106135880Y-61238907D01*
X106135872Y-61238909D01*
X105949247Y-61316212D01*
X105949237Y-61316217D01*
X105781281Y-61428441D01*
X105638441Y-61571281D01*
X105526217Y-61739237D01*
X105526212Y-61739247D01*
X105448909Y-61925872D01*
X105448907Y-61925880D01*
X105409500Y-62123992D01*
X104920499Y-62123992D01*
X104881091Y-61925873D01*
X104803786Y-61739244D01*
X104803784Y-61739241D01*
X104803782Y-61739237D01*
X104691558Y-61571281D01*
X104548718Y-61428441D01*
X104380762Y-61316217D01*
X104380752Y-61316212D01*
X104194127Y-61238909D01*
X104194119Y-61238907D01*
X103996007Y-61199500D01*
X103996003Y-61199500D01*
X103793997Y-61199500D01*
X103793992Y-61199500D01*
X103595880Y-61238907D01*
X103595872Y-61238909D01*
X103409247Y-61316212D01*
X103409237Y-61316217D01*
X103241281Y-61428441D01*
X103098441Y-61571281D01*
X102986217Y-61739237D01*
X102986212Y-61739247D01*
X102908909Y-61925872D01*
X102908907Y-61925880D01*
X102869500Y-62123992D01*
X99837712Y-62123992D01*
X99837685Y-62118518D01*
X99825148Y-59583992D01*
X102869500Y-59583992D01*
X102869500Y-59786007D01*
X102908907Y-59984119D01*
X102908909Y-59984127D01*
X102986212Y-60170752D01*
X102986217Y-60170762D01*
X103098441Y-60338718D01*
X103241281Y-60481558D01*
X103409237Y-60593782D01*
X103409241Y-60593784D01*
X103409244Y-60593786D01*
X103595873Y-60671091D01*
X103793992Y-60710499D01*
X103793996Y-60710500D01*
X103793997Y-60710500D01*
X103996004Y-60710500D01*
X103996005Y-60710499D01*
X104194127Y-60671091D01*
X104380756Y-60593786D01*
X104548718Y-60481558D01*
X104691558Y-60338718D01*
X104803786Y-60170756D01*
X104881091Y-59984127D01*
X104920500Y-59786003D01*
X104920500Y-59583997D01*
X104920499Y-59583992D01*
X105409500Y-59583992D01*
X105409500Y-59786007D01*
X105448907Y-59984119D01*
X105448909Y-59984127D01*
X105526212Y-60170752D01*
X105526217Y-60170762D01*
X105638441Y-60338718D01*
X105781281Y-60481558D01*
X105949237Y-60593782D01*
X105949241Y-60593784D01*
X105949244Y-60593786D01*
X106135873Y-60671091D01*
X106333992Y-60710499D01*
X106333996Y-60710500D01*
X106333997Y-60710500D01*
X106536004Y-60710500D01*
X106536005Y-60710499D01*
X106734127Y-60671091D01*
X106920756Y-60593786D01*
X107088718Y-60481558D01*
X107231558Y-60338718D01*
X107343786Y-60170756D01*
X107421091Y-59984127D01*
X107460500Y-59786003D01*
X107460500Y-59583997D01*
X107460499Y-59583992D01*
X107949500Y-59583992D01*
X107949500Y-59786007D01*
X107988907Y-59984119D01*
X107988909Y-59984127D01*
X108066212Y-60170752D01*
X108066217Y-60170762D01*
X108178441Y-60338718D01*
X108321281Y-60481558D01*
X108489237Y-60593782D01*
X108489241Y-60593784D01*
X108489244Y-60593786D01*
X108675873Y-60671091D01*
X108873992Y-60710499D01*
X108873996Y-60710500D01*
X108873997Y-60710500D01*
X109076004Y-60710500D01*
X109076005Y-60710499D01*
X109274127Y-60671091D01*
X109460756Y-60593786D01*
X109628718Y-60481558D01*
X109771558Y-60338718D01*
X109883786Y-60170756D01*
X109961091Y-59984127D01*
X110000500Y-59786003D01*
X110000500Y-59583997D01*
X110000499Y-59583992D01*
X110489500Y-59583992D01*
X110489500Y-59786007D01*
X110528907Y-59984119D01*
X110528909Y-59984127D01*
X110606212Y-60170752D01*
X110606217Y-60170762D01*
X110718441Y-60338718D01*
X110861281Y-60481558D01*
X111029237Y-60593782D01*
X111029241Y-60593784D01*
X111029244Y-60593786D01*
X111215873Y-60671091D01*
X111413992Y-60710499D01*
X111413996Y-60710500D01*
X111413997Y-60710500D01*
X111616004Y-60710500D01*
X111616005Y-60710499D01*
X111814127Y-60671091D01*
X112000756Y-60593786D01*
X112168718Y-60481558D01*
X112311558Y-60338718D01*
X112423786Y-60170756D01*
X112491439Y-60007427D01*
X112535280Y-59953025D01*
X112601574Y-59930960D01*
X112669274Y-59948239D01*
X112716884Y-59999377D01*
X112730000Y-60054881D01*
X112730000Y-60557844D01*
X112736401Y-60617372D01*
X112736403Y-60617379D01*
X112786645Y-60752086D01*
X112786649Y-60752093D01*
X112872809Y-60867187D01*
X112872812Y-60867190D01*
X112987906Y-60953350D01*
X112987913Y-60953354D01*
X113122620Y-61003596D01*
X113122627Y-61003598D01*
X113182155Y-61009999D01*
X113182172Y-61010000D01*
X113685119Y-61010000D01*
X113752158Y-61029685D01*
X113797913Y-61082489D01*
X113807857Y-61151647D01*
X113778832Y-61215203D01*
X113732573Y-61248560D01*
X113684299Y-61268555D01*
X113569247Y-61316212D01*
X113569237Y-61316217D01*
X113401281Y-61428441D01*
X113258441Y-61571281D01*
X113146217Y-61739237D01*
X113146212Y-61739247D01*
X113068909Y-61925872D01*
X113068907Y-61925880D01*
X113029500Y-62123992D01*
X113029500Y-62326007D01*
X113068907Y-62524119D01*
X113068909Y-62524127D01*
X113146212Y-62710752D01*
X113146217Y-62710762D01*
X113258441Y-62878718D01*
X113401281Y-63021558D01*
X113569237Y-63133782D01*
X113569241Y-63133784D01*
X113569244Y-63133786D01*
X113755873Y-63211091D01*
X113953992Y-63250499D01*
X113953996Y-63250500D01*
X113953997Y-63250500D01*
X114156004Y-63250500D01*
X114156005Y-63250499D01*
X114354127Y-63211091D01*
X114540756Y-63133786D01*
X114708718Y-63021558D01*
X114851558Y-62878718D01*
X114963786Y-62710756D01*
X115041091Y-62524127D01*
X115080500Y-62326003D01*
X115080500Y-62123997D01*
X115041091Y-61925873D01*
X114963786Y-61739244D01*
X114963784Y-61739241D01*
X114963782Y-61739237D01*
X114851558Y-61571281D01*
X114708718Y-61428441D01*
X114540762Y-61316217D01*
X114540752Y-61316212D01*
X114455955Y-61281087D01*
X114377427Y-61248560D01*
X114323025Y-61204720D01*
X114300960Y-61138426D01*
X114318239Y-61070726D01*
X114369377Y-61023116D01*
X114424881Y-61010000D01*
X114927828Y-61010000D01*
X114927844Y-61009999D01*
X114987372Y-61003598D01*
X114987379Y-61003596D01*
X115122086Y-60953354D01*
X115122093Y-60953350D01*
X115237187Y-60867190D01*
X115237190Y-60867187D01*
X115323350Y-60752093D01*
X115323354Y-60752086D01*
X115373596Y-60617379D01*
X115373598Y-60617372D01*
X115379999Y-60557844D01*
X115380000Y-60557827D01*
X115380000Y-59935000D01*
X114545748Y-59935000D01*
X114567518Y-59897292D01*
X114605000Y-59757409D01*
X114605000Y-59612591D01*
X114567518Y-59472708D01*
X114545748Y-59435000D01*
X115380000Y-59435000D01*
X115380000Y-58812172D01*
X115379999Y-58812155D01*
X115373598Y-58752627D01*
X115373596Y-58752620D01*
X115323354Y-58617913D01*
X115323350Y-58617906D01*
X115237190Y-58502812D01*
X115237187Y-58502809D01*
X115122093Y-58416649D01*
X115122086Y-58416645D01*
X114987379Y-58366403D01*
X114987372Y-58366401D01*
X114927844Y-58360000D01*
X114305000Y-58360000D01*
X114305000Y-59194252D01*
X114267292Y-59172482D01*
X114127409Y-59135000D01*
X113982591Y-59135000D01*
X113842708Y-59172482D01*
X113805000Y-59194252D01*
X113805000Y-58360000D01*
X113182155Y-58360000D01*
X113122627Y-58366401D01*
X113122620Y-58366403D01*
X112987913Y-58416645D01*
X112987906Y-58416649D01*
X112872812Y-58502809D01*
X112872809Y-58502812D01*
X112786649Y-58617906D01*
X112786645Y-58617913D01*
X112736403Y-58752620D01*
X112736401Y-58752627D01*
X112730000Y-58812155D01*
X112730000Y-59315118D01*
X112710315Y-59382157D01*
X112657511Y-59427912D01*
X112588353Y-59437856D01*
X112524797Y-59408831D01*
X112491439Y-59362571D01*
X112423787Y-59199247D01*
X112423786Y-59199244D01*
X112423784Y-59199241D01*
X112423782Y-59199237D01*
X112311558Y-59031281D01*
X112168718Y-58888441D01*
X112000762Y-58776217D01*
X112000752Y-58776212D01*
X111814127Y-58698909D01*
X111814119Y-58698907D01*
X111616007Y-58659500D01*
X111616003Y-58659500D01*
X111413997Y-58659500D01*
X111413992Y-58659500D01*
X111215880Y-58698907D01*
X111215872Y-58698909D01*
X111029247Y-58776212D01*
X111029237Y-58776217D01*
X110861281Y-58888441D01*
X110718441Y-59031281D01*
X110606217Y-59199237D01*
X110606212Y-59199247D01*
X110528909Y-59385872D01*
X110528907Y-59385880D01*
X110489500Y-59583992D01*
X110000499Y-59583992D01*
X109961091Y-59385873D01*
X109883786Y-59199244D01*
X109883784Y-59199241D01*
X109883782Y-59199237D01*
X109771558Y-59031281D01*
X109628718Y-58888441D01*
X109460762Y-58776217D01*
X109460752Y-58776212D01*
X109274127Y-58698909D01*
X109274119Y-58698907D01*
X109076007Y-58659500D01*
X109076003Y-58659500D01*
X108873997Y-58659500D01*
X108873992Y-58659500D01*
X108675880Y-58698907D01*
X108675872Y-58698909D01*
X108489247Y-58776212D01*
X108489237Y-58776217D01*
X108321281Y-58888441D01*
X108178441Y-59031281D01*
X108066217Y-59199237D01*
X108066212Y-59199247D01*
X107988909Y-59385872D01*
X107988907Y-59385880D01*
X107949500Y-59583992D01*
X107460499Y-59583992D01*
X107421091Y-59385873D01*
X107343786Y-59199244D01*
X107343784Y-59199241D01*
X107343782Y-59199237D01*
X107231558Y-59031281D01*
X107088718Y-58888441D01*
X106920762Y-58776217D01*
X106920752Y-58776212D01*
X106734127Y-58698909D01*
X106734119Y-58698907D01*
X106536007Y-58659500D01*
X106536003Y-58659500D01*
X106333997Y-58659500D01*
X106333992Y-58659500D01*
X106135880Y-58698907D01*
X106135872Y-58698909D01*
X105949247Y-58776212D01*
X105949237Y-58776217D01*
X105781281Y-58888441D01*
X105638441Y-59031281D01*
X105526217Y-59199237D01*
X105526212Y-59199247D01*
X105448909Y-59385872D01*
X105448907Y-59385880D01*
X105409500Y-59583992D01*
X104920499Y-59583992D01*
X104881091Y-59385873D01*
X104803786Y-59199244D01*
X104803784Y-59199241D01*
X104803782Y-59199237D01*
X104691558Y-59031281D01*
X104548718Y-58888441D01*
X104380762Y-58776217D01*
X104380752Y-58776212D01*
X104194127Y-58698909D01*
X104194119Y-58698907D01*
X103996007Y-58659500D01*
X103996003Y-58659500D01*
X103793997Y-58659500D01*
X103793992Y-58659500D01*
X103595880Y-58698907D01*
X103595872Y-58698909D01*
X103409247Y-58776212D01*
X103409237Y-58776217D01*
X103241281Y-58888441D01*
X103098441Y-59031281D01*
X102986217Y-59199237D01*
X102986212Y-59199247D01*
X102908909Y-59385872D01*
X102908907Y-59385880D01*
X102869500Y-59583992D01*
X99825148Y-59583992D01*
X99825121Y-59578518D01*
X99809996Y-56520943D01*
X104249500Y-56520943D01*
X104249500Y-56679056D01*
X104290423Y-56831783D01*
X104290426Y-56831790D01*
X104369475Y-56968709D01*
X104369479Y-56968714D01*
X104369480Y-56968716D01*
X104481284Y-57080520D01*
X104481286Y-57080521D01*
X104481290Y-57080524D01*
X104618209Y-57159573D01*
X104618216Y-57159577D01*
X104770943Y-57200500D01*
X104770945Y-57200500D01*
X104929055Y-57200500D01*
X104929057Y-57200500D01*
X105081784Y-57159577D01*
X105218716Y-57080520D01*
X105330520Y-56968716D01*
X105409577Y-56831784D01*
X105450500Y-56679057D01*
X105450500Y-56520943D01*
X105409577Y-56368216D01*
X105359366Y-56281247D01*
X105330524Y-56231290D01*
X105330518Y-56231282D01*
X105218717Y-56119481D01*
X105218709Y-56119475D01*
X105081790Y-56040426D01*
X105081786Y-56040424D01*
X105081784Y-56040423D01*
X104929057Y-55999500D01*
X104770943Y-55999500D01*
X104618216Y-56040423D01*
X104618209Y-56040426D01*
X104481290Y-56119475D01*
X104481282Y-56119481D01*
X104369481Y-56231282D01*
X104369475Y-56231290D01*
X104290426Y-56368209D01*
X104290423Y-56368216D01*
X104249500Y-56520943D01*
X99809996Y-56520943D01*
X99809959Y-56513429D01*
X99809241Y-56368209D01*
X99800613Y-54624021D01*
X99819965Y-54556887D01*
X99872542Y-54510872D01*
X99924020Y-54499411D01*
X100504157Y-54496657D01*
X100571289Y-54516023D01*
X100617294Y-54568610D01*
X100627565Y-54637720D01*
X100598842Y-54701413D01*
X100592428Y-54708336D01*
X100569478Y-54731286D01*
X100569475Y-54731290D01*
X100490426Y-54868209D01*
X100490423Y-54868216D01*
X100449500Y-55020943D01*
X100449500Y-55179056D01*
X100490423Y-55331783D01*
X100490426Y-55331790D01*
X100569475Y-55468709D01*
X100569479Y-55468714D01*
X100569480Y-55468716D01*
X100681284Y-55580520D01*
X100681286Y-55580521D01*
X100681290Y-55580524D01*
X100818209Y-55659573D01*
X100818216Y-55659577D01*
X100970943Y-55700500D01*
X100970945Y-55700500D01*
X101129055Y-55700500D01*
X101129057Y-55700500D01*
X101281784Y-55659577D01*
X101418716Y-55580520D01*
X101530520Y-55468716D01*
X101609577Y-55331784D01*
X101650500Y-55179057D01*
X101650500Y-55020943D01*
X101609577Y-54868216D01*
X101609573Y-54868209D01*
X101530524Y-54731290D01*
X101530518Y-54731282D01*
X101502421Y-54703185D01*
X101468936Y-54641862D01*
X101473920Y-54572170D01*
X101515792Y-54516237D01*
X101581256Y-54491820D01*
X101589498Y-54491505D01*
X131274377Y-54350596D01*
X131341509Y-54369963D01*
G37*
%TD.AperFunction*%
%TD*%
%TA.AperFunction,Conductor*%
%TO.N,+12V*%
G36*
X108787978Y-131990815D02*
G01*
X108833817Y-132043546D01*
X108845097Y-132093810D01*
X108998560Y-145424971D01*
X108979648Y-145492232D01*
X108927374Y-145538592D01*
X108874962Y-145550397D01*
X100474894Y-145577106D01*
X100407793Y-145557635D01*
X100361870Y-145504977D01*
X100350500Y-145453107D01*
X100350500Y-145301096D01*
X100342721Y-145272064D01*
X100330021Y-145224668D01*
X100309875Y-145189774D01*
X100290464Y-145156152D01*
X100290458Y-145156144D01*
X98802409Y-143668095D01*
X98768924Y-143606772D01*
X98773908Y-143537080D01*
X98815780Y-143481147D01*
X98881244Y-143456730D01*
X98922176Y-143460638D01*
X99070943Y-143500500D01*
X99070946Y-143500500D01*
X99229055Y-143500500D01*
X99229057Y-143500500D01*
X99381784Y-143459577D01*
X99518716Y-143380520D01*
X99630520Y-143268716D01*
X99709577Y-143131784D01*
X99750500Y-142979057D01*
X99750500Y-142820943D01*
X99709577Y-142668216D01*
X99709573Y-142668209D01*
X99630524Y-142531290D01*
X99630518Y-142531282D01*
X99518717Y-142419481D01*
X99518709Y-142419475D01*
X99381790Y-142340426D01*
X99381786Y-142340424D01*
X99381784Y-142340423D01*
X99229057Y-142299500D01*
X99070943Y-142299500D01*
X98918216Y-142340423D01*
X98918209Y-142340426D01*
X98781290Y-142419475D01*
X98781282Y-142419481D01*
X98669481Y-142531282D01*
X98669475Y-142531290D01*
X98590426Y-142668209D01*
X98590423Y-142668216D01*
X98549500Y-142820943D01*
X98549500Y-142979057D01*
X98582465Y-143102083D01*
X98589360Y-143127816D01*
X98587697Y-143197666D01*
X98548534Y-143255528D01*
X98484306Y-143283032D01*
X98415404Y-143271445D01*
X98381904Y-143247590D01*
X94626822Y-139492508D01*
X95380408Y-139492508D01*
X95380408Y-139650622D01*
X95415555Y-139781790D01*
X95421331Y-139803348D01*
X95421334Y-139803355D01*
X95500383Y-139940274D01*
X95500387Y-139940279D01*
X95500388Y-139940281D01*
X95612192Y-140052085D01*
X95612194Y-140052086D01*
X95612198Y-140052089D01*
X95711765Y-140109573D01*
X95749124Y-140131142D01*
X95901851Y-140172065D01*
X95901853Y-140172065D01*
X96059963Y-140172065D01*
X96059965Y-140172065D01*
X96212692Y-140131142D01*
X96349624Y-140052085D01*
X96461428Y-139940281D01*
X96540485Y-139803349D01*
X96581408Y-139650622D01*
X96581408Y-139492508D01*
X96540485Y-139339781D01*
X96528031Y-139318209D01*
X96461432Y-139202855D01*
X96461426Y-139202847D01*
X96349625Y-139091046D01*
X96349617Y-139091040D01*
X96212698Y-139011991D01*
X96212694Y-139011989D01*
X96212692Y-139011988D01*
X96059965Y-138971065D01*
X95901851Y-138971065D01*
X95749124Y-139011988D01*
X95749117Y-139011991D01*
X95612198Y-139091040D01*
X95612190Y-139091046D01*
X95500389Y-139202847D01*
X95500383Y-139202855D01*
X95421334Y-139339774D01*
X95421331Y-139339781D01*
X95380408Y-139492508D01*
X94626822Y-139492508D01*
X93511643Y-138377329D01*
X93478158Y-138316006D01*
X93479550Y-138257552D01*
X93481408Y-138250622D01*
X93481408Y-138092508D01*
X93440485Y-137939781D01*
X93440481Y-137939774D01*
X93361432Y-137802855D01*
X93361426Y-137802847D01*
X93249625Y-137691046D01*
X93249617Y-137691040D01*
X93112698Y-137611991D01*
X93112694Y-137611989D01*
X93112692Y-137611988D01*
X92959965Y-137571065D01*
X92801851Y-137571065D01*
X92649124Y-137611988D01*
X92649117Y-137611991D01*
X92512198Y-137691040D01*
X92512190Y-137691046D01*
X92400389Y-137802847D01*
X92400383Y-137802855D01*
X92321334Y-137939774D01*
X92321331Y-137939781D01*
X92280408Y-138092508D01*
X92280408Y-138250621D01*
X92321331Y-138403348D01*
X92321334Y-138403355D01*
X92400383Y-138540274D01*
X92400387Y-138540279D01*
X92400388Y-138540281D01*
X92512192Y-138652085D01*
X92512194Y-138652086D01*
X92512198Y-138652089D01*
X92649117Y-138731138D01*
X92649124Y-138731142D01*
X92801851Y-138772065D01*
X92801853Y-138772065D01*
X92959962Y-138772065D01*
X92959965Y-138772065D01*
X92966895Y-138770208D01*
X93036741Y-138771867D01*
X93086672Y-138802300D01*
X99652690Y-145368318D01*
X99686175Y-145429641D01*
X99681191Y-145499333D01*
X99639319Y-145555266D01*
X99573855Y-145579683D01*
X99565403Y-145579998D01*
X91505802Y-145605624D01*
X91438701Y-145586153D01*
X91392778Y-145533495D01*
X91381408Y-145481625D01*
X91381408Y-145342510D01*
X91381408Y-145342508D01*
X91340485Y-145189781D01*
X91340481Y-145189774D01*
X91261432Y-145052855D01*
X91261426Y-145052847D01*
X91149625Y-144941046D01*
X91149617Y-144941040D01*
X91012698Y-144861991D01*
X91012694Y-144861989D01*
X91012692Y-144861988D01*
X90859965Y-144821065D01*
X90701851Y-144821065D01*
X90549124Y-144861988D01*
X90549117Y-144861991D01*
X90412198Y-144941040D01*
X90412190Y-144941046D01*
X90300389Y-145052847D01*
X90300383Y-145052855D01*
X90221334Y-145189774D01*
X90221331Y-145189781D01*
X90180408Y-145342508D01*
X90180408Y-145486233D01*
X90160723Y-145553272D01*
X90107919Y-145599027D01*
X90056802Y-145610232D01*
X77673427Y-145649607D01*
X77606326Y-145630136D01*
X77560403Y-145577478D01*
X77549037Y-145526575D01*
X77548824Y-145499333D01*
X77541750Y-144592508D01*
X91830408Y-144592508D01*
X91830408Y-144750622D01*
X91870568Y-144900499D01*
X91871331Y-144903348D01*
X91871334Y-144903355D01*
X91950383Y-145040274D01*
X91950387Y-145040279D01*
X91950388Y-145040281D01*
X92062192Y-145152085D01*
X92062194Y-145152086D01*
X92062198Y-145152089D01*
X92199117Y-145231138D01*
X92199124Y-145231142D01*
X92351851Y-145272065D01*
X92351853Y-145272065D01*
X92509963Y-145272065D01*
X92509965Y-145272065D01*
X92662692Y-145231142D01*
X92799624Y-145152085D01*
X92911428Y-145040281D01*
X92990485Y-144903349D01*
X93031408Y-144750622D01*
X93031408Y-144592508D01*
X92990485Y-144439781D01*
X92990481Y-144439774D01*
X92911432Y-144302855D01*
X92911426Y-144302847D01*
X92799625Y-144191046D01*
X92799617Y-144191040D01*
X92662698Y-144111991D01*
X92662694Y-144111989D01*
X92662692Y-144111988D01*
X92509965Y-144071065D01*
X92351851Y-144071065D01*
X92199124Y-144111988D01*
X92199117Y-144111991D01*
X92062198Y-144191040D01*
X92062190Y-144191046D01*
X91950389Y-144302847D01*
X91950383Y-144302855D01*
X91871334Y-144439774D01*
X91871331Y-144439781D01*
X91830408Y-144592508D01*
X77541750Y-144592508D01*
X77525758Y-142542508D01*
X82855408Y-142542508D01*
X82855408Y-142700622D01*
X82887649Y-142820945D01*
X82896331Y-142853348D01*
X82896334Y-142853355D01*
X82975383Y-142990274D01*
X82975386Y-142990278D01*
X82975388Y-142990281D01*
X83087192Y-143102085D01*
X83087194Y-143102086D01*
X83087198Y-143102089D01*
X83224117Y-143181138D01*
X83224124Y-143181142D01*
X83376851Y-143222065D01*
X83376853Y-143222065D01*
X83534963Y-143222065D01*
X83534965Y-143222065D01*
X83687692Y-143181142D01*
X83824624Y-143102085D01*
X83855766Y-143070943D01*
X94599500Y-143070943D01*
X94599500Y-143229057D01*
X94640086Y-143380524D01*
X94640423Y-143381783D01*
X94640426Y-143381790D01*
X94719475Y-143518709D01*
X94719479Y-143518714D01*
X94719480Y-143518716D01*
X94831284Y-143630520D01*
X94831286Y-143630521D01*
X94831290Y-143630524D01*
X94896366Y-143668095D01*
X94968216Y-143709577D01*
X95120943Y-143750500D01*
X95120945Y-143750500D01*
X95279054Y-143750500D01*
X95279057Y-143750500D01*
X95407435Y-143716101D01*
X95477281Y-143717764D01*
X95535144Y-143756926D01*
X95562648Y-143821154D01*
X95551062Y-143890057D01*
X95527209Y-143923554D01*
X95519482Y-143931280D01*
X95519475Y-143931290D01*
X95440426Y-144068209D01*
X95440423Y-144068216D01*
X95399500Y-144220943D01*
X95399500Y-144379056D01*
X95440423Y-144531783D01*
X95440426Y-144531790D01*
X95519475Y-144668709D01*
X95519479Y-144668714D01*
X95519480Y-144668716D01*
X95631284Y-144780520D01*
X95631286Y-144780521D01*
X95631290Y-144780524D01*
X95768209Y-144859573D01*
X95768216Y-144859577D01*
X95920943Y-144900500D01*
X95920945Y-144900500D01*
X96079055Y-144900500D01*
X96079057Y-144900500D01*
X96231784Y-144859577D01*
X96368716Y-144780520D01*
X96480520Y-144668716D01*
X96559577Y-144531784D01*
X96600500Y-144379057D01*
X96600500Y-144220943D01*
X96559577Y-144068216D01*
X96559573Y-144068209D01*
X96480524Y-143931290D01*
X96480518Y-143931282D01*
X96368717Y-143819481D01*
X96368709Y-143819475D01*
X96231790Y-143740426D01*
X96231786Y-143740424D01*
X96231784Y-143740423D01*
X96079057Y-143699500D01*
X95920943Y-143699500D01*
X95792567Y-143733898D01*
X95722717Y-143732235D01*
X95664855Y-143693072D01*
X95637351Y-143628844D01*
X95648938Y-143559941D01*
X95672793Y-143526442D01*
X95680520Y-143518716D01*
X95759577Y-143381784D01*
X95800500Y-143229057D01*
X95800500Y-143070943D01*
X95759577Y-142918216D01*
X95722130Y-142853355D01*
X95680524Y-142781290D01*
X95680518Y-142781282D01*
X95568717Y-142669481D01*
X95568709Y-142669475D01*
X95431790Y-142590426D01*
X95431786Y-142590424D01*
X95431784Y-142590423D01*
X95279057Y-142549500D01*
X95120943Y-142549500D01*
X94968216Y-142590423D01*
X94968209Y-142590426D01*
X94831290Y-142669475D01*
X94831282Y-142669481D01*
X94719481Y-142781282D01*
X94719475Y-142781290D01*
X94640426Y-142918209D01*
X94640423Y-142918216D01*
X94599500Y-143070943D01*
X83855766Y-143070943D01*
X83936428Y-142990281D01*
X84015485Y-142853349D01*
X84056408Y-142700622D01*
X84056408Y-142542508D01*
X84015485Y-142389781D01*
X83986990Y-142340426D01*
X83936432Y-142252855D01*
X83936426Y-142252847D01*
X83824625Y-142141046D01*
X83824617Y-142141040D01*
X83687698Y-142061991D01*
X83687694Y-142061989D01*
X83687692Y-142061988D01*
X83534965Y-142021065D01*
X83376851Y-142021065D01*
X83224124Y-142061988D01*
X83224117Y-142061991D01*
X83087198Y-142141040D01*
X83087190Y-142141046D01*
X82975389Y-142252847D01*
X82975383Y-142252855D01*
X82896334Y-142389774D01*
X82896331Y-142389781D01*
X82855408Y-142542508D01*
X77525758Y-142542508D01*
X77513109Y-140920943D01*
X80349500Y-140920943D01*
X80349500Y-141079056D01*
X80390423Y-141231783D01*
X80390426Y-141231790D01*
X80469475Y-141368709D01*
X80469479Y-141368714D01*
X80469480Y-141368716D01*
X80581284Y-141480520D01*
X80581286Y-141480521D01*
X80581290Y-141480524D01*
X80718209Y-141559573D01*
X80718216Y-141559577D01*
X80870943Y-141600500D01*
X80870945Y-141600500D01*
X81029055Y-141600500D01*
X81029057Y-141600500D01*
X81181784Y-141559577D01*
X81318716Y-141480520D01*
X81430520Y-141368716D01*
X81509577Y-141231784D01*
X81550500Y-141079057D01*
X81550500Y-140920943D01*
X81509577Y-140768216D01*
X81509573Y-140768209D01*
X81430524Y-140631290D01*
X81430518Y-140631282D01*
X81318717Y-140519481D01*
X81318709Y-140519475D01*
X81181790Y-140440426D01*
X81181786Y-140440424D01*
X81181784Y-140440423D01*
X81029057Y-140399500D01*
X80870943Y-140399500D01*
X80718216Y-140440423D01*
X80718209Y-140440426D01*
X80581290Y-140519475D01*
X80581282Y-140519481D01*
X80469481Y-140631282D01*
X80469475Y-140631290D01*
X80390426Y-140768209D01*
X80390423Y-140768216D01*
X80349500Y-140920943D01*
X77513109Y-140920943D01*
X77501798Y-139470943D01*
X83799500Y-139470943D01*
X83799500Y-139629057D01*
X83805279Y-139650622D01*
X83840423Y-139781783D01*
X83840426Y-139781790D01*
X83919475Y-139918709D01*
X83919479Y-139918714D01*
X83919480Y-139918716D01*
X84031284Y-140030520D01*
X84031286Y-140030521D01*
X84031290Y-140030524D01*
X84168209Y-140109573D01*
X84168216Y-140109577D01*
X84320943Y-140150500D01*
X84320945Y-140150500D01*
X84479055Y-140150500D01*
X84479057Y-140150500D01*
X84631784Y-140109577D01*
X84768716Y-140030520D01*
X84880520Y-139918716D01*
X84959577Y-139781784D01*
X85000500Y-139629057D01*
X85000500Y-139470943D01*
X84959577Y-139318216D01*
X84892974Y-139202855D01*
X84880524Y-139181290D01*
X84880518Y-139181282D01*
X84768717Y-139069481D01*
X84768709Y-139069475D01*
X84631790Y-138990426D01*
X84631786Y-138990424D01*
X84631784Y-138990423D01*
X84479057Y-138949500D01*
X84320943Y-138949500D01*
X84168216Y-138990423D01*
X84168209Y-138990426D01*
X84031290Y-139069475D01*
X84031282Y-139069481D01*
X83919481Y-139181282D01*
X83919475Y-139181290D01*
X83840426Y-139318209D01*
X83840423Y-139318216D01*
X83799500Y-139470943D01*
X77501798Y-139470943D01*
X77499707Y-139202855D01*
X77496345Y-138771867D01*
X77483635Y-137142508D01*
X93980408Y-137142508D01*
X93980408Y-137300621D01*
X94021331Y-137453348D01*
X94021334Y-137453355D01*
X94100383Y-137590274D01*
X94100387Y-137590279D01*
X94100388Y-137590281D01*
X94212192Y-137702085D01*
X94212194Y-137702086D01*
X94212198Y-137702089D01*
X94349117Y-137781138D01*
X94349124Y-137781142D01*
X94501851Y-137822065D01*
X94501853Y-137822065D01*
X94659963Y-137822065D01*
X94659965Y-137822065D01*
X94812692Y-137781142D01*
X94949624Y-137702085D01*
X95061428Y-137590281D01*
X95140485Y-137453349D01*
X95181408Y-137300622D01*
X95181408Y-137142508D01*
X95140485Y-136989781D01*
X95140481Y-136989774D01*
X95061432Y-136852855D01*
X95061426Y-136852847D01*
X94949625Y-136741046D01*
X94949617Y-136741040D01*
X94812698Y-136661991D01*
X94812694Y-136661989D01*
X94812692Y-136661988D01*
X94659965Y-136621065D01*
X94501851Y-136621065D01*
X94349124Y-136661988D01*
X94349117Y-136661991D01*
X94212198Y-136741040D01*
X94212190Y-136741046D01*
X94100389Y-136852847D01*
X94100383Y-136852855D01*
X94021334Y-136989774D01*
X94021331Y-136989781D01*
X93980408Y-137142508D01*
X77483635Y-137142508D01*
X77452432Y-133142508D01*
X80430408Y-133142508D01*
X80430408Y-133300621D01*
X80471331Y-133453348D01*
X80471334Y-133453355D01*
X80550383Y-133590274D01*
X80550387Y-133590279D01*
X80550388Y-133590281D01*
X80662192Y-133702085D01*
X80662194Y-133702086D01*
X80662198Y-133702089D01*
X80799117Y-133781138D01*
X80799124Y-133781142D01*
X80951851Y-133822065D01*
X80951853Y-133822065D01*
X81109963Y-133822065D01*
X81109965Y-133822065D01*
X81262692Y-133781142D01*
X81399624Y-133702085D01*
X81511428Y-133590281D01*
X81590485Y-133453349D01*
X81631408Y-133300622D01*
X81631408Y-133142508D01*
X81590485Y-132989781D01*
X81590481Y-132989774D01*
X81511432Y-132852855D01*
X81511426Y-132852847D01*
X81399625Y-132741046D01*
X81399617Y-132741040D01*
X81262698Y-132661991D01*
X81262694Y-132661989D01*
X81262692Y-132661988D01*
X81109965Y-132621065D01*
X80951851Y-132621065D01*
X80799124Y-132661988D01*
X80799117Y-132661991D01*
X80662198Y-132741040D01*
X80662190Y-132741046D01*
X80550389Y-132852847D01*
X80550383Y-132852855D01*
X80471334Y-132989774D01*
X80471331Y-132989781D01*
X80430408Y-133142508D01*
X77452432Y-133142508D01*
X77444657Y-132145809D01*
X77463818Y-132078619D01*
X77516263Y-132032454D01*
X77568454Y-132020843D01*
X108720909Y-131971237D01*
X108787978Y-131990815D01*
G37*
%TD.AperFunction*%
%TD*%
%TA.AperFunction,Conductor*%
%TO.N,+3V3_ANA*%
G36*
X74292926Y-85670039D02*
G01*
X74339008Y-85722558D01*
X74350535Y-85774235D01*
X74368211Y-89874966D01*
X74348815Y-89942089D01*
X74296209Y-89988071D01*
X74244212Y-89999500D01*
X69091496Y-89999500D01*
X69024457Y-89979815D01*
X68984108Y-89937499D01*
X68980520Y-89931284D01*
X68868717Y-89819481D01*
X68868709Y-89819475D01*
X68731790Y-89740426D01*
X68731786Y-89740424D01*
X68731784Y-89740423D01*
X68579057Y-89699500D01*
X68420943Y-89699500D01*
X68268216Y-89740423D01*
X68268209Y-89740426D01*
X68131290Y-89819475D01*
X68131282Y-89819481D01*
X68019481Y-89931282D01*
X68019475Y-89931290D01*
X67940426Y-90068209D01*
X67940423Y-90068216D01*
X67899500Y-90220943D01*
X67899500Y-90379057D01*
X67927757Y-90484511D01*
X67940423Y-90531783D01*
X67940426Y-90531790D01*
X68019475Y-90668709D01*
X68019479Y-90668714D01*
X68019480Y-90668716D01*
X68131284Y-90780520D01*
X68131286Y-90780521D01*
X68131290Y-90780524D01*
X68268209Y-90859573D01*
X68268216Y-90859577D01*
X68420943Y-90900500D01*
X68420945Y-90900500D01*
X68579055Y-90900500D01*
X68579057Y-90900500D01*
X68731784Y-90859577D01*
X68868716Y-90780520D01*
X68980520Y-90668716D01*
X68984108Y-90662500D01*
X69034675Y-90614285D01*
X69091496Y-90600500D01*
X74247871Y-90600500D01*
X74314910Y-90620185D01*
X74360665Y-90672989D01*
X74371870Y-90723966D01*
X74399465Y-97125988D01*
X74380069Y-97193111D01*
X74327463Y-97239093D01*
X74275987Y-97250521D01*
X52025021Y-97344011D01*
X51957899Y-97324608D01*
X51911923Y-97271997D01*
X51900500Y-97220012D01*
X51900500Y-85915218D01*
X51920185Y-85848179D01*
X51972989Y-85802424D01*
X52023701Y-85791222D01*
X66299977Y-85700000D01*
X66300000Y-85700006D01*
X66300000Y-85700000D01*
X74225768Y-85650771D01*
X74292926Y-85670039D01*
G37*
%TD.AperFunction*%
%TD*%
M02*
