%TF.GenerationSoftware,KiCad,Pcbnew,9.0.7*%
%TF.CreationDate,2026-02-08T15:09:09+00:00*%
%TF.ProjectId,lnb_control,6c6e625f-636f-46e7-9472-6f6c2e6b6963,rev?*%
%TF.SameCoordinates,Original*%
%TF.FileFunction,Copper,L4,Bot*%
%TF.FilePolarity,Positive*%
%FSLAX46Y46*%
G04 Gerber Fmt 4.6, Leading zero omitted, Abs format (unit mm)*
G04 Created by KiCad (PCBNEW 9.0.7) date 2026-02-08 15:09:09*
%MOMM*%
%LPD*%
G01*
G04 APERTURE LIST*
%TA.AperFunction,ComponentPad*%
%ADD10R,1.650000X1.650000*%
%TD*%
%TA.AperFunction,ComponentPad*%
%ADD11C,1.650000*%
%TD*%
%TA.AperFunction,SMDPad,CuDef*%
%ADD12R,5.080000X2.420000*%
%TD*%
%TA.AperFunction,SMDPad,CuDef*%
%ADD13R,0.950000X0.460000*%
%TD*%
%TA.AperFunction,ComponentPad*%
%ADD14C,0.970000*%
%TD*%
%TA.AperFunction,ViaPad*%
%ADD15C,0.800000*%
%TD*%
%TA.AperFunction,Conductor*%
%ADD16C,0.200000*%
%TD*%
G04 APERTURE END LIST*
D10*
%TO.P,J5,1,1*%
%TO.N,+3V3*%
X114055000Y-59685000D03*
D11*
%TO.P,J5,2,2*%
%TO.N,/MCU/SWDIO*%
X114055000Y-62225000D03*
%TO.P,J5,3,3*%
%TO.N,GND*%
X111515000Y-59685000D03*
%TO.P,J5,4,4*%
%TO.N,/MCU/SWCLK*%
X111515000Y-62225000D03*
%TO.P,J5,5,5*%
%TO.N,GND*%
X108975000Y-59685000D03*
%TO.P,J5,6,6*%
%TO.N,/MCU/SWO*%
X108975000Y-62225000D03*
%TO.P,J5,7,7*%
%TO.N,GND*%
X106435000Y-59685000D03*
%TO.P,J5,8,8*%
%TO.N,unconnected-(J5-Pad8)*%
X106435000Y-62225000D03*
%TO.P,J5,9,9*%
%TO.N,GND*%
X103895000Y-59685000D03*
%TO.P,J5,10,10*%
%TO.N,/MCU/NRST*%
X103895000Y-62225000D03*
%TD*%
D12*
%TO.P,J6,2,Ext*%
%TO.N,GND*%
X136950000Y-124030000D03*
X136950000Y-115270000D03*
D13*
X133960000Y-124030000D03*
X133960000Y-115270000D03*
D14*
X133510000Y-124030000D03*
X133510000Y-115270000D03*
%TD*%
D12*
%TO.P,J7,2,Ext*%
%TO.N,GND*%
X136950000Y-137250000D03*
X136950000Y-128490000D03*
D13*
X133960000Y-137250000D03*
X133960000Y-128490000D03*
D14*
X133510000Y-137250000D03*
X133510000Y-128490000D03*
%TD*%
D15*
%TO.N,GND*%
X63156634Y-77300040D03*
X89949997Y-107350000D03*
X61202000Y-126515000D03*
X124950000Y-84450000D03*
X91538000Y-79938000D03*
X101050000Y-55100000D03*
X76450000Y-93850000D03*
X65902000Y-131415000D03*
X94350000Y-95850000D03*
X94700000Y-116400000D03*
X56370000Y-99220000D03*
X95700000Y-104000000D03*
X101950000Y-68350000D03*
X101000000Y-53150000D03*
X61102000Y-132815000D03*
X116350000Y-52400000D03*
X115950000Y-87000000D03*
X57375000Y-67900000D03*
X86150000Y-55200000D03*
X112200000Y-77925000D03*
X100050000Y-147400000D03*
X90000000Y-119600000D03*
X60125000Y-82575000D03*
X92880908Y-138171565D03*
X89450000Y-55100000D03*
X79850000Y-70300000D03*
X53025000Y-67975000D03*
X63188247Y-72052347D03*
X87600000Y-88350000D03*
X88549997Y-110950000D03*
X83650000Y-97850000D03*
X89450000Y-53150000D03*
X120650000Y-90750000D03*
X94700000Y-73300000D03*
X103630908Y-126321565D03*
X128050000Y-120000000D03*
X108850000Y-100200000D03*
X63850000Y-58600000D03*
X108550000Y-113800000D03*
X53050000Y-82475000D03*
X74930000Y-58000000D03*
%TO.N,+3V3*%
X92050000Y-88150000D03*
X107131250Y-113631250D03*
X95750000Y-117000000D03*
X113750000Y-70100000D03*
X70570000Y-104260000D03*
X70290000Y-118740000D03*
X97050000Y-104200000D03*
X91538000Y-84488000D03*
X104450000Y-103612500D03*
X88550000Y-122650000D03*
X84300000Y-64900000D03*
X92800000Y-115250000D03*
X102000000Y-73900000D03*
X127200000Y-92700000D03*
X90950000Y-107350000D03*
X109088000Y-76850000D03*
X93400000Y-77000000D03*
X79150000Y-64000000D03*
X97550000Y-96800000D03*
X89550000Y-110950000D03*
X94850000Y-71900000D03*
X75900000Y-86650000D03*
X117450000Y-89500000D03*
X75850000Y-70200000D03*
X108950000Y-95551000D03*
X101100000Y-56800000D03*
%TO.N,/MCU/NRST*%
X97850000Y-71100000D03*
X91950000Y-86912000D03*
%TO.N,+12V*%
X98400000Y-144721565D03*
X97180908Y-137171565D03*
X83200000Y-52800000D03*
X89230908Y-137721565D03*
%TO.N,/MCU/W5500 Ethernet/SCSN*%
X106276958Y-109714958D03*
X111350000Y-93250000D03*
%TO.N,/MCU/W5500 Ethernet/SCLK*%
X111550148Y-92150452D03*
X106839434Y-108888142D03*
%TO.N,/MCU/W5500 Ethernet/MISO*%
X111239270Y-91200000D03*
X106166228Y-108148685D03*
%TO.N,/MCU/BOOT0*%
X89450000Y-63250000D03*
X97950000Y-75900000D03*
%TO.N,/MCU/I2C1_SDA*%
X113000000Y-75200000D03*
X100400000Y-75400000D03*
X96000000Y-144300000D03*
%TO.N,/MCU/I2C3_SCL*%
X124800000Y-86750000D03*
X115200000Y-85850000D03*
%TO.N,/MCU/W5500 Ethernet/W5500_RST*%
X101150000Y-101800000D03*
X111500000Y-87150000D03*
%TO.N,/MCU/USART3_RX*%
X104050000Y-96700000D03*
X104850000Y-56600000D03*
%TO.N,/MCU/LNBH26PQR/LNB_FLT*%
X103700000Y-73150000D03*
X90780908Y-145421565D03*
%TO.N,/MCU/SWCLK*%
X107450000Y-72500000D03*
%TO.N,/MCU/W5500 Ethernet/MOSI*%
X110923042Y-90251315D03*
X105850000Y-107200000D03*
%TO.N,/MCU/W5500 Ethernet/W5500_INT*%
X111500000Y-86100000D03*
X104200000Y-101250000D03*
%TO.N,/MCU/I2C3_SDA*%
X125550000Y-82450000D03*
X115600000Y-84550000D03*
%TO.N,/MCU/SWDIO*%
X108446684Y-72418604D03*
%TO.N,/MCU/I2C1_SCL*%
X100400000Y-76400000D03*
X114250000Y-75900000D03*
X95200000Y-143150000D03*
%TO.N,/MCU/SWO*%
X106450000Y-72451000D03*
%TO.N,/MCU/USART3_TX*%
X105600000Y-51900000D03*
X103049997Y-96700000D03*
%TO.N,VBUS*%
X55002000Y-129615000D03*
X61352000Y-129115000D03*
%TO.N,/MCU/W5500 Ethernet/RXP*%
X82600000Y-104950000D03*
X90700000Y-110500000D03*
%TO.N,/MCU/W5500 Ethernet/TXN*%
X77750000Y-104950000D03*
X92750000Y-106050000D03*
%TO.N,/MCU/W5500 Ethernet/RXN*%
X80950000Y-104950000D03*
X91550000Y-109850000D03*
%TO.N,/MCU/W5500 Ethernet/LNKLED*%
X68470000Y-99300000D03*
X104300000Y-114900000D03*
%TO.N,/MCU/W5500 Ethernet/ACTLED*%
X68470000Y-98000000D03*
X104300000Y-113800000D03*
%TO.N,/MCU/W5500 Ethernet/TXP*%
X92250000Y-107000000D03*
X79400000Y-104950000D03*
%TO.N,+3V3_ANA*%
X91800000Y-91500000D03*
X73450000Y-91050000D03*
%TO.N,VSSA*%
X91800000Y-90400000D03*
X68500000Y-90300000D03*
%TO.N,USB_D-*%
X67502000Y-128565000D03*
X113213131Y-83250000D03*
%TO.N,USB_D+*%
X67502000Y-129615000D03*
X114213134Y-83250000D03*
%TO.N,Net-(IC2-PA8)*%
X83455908Y-142621565D03*
X111550000Y-83450000D03*
%TO.N,Net-(D4-K)*%
X80450000Y-130100000D03*
X80950000Y-141000000D03*
%TO.N,Net-(D5-A)*%
X84400000Y-139550000D03*
X127250000Y-135600000D03*
X95980908Y-139571565D03*
%TO.N,USB_DP*%
X56452000Y-130815000D03*
X61352000Y-130265000D03*
%TO.N,USB_DN*%
X56452000Y-128615000D03*
X61352000Y-128065000D03*
%TO.N,PGND*%
X81030908Y-133221565D03*
X92430908Y-144671565D03*
X94580908Y-137221565D03*
X99150000Y-142900000D03*
%TD*%
D16*
%TO.N,/MCU/NRST*%
X98651000Y-80211000D02*
X98651000Y-71901000D01*
X98651000Y-71901000D02*
X97850000Y-71100000D01*
X91950000Y-86912000D02*
X98651000Y-80211000D01*
%TO.N,/MCU/W5500 Ethernet/SCSN*%
X107000000Y-109589142D02*
X107000000Y-109710976D01*
X109950000Y-93250000D02*
X107551000Y-95649000D01*
X107540434Y-109178506D02*
X107129798Y-109589142D01*
X107540434Y-108754242D02*
X107540434Y-109178506D01*
X107129798Y-109589142D02*
X107000000Y-109589142D01*
X107551000Y-95649000D02*
X107551000Y-108743676D01*
X107000000Y-109710976D02*
X107003982Y-109714958D01*
X107551000Y-108743676D02*
X107540434Y-108754242D01*
X111350000Y-93250000D02*
X109950000Y-93250000D01*
X107003982Y-109714958D02*
X106276958Y-109714958D01*
%TO.N,/MCU/W5500 Ethernet/SCLK*%
X111550148Y-92150452D02*
X111549696Y-92150000D01*
X111549696Y-92150000D02*
X110350000Y-92150000D01*
X110350000Y-92150000D02*
X107150000Y-95350000D01*
X107150000Y-108577576D02*
X106839434Y-108888142D01*
X107150000Y-95350000D02*
X107150000Y-108577576D01*
%TO.N,/MCU/W5500 Ethernet/MISO*%
X106600000Y-107714913D02*
X106600000Y-95141457D01*
X106600000Y-95141457D02*
X110541457Y-91200000D01*
X110541457Y-91200000D02*
X111239270Y-91200000D01*
X106166228Y-108148685D02*
X106600000Y-107714913D01*
%TO.N,/MCU/BOOT0*%
X97950000Y-75900000D02*
X97900000Y-75850000D01*
X97900000Y-75850000D02*
X97900000Y-72450000D01*
X89450000Y-64000000D02*
X89450000Y-63250000D01*
X97900000Y-72450000D02*
X89450000Y-64000000D01*
%TO.N,/MCU/I2C1_SDA*%
X130049000Y-77816100D02*
X127133900Y-74901000D01*
X113000000Y-75200000D02*
X112949000Y-75149000D01*
X96279435Y-144020565D02*
X102412335Y-144020565D01*
X96000000Y-144300000D02*
X96279435Y-144020565D01*
X100651000Y-75149000D02*
X100400000Y-75400000D01*
X130049000Y-116383900D02*
X130049000Y-77816100D01*
X102412335Y-144020565D02*
X130049000Y-116383900D01*
X127133900Y-74901000D02*
X113299000Y-74901000D01*
X113299000Y-74901000D02*
X113000000Y-75200000D01*
X113000000Y-75200000D02*
X113000000Y-74900000D01*
X112949000Y-75149000D02*
X100651000Y-75149000D01*
X113000000Y-75200000D02*
X113050000Y-75150000D01*
%TO.N,/MCU/I2C3_SCL*%
X123900000Y-85850000D02*
X124800000Y-86750000D01*
X115200000Y-85850000D02*
X123900000Y-85850000D01*
%TO.N,/MCU/W5500 Ethernet/W5500_RST*%
X105090364Y-102501000D02*
X105400000Y-102191364D01*
X101851000Y-102501000D02*
X105090364Y-102501000D01*
X101150000Y-101800000D02*
X101851000Y-102501000D01*
X105400000Y-102191364D02*
X105400000Y-94750000D01*
X111500000Y-88650000D02*
X111500000Y-87150000D01*
X105400000Y-94750000D02*
X111500000Y-88650000D01*
%TO.N,/MCU/USART3_RX*%
X104550997Y-56600000D02*
X104850000Y-56600000D01*
X104050000Y-96700000D02*
X99451000Y-92101000D01*
X103566100Y-57301000D02*
X104140361Y-57301000D01*
X101051000Y-59816100D02*
X103566100Y-57301000D01*
X99451000Y-71566800D02*
X99451000Y-66316100D01*
X99453000Y-80543200D02*
X99453000Y-71568800D01*
X99451000Y-80545200D02*
X99453000Y-80543200D01*
X99453000Y-71568800D02*
X99451000Y-71566800D01*
X99451000Y-92101000D02*
X99451000Y-80545200D01*
X101051000Y-64716100D02*
X101051000Y-59816100D01*
X104140361Y-57301000D02*
X104550997Y-56890364D01*
X99451000Y-66316100D02*
X101051000Y-64716100D01*
X104550997Y-56890364D02*
X104550997Y-56600000D01*
%TO.N,/MCU/LNBH26PQR/LNB_FLT*%
X103700000Y-73150000D02*
X105050000Y-74500000D01*
X101578435Y-145421565D02*
X90780908Y-145421565D01*
X105050000Y-74500000D02*
X112708636Y-74500000D01*
X112708636Y-74500000D02*
X112709636Y-74499000D01*
X130450000Y-77650000D02*
X130450000Y-116550000D01*
X112709636Y-74499000D02*
X113290364Y-74499000D01*
X113290364Y-74499000D02*
X113291364Y-74500000D01*
X113291364Y-74500000D02*
X127300000Y-74500000D01*
X127300000Y-74500000D02*
X130450000Y-77650000D01*
X130450000Y-116550000D02*
X101578435Y-145421565D01*
%TO.N,/MCU/SWCLK*%
X107500000Y-72450000D02*
X107500000Y-67820000D01*
X111515000Y-63805000D02*
X111515000Y-62225000D01*
X107500000Y-67820000D02*
X111515000Y-63805000D01*
X107450000Y-72500000D02*
X107500000Y-72450000D01*
%TO.N,/MCU/W5500 Ethernet/MOSI*%
X106000000Y-95050000D02*
X110798685Y-90251315D01*
X110798685Y-90251315D02*
X110923042Y-90251315D01*
X105850000Y-107200000D02*
X106000000Y-107050000D01*
X106000000Y-107050000D02*
X106000000Y-95050000D01*
%TO.N,/MCU/W5500 Ethernet/W5500_INT*%
X111500000Y-86100000D02*
X111500000Y-86449000D01*
X111209636Y-86449000D02*
X110799000Y-86859636D01*
X111500000Y-86449000D02*
X111209636Y-86449000D01*
X104800000Y-100650000D02*
X104200000Y-101250000D01*
X110799000Y-86859636D02*
X110799000Y-88501000D01*
X104800000Y-94500000D02*
X104800000Y-100650000D01*
X110799000Y-88501000D02*
X104800000Y-94500000D01*
%TO.N,/MCU/I2C3_SDA*%
X125550000Y-82450000D02*
X117700000Y-82450000D01*
X117700000Y-82450000D02*
X115600000Y-84550000D01*
%TO.N,/MCU/SWDIO*%
X107950000Y-71921920D02*
X107950000Y-69250000D01*
X108446684Y-72418604D02*
X107950000Y-71921920D01*
X113350000Y-63850000D02*
X113350000Y-62930000D01*
X107950000Y-69250000D02*
X113350000Y-63850000D01*
X113350000Y-62930000D02*
X114055000Y-62225000D01*
%TO.N,/MCU/I2C1_SCL*%
X95200000Y-143150000D02*
X96150000Y-142200000D01*
X129648000Y-77982200D02*
X126967800Y-75302000D01*
X129648000Y-116217800D02*
X129648000Y-77982200D01*
X95200000Y-143150000D02*
X95497527Y-142852473D01*
X114250000Y-75900000D02*
X100900000Y-75900000D01*
X96150000Y-142200000D02*
X103665800Y-142200000D01*
X114848000Y-75302000D02*
X114250000Y-75900000D01*
X100900000Y-75900000D02*
X100400000Y-76400000D01*
X114250000Y-75900000D02*
X114300000Y-75850000D01*
X126967800Y-75302000D02*
X114848000Y-75302000D01*
X103665800Y-142200000D02*
X129648000Y-116217800D01*
%TO.N,/MCU/SWO*%
X107050000Y-71550000D02*
X107050000Y-67400000D01*
X106450000Y-72150000D02*
X107050000Y-71550000D01*
X106450000Y-72451000D02*
X106450000Y-72150000D01*
X108930000Y-62270000D02*
X108975000Y-62225000D01*
X108930000Y-65520000D02*
X108930000Y-62270000D01*
X107050000Y-67400000D02*
X108930000Y-65520000D01*
%TO.N,/MCU/USART3_TX*%
X100650000Y-64550000D02*
X99050000Y-66150000D01*
X99052000Y-80377100D02*
X99050000Y-80379100D01*
X105600000Y-51900000D02*
X105600000Y-54700000D01*
X99050000Y-66150000D02*
X99050000Y-71732900D01*
X105600000Y-54700000D02*
X100650000Y-59650000D01*
X100650000Y-59650000D02*
X100650000Y-64550000D01*
X99052000Y-71734900D02*
X99052000Y-80377100D01*
X99050000Y-71732900D02*
X99052000Y-71734900D01*
X99050000Y-80379100D02*
X99050000Y-92700003D01*
X99050000Y-92700003D02*
X103049997Y-96700000D01*
%TO.N,/MCU/W5500 Ethernet/RXP*%
X90700000Y-110132843D02*
X88750000Y-108182843D01*
X90700000Y-110500000D02*
X90700000Y-110132843D01*
X88750000Y-108182843D02*
X88750000Y-104148593D01*
X83532844Y-103650000D02*
X82750000Y-104432844D01*
X88251407Y-103650000D02*
X83532844Y-103650000D01*
X88750000Y-104148593D02*
X88251407Y-103650000D01*
X82750000Y-104432844D02*
X82750000Y-104650000D01*
%TO.N,/MCU/W5500 Ethernet/TXN*%
X92750000Y-106050000D02*
X89150000Y-102450000D01*
X80017156Y-102450000D02*
X77750000Y-104717156D01*
X77750000Y-104717156D02*
X77750000Y-104950000D01*
X89150000Y-102450000D02*
X80017156Y-102450000D01*
%TO.N,/MCU/W5500 Ethernet/RXN*%
X89150000Y-103982905D02*
X88417095Y-103250000D01*
X90982843Y-109850000D02*
X89150000Y-108017157D01*
X91550000Y-109850000D02*
X90982843Y-109850000D01*
X88417095Y-103250000D02*
X82650000Y-103250000D01*
X89150000Y-108017157D02*
X89150000Y-103982905D01*
X82650000Y-103250000D02*
X80950000Y-104950000D01*
%TO.N,/MCU/W5500 Ethernet/LNKLED*%
X68810000Y-98960000D02*
X68820000Y-98950000D01*
X68820000Y-98950000D02*
X88850000Y-98950000D01*
X88850000Y-98950000D02*
X103599000Y-113699000D01*
X103599000Y-113699000D02*
X103599000Y-114199000D01*
X103599000Y-114199000D02*
X104300000Y-114900000D01*
X68470000Y-99300000D02*
X68810000Y-98960000D01*
%TO.N,/MCU/W5500 Ethernet/ACTLED*%
X83940364Y-97149000D02*
X84351000Y-97559636D01*
X83359636Y-97149000D02*
X83940364Y-97149000D01*
X68470000Y-98000000D02*
X68490000Y-98020000D01*
X88520000Y-98020000D02*
X104300000Y-113800000D01*
X84351000Y-98020000D02*
X88520000Y-98020000D01*
X82949000Y-98020000D02*
X82949000Y-97559636D01*
X68470000Y-98000000D02*
X68500000Y-98030000D01*
X84351000Y-97559636D02*
X84351000Y-98020000D01*
X82949000Y-97559636D02*
X83359636Y-97149000D01*
X68490000Y-98020000D02*
X82949000Y-98020000D01*
%TO.N,/MCU/W5500 Ethernet/TXP*%
X92049000Y-106340364D02*
X92049000Y-105914686D01*
X92250000Y-106541364D02*
X92049000Y-106340364D01*
X92250000Y-107000000D02*
X92250000Y-106541364D01*
X79400000Y-104950000D02*
X79400000Y-104832844D01*
X92049000Y-105914686D02*
X88984314Y-102850000D01*
X88984314Y-102850000D02*
X81500000Y-102850000D01*
X81500000Y-102850000D02*
X79400000Y-104950000D01*
%TO.N,USB_D-*%
X113513132Y-121254024D02*
X105842156Y-128925000D01*
X113213131Y-83250000D02*
X113213131Y-83536869D01*
X67862000Y-128925000D02*
X67502000Y-128565000D01*
X113513132Y-83550002D02*
X113513132Y-121254024D01*
X113213131Y-83250000D02*
X113513132Y-83550002D01*
X105842156Y-128925000D02*
X67862000Y-128925000D01*
%TO.N,USB_D+*%
X67792000Y-129325000D02*
X67502000Y-129615000D01*
X106007844Y-129325000D02*
X67792000Y-129325000D01*
X113913132Y-121419712D02*
X106007844Y-129325000D01*
X114213134Y-83250000D02*
X113913132Y-83550002D01*
X113913132Y-83550002D02*
X113913132Y-121419712D01*
%TO.N,Net-(IC2-PA8)*%
X84428123Y-141649350D02*
X83455908Y-142621565D01*
X129247000Y-116051700D02*
X103649350Y-141649350D01*
X129247000Y-78148300D02*
X129247000Y-116051700D01*
X115200000Y-80200000D02*
X115200000Y-76700000D01*
X126801700Y-75703000D02*
X129247000Y-78148300D01*
X113050000Y-82350000D02*
X115200000Y-80200000D01*
X116197000Y-75703000D02*
X126801700Y-75703000D01*
X103649350Y-141649350D02*
X84428123Y-141649350D01*
X111550000Y-83450000D02*
X112650000Y-82350000D01*
X111550000Y-83450000D02*
X111600000Y-83450000D01*
X115200000Y-76700000D02*
X116197000Y-75703000D01*
X112650000Y-82350000D02*
X113050000Y-82350000D01*
%TO.N,Net-(D4-K)*%
X80150000Y-140450000D02*
X80150000Y-130400000D01*
X80150000Y-130400000D02*
X80450000Y-130100000D01*
X80700000Y-141000000D02*
X80150000Y-140450000D01*
X80950000Y-141000000D02*
X80700000Y-141000000D01*
%TO.N,Net-(D5-A)*%
X84400000Y-139550000D02*
X84421565Y-139571565D01*
X82400000Y-145649000D02*
X83450000Y-146699000D01*
X83450000Y-146699000D02*
X116151000Y-146699000D01*
X116151000Y-146699000D02*
X127250000Y-135600000D01*
X82400000Y-141550000D02*
X82400000Y-145649000D01*
X84400000Y-139550000D02*
X95959343Y-139550000D01*
X84400000Y-139550000D02*
X82400000Y-141550000D01*
X95959343Y-139550000D02*
X95980908Y-139571565D01*
%TO.N,USB_DP*%
X57002000Y-130265000D02*
X56452000Y-130815000D01*
X61352000Y-130265000D02*
X57002000Y-130265000D01*
%TO.N,USB_DN*%
X60802000Y-128615000D02*
X56452000Y-128615000D01*
X61352000Y-128065000D02*
X60802000Y-128615000D01*
%TD*%
M02*
