%TF.GenerationSoftware,KiCad,Pcbnew,9.0.7*%
%TF.CreationDate,2026-02-08T15:09:09+00:00*%
%TF.ProjectId,lnb_control,6c6e625f-636f-46e7-9472-6f6c2e6b6963,rev?*%
%TF.SameCoordinates,Original*%
%TF.FileFunction,Copper,L2,Inr*%
%TF.FilePolarity,Positive*%
%FSLAX46Y46*%
G04 Gerber Fmt 4.6, Leading zero omitted, Abs format (unit mm)*
G04 Created by KiCad (PCBNEW 9.0.7) date 2026-02-08 15:09:09*
%MOMM*%
%LPD*%
G01*
G04 APERTURE LIST*
%TA.AperFunction,ComponentPad*%
%ADD10R,1.650000X1.650000*%
%TD*%
%TA.AperFunction,ComponentPad*%
%ADD11C,1.650000*%
%TD*%
%TA.AperFunction,ComponentPad*%
%ADD12C,0.970000*%
%TD*%
%TA.AperFunction,ViaPad*%
%ADD13C,0.800000*%
%TD*%
G04 APERTURE END LIST*
D10*
%TO.N,+3V3*%
%TO.C,J5*%
X114055000Y-59685000D03*
D11*
%TO.N,/MCU/SWDIO*%
X114055000Y-62225000D03*
%TO.N,GND*%
X111515000Y-59685000D03*
%TO.N,/MCU/SWCLK*%
X111515000Y-62225000D03*
%TO.N,GND*%
X108975000Y-59685000D03*
%TO.N,/MCU/SWO*%
X108975000Y-62225000D03*
%TO.N,GND*%
X106435000Y-59685000D03*
%TO.N,unconnected-(J5-Pad8)*%
X106435000Y-62225000D03*
%TO.N,GND*%
X103895000Y-59685000D03*
%TO.N,/MCU/NRST*%
X103895000Y-62225000D03*
%TD*%
D12*
%TO.N,GND*%
%TO.C,J6*%
X133510000Y-124030000D03*
X133510000Y-115270000D03*
%TD*%
%TO.N,GND*%
%TO.C,J7*%
X133510000Y-137250000D03*
X133510000Y-128490000D03*
%TD*%
D13*
%TO.N,GND*%
X63156634Y-77300040D03*
X89949997Y-107350000D03*
X61202000Y-126515000D03*
X124950000Y-84450000D03*
X91538000Y-79938000D03*
X101050000Y-55100000D03*
X76450000Y-93850000D03*
X65902000Y-131415000D03*
X94350000Y-95850000D03*
X94700000Y-116400000D03*
X56370000Y-99220000D03*
X95700000Y-104000000D03*
X101950000Y-68350000D03*
X101000000Y-53150000D03*
X61102000Y-132815000D03*
X116350000Y-52400000D03*
X115950000Y-87000000D03*
X57375000Y-67900000D03*
X86150000Y-55200000D03*
X112200000Y-77925000D03*
X100050000Y-147400000D03*
X90000000Y-119600000D03*
X60125000Y-82575000D03*
X92880908Y-138171565D03*
X89450000Y-55100000D03*
X79850000Y-70300000D03*
X53025000Y-67975000D03*
X63188247Y-72052347D03*
X87600000Y-88350000D03*
X88549997Y-110950000D03*
X83650000Y-97850000D03*
X89450000Y-53150000D03*
X120650000Y-90750000D03*
X94700000Y-73300000D03*
X103630908Y-126321565D03*
X128050000Y-120000000D03*
X108850000Y-100200000D03*
X63850000Y-58600000D03*
X108550000Y-113800000D03*
X53050000Y-82475000D03*
X74930000Y-58000000D03*
%TO.N,+3V3*%
X92050000Y-88150000D03*
X107131250Y-113631250D03*
X95750000Y-117000000D03*
X113750000Y-70100000D03*
X70570000Y-104260000D03*
X70290000Y-118740000D03*
X97050000Y-104200000D03*
X91538000Y-84488000D03*
X104450000Y-103612500D03*
X88550000Y-122650000D03*
X84300000Y-64900000D03*
X92800000Y-115250000D03*
X102000000Y-73900000D03*
X127200000Y-92700000D03*
X90950000Y-107350000D03*
X109088000Y-76850000D03*
X93400000Y-77000000D03*
X79150000Y-64000000D03*
X97550000Y-96800000D03*
X89550000Y-110950000D03*
X94850000Y-71900000D03*
X75900000Y-86650000D03*
X117450000Y-89500000D03*
X75850000Y-70200000D03*
X108950000Y-95551000D03*
X101100000Y-56800000D03*
%TO.N,/MCU/NRST*%
X97850000Y-71100000D03*
X91950000Y-86912000D03*
%TO.N,+12V*%
X98400000Y-144721565D03*
X97180908Y-137171565D03*
X83200000Y-52800000D03*
X89230908Y-137721565D03*
%TO.N,/MCU/W5500 Ethernet/SCSN*%
X106276958Y-109714958D03*
X111350000Y-93250000D03*
%TO.N,/MCU/W5500 Ethernet/SCLK*%
X111550148Y-92150452D03*
X106839434Y-108888142D03*
%TO.N,/MCU/W5500 Ethernet/MISO*%
X111239270Y-91200000D03*
X106166228Y-108148685D03*
%TO.N,/MCU/BOOT0*%
X89450000Y-63250000D03*
X97950000Y-75900000D03*
%TO.N,/MCU/I2C1_SDA*%
X113000000Y-75200000D03*
X100400000Y-75400000D03*
X96000000Y-144300000D03*
%TO.N,/MCU/I2C3_SCL*%
X124800000Y-86750000D03*
X115200000Y-85850000D03*
%TO.N,/MCU/W5500 Ethernet/W5500_RST*%
X101150000Y-101800000D03*
X111500000Y-87150000D03*
%TO.N,/MCU/USART3_RX*%
X104050000Y-96700000D03*
X104850000Y-56600000D03*
%TO.N,/MCU/LNBH26PQR/LNB_FLT*%
X103700000Y-73150000D03*
X90780908Y-145421565D03*
%TO.N,/MCU/SWCLK*%
X107450000Y-72500000D03*
%TO.N,/MCU/W5500 Ethernet/MOSI*%
X110923042Y-90251315D03*
X105850000Y-107200000D03*
%TO.N,/MCU/W5500 Ethernet/W5500_INT*%
X111500000Y-86100000D03*
X104200000Y-101250000D03*
%TO.N,/MCU/I2C3_SDA*%
X125550000Y-82450000D03*
X115600000Y-84550000D03*
%TO.N,/MCU/SWDIO*%
X108446684Y-72418604D03*
%TO.N,/MCU/I2C1_SCL*%
X100400000Y-76400000D03*
X114250000Y-75900000D03*
X95200000Y-143150000D03*
%TO.N,/MCU/SWO*%
X106450000Y-72451000D03*
%TO.N,/MCU/USART3_TX*%
X105600000Y-51900000D03*
X103049997Y-96700000D03*
%TO.N,VBUS*%
X55002000Y-129615000D03*
X61352000Y-129115000D03*
%TO.N,/MCU/W5500 Ethernet/RXP*%
X82600000Y-104950000D03*
X90700000Y-110500000D03*
%TO.N,/MCU/W5500 Ethernet/TXN*%
X77750000Y-104950000D03*
X92750000Y-106050000D03*
%TO.N,/MCU/W5500 Ethernet/RXN*%
X80950000Y-104950000D03*
X91550000Y-109850000D03*
%TO.N,/MCU/W5500 Ethernet/LNKLED*%
X68470000Y-99300000D03*
X104300000Y-114900000D03*
%TO.N,/MCU/W5500 Ethernet/ACTLED*%
X68470000Y-98000000D03*
X104300000Y-113800000D03*
%TO.N,/MCU/W5500 Ethernet/TXP*%
X92250000Y-107000000D03*
X79400000Y-104950000D03*
%TO.N,+3V3_ANA*%
X91800000Y-91500000D03*
X73450000Y-91050000D03*
%TO.N,VSSA*%
X91800000Y-90400000D03*
X68500000Y-90300000D03*
%TO.N,USB_D-*%
X67502000Y-128565000D03*
X113213131Y-83250000D03*
%TO.N,USB_D+*%
X67502000Y-129615000D03*
X114213134Y-83250000D03*
%TO.N,Net-(IC2-PA8)*%
X83455908Y-142621565D03*
X111550000Y-83450000D03*
%TO.N,Net-(D4-K)*%
X80450000Y-130100000D03*
X80950000Y-141000000D03*
%TO.N,Net-(D5-A)*%
X84400000Y-139550000D03*
X127250000Y-135600000D03*
X95980908Y-139571565D03*
%TO.N,USB_DP*%
X56452000Y-130815000D03*
X61352000Y-130265000D03*
%TO.N,USB_DN*%
X56452000Y-128615000D03*
X61352000Y-128065000D03*
%TO.N,PGND*%
X81030908Y-133221565D03*
X92430908Y-144671565D03*
X94580908Y-137221565D03*
X99150000Y-142900000D03*
%TD*%
%TA.AperFunction,Conductor*%
%TO.N,VSSA*%
G36*
X74292914Y-85670046D02*
G01*
X74339002Y-85722560D01*
X74350535Y-85774250D01*
X74399465Y-97125988D01*
X74380069Y-97193111D01*
X74327463Y-97239093D01*
X74275987Y-97250521D01*
X50725061Y-97349474D01*
X50657939Y-97330071D01*
X50611963Y-97277460D01*
X50600541Y-97224938D01*
X50600679Y-97193111D01*
X50627614Y-90970943D01*
X72849500Y-90970943D01*
X72849500Y-91129056D01*
X72890423Y-91281783D01*
X72890426Y-91281790D01*
X72969475Y-91418709D01*
X72969479Y-91418714D01*
X72969480Y-91418716D01*
X73081284Y-91530520D01*
X73081286Y-91530521D01*
X73081290Y-91530524D01*
X73218209Y-91609573D01*
X73218216Y-91609577D01*
X73370943Y-91650500D01*
X73370945Y-91650500D01*
X73529055Y-91650500D01*
X73529057Y-91650500D01*
X73681784Y-91609577D01*
X73818716Y-91530520D01*
X73930520Y-91418716D01*
X74009577Y-91281784D01*
X74050500Y-91129057D01*
X74050500Y-90970943D01*
X74009577Y-90818216D01*
X74009573Y-90818209D01*
X73930524Y-90681290D01*
X73930518Y-90681282D01*
X73818717Y-90569481D01*
X73818709Y-90569475D01*
X73681790Y-90490426D01*
X73681786Y-90490424D01*
X73681784Y-90490423D01*
X73529057Y-90449500D01*
X73370943Y-90449500D01*
X73218216Y-90490423D01*
X73218209Y-90490426D01*
X73081290Y-90569475D01*
X73081282Y-90569481D01*
X72969481Y-90681282D01*
X72969475Y-90681290D01*
X72890426Y-90818209D01*
X72890423Y-90818216D01*
X72849500Y-90970943D01*
X50627614Y-90970943D01*
X50649468Y-85922680D01*
X50669443Y-85855731D01*
X50722444Y-85810205D01*
X50772679Y-85799223D01*
X74225752Y-85650786D01*
X74292914Y-85670046D01*
G37*
%TD.AperFunction*%
%TD*%
%TA.AperFunction,Conductor*%
%TO.N,PGND*%
G36*
X108695298Y-131969685D02*
G01*
X108741053Y-132022489D01*
X108752237Y-132071718D01*
X108951622Y-142918216D01*
X108997686Y-145424122D01*
X108979237Y-145491512D01*
X108927283Y-145538230D01*
X108874101Y-145550400D01*
X91505802Y-145605624D01*
X91438701Y-145586153D01*
X91392778Y-145533495D01*
X91381408Y-145481625D01*
X91381408Y-145342510D01*
X91381408Y-145342508D01*
X91340485Y-145189781D01*
X91283040Y-145090282D01*
X91261432Y-145052855D01*
X91261426Y-145052847D01*
X91149625Y-144941046D01*
X91149617Y-144941040D01*
X91012698Y-144861991D01*
X91012694Y-144861989D01*
X91012692Y-144861988D01*
X90859965Y-144821065D01*
X90701851Y-144821065D01*
X90549124Y-144861988D01*
X90549117Y-144861991D01*
X90412198Y-144941040D01*
X90412190Y-144941046D01*
X90300389Y-145052847D01*
X90300383Y-145052855D01*
X90221334Y-145189774D01*
X90221331Y-145189781D01*
X90180408Y-145342508D01*
X90180408Y-145486233D01*
X90160723Y-145553272D01*
X90107919Y-145599027D01*
X90056802Y-145610232D01*
X77673489Y-145649607D01*
X77606388Y-145630136D01*
X77560465Y-145577478D01*
X77549098Y-145526515D01*
X77527317Y-142542508D01*
X82855408Y-142542508D01*
X82855408Y-142700622D01*
X82877022Y-142781284D01*
X82896331Y-142853348D01*
X82896334Y-142853355D01*
X82975383Y-142990274D01*
X82975386Y-142990278D01*
X82975388Y-142990281D01*
X83087192Y-143102085D01*
X83087194Y-143102086D01*
X83087198Y-143102089D01*
X83224117Y-143181138D01*
X83224124Y-143181142D01*
X83376851Y-143222065D01*
X83376853Y-143222065D01*
X83534963Y-143222065D01*
X83534965Y-143222065D01*
X83687692Y-143181142D01*
X83824624Y-143102085D01*
X83855766Y-143070943D01*
X94599500Y-143070943D01*
X94599500Y-143229056D01*
X94640423Y-143381783D01*
X94640426Y-143381790D01*
X94719475Y-143518709D01*
X94719479Y-143518714D01*
X94719480Y-143518716D01*
X94831284Y-143630520D01*
X94831286Y-143630521D01*
X94831290Y-143630524D01*
X94939628Y-143693072D01*
X94968216Y-143709577D01*
X95120943Y-143750500D01*
X95120945Y-143750500D01*
X95279054Y-143750500D01*
X95279057Y-143750500D01*
X95407435Y-143716101D01*
X95477281Y-143717764D01*
X95535144Y-143756926D01*
X95562648Y-143821154D01*
X95551062Y-143890057D01*
X95527209Y-143923554D01*
X95519482Y-143931280D01*
X95519475Y-143931290D01*
X95440426Y-144068209D01*
X95440423Y-144068216D01*
X95399500Y-144220943D01*
X95399500Y-144379057D01*
X95429169Y-144489781D01*
X95440423Y-144531783D01*
X95440426Y-144531790D01*
X95519475Y-144668709D01*
X95519479Y-144668714D01*
X95519480Y-144668716D01*
X95631284Y-144780520D01*
X95631286Y-144780521D01*
X95631290Y-144780524D01*
X95768209Y-144859573D01*
X95768216Y-144859577D01*
X95920943Y-144900500D01*
X95920945Y-144900500D01*
X96079055Y-144900500D01*
X96079057Y-144900500D01*
X96231784Y-144859577D01*
X96368716Y-144780520D01*
X96480520Y-144668716D01*
X96495651Y-144642508D01*
X97799500Y-144642508D01*
X97799500Y-144800622D01*
X97837127Y-144941046D01*
X97840423Y-144953348D01*
X97840426Y-144953355D01*
X97919475Y-145090274D01*
X97919479Y-145090279D01*
X97919480Y-145090281D01*
X98031284Y-145202085D01*
X98031286Y-145202086D01*
X98031290Y-145202089D01*
X98168209Y-145281138D01*
X98168216Y-145281142D01*
X98320943Y-145322065D01*
X98320945Y-145322065D01*
X98479055Y-145322065D01*
X98479057Y-145322065D01*
X98631784Y-145281142D01*
X98768716Y-145202085D01*
X98880520Y-145090281D01*
X98959577Y-144953349D01*
X99000500Y-144800622D01*
X99000500Y-144642508D01*
X98959577Y-144489781D01*
X98895651Y-144379057D01*
X98880524Y-144352855D01*
X98880518Y-144352847D01*
X98768717Y-144241046D01*
X98768709Y-144241040D01*
X98631790Y-144161991D01*
X98631786Y-144161989D01*
X98631784Y-144161988D01*
X98479057Y-144121065D01*
X98320943Y-144121065D01*
X98168216Y-144161988D01*
X98168209Y-144161991D01*
X98031290Y-144241040D01*
X98031282Y-144241046D01*
X97919481Y-144352847D01*
X97919475Y-144352855D01*
X97840426Y-144489774D01*
X97840423Y-144489781D01*
X97799500Y-144642508D01*
X96495651Y-144642508D01*
X96559577Y-144531784D01*
X96600500Y-144379057D01*
X96600500Y-144220943D01*
X96559577Y-144068216D01*
X96559573Y-144068209D01*
X96480524Y-143931290D01*
X96480518Y-143931282D01*
X96368717Y-143819481D01*
X96368709Y-143819475D01*
X96231790Y-143740426D01*
X96231786Y-143740424D01*
X96231784Y-143740423D01*
X96079057Y-143699500D01*
X95920943Y-143699500D01*
X95792567Y-143733898D01*
X95722717Y-143732235D01*
X95664855Y-143693072D01*
X95637351Y-143628844D01*
X95648938Y-143559941D01*
X95672793Y-143526442D01*
X95680520Y-143518716D01*
X95759577Y-143381784D01*
X95800500Y-143229057D01*
X95800500Y-143070943D01*
X95759577Y-142918216D01*
X95722130Y-142853355D01*
X95680524Y-142781290D01*
X95680518Y-142781282D01*
X95568717Y-142669481D01*
X95568709Y-142669475D01*
X95431790Y-142590426D01*
X95431786Y-142590424D01*
X95431784Y-142590423D01*
X95279057Y-142549500D01*
X95120943Y-142549500D01*
X94968216Y-142590423D01*
X94968209Y-142590426D01*
X94831290Y-142669475D01*
X94831282Y-142669481D01*
X94719481Y-142781282D01*
X94719475Y-142781290D01*
X94640426Y-142918209D01*
X94640423Y-142918216D01*
X94599500Y-143070943D01*
X83855766Y-143070943D01*
X83936428Y-142990281D01*
X84015485Y-142853349D01*
X84056408Y-142700622D01*
X84056408Y-142542508D01*
X84015485Y-142389781D01*
X84015481Y-142389774D01*
X83936432Y-142252855D01*
X83936426Y-142252847D01*
X83824625Y-142141046D01*
X83824617Y-142141040D01*
X83687698Y-142061991D01*
X83687694Y-142061989D01*
X83687692Y-142061988D01*
X83534965Y-142021065D01*
X83376851Y-142021065D01*
X83224124Y-142061988D01*
X83224117Y-142061991D01*
X83087198Y-142141040D01*
X83087190Y-142141046D01*
X82975389Y-142252847D01*
X82975383Y-142252855D01*
X82896334Y-142389774D01*
X82896331Y-142389781D01*
X82855408Y-142542508D01*
X77527317Y-142542508D01*
X77515481Y-140920943D01*
X80349500Y-140920943D01*
X80349500Y-141079056D01*
X80390423Y-141231783D01*
X80390426Y-141231790D01*
X80469475Y-141368709D01*
X80469479Y-141368714D01*
X80469480Y-141368716D01*
X80581284Y-141480520D01*
X80581286Y-141480521D01*
X80581290Y-141480524D01*
X80718209Y-141559573D01*
X80718216Y-141559577D01*
X80870943Y-141600500D01*
X80870945Y-141600500D01*
X81029055Y-141600500D01*
X81029057Y-141600500D01*
X81181784Y-141559577D01*
X81318716Y-141480520D01*
X81430520Y-141368716D01*
X81509577Y-141231784D01*
X81550500Y-141079057D01*
X81550500Y-140920943D01*
X81509577Y-140768216D01*
X81509573Y-140768209D01*
X81430524Y-140631290D01*
X81430518Y-140631282D01*
X81318717Y-140519481D01*
X81318709Y-140519475D01*
X81181790Y-140440426D01*
X81181786Y-140440424D01*
X81181784Y-140440423D01*
X81029057Y-140399500D01*
X80870943Y-140399500D01*
X80718216Y-140440423D01*
X80718209Y-140440426D01*
X80581290Y-140519475D01*
X80581282Y-140519481D01*
X80469481Y-140631282D01*
X80469475Y-140631290D01*
X80390426Y-140768209D01*
X80390423Y-140768216D01*
X80349500Y-140920943D01*
X77515481Y-140920943D01*
X77504897Y-139470943D01*
X83799500Y-139470943D01*
X83799500Y-139629057D01*
X83805279Y-139650622D01*
X83840423Y-139781783D01*
X83840426Y-139781790D01*
X83919475Y-139918709D01*
X83919479Y-139918714D01*
X83919480Y-139918716D01*
X84031284Y-140030520D01*
X84031286Y-140030521D01*
X84031290Y-140030524D01*
X84168209Y-140109573D01*
X84168216Y-140109577D01*
X84320943Y-140150500D01*
X84320945Y-140150500D01*
X84479055Y-140150500D01*
X84479057Y-140150500D01*
X84631784Y-140109577D01*
X84768716Y-140030520D01*
X84880520Y-139918716D01*
X84959577Y-139781784D01*
X85000500Y-139629057D01*
X85000500Y-139492508D01*
X95380408Y-139492508D01*
X95380408Y-139650622D01*
X95415555Y-139781790D01*
X95421331Y-139803348D01*
X95421334Y-139803355D01*
X95500383Y-139940274D01*
X95500387Y-139940279D01*
X95500388Y-139940281D01*
X95612192Y-140052085D01*
X95612194Y-140052086D01*
X95612198Y-140052089D01*
X95711765Y-140109573D01*
X95749124Y-140131142D01*
X95901851Y-140172065D01*
X95901853Y-140172065D01*
X96059963Y-140172065D01*
X96059965Y-140172065D01*
X96212692Y-140131142D01*
X96349624Y-140052085D01*
X96461428Y-139940281D01*
X96540485Y-139803349D01*
X96581408Y-139650622D01*
X96581408Y-139492508D01*
X96540485Y-139339781D01*
X96528031Y-139318209D01*
X96461432Y-139202855D01*
X96461426Y-139202847D01*
X96349625Y-139091046D01*
X96349617Y-139091040D01*
X96212698Y-139011991D01*
X96212694Y-139011989D01*
X96212692Y-139011988D01*
X96059965Y-138971065D01*
X95901851Y-138971065D01*
X95749124Y-139011988D01*
X95749117Y-139011991D01*
X95612198Y-139091040D01*
X95612190Y-139091046D01*
X95500389Y-139202847D01*
X95500383Y-139202855D01*
X95421334Y-139339774D01*
X95421331Y-139339781D01*
X95380408Y-139492508D01*
X85000500Y-139492508D01*
X85000500Y-139470943D01*
X84959577Y-139318216D01*
X84892974Y-139202855D01*
X84880524Y-139181290D01*
X84880518Y-139181282D01*
X84768717Y-139069481D01*
X84768709Y-139069475D01*
X84631790Y-138990426D01*
X84631786Y-138990424D01*
X84631784Y-138990423D01*
X84479057Y-138949500D01*
X84320943Y-138949500D01*
X84168216Y-138990423D01*
X84168209Y-138990426D01*
X84031290Y-139069475D01*
X84031282Y-139069481D01*
X83919481Y-139181282D01*
X83919475Y-139181290D01*
X83840426Y-139318209D01*
X83840423Y-139318216D01*
X83799500Y-139470943D01*
X77504897Y-139470943D01*
X77491551Y-137642508D01*
X88630408Y-137642508D01*
X88630408Y-137800622D01*
X88667696Y-137939781D01*
X88671331Y-137953348D01*
X88671334Y-137953355D01*
X88750383Y-138090274D01*
X88750387Y-138090279D01*
X88750388Y-138090281D01*
X88862192Y-138202085D01*
X88862194Y-138202086D01*
X88862198Y-138202089D01*
X88946261Y-138250622D01*
X88999124Y-138281142D01*
X89151851Y-138322065D01*
X89151853Y-138322065D01*
X89309963Y-138322065D01*
X89309965Y-138322065D01*
X89462692Y-138281142D01*
X89599624Y-138202085D01*
X89709201Y-138092508D01*
X92280408Y-138092508D01*
X92280408Y-138250621D01*
X92321331Y-138403348D01*
X92321334Y-138403355D01*
X92400383Y-138540274D01*
X92400387Y-138540279D01*
X92400388Y-138540281D01*
X92512192Y-138652085D01*
X92512194Y-138652086D01*
X92512198Y-138652089D01*
X92649117Y-138731138D01*
X92649124Y-138731142D01*
X92801851Y-138772065D01*
X92801853Y-138772065D01*
X92959963Y-138772065D01*
X92959965Y-138772065D01*
X93112692Y-138731142D01*
X93249624Y-138652085D01*
X93361428Y-138540281D01*
X93440485Y-138403349D01*
X93481408Y-138250622D01*
X93481408Y-138092508D01*
X93440485Y-137939781D01*
X93440481Y-137939774D01*
X93361432Y-137802855D01*
X93361426Y-137802847D01*
X93249625Y-137691046D01*
X93249617Y-137691040D01*
X93112698Y-137611991D01*
X93112694Y-137611989D01*
X93112692Y-137611988D01*
X92959965Y-137571065D01*
X92801851Y-137571065D01*
X92649124Y-137611988D01*
X92649117Y-137611991D01*
X92512198Y-137691040D01*
X92512190Y-137691046D01*
X92400389Y-137802847D01*
X92400383Y-137802855D01*
X92321334Y-137939774D01*
X92321331Y-137939781D01*
X92280408Y-138092508D01*
X89709201Y-138092508D01*
X89711428Y-138090281D01*
X89790485Y-137953349D01*
X89831408Y-137800622D01*
X89831408Y-137642508D01*
X89790485Y-137489781D01*
X89790481Y-137489774D01*
X89711432Y-137352855D01*
X89711426Y-137352847D01*
X89599625Y-137241046D01*
X89599624Y-137241045D01*
X89462692Y-137161988D01*
X89309965Y-137121065D01*
X89151851Y-137121065D01*
X88999124Y-137161988D01*
X88999117Y-137161991D01*
X88862198Y-137241040D01*
X88862190Y-137241046D01*
X88750389Y-137352847D01*
X88750383Y-137352855D01*
X88671334Y-137489774D01*
X88671331Y-137489781D01*
X88630408Y-137642508D01*
X77491551Y-137642508D01*
X77487536Y-137092508D01*
X96580408Y-137092508D01*
X96580408Y-137250621D01*
X96621331Y-137403348D01*
X96621334Y-137403355D01*
X96700383Y-137540274D01*
X96700387Y-137540279D01*
X96700388Y-137540281D01*
X96812192Y-137652085D01*
X96812194Y-137652086D01*
X96812198Y-137652089D01*
X96879673Y-137691045D01*
X96949124Y-137731142D01*
X97101851Y-137772065D01*
X97101853Y-137772065D01*
X97259963Y-137772065D01*
X97259965Y-137772065D01*
X97412692Y-137731142D01*
X97549624Y-137652085D01*
X97661428Y-137540281D01*
X97740485Y-137403349D01*
X97781408Y-137250622D01*
X97781408Y-137092508D01*
X97740485Y-136939781D01*
X97740481Y-136939774D01*
X97661432Y-136802855D01*
X97661426Y-136802847D01*
X97549625Y-136691046D01*
X97549617Y-136691040D01*
X97412698Y-136611991D01*
X97412694Y-136611989D01*
X97412692Y-136611988D01*
X97259965Y-136571065D01*
X97101851Y-136571065D01*
X96949124Y-136611988D01*
X96949117Y-136611991D01*
X96812198Y-136691040D01*
X96812190Y-136691046D01*
X96700389Y-136802847D01*
X96700383Y-136802855D01*
X96621334Y-136939774D01*
X96621331Y-136939781D01*
X96580408Y-137092508D01*
X77487536Y-137092508D01*
X77450912Y-132074905D01*
X77470107Y-132007724D01*
X77522576Y-131961585D01*
X77574909Y-131950000D01*
X108628259Y-131950000D01*
X108695298Y-131969685D01*
G37*
%TD.AperFunction*%
%TD*%
%TA.AperFunction,Conductor*%
%TO.N,GND*%
G36*
X92948677Y-137780790D02*
G01*
X92988126Y-137791360D01*
X93017604Y-137799258D01*
X93047510Y-137811645D01*
X93109306Y-137847322D01*
X93134988Y-137867029D01*
X93185443Y-137917484D01*
X93205146Y-137943162D01*
X93240826Y-138004962D01*
X93253213Y-138034864D01*
X93271683Y-138103795D01*
X93275908Y-138135889D01*
X93275908Y-138207239D01*
X93271683Y-138239333D01*
X93253213Y-138308262D01*
X93240825Y-138338167D01*
X93240825Y-138338168D01*
X93205146Y-138399966D01*
X93185440Y-138425647D01*
X93134990Y-138476097D01*
X93109309Y-138495803D01*
X93047511Y-138531482D01*
X93017606Y-138543869D01*
X92948679Y-138562339D01*
X92916584Y-138566565D01*
X92845233Y-138566565D01*
X92813140Y-138562340D01*
X92744211Y-138543871D01*
X92714304Y-138531483D01*
X92714302Y-138531482D01*
X92652512Y-138495807D01*
X92626832Y-138476102D01*
X92576371Y-138425642D01*
X92556663Y-138399959D01*
X92520988Y-138338167D01*
X92508601Y-138308260D01*
X92490133Y-138239332D01*
X92485908Y-138207240D01*
X92485908Y-138135887D01*
X92490133Y-138103795D01*
X92492916Y-138093407D01*
X92508602Y-138034863D01*
X92520985Y-138004965D01*
X92556668Y-137943159D01*
X92576371Y-137917484D01*
X92626828Y-137867026D01*
X92652502Y-137847325D01*
X92714308Y-137811642D01*
X92744208Y-137799258D01*
X92766117Y-137793388D01*
X92813140Y-137780790D01*
X92845231Y-137776565D01*
X92916585Y-137776565D01*
X92948677Y-137780790D01*
G37*
%TD.AperFunction*%
%TA.AperFunction,Conductor*%
G36*
X139442539Y-50520185D02*
G01*
X139488294Y-50572989D01*
X139499500Y-50624500D01*
X139499500Y-149375500D01*
X139479815Y-149442539D01*
X139427011Y-149488294D01*
X139375500Y-149499500D01*
X50624500Y-149499500D01*
X50557461Y-149479815D01*
X50511706Y-149427011D01*
X50500500Y-149375500D01*
X50500500Y-144888549D01*
X53299500Y-144888549D01*
X53299500Y-145111450D01*
X53299501Y-145111466D01*
X53328594Y-145332452D01*
X53328595Y-145332457D01*
X53328596Y-145332463D01*
X53367696Y-145478387D01*
X53386290Y-145547780D01*
X53386293Y-145547790D01*
X53471593Y-145753722D01*
X53471595Y-145753726D01*
X53583052Y-145946774D01*
X53583057Y-145946780D01*
X53583058Y-145946782D01*
X53718751Y-146123622D01*
X53718757Y-146123629D01*
X53876370Y-146281242D01*
X53876376Y-146281247D01*
X54053226Y-146416948D01*
X54246274Y-146528405D01*
X54452219Y-146613710D01*
X54667537Y-146671404D01*
X54888543Y-146700500D01*
X54888550Y-146700500D01*
X55111450Y-146700500D01*
X55111457Y-146700500D01*
X55332463Y-146671404D01*
X55547781Y-146613710D01*
X55753726Y-146528405D01*
X55946774Y-146416948D01*
X56123624Y-146281247D01*
X56281247Y-146123624D01*
X56416948Y-145946774D01*
X56528405Y-145753726D01*
X56613710Y-145547781D01*
X56671404Y-145332463D01*
X56700500Y-145111457D01*
X56700500Y-144888543D01*
X56671404Y-144667537D01*
X56613710Y-144452219D01*
X56528405Y-144246274D01*
X56416948Y-144053226D01*
X56281247Y-143876376D01*
X56281242Y-143876370D01*
X56123629Y-143718757D01*
X56123622Y-143718751D01*
X55946782Y-143583058D01*
X55946780Y-143583057D01*
X55946774Y-143583052D01*
X55753726Y-143471595D01*
X55753722Y-143471593D01*
X55547790Y-143386293D01*
X55547783Y-143386291D01*
X55547781Y-143386290D01*
X55332463Y-143328596D01*
X55332457Y-143328595D01*
X55332452Y-143328594D01*
X55111466Y-143299501D01*
X55111463Y-143299500D01*
X55111457Y-143299500D01*
X54888543Y-143299500D01*
X54888537Y-143299500D01*
X54888533Y-143299501D01*
X54667547Y-143328594D01*
X54667540Y-143328595D01*
X54667537Y-143328596D01*
X54452219Y-143386290D01*
X54452209Y-143386293D01*
X54246277Y-143471593D01*
X54246273Y-143471595D01*
X54053226Y-143583052D01*
X54053217Y-143583058D01*
X53876377Y-143718751D01*
X53876370Y-143718757D01*
X53718757Y-143876370D01*
X53718751Y-143876377D01*
X53583058Y-144053217D01*
X53583052Y-144053226D01*
X53471595Y-144246273D01*
X53471593Y-144246277D01*
X53386293Y-144452209D01*
X53386290Y-144452219D01*
X53328597Y-144667534D01*
X53328594Y-144667547D01*
X53299501Y-144888533D01*
X53299500Y-144888549D01*
X50500500Y-144888549D01*
X50500500Y-132498982D01*
X56879500Y-132498982D01*
X56879500Y-132611018D01*
X56908497Y-132719237D01*
X56964515Y-132816263D01*
X57043737Y-132895485D01*
X57140763Y-132951503D01*
X57248982Y-132980500D01*
X57248984Y-132980500D01*
X57361016Y-132980500D01*
X57361018Y-132980500D01*
X57469237Y-132951503D01*
X57566263Y-132895485D01*
X57645485Y-132816263D01*
X57701503Y-132719237D01*
X57730500Y-132611018D01*
X57730500Y-132498982D01*
X57701503Y-132390763D01*
X57645485Y-132293737D01*
X57566263Y-132214515D01*
X57469237Y-132158497D01*
X57361018Y-132129500D01*
X57248982Y-132129500D01*
X57140763Y-132158497D01*
X57140760Y-132158498D01*
X57043740Y-132214513D01*
X57043734Y-132214517D01*
X56964517Y-132293734D01*
X56964513Y-132293740D01*
X56908498Y-132390760D01*
X56908497Y-132390763D01*
X56879500Y-132498982D01*
X50500500Y-132498982D01*
X50500500Y-132076395D01*
X77245417Y-132076395D01*
X77245417Y-132076402D01*
X77245417Y-132076405D01*
X77275519Y-136200499D01*
X77282041Y-137094007D01*
X77282228Y-137119563D01*
X77282228Y-137119565D01*
X77286056Y-137644007D01*
X77286243Y-137669563D01*
X77286243Y-137669565D01*
X77289527Y-138119563D01*
X77299402Y-139472442D01*
X77299589Y-139497998D01*
X77299589Y-139498000D01*
X77309986Y-140922442D01*
X77310173Y-140947998D01*
X77310173Y-140948000D01*
X77321822Y-142544007D01*
X77322009Y-142569563D01*
X77322009Y-142569565D01*
X77325866Y-143097998D01*
X77334260Y-144247998D01*
X77343603Y-145528020D01*
X77348527Y-145571254D01*
X77348527Y-145571256D01*
X77359887Y-145622186D01*
X77359894Y-145622214D01*
X77362322Y-145631972D01*
X77405588Y-145712546D01*
X77451511Y-145765204D01*
X77451516Y-145765209D01*
X77451523Y-145765217D01*
X77469156Y-145783099D01*
X77469159Y-145783101D01*
X77469160Y-145783102D01*
X77549119Y-145827495D01*
X77616220Y-145846966D01*
X77674142Y-145855106D01*
X90057455Y-145815731D01*
X90100803Y-145810966D01*
X90151920Y-145799761D01*
X90161781Y-145797343D01*
X90175756Y-145789895D01*
X90244176Y-145775739D01*
X90309388Y-145800821D01*
X90321753Y-145811646D01*
X90412192Y-145902085D01*
X90412194Y-145902086D01*
X90412198Y-145902089D01*
X90489596Y-145946774D01*
X90549124Y-145981142D01*
X90701851Y-146022065D01*
X90701853Y-146022065D01*
X90859963Y-146022065D01*
X90859965Y-146022065D01*
X91012692Y-145981142D01*
X91149624Y-145902085D01*
X91242784Y-145808924D01*
X91304103Y-145775442D01*
X91373795Y-145780426D01*
X91378139Y-145782140D01*
X91381428Y-145783510D01*
X91381432Y-145783512D01*
X91448533Y-145802983D01*
X91506455Y-145811123D01*
X108874754Y-145755899D01*
X108919942Y-145750722D01*
X108973124Y-145738552D01*
X108984782Y-145735522D01*
X109064689Y-145691036D01*
X109116643Y-145644318D01*
X109134272Y-145626399D01*
X109177444Y-145545774D01*
X109195893Y-145478384D01*
X109203151Y-145420345D01*
X109193375Y-144888549D01*
X133299500Y-144888549D01*
X133299500Y-145111450D01*
X133299501Y-145111466D01*
X133328594Y-145332452D01*
X133328595Y-145332457D01*
X133328596Y-145332463D01*
X133367696Y-145478387D01*
X133386290Y-145547780D01*
X133386293Y-145547790D01*
X133471593Y-145753722D01*
X133471595Y-145753726D01*
X133583052Y-145946774D01*
X133583057Y-145946780D01*
X133583058Y-145946782D01*
X133718751Y-146123622D01*
X133718757Y-146123629D01*
X133876370Y-146281242D01*
X133876376Y-146281247D01*
X134053226Y-146416948D01*
X134246274Y-146528405D01*
X134452219Y-146613710D01*
X134667537Y-146671404D01*
X134888543Y-146700500D01*
X134888550Y-146700500D01*
X135111450Y-146700500D01*
X135111457Y-146700500D01*
X135332463Y-146671404D01*
X135547781Y-146613710D01*
X135753726Y-146528405D01*
X135946774Y-146416948D01*
X136123624Y-146281247D01*
X136281247Y-146123624D01*
X136416948Y-145946774D01*
X136528405Y-145753726D01*
X136613710Y-145547781D01*
X136671404Y-145332463D01*
X136700500Y-145111457D01*
X136700500Y-144888543D01*
X136671404Y-144667537D01*
X136613710Y-144452219D01*
X136528405Y-144246274D01*
X136416948Y-144053226D01*
X136281247Y-143876376D01*
X136281242Y-143876370D01*
X136123629Y-143718757D01*
X136123622Y-143718751D01*
X135946782Y-143583058D01*
X135946780Y-143583057D01*
X135946774Y-143583052D01*
X135753726Y-143471595D01*
X135753722Y-143471593D01*
X135547790Y-143386293D01*
X135547783Y-143386291D01*
X135547781Y-143386290D01*
X135332463Y-143328596D01*
X135332457Y-143328595D01*
X135332452Y-143328594D01*
X135111466Y-143299501D01*
X135111463Y-143299500D01*
X135111457Y-143299500D01*
X134888543Y-143299500D01*
X134888537Y-143299500D01*
X134888533Y-143299501D01*
X134667547Y-143328594D01*
X134667540Y-143328595D01*
X134667537Y-143328596D01*
X134452219Y-143386290D01*
X134452209Y-143386293D01*
X134246277Y-143471593D01*
X134246273Y-143471595D01*
X134053226Y-143583052D01*
X134053217Y-143583058D01*
X133876377Y-143718751D01*
X133876370Y-143718757D01*
X133718757Y-143876370D01*
X133718751Y-143876377D01*
X133583058Y-144053217D01*
X133583052Y-144053226D01*
X133471595Y-144246273D01*
X133471593Y-144246277D01*
X133386293Y-144452209D01*
X133386290Y-144452219D01*
X133328597Y-144667534D01*
X133328594Y-144667547D01*
X133299501Y-144888533D01*
X133299500Y-144888549D01*
X109193375Y-144888549D01*
X109068618Y-138101758D01*
X133011794Y-138101758D01*
X133011794Y-138101759D01*
X133043431Y-138122898D01*
X133222681Y-138197145D01*
X133222693Y-138197148D01*
X133412981Y-138234999D01*
X133412984Y-138235000D01*
X133607016Y-138235000D01*
X133607018Y-138234999D01*
X133797306Y-138197148D01*
X133797318Y-138197145D01*
X133976565Y-138122899D01*
X134008204Y-138101758D01*
X133510001Y-137603554D01*
X133510000Y-137603554D01*
X133011794Y-138101758D01*
X109068618Y-138101758D01*
X109051177Y-137152981D01*
X132525000Y-137152981D01*
X132525000Y-137347018D01*
X132562851Y-137537306D01*
X132562853Y-137537314D01*
X132637102Y-137716568D01*
X132637106Y-137716575D01*
X132658240Y-137748204D01*
X132658241Y-137748205D01*
X133156446Y-137250000D01*
X133110696Y-137204250D01*
X133280000Y-137204250D01*
X133280000Y-137295750D01*
X133315015Y-137380285D01*
X133379715Y-137444985D01*
X133464250Y-137480000D01*
X133555750Y-137480000D01*
X133640285Y-137444985D01*
X133704985Y-137380285D01*
X133740000Y-137295750D01*
X133740000Y-137249999D01*
X133863554Y-137249999D01*
X133863554Y-137250000D01*
X134361758Y-137748204D01*
X134382899Y-137716565D01*
X134457145Y-137537318D01*
X134457148Y-137537306D01*
X134494999Y-137347018D01*
X134495000Y-137347016D01*
X134495000Y-137152983D01*
X134494999Y-137152981D01*
X134457148Y-136962693D01*
X134457145Y-136962681D01*
X134382898Y-136783431D01*
X134361758Y-136751794D01*
X133863554Y-137249999D01*
X133740000Y-137249999D01*
X133740000Y-137204250D01*
X133704985Y-137119715D01*
X133640285Y-137055015D01*
X133555750Y-137020000D01*
X133464250Y-137020000D01*
X133379715Y-137055015D01*
X133315015Y-137119715D01*
X133280000Y-137204250D01*
X133110696Y-137204250D01*
X132658240Y-136751794D01*
X132637104Y-136783426D01*
X132637103Y-136783428D01*
X132562853Y-136962685D01*
X132562851Y-136962693D01*
X132525000Y-137152981D01*
X109051177Y-137152981D01*
X109044384Y-136783426D01*
X109038195Y-136446729D01*
X109037304Y-136398240D01*
X133011794Y-136398240D01*
X133510000Y-136896446D01*
X133510001Y-136896446D01*
X134008205Y-136398241D01*
X134008204Y-136398240D01*
X133976575Y-136377106D01*
X133976568Y-136377102D01*
X133797314Y-136302853D01*
X133797306Y-136302851D01*
X133607017Y-136265000D01*
X133412983Y-136265000D01*
X133222693Y-136302851D01*
X133222685Y-136302853D01*
X133043428Y-136377103D01*
X133043426Y-136377104D01*
X133011794Y-136398240D01*
X109037304Y-136398240D01*
X109021177Y-135520943D01*
X126649500Y-135520943D01*
X126649500Y-135679056D01*
X126690423Y-135831783D01*
X126690426Y-135831790D01*
X126769475Y-135968709D01*
X126769479Y-135968714D01*
X126769480Y-135968716D01*
X126881284Y-136080520D01*
X126881286Y-136080521D01*
X126881290Y-136080524D01*
X127018209Y-136159573D01*
X127018216Y-136159577D01*
X127170943Y-136200500D01*
X127170945Y-136200500D01*
X127329055Y-136200500D01*
X127329057Y-136200500D01*
X127481784Y-136159577D01*
X127618716Y-136080520D01*
X127730520Y-135968716D01*
X127809577Y-135831784D01*
X127850500Y-135679057D01*
X127850500Y-135520943D01*
X127809577Y-135368216D01*
X127809573Y-135368209D01*
X127730524Y-135231290D01*
X127730518Y-135231282D01*
X127618717Y-135119481D01*
X127618709Y-135119475D01*
X127481790Y-135040426D01*
X127481786Y-135040424D01*
X127481784Y-135040423D01*
X127329057Y-134999500D01*
X127170943Y-134999500D01*
X127018216Y-135040423D01*
X127018209Y-135040426D01*
X126881290Y-135119475D01*
X126881282Y-135119481D01*
X126769481Y-135231282D01*
X126769475Y-135231290D01*
X126690426Y-135368209D01*
X126690423Y-135368216D01*
X126649500Y-135520943D01*
X109021177Y-135520943D01*
X109021069Y-135515095D01*
X108957858Y-132076405D01*
X108957702Y-132067941D01*
X108952631Y-132026192D01*
X108941447Y-131976963D01*
X108939369Y-131968627D01*
X108896359Y-131887915D01*
X108850604Y-131835111D01*
X108850598Y-131835104D01*
X108833016Y-131817160D01*
X108833015Y-131817159D01*
X108833013Y-131817157D01*
X108833011Y-131817156D01*
X108833009Y-131817154D01*
X108753199Y-131772511D01*
X108753194Y-131772509D01*
X108686162Y-131752826D01*
X108686158Y-131752825D01*
X108686157Y-131752825D01*
X108628259Y-131744500D01*
X77574909Y-131744500D01*
X77574904Y-131744500D01*
X77530495Y-131749356D01*
X77478151Y-131760943D01*
X77467274Y-131763665D01*
X77467260Y-131763670D01*
X77386875Y-131807261D01*
X77334396Y-131853410D01*
X77334386Y-131853419D01*
X77316578Y-131871124D01*
X77316576Y-131871126D01*
X77272513Y-131951268D01*
X77272512Y-131951270D01*
X77253319Y-132018449D01*
X77253317Y-132018456D01*
X77245417Y-132076395D01*
X50500500Y-132076395D01*
X50500500Y-130735943D01*
X55851500Y-130735943D01*
X55851500Y-130894056D01*
X55892423Y-131046783D01*
X55892426Y-131046790D01*
X55971475Y-131183709D01*
X55971479Y-131183714D01*
X55971480Y-131183716D01*
X56083284Y-131295520D01*
X56083286Y-131295521D01*
X56083290Y-131295524D01*
X56220209Y-131374573D01*
X56220216Y-131374577D01*
X56372943Y-131415500D01*
X56372945Y-131415500D01*
X56531055Y-131415500D01*
X56531057Y-131415500D01*
X56683784Y-131374577D01*
X56820716Y-131295520D01*
X56932520Y-131183716D01*
X57011577Y-131046784D01*
X57052500Y-130894057D01*
X57052500Y-130735943D01*
X57011577Y-130583216D01*
X57010023Y-130580524D01*
X56932524Y-130446290D01*
X56932518Y-130446282D01*
X56820717Y-130334481D01*
X56820709Y-130334475D01*
X56683790Y-130255426D01*
X56683786Y-130255424D01*
X56683784Y-130255423D01*
X56531057Y-130214500D01*
X56372943Y-130214500D01*
X56220216Y-130255423D01*
X56220209Y-130255426D01*
X56083290Y-130334475D01*
X56083282Y-130334481D01*
X55971481Y-130446282D01*
X55971475Y-130446290D01*
X55892426Y-130583209D01*
X55892423Y-130583216D01*
X55851500Y-130735943D01*
X50500500Y-130735943D01*
X50500500Y-129535943D01*
X54401500Y-129535943D01*
X54401500Y-129694057D01*
X54411475Y-129731282D01*
X54442423Y-129846783D01*
X54442426Y-129846790D01*
X54521475Y-129983709D01*
X54521479Y-129983714D01*
X54521480Y-129983716D01*
X54633284Y-130095520D01*
X54633286Y-130095521D01*
X54633290Y-130095524D01*
X54770209Y-130174573D01*
X54770216Y-130174577D01*
X54922943Y-130215500D01*
X54922945Y-130215500D01*
X55081055Y-130215500D01*
X55081057Y-130215500D01*
X55233784Y-130174577D01*
X55370716Y-130095520D01*
X55482520Y-129983716D01*
X55561577Y-129846784D01*
X55602500Y-129694057D01*
X55602500Y-129535943D01*
X55561577Y-129383216D01*
X55537642Y-129341759D01*
X55482524Y-129246290D01*
X55482518Y-129246282D01*
X55370717Y-129134481D01*
X55370709Y-129134475D01*
X55233790Y-129055426D01*
X55233786Y-129055424D01*
X55233784Y-129055423D01*
X55081057Y-129014500D01*
X54922943Y-129014500D01*
X54770216Y-129055423D01*
X54770209Y-129055426D01*
X54633290Y-129134475D01*
X54633282Y-129134481D01*
X54521481Y-129246282D01*
X54521475Y-129246290D01*
X54442426Y-129383209D01*
X54442423Y-129383216D01*
X54401500Y-129535943D01*
X50500500Y-129535943D01*
X50500500Y-128535943D01*
X55851500Y-128535943D01*
X55851500Y-128694057D01*
X55879026Y-128796783D01*
X55892423Y-128846783D01*
X55892426Y-128846790D01*
X55971475Y-128983709D01*
X55971479Y-128983714D01*
X55971480Y-128983716D01*
X56083284Y-129095520D01*
X56083286Y-129095521D01*
X56083290Y-129095524D01*
X56150765Y-129134480D01*
X56220216Y-129174577D01*
X56372943Y-129215500D01*
X56372945Y-129215500D01*
X56531055Y-129215500D01*
X56531057Y-129215500D01*
X56683784Y-129174577D01*
X56820716Y-129095520D01*
X56932520Y-128983716D01*
X57011577Y-128846784D01*
X57052500Y-128694057D01*
X57052500Y-128535943D01*
X57011577Y-128383216D01*
X56982706Y-128333209D01*
X56932524Y-128246290D01*
X56932518Y-128246282D01*
X56820717Y-128134481D01*
X56820716Y-128134480D01*
X56683784Y-128055423D01*
X56531057Y-128014500D01*
X56372943Y-128014500D01*
X56220216Y-128055423D01*
X56220209Y-128055426D01*
X56083290Y-128134475D01*
X56083282Y-128134481D01*
X55971481Y-128246282D01*
X55971475Y-128246290D01*
X55892426Y-128383209D01*
X55892423Y-128383216D01*
X55851500Y-128535943D01*
X50500500Y-128535943D01*
X50500500Y-127985943D01*
X60751500Y-127985943D01*
X60751500Y-128144057D01*
X60767212Y-128202693D01*
X60792423Y-128296783D01*
X60792426Y-128296790D01*
X60871475Y-128433709D01*
X60871481Y-128433717D01*
X60940083Y-128502319D01*
X60973568Y-128563642D01*
X60968584Y-128633334D01*
X60940083Y-128677681D01*
X60871481Y-128746282D01*
X60871475Y-128746290D01*
X60792426Y-128883209D01*
X60792423Y-128883216D01*
X60751500Y-129035943D01*
X60751500Y-129194057D01*
X60791077Y-129341758D01*
X60792423Y-129346783D01*
X60792426Y-129346790D01*
X60871475Y-129483709D01*
X60871481Y-129483717D01*
X60989031Y-129601267D01*
X60986849Y-129603448D01*
X61019424Y-129648093D01*
X61023554Y-129717840D01*
X60989321Y-129778749D01*
X60987030Y-129780733D01*
X60871481Y-129896282D01*
X60871475Y-129896290D01*
X60792426Y-130033209D01*
X60792423Y-130033216D01*
X60751500Y-130185943D01*
X60751500Y-130344057D01*
X60784903Y-130468717D01*
X60792423Y-130496783D01*
X60792426Y-130496790D01*
X60871475Y-130633709D01*
X60871479Y-130633714D01*
X60871480Y-130633716D01*
X60983284Y-130745520D01*
X60983286Y-130745521D01*
X60983290Y-130745524D01*
X61120209Y-130824573D01*
X61120216Y-130824577D01*
X61272943Y-130865500D01*
X61272945Y-130865500D01*
X61431055Y-130865500D01*
X61431057Y-130865500D01*
X61583784Y-130824577D01*
X61720716Y-130745520D01*
X61832520Y-130633716D01*
X61911577Y-130496784D01*
X61952500Y-130344057D01*
X61952500Y-130185943D01*
X61911577Y-130033216D01*
X61882999Y-129983717D01*
X61832524Y-129896290D01*
X61832518Y-129896282D01*
X61714969Y-129778733D01*
X61717155Y-129776546D01*
X61684590Y-129731948D01*
X61680435Y-129662202D01*
X61714647Y-129601282D01*
X61716946Y-129599289D01*
X61720713Y-129595521D01*
X61720716Y-129595520D01*
X61832520Y-129483716D01*
X61911577Y-129346784D01*
X61952500Y-129194057D01*
X61952500Y-129035943D01*
X61911577Y-128883216D01*
X61890543Y-128846783D01*
X61832524Y-128746290D01*
X61832518Y-128746282D01*
X61763917Y-128677681D01*
X61761507Y-128673268D01*
X61757298Y-128670520D01*
X61744929Y-128642907D01*
X61730432Y-128616358D01*
X61730790Y-128611343D01*
X61728735Y-128606755D01*
X61733257Y-128576842D01*
X61735416Y-128546666D01*
X61738634Y-128541286D01*
X61739181Y-128537670D01*
X61750331Y-128521734D01*
X61758477Y-128508119D01*
X61761099Y-128505136D01*
X61780292Y-128485943D01*
X66901500Y-128485943D01*
X66901500Y-128644057D01*
X66914898Y-128694057D01*
X66942423Y-128796783D01*
X66942426Y-128796790D01*
X67021475Y-128933709D01*
X67021481Y-128933717D01*
X67090083Y-129002319D01*
X67123568Y-129063642D01*
X67118584Y-129133334D01*
X67090083Y-129177681D01*
X67021481Y-129246282D01*
X67021475Y-129246290D01*
X66942426Y-129383209D01*
X66942423Y-129383216D01*
X66901500Y-129535943D01*
X66901500Y-129694057D01*
X66911475Y-129731282D01*
X66942423Y-129846783D01*
X66942426Y-129846790D01*
X67021475Y-129983709D01*
X67021479Y-129983714D01*
X67021480Y-129983716D01*
X67133284Y-130095520D01*
X67133286Y-130095521D01*
X67133290Y-130095524D01*
X67270209Y-130174573D01*
X67270216Y-130174577D01*
X67422943Y-130215500D01*
X67422945Y-130215500D01*
X67581055Y-130215500D01*
X67581057Y-130215500D01*
X67733784Y-130174577D01*
X67870716Y-130095520D01*
X67945293Y-130020943D01*
X79849500Y-130020943D01*
X79849500Y-130179056D01*
X79890423Y-130331783D01*
X79890426Y-130331790D01*
X79969475Y-130468709D01*
X79969479Y-130468714D01*
X79969480Y-130468716D01*
X80081284Y-130580520D01*
X80081286Y-130580521D01*
X80081290Y-130580524D01*
X80218209Y-130659573D01*
X80218216Y-130659577D01*
X80370943Y-130700500D01*
X80370945Y-130700500D01*
X80529055Y-130700500D01*
X80529057Y-130700500D01*
X80681784Y-130659577D01*
X80818716Y-130580520D01*
X80930520Y-130468716D01*
X81009577Y-130331784D01*
X81050500Y-130179057D01*
X81050500Y-130020943D01*
X81009577Y-129868216D01*
X80997203Y-129846783D01*
X80930524Y-129731290D01*
X80930518Y-129731282D01*
X80818717Y-129619481D01*
X80818709Y-129619475D01*
X80681790Y-129540426D01*
X80681786Y-129540424D01*
X80681784Y-129540423D01*
X80529057Y-129499500D01*
X80370943Y-129499500D01*
X80218216Y-129540423D01*
X80218209Y-129540426D01*
X80081290Y-129619475D01*
X80081282Y-129619481D01*
X79969481Y-129731282D01*
X79969475Y-129731290D01*
X79890426Y-129868209D01*
X79890423Y-129868216D01*
X79849500Y-130020943D01*
X67945293Y-130020943D01*
X67982520Y-129983716D01*
X68061577Y-129846784D01*
X68102500Y-129694057D01*
X68102500Y-129535943D01*
X68061577Y-129383216D01*
X68037641Y-129341758D01*
X133011794Y-129341758D01*
X133011794Y-129341759D01*
X133043431Y-129362898D01*
X133222681Y-129437145D01*
X133222693Y-129437148D01*
X133412981Y-129474999D01*
X133412984Y-129475000D01*
X133607016Y-129475000D01*
X133607018Y-129474999D01*
X133797306Y-129437148D01*
X133797318Y-129437145D01*
X133976565Y-129362899D01*
X134008204Y-129341758D01*
X133510001Y-128843554D01*
X133510000Y-128843554D01*
X133011794Y-129341758D01*
X68037641Y-129341758D01*
X67982522Y-129246287D01*
X67982518Y-129246282D01*
X67913917Y-129177681D01*
X67880432Y-129116358D01*
X67885416Y-129046666D01*
X67913917Y-129002319D01*
X67932527Y-128983709D01*
X67982520Y-128933716D01*
X68061577Y-128796784D01*
X68102500Y-128644057D01*
X68102500Y-128485943D01*
X68077591Y-128392981D01*
X132525000Y-128392981D01*
X132525000Y-128587018D01*
X132562851Y-128777306D01*
X132562853Y-128777314D01*
X132637102Y-128956568D01*
X132637106Y-128956575D01*
X132658240Y-128988204D01*
X132658241Y-128988205D01*
X133156446Y-128490000D01*
X133110696Y-128444250D01*
X133280000Y-128444250D01*
X133280000Y-128535750D01*
X133315015Y-128620285D01*
X133379715Y-128684985D01*
X133464250Y-128720000D01*
X133555750Y-128720000D01*
X133640285Y-128684985D01*
X133704985Y-128620285D01*
X133740000Y-128535750D01*
X133740000Y-128489999D01*
X133863554Y-128489999D01*
X133863554Y-128490000D01*
X134361758Y-128988204D01*
X134382899Y-128956565D01*
X134457145Y-128777318D01*
X134457148Y-128777306D01*
X134494999Y-128587018D01*
X134495000Y-128587016D01*
X134495000Y-128392983D01*
X134494999Y-128392981D01*
X134457148Y-128202693D01*
X134457145Y-128202681D01*
X134382898Y-128023431D01*
X134361758Y-127991794D01*
X133863554Y-128489999D01*
X133740000Y-128489999D01*
X133740000Y-128444250D01*
X133704985Y-128359715D01*
X133640285Y-128295015D01*
X133555750Y-128260000D01*
X133464250Y-128260000D01*
X133379715Y-128295015D01*
X133315015Y-128359715D01*
X133280000Y-128444250D01*
X133110696Y-128444250D01*
X132658240Y-127991794D01*
X132637104Y-128023426D01*
X132637103Y-128023428D01*
X132562853Y-128202685D01*
X132562851Y-128202693D01*
X132525000Y-128392981D01*
X68077591Y-128392981D01*
X68061577Y-128333216D01*
X68011391Y-128246290D01*
X67982524Y-128196290D01*
X67982518Y-128196282D01*
X67870717Y-128084481D01*
X67870709Y-128084475D01*
X67733790Y-128005426D01*
X67733786Y-128005424D01*
X67733784Y-128005423D01*
X67581057Y-127964500D01*
X67422943Y-127964500D01*
X67270216Y-128005423D01*
X67270209Y-128005426D01*
X67133290Y-128084475D01*
X67133282Y-128084481D01*
X67021481Y-128196282D01*
X67021475Y-128196290D01*
X66942426Y-128333209D01*
X66942424Y-128333214D01*
X66942423Y-128333216D01*
X66901500Y-128485943D01*
X61780292Y-128485943D01*
X61832520Y-128433716D01*
X61911577Y-128296784D01*
X61952500Y-128144057D01*
X61952500Y-127985943D01*
X61911577Y-127833216D01*
X61832520Y-127696284D01*
X61774476Y-127638240D01*
X133011794Y-127638240D01*
X133510000Y-128136446D01*
X133510001Y-128136446D01*
X134008205Y-127638241D01*
X134008204Y-127638240D01*
X133976575Y-127617106D01*
X133976568Y-127617102D01*
X133797314Y-127542853D01*
X133797306Y-127542851D01*
X133607017Y-127505000D01*
X133412983Y-127505000D01*
X133222693Y-127542851D01*
X133222685Y-127542853D01*
X133043428Y-127617103D01*
X133043426Y-127617104D01*
X133011794Y-127638240D01*
X61774476Y-127638240D01*
X61720716Y-127584480D01*
X61720714Y-127584479D01*
X61720709Y-127584475D01*
X61583790Y-127505426D01*
X61583786Y-127505424D01*
X61583784Y-127505423D01*
X61431057Y-127464500D01*
X61272943Y-127464500D01*
X61120216Y-127505423D01*
X61120209Y-127505426D01*
X60983290Y-127584475D01*
X60983282Y-127584481D01*
X60871481Y-127696282D01*
X60871475Y-127696290D01*
X60792426Y-127833209D01*
X60792423Y-127833216D01*
X60751500Y-127985943D01*
X50500500Y-127985943D01*
X50500500Y-126718982D01*
X56879500Y-126718982D01*
X56879500Y-126831018D01*
X56908497Y-126939237D01*
X56964515Y-127036263D01*
X57043737Y-127115485D01*
X57140763Y-127171503D01*
X57248982Y-127200500D01*
X57248984Y-127200500D01*
X57361016Y-127200500D01*
X57361018Y-127200500D01*
X57469237Y-127171503D01*
X57566263Y-127115485D01*
X57645485Y-127036263D01*
X57701503Y-126939237D01*
X57730500Y-126831018D01*
X57730500Y-126718982D01*
X57701503Y-126610763D01*
X57645485Y-126513737D01*
X57566263Y-126434515D01*
X57469237Y-126378497D01*
X57361018Y-126349500D01*
X57248982Y-126349500D01*
X57140763Y-126378497D01*
X57140760Y-126378498D01*
X57043740Y-126434513D01*
X57043734Y-126434517D01*
X56964517Y-126513734D01*
X56964513Y-126513740D01*
X56908498Y-126610760D01*
X56908497Y-126610763D01*
X56879500Y-126718982D01*
X50500500Y-126718982D01*
X50500500Y-124881758D01*
X133011794Y-124881758D01*
X133011794Y-124881759D01*
X133043431Y-124902898D01*
X133222681Y-124977145D01*
X133222693Y-124977148D01*
X133412981Y-125014999D01*
X133412984Y-125015000D01*
X133607016Y-125015000D01*
X133607018Y-125014999D01*
X133797306Y-124977148D01*
X133797318Y-124977145D01*
X133976565Y-124902899D01*
X134008204Y-124881758D01*
X133510001Y-124383554D01*
X133510000Y-124383554D01*
X133011794Y-124881758D01*
X50500500Y-124881758D01*
X50500500Y-123932981D01*
X132525000Y-123932981D01*
X132525000Y-124127018D01*
X132562851Y-124317306D01*
X132562853Y-124317314D01*
X132637102Y-124496568D01*
X132637106Y-124496575D01*
X132658240Y-124528204D01*
X132658241Y-124528205D01*
X133156446Y-124030000D01*
X133110696Y-123984250D01*
X133280000Y-123984250D01*
X133280000Y-124075750D01*
X133315015Y-124160285D01*
X133379715Y-124224985D01*
X133464250Y-124260000D01*
X133555750Y-124260000D01*
X133640285Y-124224985D01*
X133704985Y-124160285D01*
X133740000Y-124075750D01*
X133740000Y-124029999D01*
X133863554Y-124029999D01*
X133863554Y-124030000D01*
X134361758Y-124528204D01*
X134382899Y-124496565D01*
X134457145Y-124317318D01*
X134457148Y-124317306D01*
X134494999Y-124127018D01*
X134495000Y-124127016D01*
X134495000Y-123932983D01*
X134494999Y-123932981D01*
X134457148Y-123742693D01*
X134457145Y-123742681D01*
X134382898Y-123563431D01*
X134361758Y-123531794D01*
X133863554Y-124029999D01*
X133740000Y-124029999D01*
X133740000Y-123984250D01*
X133704985Y-123899715D01*
X133640285Y-123835015D01*
X133555750Y-123800000D01*
X133464250Y-123800000D01*
X133379715Y-123835015D01*
X133315015Y-123899715D01*
X133280000Y-123984250D01*
X133110696Y-123984250D01*
X132658240Y-123531794D01*
X132637104Y-123563426D01*
X132637103Y-123563428D01*
X132562853Y-123742685D01*
X132562851Y-123742693D01*
X132525000Y-123932981D01*
X50500500Y-123932981D01*
X50500500Y-122570943D01*
X87949500Y-122570943D01*
X87949500Y-122729056D01*
X87990423Y-122881783D01*
X87990426Y-122881790D01*
X88069475Y-123018709D01*
X88069479Y-123018714D01*
X88069480Y-123018716D01*
X88181284Y-123130520D01*
X88181286Y-123130521D01*
X88181290Y-123130524D01*
X88263938Y-123178240D01*
X88318216Y-123209577D01*
X88470943Y-123250500D01*
X88470945Y-123250500D01*
X88629055Y-123250500D01*
X88629057Y-123250500D01*
X88781784Y-123209577D01*
X88836061Y-123178240D01*
X133011794Y-123178240D01*
X133510000Y-123676446D01*
X133510001Y-123676446D01*
X134008205Y-123178241D01*
X134008204Y-123178240D01*
X133976575Y-123157106D01*
X133976568Y-123157102D01*
X133797314Y-123082853D01*
X133797306Y-123082851D01*
X133607017Y-123045000D01*
X133412983Y-123045000D01*
X133222693Y-123082851D01*
X133222685Y-123082853D01*
X133043428Y-123157103D01*
X133043426Y-123157104D01*
X133011794Y-123178240D01*
X88836061Y-123178240D01*
X88873072Y-123156872D01*
X88918713Y-123130522D01*
X88918713Y-123130521D01*
X88918716Y-123130520D01*
X89030520Y-123018716D01*
X89109577Y-122881784D01*
X89150500Y-122729057D01*
X89150500Y-122570943D01*
X89109577Y-122418216D01*
X89109573Y-122418209D01*
X89030524Y-122281290D01*
X89030518Y-122281282D01*
X88918717Y-122169481D01*
X88918709Y-122169475D01*
X88781790Y-122090426D01*
X88781786Y-122090424D01*
X88781784Y-122090423D01*
X88629057Y-122049500D01*
X88470943Y-122049500D01*
X88318216Y-122090423D01*
X88318209Y-122090426D01*
X88181290Y-122169475D01*
X88181282Y-122169481D01*
X88069481Y-122281282D01*
X88069475Y-122281290D01*
X87990426Y-122418209D01*
X87990423Y-122418216D01*
X87949500Y-122570943D01*
X50500500Y-122570943D01*
X50500500Y-117425258D01*
X54609500Y-117425258D01*
X54609500Y-117654741D01*
X54634446Y-117844215D01*
X54639452Y-117882238D01*
X54639453Y-117882240D01*
X54698842Y-118103887D01*
X54786650Y-118315876D01*
X54786657Y-118315890D01*
X54901392Y-118514617D01*
X55041081Y-118696661D01*
X55041089Y-118696670D01*
X55203330Y-118858911D01*
X55203338Y-118858918D01*
X55385382Y-118998607D01*
X55385385Y-118998608D01*
X55385388Y-118998611D01*
X55584112Y-119113344D01*
X55584117Y-119113346D01*
X55584123Y-119113349D01*
X55675480Y-119151190D01*
X55796113Y-119201158D01*
X56017762Y-119260548D01*
X56245266Y-119290500D01*
X56245273Y-119290500D01*
X56474727Y-119290500D01*
X56474734Y-119290500D01*
X56702238Y-119260548D01*
X56923887Y-119201158D01*
X57135888Y-119113344D01*
X57334612Y-118998611D01*
X57516661Y-118858919D01*
X57516665Y-118858914D01*
X57516670Y-118858911D01*
X57678910Y-118696670D01*
X57678919Y-118696661D01*
X57706327Y-118660943D01*
X69689500Y-118660943D01*
X69689500Y-118819056D01*
X69730423Y-118971783D01*
X69730426Y-118971790D01*
X69809475Y-119108709D01*
X69809479Y-119108714D01*
X69809480Y-119108716D01*
X69921284Y-119220520D01*
X69921286Y-119220521D01*
X69921290Y-119220524D01*
X69990615Y-119260548D01*
X70058216Y-119299577D01*
X70210943Y-119340500D01*
X70210945Y-119340500D01*
X70369055Y-119340500D01*
X70369057Y-119340500D01*
X70521784Y-119299577D01*
X70658716Y-119220520D01*
X70770520Y-119108716D01*
X70849577Y-118971784D01*
X70890500Y-118819057D01*
X70890500Y-118660943D01*
X70849577Y-118508216D01*
X70849573Y-118508209D01*
X70770524Y-118371290D01*
X70770518Y-118371282D01*
X70658717Y-118259481D01*
X70658709Y-118259475D01*
X70521790Y-118180426D01*
X70521786Y-118180424D01*
X70521784Y-118180423D01*
X70369057Y-118139500D01*
X70210943Y-118139500D01*
X70058216Y-118180423D01*
X70058209Y-118180426D01*
X69921290Y-118259475D01*
X69921282Y-118259481D01*
X69809481Y-118371282D01*
X69809475Y-118371290D01*
X69730426Y-118508209D01*
X69730423Y-118508216D01*
X69689500Y-118660943D01*
X57706327Y-118660943D01*
X57818611Y-118514612D01*
X57933344Y-118315888D01*
X58021158Y-118103887D01*
X58080548Y-117882238D01*
X58110500Y-117654734D01*
X58110500Y-117425266D01*
X58080548Y-117197762D01*
X58021158Y-116976113D01*
X57998306Y-116920943D01*
X95149500Y-116920943D01*
X95149500Y-117079056D01*
X95190423Y-117231783D01*
X95190426Y-117231790D01*
X95269475Y-117368709D01*
X95269479Y-117368714D01*
X95269480Y-117368716D01*
X95381284Y-117480520D01*
X95381286Y-117480521D01*
X95381290Y-117480524D01*
X95518209Y-117559573D01*
X95518216Y-117559577D01*
X95670943Y-117600500D01*
X95670945Y-117600500D01*
X95829055Y-117600500D01*
X95829057Y-117600500D01*
X95981784Y-117559577D01*
X96118716Y-117480520D01*
X96230520Y-117368716D01*
X96309577Y-117231784D01*
X96350500Y-117079057D01*
X96350500Y-116920943D01*
X96309577Y-116768216D01*
X96307206Y-116764109D01*
X96230524Y-116631290D01*
X96230518Y-116631282D01*
X96118717Y-116519481D01*
X96118709Y-116519475D01*
X95981790Y-116440426D01*
X95981786Y-116440424D01*
X95981784Y-116440423D01*
X95829057Y-116399500D01*
X95670943Y-116399500D01*
X95518216Y-116440423D01*
X95518209Y-116440426D01*
X95381290Y-116519475D01*
X95381282Y-116519481D01*
X95269481Y-116631282D01*
X95269475Y-116631290D01*
X95190426Y-116768209D01*
X95190423Y-116768216D01*
X95149500Y-116920943D01*
X57998306Y-116920943D01*
X57933344Y-116764112D01*
X57818611Y-116565388D01*
X57818608Y-116565385D01*
X57818607Y-116565382D01*
X57678918Y-116383338D01*
X57678911Y-116383330D01*
X57516670Y-116221089D01*
X57516661Y-116221081D01*
X57455204Y-116173923D01*
X57387222Y-116121758D01*
X133011794Y-116121758D01*
X133011794Y-116121759D01*
X133043431Y-116142898D01*
X133222681Y-116217145D01*
X133222693Y-116217148D01*
X133412981Y-116254999D01*
X133412984Y-116255000D01*
X133607016Y-116255000D01*
X133607018Y-116254999D01*
X133797306Y-116217148D01*
X133797318Y-116217145D01*
X133976565Y-116142899D01*
X134008204Y-116121758D01*
X133510001Y-115623554D01*
X133510000Y-115623554D01*
X133011794Y-116121758D01*
X57387222Y-116121758D01*
X57334617Y-116081392D01*
X57135890Y-115966657D01*
X57135876Y-115966650D01*
X56923887Y-115878842D01*
X56702238Y-115819452D01*
X56664215Y-115814446D01*
X56474741Y-115789500D01*
X56474734Y-115789500D01*
X56245266Y-115789500D01*
X56245258Y-115789500D01*
X56028715Y-115818009D01*
X56017762Y-115819452D01*
X55924076Y-115844554D01*
X55796112Y-115878842D01*
X55584123Y-115966650D01*
X55584109Y-115966657D01*
X55385382Y-116081392D01*
X55203338Y-116221081D01*
X55041081Y-116383338D01*
X54901392Y-116565382D01*
X54786657Y-116764109D01*
X54786650Y-116764123D01*
X54698842Y-116976112D01*
X54639453Y-117197759D01*
X54639451Y-117197770D01*
X54609500Y-117425258D01*
X50500500Y-117425258D01*
X50500500Y-115170943D01*
X92199500Y-115170943D01*
X92199500Y-115329057D01*
X92234473Y-115459576D01*
X92240423Y-115481783D01*
X92240426Y-115481790D01*
X92319475Y-115618709D01*
X92319479Y-115618714D01*
X92319480Y-115618716D01*
X92431284Y-115730520D01*
X92431286Y-115730521D01*
X92431290Y-115730524D01*
X92533441Y-115789500D01*
X92568216Y-115809577D01*
X92720943Y-115850500D01*
X92720945Y-115850500D01*
X92879055Y-115850500D01*
X92879057Y-115850500D01*
X93031784Y-115809577D01*
X93168716Y-115730520D01*
X93280520Y-115618716D01*
X93359577Y-115481784D01*
X93400500Y-115329057D01*
X93400500Y-115170943D01*
X93359577Y-115018216D01*
X93339068Y-114982693D01*
X93280524Y-114881290D01*
X93280518Y-114881282D01*
X93168717Y-114769481D01*
X93168709Y-114769475D01*
X93031790Y-114690426D01*
X93031786Y-114690424D01*
X93031784Y-114690423D01*
X92879057Y-114649500D01*
X92720943Y-114649500D01*
X92568216Y-114690423D01*
X92568209Y-114690426D01*
X92431290Y-114769475D01*
X92431282Y-114769481D01*
X92319481Y-114881282D01*
X92319475Y-114881290D01*
X92240426Y-115018209D01*
X92240423Y-115018216D01*
X92199500Y-115170943D01*
X50500500Y-115170943D01*
X50500500Y-113720943D01*
X103699500Y-113720943D01*
X103699500Y-113879057D01*
X103731898Y-113999966D01*
X103740423Y-114031783D01*
X103740426Y-114031790D01*
X103819475Y-114168709D01*
X103819481Y-114168717D01*
X103913083Y-114262319D01*
X103946568Y-114323642D01*
X103941584Y-114393334D01*
X103913083Y-114437681D01*
X103819481Y-114531282D01*
X103819475Y-114531290D01*
X103740426Y-114668209D01*
X103740423Y-114668216D01*
X103699500Y-114820943D01*
X103699500Y-114979057D01*
X103700475Y-114982693D01*
X103740423Y-115131783D01*
X103740426Y-115131790D01*
X103819475Y-115268709D01*
X103819479Y-115268714D01*
X103819480Y-115268716D01*
X103931284Y-115380520D01*
X103931286Y-115380521D01*
X103931290Y-115380524D01*
X103965518Y-115400285D01*
X104068216Y-115459577D01*
X104220943Y-115500500D01*
X104220945Y-115500500D01*
X104379055Y-115500500D01*
X104379057Y-115500500D01*
X104531784Y-115459577D01*
X104668716Y-115380520D01*
X104780520Y-115268716D01*
X104835792Y-115172981D01*
X132525000Y-115172981D01*
X132525000Y-115367018D01*
X132562851Y-115557306D01*
X132562853Y-115557314D01*
X132637102Y-115736568D01*
X132637106Y-115736575D01*
X132658240Y-115768204D01*
X132658241Y-115768205D01*
X133156446Y-115270000D01*
X133110696Y-115224250D01*
X133280000Y-115224250D01*
X133280000Y-115315750D01*
X133315015Y-115400285D01*
X133379715Y-115464985D01*
X133464250Y-115500000D01*
X133555750Y-115500000D01*
X133640285Y-115464985D01*
X133704985Y-115400285D01*
X133740000Y-115315750D01*
X133740000Y-115269999D01*
X133863554Y-115269999D01*
X133863554Y-115270000D01*
X134361758Y-115768204D01*
X134382899Y-115736565D01*
X134457145Y-115557318D01*
X134457148Y-115557306D01*
X134494999Y-115367018D01*
X134495000Y-115367016D01*
X134495000Y-115172983D01*
X134494999Y-115172981D01*
X134457148Y-114982693D01*
X134457145Y-114982681D01*
X134382898Y-114803431D01*
X134361758Y-114771794D01*
X133863554Y-115269999D01*
X133740000Y-115269999D01*
X133740000Y-115224250D01*
X133704985Y-115139715D01*
X133640285Y-115075015D01*
X133555750Y-115040000D01*
X133464250Y-115040000D01*
X133379715Y-115075015D01*
X133315015Y-115139715D01*
X133280000Y-115224250D01*
X133110696Y-115224250D01*
X132658240Y-114771794D01*
X132637104Y-114803426D01*
X132637103Y-114803428D01*
X132562853Y-114982685D01*
X132562851Y-114982693D01*
X132525000Y-115172981D01*
X104835792Y-115172981D01*
X104859577Y-115131784D01*
X104900500Y-114979057D01*
X104900500Y-114820943D01*
X104859577Y-114668216D01*
X104780520Y-114531284D01*
X104686128Y-114436892D01*
X104685398Y-114436136D01*
X104676029Y-114418240D01*
X133011794Y-114418240D01*
X133510000Y-114916446D01*
X133510001Y-114916446D01*
X134008205Y-114418241D01*
X134008204Y-114418240D01*
X133976575Y-114397106D01*
X133976568Y-114397102D01*
X133797314Y-114322853D01*
X133797306Y-114322851D01*
X133607017Y-114285000D01*
X133412983Y-114285000D01*
X133222693Y-114322851D01*
X133222685Y-114322853D01*
X133043428Y-114397103D01*
X133043426Y-114397104D01*
X133011794Y-114418240D01*
X104676029Y-114418240D01*
X104669669Y-114406093D01*
X104653432Y-114376358D01*
X104653512Y-114375234D01*
X104652990Y-114374237D01*
X104655997Y-114340481D01*
X104658416Y-114306666D01*
X104659106Y-114305591D01*
X104659191Y-114304643D01*
X104662243Y-114300710D01*
X104686917Y-114262319D01*
X104717487Y-114231749D01*
X104780520Y-114168716D01*
X104859577Y-114031784D01*
X104900500Y-113879057D01*
X104900500Y-113720943D01*
X104859577Y-113568216D01*
X104850326Y-113552193D01*
X106530750Y-113552193D01*
X106530750Y-113710307D01*
X106533601Y-113720945D01*
X106571673Y-113863033D01*
X106571676Y-113863040D01*
X106650725Y-113999959D01*
X106650729Y-113999964D01*
X106650730Y-113999966D01*
X106762534Y-114111770D01*
X106762536Y-114111771D01*
X106762540Y-114111774D01*
X106861156Y-114168709D01*
X106899466Y-114190827D01*
X107052193Y-114231750D01*
X107052195Y-114231750D01*
X107210305Y-114231750D01*
X107210307Y-114231750D01*
X107363034Y-114190827D01*
X107499966Y-114111770D01*
X107611770Y-113999966D01*
X107690827Y-113863034D01*
X107731750Y-113710307D01*
X107731750Y-113552193D01*
X107690827Y-113399466D01*
X107644648Y-113319481D01*
X107611774Y-113262540D01*
X107611768Y-113262532D01*
X107499967Y-113150731D01*
X107499959Y-113150725D01*
X107363040Y-113071676D01*
X107363036Y-113071674D01*
X107363034Y-113071673D01*
X107210307Y-113030750D01*
X107052193Y-113030750D01*
X106899466Y-113071673D01*
X106899459Y-113071676D01*
X106762540Y-113150725D01*
X106762532Y-113150731D01*
X106650731Y-113262532D01*
X106650725Y-113262540D01*
X106571676Y-113399459D01*
X106571673Y-113399466D01*
X106530750Y-113552193D01*
X104850326Y-113552193D01*
X104780524Y-113431290D01*
X104780518Y-113431282D01*
X104668717Y-113319481D01*
X104668709Y-113319475D01*
X104531790Y-113240426D01*
X104531786Y-113240424D01*
X104531784Y-113240423D01*
X104379057Y-113199500D01*
X104220943Y-113199500D01*
X104068216Y-113240423D01*
X104068209Y-113240426D01*
X103931290Y-113319475D01*
X103931282Y-113319481D01*
X103819481Y-113431282D01*
X103819475Y-113431290D01*
X103740426Y-113568209D01*
X103740424Y-113568214D01*
X103740423Y-113568216D01*
X103699500Y-113720943D01*
X50500500Y-113720943D01*
X50500500Y-110870943D01*
X88949500Y-110870943D01*
X88949500Y-111029057D01*
X88957678Y-111059575D01*
X88990423Y-111181783D01*
X88990426Y-111181790D01*
X89069475Y-111318709D01*
X89069479Y-111318714D01*
X89069480Y-111318716D01*
X89181284Y-111430520D01*
X89181286Y-111430521D01*
X89181290Y-111430524D01*
X89318209Y-111509573D01*
X89318216Y-111509577D01*
X89470943Y-111550500D01*
X89470945Y-111550500D01*
X89629055Y-111550500D01*
X89629057Y-111550500D01*
X89781784Y-111509577D01*
X89918716Y-111430520D01*
X90030520Y-111318716D01*
X90109577Y-111181784D01*
X90144159Y-111052719D01*
X90180521Y-110993064D01*
X90243368Y-110962534D01*
X90312744Y-110970828D01*
X90325932Y-110977430D01*
X90331283Y-110980519D01*
X90331284Y-110980520D01*
X90468216Y-111059577D01*
X90620943Y-111100500D01*
X90620945Y-111100500D01*
X90779055Y-111100500D01*
X90779057Y-111100500D01*
X90931784Y-111059577D01*
X91068716Y-110980520D01*
X91180520Y-110868716D01*
X91259577Y-110731784D01*
X91300500Y-110579057D01*
X91300500Y-110566429D01*
X91320185Y-110499390D01*
X91372989Y-110453635D01*
X91442147Y-110443691D01*
X91456584Y-110446652D01*
X91470943Y-110450500D01*
X91470945Y-110450500D01*
X91629055Y-110450500D01*
X91629057Y-110450500D01*
X91781784Y-110409577D01*
X91918716Y-110330520D01*
X92030520Y-110218716D01*
X92109577Y-110081784D01*
X92150500Y-109929057D01*
X92150500Y-109770943D01*
X92109577Y-109618216D01*
X92109573Y-109618209D01*
X92030524Y-109481290D01*
X92030518Y-109481282D01*
X91918717Y-109369481D01*
X91918709Y-109369475D01*
X91781790Y-109290426D01*
X91781786Y-109290424D01*
X91781784Y-109290423D01*
X91629057Y-109249500D01*
X91470943Y-109249500D01*
X91318216Y-109290423D01*
X91318209Y-109290426D01*
X91181290Y-109369475D01*
X91181282Y-109369481D01*
X91069481Y-109481282D01*
X91069475Y-109481290D01*
X90990426Y-109618209D01*
X90990423Y-109618216D01*
X90949500Y-109770943D01*
X90949500Y-109783570D01*
X90929815Y-109850609D01*
X90877011Y-109896364D01*
X90807853Y-109906308D01*
X90793409Y-109903345D01*
X90779061Y-109899500D01*
X90779057Y-109899500D01*
X90620943Y-109899500D01*
X90468216Y-109940423D01*
X90468209Y-109940426D01*
X90331290Y-110019475D01*
X90331282Y-110019481D01*
X90219481Y-110131282D01*
X90219475Y-110131290D01*
X90140426Y-110268209D01*
X90140423Y-110268214D01*
X90123729Y-110330518D01*
X90106346Y-110395396D01*
X90105842Y-110397276D01*
X90069477Y-110456936D01*
X90006630Y-110487465D01*
X89937254Y-110479170D01*
X89924068Y-110472569D01*
X89781790Y-110390426D01*
X89781786Y-110390424D01*
X89781784Y-110390423D01*
X89629057Y-110349500D01*
X89470943Y-110349500D01*
X89318216Y-110390423D01*
X89318209Y-110390426D01*
X89181290Y-110469475D01*
X89181282Y-110469481D01*
X89069481Y-110581282D01*
X89069475Y-110581290D01*
X88990426Y-110718209D01*
X88990423Y-110718216D01*
X88949500Y-110870943D01*
X50500500Y-110870943D01*
X50500500Y-107270943D01*
X90349500Y-107270943D01*
X90349500Y-107429057D01*
X90386922Y-107568716D01*
X90390423Y-107581783D01*
X90390426Y-107581790D01*
X90469475Y-107718709D01*
X90469479Y-107718714D01*
X90469480Y-107718716D01*
X90581284Y-107830520D01*
X90581286Y-107830521D01*
X90581290Y-107830524D01*
X90703852Y-107901284D01*
X90718216Y-107909577D01*
X90870943Y-107950500D01*
X90870945Y-107950500D01*
X91029055Y-107950500D01*
X91029057Y-107950500D01*
X91181784Y-107909577D01*
X91318716Y-107830520D01*
X91430520Y-107718716D01*
X91509577Y-107581784D01*
X91550500Y-107429057D01*
X91550500Y-107429055D01*
X91552603Y-107421207D01*
X91554304Y-107421662D01*
X91578530Y-107366882D01*
X91636849Y-107328403D01*
X91706714Y-107327562D01*
X91763564Y-107363137D01*
X91763733Y-107362969D01*
X91764466Y-107363702D01*
X91765942Y-107364626D01*
X91768557Y-107367793D01*
X91769480Y-107368716D01*
X91881284Y-107480520D01*
X91881286Y-107480521D01*
X91881290Y-107480524D01*
X92018209Y-107559573D01*
X92018216Y-107559577D01*
X92170943Y-107600500D01*
X92170945Y-107600500D01*
X92329055Y-107600500D01*
X92329057Y-107600500D01*
X92481784Y-107559577D01*
X92618716Y-107480520D01*
X92730520Y-107368716D01*
X92809577Y-107231784D01*
X92839277Y-107120943D01*
X105249500Y-107120943D01*
X105249500Y-107279057D01*
X105289693Y-107429057D01*
X105290423Y-107431783D01*
X105290426Y-107431790D01*
X105369475Y-107568709D01*
X105369479Y-107568714D01*
X105369480Y-107568716D01*
X105481284Y-107680520D01*
X105570278Y-107731900D01*
X105618493Y-107782466D01*
X105631717Y-107851073D01*
X105615667Y-107901284D01*
X105606652Y-107916898D01*
X105606651Y-107916901D01*
X105565728Y-108069628D01*
X105565728Y-108227742D01*
X105592744Y-108328565D01*
X105606651Y-108380468D01*
X105606654Y-108380475D01*
X105685703Y-108517394D01*
X105685707Y-108517399D01*
X105685708Y-108517401D01*
X105797512Y-108629205D01*
X105797514Y-108629206D01*
X105797518Y-108629209D01*
X105934437Y-108708258D01*
X105934444Y-108708262D01*
X106087171Y-108749185D01*
X106087173Y-108749185D01*
X106114934Y-108749185D01*
X106120832Y-108750916D01*
X106126869Y-108749761D01*
X106153962Y-108760645D01*
X106181973Y-108768870D01*
X106185997Y-108773514D01*
X106191702Y-108775806D01*
X106208613Y-108799614D01*
X106227728Y-108821674D01*
X106229508Y-108829031D01*
X106232163Y-108832769D01*
X106236101Y-108856276D01*
X106238801Y-108867433D01*
X106238934Y-108870297D01*
X106238934Y-108967199D01*
X106244377Y-108987513D01*
X106244999Y-109000902D01*
X106239769Y-109022346D01*
X106239244Y-109044411D01*
X106231653Y-109055625D01*
X106228445Y-109068782D01*
X106212453Y-109083993D01*
X106200081Y-109102273D01*
X106185136Y-109109977D01*
X106177820Y-109116937D01*
X106167983Y-109118820D01*
X106153227Y-109126428D01*
X106107567Y-109138662D01*
X106045172Y-109155381D01*
X106045167Y-109155384D01*
X105908248Y-109234433D01*
X105908240Y-109234439D01*
X105796439Y-109346240D01*
X105796433Y-109346248D01*
X105717384Y-109483167D01*
X105717381Y-109483174D01*
X105676458Y-109635901D01*
X105676458Y-109794015D01*
X105712643Y-109929057D01*
X105717381Y-109946741D01*
X105717384Y-109946748D01*
X105796433Y-110083667D01*
X105796437Y-110083672D01*
X105796438Y-110083674D01*
X105908242Y-110195478D01*
X105908244Y-110195479D01*
X105908248Y-110195482D01*
X106034229Y-110268216D01*
X106045174Y-110274535D01*
X106197901Y-110315458D01*
X106197903Y-110315458D01*
X106356013Y-110315458D01*
X106356015Y-110315458D01*
X106508742Y-110274535D01*
X106645674Y-110195478D01*
X106757478Y-110083674D01*
X106836535Y-109946742D01*
X106877458Y-109794015D01*
X106877458Y-109635901D01*
X106875486Y-109628541D01*
X106877145Y-109558694D01*
X106916305Y-109500829D01*
X106963162Y-109476672D01*
X107071218Y-109447719D01*
X107208150Y-109368662D01*
X107319954Y-109256858D01*
X107399011Y-109119926D01*
X107439934Y-108967199D01*
X107439934Y-108809085D01*
X107399011Y-108656358D01*
X107383333Y-108629203D01*
X107319958Y-108519432D01*
X107319952Y-108519424D01*
X107208151Y-108407623D01*
X107208143Y-108407617D01*
X107071224Y-108328568D01*
X107071220Y-108328566D01*
X107071218Y-108328565D01*
X106918491Y-108287642D01*
X106890728Y-108287642D01*
X106823689Y-108267957D01*
X106777934Y-108215153D01*
X106766728Y-108163642D01*
X106766728Y-108069630D01*
X106766728Y-108069628D01*
X106725805Y-107916901D01*
X106675936Y-107830524D01*
X106646752Y-107779975D01*
X106646746Y-107779967D01*
X106534945Y-107668166D01*
X106534937Y-107668160D01*
X106445950Y-107616784D01*
X106397734Y-107566218D01*
X106384510Y-107497611D01*
X106400563Y-107447396D01*
X106409577Y-107431784D01*
X106450500Y-107279057D01*
X106450500Y-107120943D01*
X106409577Y-106968216D01*
X106409573Y-106968209D01*
X106330524Y-106831290D01*
X106330518Y-106831282D01*
X106218717Y-106719481D01*
X106218709Y-106719475D01*
X106081790Y-106640426D01*
X106081786Y-106640424D01*
X106081784Y-106640423D01*
X105929057Y-106599500D01*
X105770943Y-106599500D01*
X105618216Y-106640423D01*
X105618209Y-106640426D01*
X105481290Y-106719475D01*
X105481282Y-106719481D01*
X105369481Y-106831282D01*
X105369475Y-106831290D01*
X105290426Y-106968209D01*
X105290423Y-106968216D01*
X105249500Y-107120943D01*
X92839277Y-107120943D01*
X92850500Y-107079057D01*
X92850500Y-106920943D01*
X92813545Y-106783025D01*
X92815208Y-106713180D01*
X92854370Y-106655317D01*
X92901224Y-106631162D01*
X92981784Y-106609577D01*
X93118716Y-106530520D01*
X93230520Y-106418716D01*
X93309577Y-106281784D01*
X93350500Y-106129057D01*
X93350500Y-105970943D01*
X93309577Y-105818216D01*
X93307496Y-105814612D01*
X93230524Y-105681290D01*
X93230518Y-105681282D01*
X93118717Y-105569481D01*
X93118709Y-105569475D01*
X92981790Y-105490426D01*
X92981786Y-105490424D01*
X92981784Y-105490423D01*
X92829057Y-105449500D01*
X92670943Y-105449500D01*
X92518216Y-105490423D01*
X92518209Y-105490426D01*
X92381290Y-105569475D01*
X92381282Y-105569481D01*
X92269481Y-105681282D01*
X92269475Y-105681290D01*
X92190426Y-105818209D01*
X92190423Y-105818216D01*
X92149500Y-105970943D01*
X92149500Y-106129057D01*
X92186453Y-106266971D01*
X92184791Y-106336819D01*
X92145629Y-106394682D01*
X92098773Y-106418837D01*
X92081819Y-106423380D01*
X92018214Y-106440423D01*
X92018209Y-106440426D01*
X91881290Y-106519475D01*
X91881282Y-106519481D01*
X91769481Y-106631282D01*
X91769475Y-106631290D01*
X91690426Y-106768209D01*
X91690423Y-106768216D01*
X91663290Y-106869480D01*
X91647397Y-106928793D01*
X91645698Y-106928337D01*
X91621455Y-106983134D01*
X91563129Y-107021603D01*
X91493264Y-107022431D01*
X91436440Y-106986857D01*
X91436267Y-106987031D01*
X91435511Y-106986275D01*
X91434043Y-106985356D01*
X91431440Y-106982204D01*
X91318717Y-106869481D01*
X91318709Y-106869475D01*
X91181790Y-106790426D01*
X91181786Y-106790424D01*
X91181784Y-106790423D01*
X91029057Y-106749500D01*
X90870943Y-106749500D01*
X90718216Y-106790423D01*
X90718209Y-106790426D01*
X90581290Y-106869475D01*
X90581282Y-106869481D01*
X90469481Y-106981282D01*
X90469475Y-106981290D01*
X90390426Y-107118209D01*
X90390423Y-107118216D01*
X90349500Y-107270943D01*
X50500500Y-107270943D01*
X50500500Y-104725272D01*
X54609500Y-104725272D01*
X54609500Y-104954741D01*
X54634446Y-105144215D01*
X54639452Y-105182238D01*
X54639453Y-105182240D01*
X54698842Y-105403887D01*
X54786650Y-105615876D01*
X54786657Y-105615890D01*
X54901392Y-105814617D01*
X55041081Y-105996661D01*
X55041089Y-105996670D01*
X55203330Y-106158911D01*
X55203338Y-106158918D01*
X55385382Y-106298607D01*
X55385385Y-106298608D01*
X55385388Y-106298611D01*
X55584112Y-106413344D01*
X55584117Y-106413346D01*
X55584123Y-106413349D01*
X55675480Y-106451190D01*
X55796113Y-106501158D01*
X56017762Y-106560548D01*
X56245266Y-106590500D01*
X56245273Y-106590500D01*
X56474727Y-106590500D01*
X56474734Y-106590500D01*
X56702238Y-106560548D01*
X56923887Y-106501158D01*
X57135888Y-106413344D01*
X57334612Y-106298611D01*
X57516661Y-106158919D01*
X57516665Y-106158914D01*
X57516670Y-106158911D01*
X57678911Y-105996670D01*
X57678914Y-105996665D01*
X57678919Y-105996661D01*
X57818611Y-105814612D01*
X57933344Y-105615888D01*
X58021158Y-105403887D01*
X58080548Y-105182238D01*
X58110500Y-104954734D01*
X58110500Y-104870943D01*
X77149500Y-104870943D01*
X77149500Y-105029056D01*
X77190423Y-105181783D01*
X77190426Y-105181790D01*
X77269475Y-105318709D01*
X77269479Y-105318714D01*
X77269480Y-105318716D01*
X77381284Y-105430520D01*
X77381286Y-105430521D01*
X77381290Y-105430524D01*
X77485040Y-105490423D01*
X77518216Y-105509577D01*
X77670943Y-105550500D01*
X77670945Y-105550500D01*
X77829055Y-105550500D01*
X77829057Y-105550500D01*
X77981784Y-105509577D01*
X78118716Y-105430520D01*
X78230520Y-105318716D01*
X78309577Y-105181784D01*
X78350500Y-105029057D01*
X78350500Y-104870943D01*
X78799500Y-104870943D01*
X78799500Y-105029056D01*
X78840423Y-105181783D01*
X78840426Y-105181790D01*
X78919475Y-105318709D01*
X78919479Y-105318714D01*
X78919480Y-105318716D01*
X79031284Y-105430520D01*
X79031286Y-105430521D01*
X79031290Y-105430524D01*
X79135040Y-105490423D01*
X79168216Y-105509577D01*
X79320943Y-105550500D01*
X79320945Y-105550500D01*
X79479055Y-105550500D01*
X79479057Y-105550500D01*
X79631784Y-105509577D01*
X79768716Y-105430520D01*
X79880520Y-105318716D01*
X79959577Y-105181784D01*
X80000500Y-105029057D01*
X80000500Y-104870943D01*
X80349500Y-104870943D01*
X80349500Y-105029056D01*
X80390423Y-105181783D01*
X80390426Y-105181790D01*
X80469475Y-105318709D01*
X80469479Y-105318714D01*
X80469480Y-105318716D01*
X80581284Y-105430520D01*
X80581286Y-105430521D01*
X80581290Y-105430524D01*
X80685040Y-105490423D01*
X80718216Y-105509577D01*
X80870943Y-105550500D01*
X80870945Y-105550500D01*
X81029055Y-105550500D01*
X81029057Y-105550500D01*
X81181784Y-105509577D01*
X81318716Y-105430520D01*
X81430520Y-105318716D01*
X81509577Y-105181784D01*
X81550500Y-105029057D01*
X81550500Y-104870943D01*
X81999500Y-104870943D01*
X81999500Y-105029056D01*
X82040423Y-105181783D01*
X82040426Y-105181790D01*
X82119475Y-105318709D01*
X82119479Y-105318714D01*
X82119480Y-105318716D01*
X82231284Y-105430520D01*
X82231286Y-105430521D01*
X82231290Y-105430524D01*
X82335040Y-105490423D01*
X82368216Y-105509577D01*
X82520943Y-105550500D01*
X82520945Y-105550500D01*
X82679055Y-105550500D01*
X82679057Y-105550500D01*
X82831784Y-105509577D01*
X82968716Y-105430520D01*
X83080520Y-105318716D01*
X83159577Y-105181784D01*
X83200500Y-105029057D01*
X83200500Y-104870943D01*
X83159577Y-104718216D01*
X83137816Y-104680524D01*
X83080524Y-104581290D01*
X83080518Y-104581282D01*
X82968717Y-104469481D01*
X82968709Y-104469475D01*
X82831790Y-104390426D01*
X82831786Y-104390424D01*
X82831784Y-104390423D01*
X82679057Y-104349500D01*
X82520943Y-104349500D01*
X82368216Y-104390423D01*
X82368209Y-104390426D01*
X82231290Y-104469475D01*
X82231282Y-104469481D01*
X82119481Y-104581282D01*
X82119475Y-104581290D01*
X82040426Y-104718209D01*
X82040423Y-104718216D01*
X81999500Y-104870943D01*
X81550500Y-104870943D01*
X81509577Y-104718216D01*
X81487816Y-104680524D01*
X81430524Y-104581290D01*
X81430518Y-104581282D01*
X81318717Y-104469481D01*
X81318709Y-104469475D01*
X81181790Y-104390426D01*
X81181786Y-104390424D01*
X81181784Y-104390423D01*
X81029057Y-104349500D01*
X80870943Y-104349500D01*
X80718216Y-104390423D01*
X80718209Y-104390426D01*
X80581290Y-104469475D01*
X80581282Y-104469481D01*
X80469481Y-104581282D01*
X80469475Y-104581290D01*
X80390426Y-104718209D01*
X80390423Y-104718216D01*
X80349500Y-104870943D01*
X80000500Y-104870943D01*
X79959577Y-104718216D01*
X79937816Y-104680524D01*
X79880524Y-104581290D01*
X79880518Y-104581282D01*
X79768717Y-104469481D01*
X79768709Y-104469475D01*
X79631790Y-104390426D01*
X79631786Y-104390424D01*
X79631784Y-104390423D01*
X79479057Y-104349500D01*
X79320943Y-104349500D01*
X79168216Y-104390423D01*
X79168209Y-104390426D01*
X79031290Y-104469475D01*
X79031282Y-104469481D01*
X78919481Y-104581282D01*
X78919475Y-104581290D01*
X78840426Y-104718209D01*
X78840423Y-104718216D01*
X78799500Y-104870943D01*
X78350500Y-104870943D01*
X78309577Y-104718216D01*
X78287816Y-104680524D01*
X78230524Y-104581290D01*
X78230518Y-104581282D01*
X78118717Y-104469481D01*
X78118709Y-104469475D01*
X77981790Y-104390426D01*
X77981786Y-104390424D01*
X77981784Y-104390423D01*
X77829057Y-104349500D01*
X77670943Y-104349500D01*
X77518216Y-104390423D01*
X77518209Y-104390426D01*
X77381290Y-104469475D01*
X77381282Y-104469481D01*
X77269481Y-104581282D01*
X77269475Y-104581290D01*
X77190426Y-104718209D01*
X77190423Y-104718216D01*
X77149500Y-104870943D01*
X58110500Y-104870943D01*
X58110500Y-104725266D01*
X58110499Y-104725261D01*
X58110499Y-104725254D01*
X58097788Y-104628709D01*
X58080548Y-104497762D01*
X58021158Y-104276113D01*
X57981737Y-104180943D01*
X69969500Y-104180943D01*
X69969500Y-104339057D01*
X70004446Y-104469475D01*
X70010423Y-104491783D01*
X70010426Y-104491790D01*
X70089475Y-104628709D01*
X70089479Y-104628714D01*
X70089480Y-104628716D01*
X70201284Y-104740520D01*
X70201286Y-104740521D01*
X70201290Y-104740524D01*
X70305173Y-104800500D01*
X70338216Y-104819577D01*
X70490943Y-104860500D01*
X70490945Y-104860500D01*
X70649055Y-104860500D01*
X70649057Y-104860500D01*
X70801784Y-104819577D01*
X70938716Y-104740520D01*
X71050520Y-104628716D01*
X71129577Y-104491784D01*
X71170500Y-104339057D01*
X71170500Y-104180943D01*
X71154423Y-104120943D01*
X96449500Y-104120943D01*
X96449500Y-104279057D01*
X96479341Y-104390423D01*
X96490423Y-104431783D01*
X96490426Y-104431790D01*
X96569475Y-104568709D01*
X96569479Y-104568714D01*
X96569480Y-104568716D01*
X96681284Y-104680520D01*
X96681286Y-104680521D01*
X96681290Y-104680524D01*
X96785208Y-104740520D01*
X96818216Y-104759577D01*
X96970943Y-104800500D01*
X96970945Y-104800500D01*
X97129055Y-104800500D01*
X97129057Y-104800500D01*
X97281784Y-104759577D01*
X97418716Y-104680520D01*
X97530520Y-104568716D01*
X97609577Y-104431784D01*
X97650500Y-104279057D01*
X97650500Y-104120943D01*
X97609577Y-103968216D01*
X97550210Y-103865388D01*
X97530524Y-103831290D01*
X97530518Y-103831282D01*
X97418717Y-103719481D01*
X97418709Y-103719475D01*
X97281788Y-103640424D01*
X97281785Y-103640423D01*
X97205420Y-103619961D01*
X97129057Y-103599500D01*
X96970943Y-103599500D01*
X96818216Y-103640423D01*
X96818209Y-103640426D01*
X96681290Y-103719475D01*
X96681282Y-103719481D01*
X96569481Y-103831282D01*
X96569475Y-103831290D01*
X96490426Y-103968209D01*
X96490423Y-103968216D01*
X96449500Y-104120943D01*
X71154423Y-104120943D01*
X71129577Y-104028216D01*
X71129573Y-104028209D01*
X71050524Y-103891290D01*
X71050518Y-103891282D01*
X70938717Y-103779481D01*
X70938709Y-103779475D01*
X70801790Y-103700426D01*
X70801786Y-103700424D01*
X70801784Y-103700423D01*
X70649057Y-103659500D01*
X70490943Y-103659500D01*
X70338216Y-103700423D01*
X70338209Y-103700426D01*
X70201290Y-103779475D01*
X70201282Y-103779481D01*
X70089481Y-103891282D01*
X70089475Y-103891290D01*
X70010426Y-104028209D01*
X70010423Y-104028216D01*
X69969500Y-104180943D01*
X57981737Y-104180943D01*
X57945318Y-104093020D01*
X57933349Y-104064123D01*
X57933346Y-104064117D01*
X57933344Y-104064112D01*
X57818611Y-103865388D01*
X57818608Y-103865385D01*
X57818607Y-103865382D01*
X57678918Y-103683338D01*
X57678911Y-103683330D01*
X57529024Y-103533443D01*
X103849500Y-103533443D01*
X103849500Y-103691557D01*
X103886942Y-103831290D01*
X103890423Y-103844283D01*
X103890426Y-103844290D01*
X103969475Y-103981209D01*
X103969479Y-103981214D01*
X103969480Y-103981216D01*
X104081284Y-104093020D01*
X104081286Y-104093021D01*
X104081290Y-104093024D01*
X104171159Y-104144909D01*
X104218216Y-104172077D01*
X104370943Y-104213000D01*
X104370945Y-104213000D01*
X104529055Y-104213000D01*
X104529057Y-104213000D01*
X104681784Y-104172077D01*
X104818716Y-104093020D01*
X104930520Y-103981216D01*
X105009577Y-103844284D01*
X105050500Y-103691557D01*
X105050500Y-103533443D01*
X105009577Y-103380716D01*
X104943722Y-103266650D01*
X104930524Y-103243790D01*
X104930518Y-103243782D01*
X104818717Y-103131981D01*
X104818709Y-103131975D01*
X104681790Y-103052926D01*
X104681786Y-103052924D01*
X104681784Y-103052923D01*
X104529057Y-103012000D01*
X104370943Y-103012000D01*
X104218216Y-103052923D01*
X104218209Y-103052926D01*
X104081290Y-103131975D01*
X104081282Y-103131981D01*
X103969481Y-103243782D01*
X103969475Y-103243790D01*
X103890426Y-103380709D01*
X103890423Y-103380716D01*
X103849500Y-103533443D01*
X57529024Y-103533443D01*
X57516670Y-103521089D01*
X57516661Y-103521081D01*
X57334617Y-103381392D01*
X57135890Y-103266657D01*
X57135876Y-103266650D01*
X56923887Y-103178842D01*
X56702238Y-103119452D01*
X56664215Y-103114446D01*
X56474741Y-103089500D01*
X56474734Y-103089500D01*
X56245266Y-103089500D01*
X56245258Y-103089500D01*
X56028715Y-103118009D01*
X56017762Y-103119452D01*
X55971003Y-103131981D01*
X55796112Y-103178842D01*
X55584123Y-103266650D01*
X55584109Y-103266657D01*
X55385382Y-103381392D01*
X55203338Y-103521081D01*
X55041081Y-103683338D01*
X54901392Y-103865382D01*
X54786657Y-104064109D01*
X54786650Y-104064123D01*
X54698842Y-104276112D01*
X54698053Y-104279056D01*
X54647032Y-104469475D01*
X54639453Y-104497759D01*
X54639451Y-104497770D01*
X54609501Y-104725254D01*
X54609500Y-104725272D01*
X50500500Y-104725272D01*
X50500500Y-101720943D01*
X100549500Y-101720943D01*
X100549500Y-101879056D01*
X100590423Y-102031783D01*
X100590426Y-102031790D01*
X100669475Y-102168709D01*
X100669479Y-102168714D01*
X100669480Y-102168716D01*
X100781284Y-102280520D01*
X100781286Y-102280521D01*
X100781290Y-102280524D01*
X100918209Y-102359573D01*
X100918216Y-102359577D01*
X101070943Y-102400500D01*
X101070945Y-102400500D01*
X101229055Y-102400500D01*
X101229057Y-102400500D01*
X101381784Y-102359577D01*
X101518716Y-102280520D01*
X101630520Y-102168716D01*
X101709577Y-102031784D01*
X101750500Y-101879057D01*
X101750500Y-101720943D01*
X101709577Y-101568216D01*
X101709573Y-101568209D01*
X101630524Y-101431290D01*
X101630518Y-101431282D01*
X101518717Y-101319481D01*
X101518716Y-101319480D01*
X101381784Y-101240423D01*
X101229057Y-101199500D01*
X101070943Y-101199500D01*
X100918216Y-101240423D01*
X100918209Y-101240426D01*
X100781290Y-101319475D01*
X100781282Y-101319481D01*
X100669481Y-101431282D01*
X100669475Y-101431290D01*
X100590426Y-101568209D01*
X100590423Y-101568216D01*
X100549500Y-101720943D01*
X50500500Y-101720943D01*
X50500500Y-101170943D01*
X103599500Y-101170943D01*
X103599500Y-101329056D01*
X103640423Y-101481783D01*
X103640426Y-101481790D01*
X103719475Y-101618709D01*
X103719479Y-101618714D01*
X103719480Y-101618716D01*
X103831284Y-101730520D01*
X103831286Y-101730521D01*
X103831290Y-101730524D01*
X103968209Y-101809573D01*
X103968216Y-101809577D01*
X104120943Y-101850500D01*
X104120945Y-101850500D01*
X104279055Y-101850500D01*
X104279057Y-101850500D01*
X104431784Y-101809577D01*
X104568716Y-101730520D01*
X104680520Y-101618716D01*
X104759577Y-101481784D01*
X104800500Y-101329057D01*
X104800500Y-101170943D01*
X104759577Y-101018216D01*
X104759573Y-101018209D01*
X104680524Y-100881290D01*
X104680518Y-100881282D01*
X104568717Y-100769481D01*
X104568709Y-100769475D01*
X104431790Y-100690426D01*
X104431786Y-100690424D01*
X104431784Y-100690423D01*
X104279057Y-100649500D01*
X104120943Y-100649500D01*
X103968216Y-100690423D01*
X103968209Y-100690426D01*
X103831290Y-100769475D01*
X103831282Y-100769481D01*
X103719481Y-100881282D01*
X103719475Y-100881290D01*
X103640426Y-101018209D01*
X103640423Y-101018216D01*
X103599500Y-101170943D01*
X50500500Y-101170943D01*
X50500500Y-97663395D01*
X50520185Y-97596356D01*
X50572989Y-97550601D01*
X50642147Y-97540657D01*
X50658939Y-97544273D01*
X50667993Y-97546891D01*
X50725924Y-97554972D01*
X67859810Y-97482980D01*
X67926930Y-97502383D01*
X67972906Y-97554994D01*
X67983140Y-97624110D01*
X67967717Y-97668978D01*
X67910423Y-97768215D01*
X67910423Y-97768216D01*
X67869500Y-97920943D01*
X67869500Y-98079056D01*
X67910423Y-98231783D01*
X67910426Y-98231790D01*
X67989475Y-98368709D01*
X67989479Y-98368714D01*
X67989480Y-98368716D01*
X68101284Y-98480520D01*
X68101285Y-98480521D01*
X68101287Y-98480522D01*
X68208832Y-98542613D01*
X68257047Y-98593180D01*
X68270271Y-98661787D01*
X68244303Y-98726652D01*
X68208832Y-98757387D01*
X68101287Y-98819477D01*
X68101282Y-98819481D01*
X67989481Y-98931282D01*
X67989475Y-98931290D01*
X67910426Y-99068209D01*
X67910423Y-99068216D01*
X67869500Y-99220943D01*
X67869500Y-99379056D01*
X67910423Y-99531783D01*
X67910426Y-99531790D01*
X67989475Y-99668709D01*
X67989479Y-99668714D01*
X67989480Y-99668716D01*
X68101284Y-99780520D01*
X68101286Y-99780521D01*
X68101290Y-99780524D01*
X68238209Y-99859573D01*
X68238216Y-99859577D01*
X68390943Y-99900500D01*
X68390945Y-99900500D01*
X68549055Y-99900500D01*
X68549057Y-99900500D01*
X68701784Y-99859577D01*
X68838716Y-99780520D01*
X68950520Y-99668716D01*
X69029577Y-99531784D01*
X69070500Y-99379057D01*
X69070500Y-99220943D01*
X69029577Y-99068216D01*
X69029573Y-99068209D01*
X68950524Y-98931290D01*
X68950518Y-98931282D01*
X68838717Y-98819481D01*
X68838709Y-98819475D01*
X68731168Y-98757387D01*
X68682952Y-98706821D01*
X68669728Y-98638214D01*
X68695696Y-98573349D01*
X68731168Y-98542613D01*
X68838709Y-98480524D01*
X68838708Y-98480524D01*
X68838716Y-98480520D01*
X68950520Y-98368716D01*
X69029577Y-98231784D01*
X69070500Y-98079057D01*
X69070500Y-97920943D01*
X69029577Y-97768216D01*
X68969331Y-97663867D01*
X68952859Y-97595968D01*
X68975712Y-97529941D01*
X69030633Y-97486750D01*
X69076193Y-97477869D01*
X74276850Y-97456019D01*
X74320525Y-97451137D01*
X74372001Y-97439709D01*
X74382180Y-97437175D01*
X74462705Y-97393818D01*
X74515311Y-97347836D01*
X74533189Y-97330168D01*
X74577492Y-97250159D01*
X74596888Y-97183036D01*
X74604963Y-97125102D01*
X74603221Y-96720943D01*
X96949500Y-96720943D01*
X96949500Y-96879056D01*
X96990423Y-97031783D01*
X96990426Y-97031790D01*
X97069475Y-97168709D01*
X97069479Y-97168714D01*
X97069480Y-97168716D01*
X97181284Y-97280520D01*
X97181286Y-97280521D01*
X97181290Y-97280524D01*
X97267279Y-97330169D01*
X97318216Y-97359577D01*
X97470943Y-97400500D01*
X97470945Y-97400500D01*
X97629055Y-97400500D01*
X97629057Y-97400500D01*
X97781784Y-97359577D01*
X97918716Y-97280520D01*
X98030520Y-97168716D01*
X98109577Y-97031784D01*
X98150500Y-96879057D01*
X98150500Y-96720943D01*
X98123705Y-96620943D01*
X102449497Y-96620943D01*
X102449497Y-96779057D01*
X102476292Y-96879055D01*
X102490420Y-96931783D01*
X102490423Y-96931790D01*
X102569472Y-97068709D01*
X102569476Y-97068714D01*
X102569477Y-97068716D01*
X102681281Y-97180520D01*
X102681283Y-97180521D01*
X102681287Y-97180524D01*
X102801897Y-97250157D01*
X102818213Y-97259577D01*
X102970940Y-97300500D01*
X102970942Y-97300500D01*
X103129052Y-97300500D01*
X103129054Y-97300500D01*
X103281781Y-97259577D01*
X103418713Y-97180520D01*
X103462318Y-97136914D01*
X103523639Y-97103430D01*
X103593330Y-97108414D01*
X103637679Y-97136915D01*
X103681284Y-97180520D01*
X103681286Y-97180521D01*
X103681290Y-97180524D01*
X103801900Y-97250157D01*
X103818216Y-97259577D01*
X103970943Y-97300500D01*
X103970945Y-97300500D01*
X104129055Y-97300500D01*
X104129057Y-97300500D01*
X104281784Y-97259577D01*
X104418716Y-97180520D01*
X104530520Y-97068716D01*
X104609577Y-96931784D01*
X104650500Y-96779057D01*
X104650500Y-96620943D01*
X104609577Y-96468216D01*
X104588258Y-96431290D01*
X104530524Y-96331290D01*
X104530518Y-96331282D01*
X104418717Y-96219481D01*
X104418709Y-96219475D01*
X104281790Y-96140426D01*
X104281786Y-96140424D01*
X104281784Y-96140423D01*
X104129057Y-96099500D01*
X103970943Y-96099500D01*
X103818216Y-96140423D01*
X103818209Y-96140426D01*
X103681290Y-96219475D01*
X103681282Y-96219481D01*
X103637678Y-96263085D01*
X103576355Y-96296569D01*
X103506663Y-96291584D01*
X103462317Y-96263084D01*
X103418714Y-96219481D01*
X103418706Y-96219475D01*
X103281787Y-96140426D01*
X103281783Y-96140424D01*
X103281781Y-96140423D01*
X103129054Y-96099500D01*
X102970940Y-96099500D01*
X102818213Y-96140423D01*
X102818206Y-96140426D01*
X102681287Y-96219475D01*
X102681279Y-96219481D01*
X102569478Y-96331282D01*
X102569472Y-96331290D01*
X102490423Y-96468209D01*
X102490420Y-96468216D01*
X102449497Y-96620943D01*
X98123705Y-96620943D01*
X98109577Y-96568216D01*
X98051843Y-96468216D01*
X98030524Y-96431290D01*
X98030518Y-96431282D01*
X97918717Y-96319481D01*
X97918709Y-96319475D01*
X97781790Y-96240426D01*
X97781786Y-96240424D01*
X97781784Y-96240423D01*
X97629057Y-96199500D01*
X97470943Y-96199500D01*
X97318216Y-96240423D01*
X97318209Y-96240426D01*
X97181290Y-96319475D01*
X97181282Y-96319481D01*
X97069481Y-96431282D01*
X97069475Y-96431290D01*
X96990426Y-96568209D01*
X96990423Y-96568216D01*
X96949500Y-96720943D01*
X74603221Y-96720943D01*
X74597837Y-95471943D01*
X108349500Y-95471943D01*
X108349500Y-95630056D01*
X108390423Y-95782783D01*
X108390426Y-95782790D01*
X108469475Y-95919709D01*
X108469479Y-95919714D01*
X108469480Y-95919716D01*
X108581284Y-96031520D01*
X108581286Y-96031521D01*
X108581290Y-96031524D01*
X108699030Y-96099500D01*
X108718216Y-96110577D01*
X108870943Y-96151500D01*
X108870945Y-96151500D01*
X109029055Y-96151500D01*
X109029057Y-96151500D01*
X109181784Y-96110577D01*
X109318716Y-96031520D01*
X109430520Y-95919716D01*
X109509577Y-95782784D01*
X109550500Y-95630057D01*
X109550500Y-95471943D01*
X109509577Y-95319216D01*
X109509573Y-95319209D01*
X109430524Y-95182290D01*
X109430518Y-95182282D01*
X109318717Y-95070481D01*
X109318709Y-95070475D01*
X109181790Y-94991426D01*
X109181786Y-94991424D01*
X109181784Y-94991423D01*
X109029057Y-94950500D01*
X108870943Y-94950500D01*
X108718216Y-94991423D01*
X108718209Y-94991426D01*
X108581290Y-95070475D01*
X108581282Y-95070481D01*
X108469481Y-95182282D01*
X108469475Y-95182290D01*
X108390426Y-95319209D01*
X108390423Y-95319216D01*
X108349500Y-95471943D01*
X74597837Y-95471943D01*
X74575634Y-90320943D01*
X91199500Y-90320943D01*
X91199500Y-90479057D01*
X91236605Y-90617533D01*
X91240423Y-90631783D01*
X91240426Y-90631790D01*
X91319475Y-90768709D01*
X91319481Y-90768717D01*
X91413083Y-90862319D01*
X91446568Y-90923642D01*
X91441584Y-90993334D01*
X91413083Y-91037681D01*
X91319481Y-91131282D01*
X91319475Y-91131290D01*
X91240426Y-91268209D01*
X91240423Y-91268216D01*
X91199500Y-91420943D01*
X91199500Y-91579057D01*
X91239952Y-91730024D01*
X91240423Y-91731783D01*
X91240426Y-91731790D01*
X91319475Y-91868709D01*
X91319479Y-91868714D01*
X91319480Y-91868716D01*
X91431284Y-91980520D01*
X91431286Y-91980521D01*
X91431290Y-91980524D01*
X91568209Y-92059573D01*
X91568216Y-92059577D01*
X91720943Y-92100500D01*
X91720945Y-92100500D01*
X91879055Y-92100500D01*
X91879057Y-92100500D01*
X92031784Y-92059577D01*
X92168716Y-91980520D01*
X92280520Y-91868716D01*
X92359577Y-91731784D01*
X92400500Y-91579057D01*
X92400500Y-91420943D01*
X92359577Y-91268216D01*
X92359573Y-91268209D01*
X92280524Y-91131290D01*
X92280518Y-91131282D01*
X92186917Y-91037681D01*
X92153432Y-90976358D01*
X92158416Y-90906666D01*
X92186917Y-90862319D01*
X92219772Y-90829464D01*
X92280520Y-90768716D01*
X92359577Y-90631784D01*
X92400500Y-90479057D01*
X92400500Y-90320943D01*
X92360660Y-90172258D01*
X110322542Y-90172258D01*
X110322542Y-90330372D01*
X110362382Y-90479055D01*
X110363465Y-90483098D01*
X110363468Y-90483105D01*
X110442517Y-90620024D01*
X110442521Y-90620029D01*
X110442522Y-90620031D01*
X110554326Y-90731835D01*
X110643320Y-90783215D01*
X110691535Y-90833781D01*
X110704759Y-90902388D01*
X110688709Y-90952599D01*
X110679694Y-90968213D01*
X110679693Y-90968216D01*
X110638770Y-91120943D01*
X110638770Y-91279056D01*
X110679693Y-91431783D01*
X110679696Y-91431790D01*
X110758745Y-91568709D01*
X110758749Y-91568714D01*
X110758750Y-91568716D01*
X110870554Y-91680520D01*
X110956299Y-91730024D01*
X111004515Y-91780591D01*
X111017739Y-91849198D01*
X111001690Y-91899408D01*
X110990571Y-91918667D01*
X110990571Y-91918668D01*
X110949648Y-92071395D01*
X110949648Y-92229509D01*
X110976919Y-92331284D01*
X110990571Y-92382235D01*
X110990574Y-92382242D01*
X111069623Y-92519161D01*
X111069629Y-92519169D01*
X111081715Y-92531255D01*
X111115200Y-92592578D01*
X111110216Y-92662270D01*
X111068344Y-92718203D01*
X111056034Y-92726323D01*
X110981287Y-92769477D01*
X110981282Y-92769481D01*
X110869481Y-92881282D01*
X110869475Y-92881290D01*
X110790426Y-93018209D01*
X110790423Y-93018216D01*
X110749500Y-93170943D01*
X110749500Y-93329056D01*
X110790423Y-93481783D01*
X110790426Y-93481790D01*
X110869475Y-93618709D01*
X110869479Y-93618714D01*
X110869480Y-93618716D01*
X110981284Y-93730520D01*
X110981286Y-93730521D01*
X110981290Y-93730524D01*
X111118209Y-93809573D01*
X111118216Y-93809577D01*
X111270943Y-93850500D01*
X111270945Y-93850500D01*
X111429055Y-93850500D01*
X111429057Y-93850500D01*
X111581784Y-93809577D01*
X111718716Y-93730520D01*
X111830520Y-93618716D01*
X111909577Y-93481784D01*
X111950500Y-93329057D01*
X111950500Y-93170943D01*
X111909577Y-93018216D01*
X111909573Y-93018209D01*
X111830524Y-92881290D01*
X111830518Y-92881282D01*
X111818432Y-92869196D01*
X111784947Y-92807873D01*
X111789931Y-92738181D01*
X111831803Y-92682248D01*
X111844103Y-92674134D01*
X111918864Y-92630972D01*
X111928893Y-92620943D01*
X126599500Y-92620943D01*
X126599500Y-92779056D01*
X126640423Y-92931783D01*
X126640426Y-92931790D01*
X126719475Y-93068709D01*
X126719479Y-93068714D01*
X126719480Y-93068716D01*
X126831284Y-93180520D01*
X126831286Y-93180521D01*
X126831290Y-93180524D01*
X126968209Y-93259573D01*
X126968216Y-93259577D01*
X127120943Y-93300500D01*
X127120945Y-93300500D01*
X127279055Y-93300500D01*
X127279057Y-93300500D01*
X127431784Y-93259577D01*
X127568716Y-93180520D01*
X127680520Y-93068716D01*
X127759577Y-92931784D01*
X127800500Y-92779057D01*
X127800500Y-92620943D01*
X127759577Y-92468216D01*
X127759573Y-92468209D01*
X127680524Y-92331290D01*
X127680518Y-92331282D01*
X127568717Y-92219481D01*
X127568709Y-92219475D01*
X127431790Y-92140426D01*
X127431786Y-92140424D01*
X127431784Y-92140423D01*
X127279057Y-92099500D01*
X127120943Y-92099500D01*
X126968216Y-92140423D01*
X126968209Y-92140426D01*
X126831290Y-92219475D01*
X126831282Y-92219481D01*
X126719481Y-92331282D01*
X126719475Y-92331290D01*
X126640426Y-92468209D01*
X126640423Y-92468216D01*
X126599500Y-92620943D01*
X111928893Y-92620943D01*
X112030668Y-92519168D01*
X112109725Y-92382236D01*
X112150648Y-92229509D01*
X112150648Y-92071395D01*
X112109725Y-91918668D01*
X112080886Y-91868717D01*
X112030672Y-91781742D01*
X112030666Y-91781734D01*
X111918865Y-91669933D01*
X111918860Y-91669929D01*
X111833117Y-91620426D01*
X111784902Y-91569859D01*
X111771678Y-91501252D01*
X111787730Y-91451039D01*
X111798847Y-91431784D01*
X111839770Y-91279057D01*
X111839770Y-91120943D01*
X111798847Y-90968216D01*
X111788330Y-90950000D01*
X111719794Y-90831290D01*
X111719788Y-90831282D01*
X111607987Y-90719481D01*
X111607979Y-90719475D01*
X111518992Y-90668099D01*
X111470776Y-90617533D01*
X111457552Y-90548926D01*
X111473605Y-90498711D01*
X111482619Y-90483099D01*
X111523542Y-90330372D01*
X111523542Y-90172258D01*
X111482619Y-90019531D01*
X111424855Y-89919480D01*
X111403566Y-89882605D01*
X111403560Y-89882597D01*
X111291759Y-89770796D01*
X111291751Y-89770790D01*
X111154832Y-89691741D01*
X111154828Y-89691739D01*
X111154826Y-89691738D01*
X111002099Y-89650815D01*
X110843985Y-89650815D01*
X110691258Y-89691738D01*
X110691251Y-89691741D01*
X110554332Y-89770790D01*
X110554324Y-89770796D01*
X110442523Y-89882597D01*
X110442517Y-89882605D01*
X110363468Y-90019524D01*
X110363465Y-90019531D01*
X110322542Y-90172258D01*
X92360660Y-90172258D01*
X92359577Y-90168216D01*
X92296855Y-90059577D01*
X92280524Y-90031290D01*
X92280518Y-90031282D01*
X92168717Y-89919481D01*
X92168709Y-89919475D01*
X92031790Y-89840426D01*
X92031786Y-89840424D01*
X92031784Y-89840423D01*
X91879057Y-89799500D01*
X91720943Y-89799500D01*
X91568216Y-89840423D01*
X91568209Y-89840426D01*
X91431290Y-89919475D01*
X91431282Y-89919481D01*
X91319481Y-90031282D01*
X91319475Y-90031290D01*
X91240426Y-90168209D01*
X91240423Y-90168216D01*
X91199500Y-90320943D01*
X74575634Y-90320943D01*
X74574976Y-90168209D01*
X74571756Y-89420943D01*
X116849500Y-89420943D01*
X116849500Y-89579057D01*
X116868728Y-89650815D01*
X116890423Y-89731783D01*
X116890426Y-89731790D01*
X116969475Y-89868709D01*
X116969479Y-89868714D01*
X116969480Y-89868716D01*
X117081284Y-89980520D01*
X117081286Y-89980521D01*
X117081290Y-89980524D01*
X117169221Y-90031290D01*
X117218216Y-90059577D01*
X117370943Y-90100500D01*
X117370945Y-90100500D01*
X117529055Y-90100500D01*
X117529057Y-90100500D01*
X117681784Y-90059577D01*
X117818716Y-89980520D01*
X117930520Y-89868716D01*
X118009577Y-89731784D01*
X118050500Y-89579057D01*
X118050500Y-89420943D01*
X118009577Y-89268216D01*
X118009573Y-89268209D01*
X117930524Y-89131290D01*
X117930518Y-89131282D01*
X117818717Y-89019481D01*
X117818709Y-89019475D01*
X117681790Y-88940426D01*
X117681786Y-88940424D01*
X117681784Y-88940423D01*
X117529057Y-88899500D01*
X117370943Y-88899500D01*
X117218216Y-88940423D01*
X117218209Y-88940426D01*
X117081290Y-89019475D01*
X117081282Y-89019481D01*
X116969481Y-89131282D01*
X116969475Y-89131290D01*
X116890426Y-89268209D01*
X116890423Y-89268216D01*
X116849500Y-89420943D01*
X74571756Y-89420943D01*
X74571723Y-89413350D01*
X74560427Y-86792722D01*
X74559471Y-86570943D01*
X75299500Y-86570943D01*
X75299500Y-86729057D01*
X75326295Y-86829055D01*
X75340423Y-86881783D01*
X75340426Y-86881790D01*
X75419475Y-87018709D01*
X75419479Y-87018714D01*
X75419480Y-87018716D01*
X75531284Y-87130520D01*
X75531286Y-87130521D01*
X75531290Y-87130524D01*
X75668209Y-87209573D01*
X75668216Y-87209577D01*
X75820943Y-87250500D01*
X75820945Y-87250500D01*
X75979055Y-87250500D01*
X75979057Y-87250500D01*
X76131784Y-87209577D01*
X76268716Y-87130520D01*
X76380520Y-87018716D01*
X76459577Y-86881784D01*
X76472664Y-86832943D01*
X91349500Y-86832943D01*
X91349500Y-86991057D01*
X91386869Y-87130518D01*
X91390423Y-87143783D01*
X91390426Y-87143790D01*
X91469475Y-87280709D01*
X91469479Y-87280714D01*
X91469480Y-87280716D01*
X91581284Y-87392520D01*
X91581285Y-87392521D01*
X91581287Y-87392522D01*
X91685138Y-87452480D01*
X91733353Y-87503047D01*
X91746577Y-87571654D01*
X91720609Y-87636518D01*
X91685142Y-87667252D01*
X91681287Y-87669477D01*
X91681282Y-87669481D01*
X91569481Y-87781282D01*
X91569475Y-87781290D01*
X91490426Y-87918209D01*
X91490423Y-87918216D01*
X91449500Y-88070943D01*
X91449500Y-88229056D01*
X91490423Y-88381783D01*
X91490426Y-88381790D01*
X91569475Y-88518709D01*
X91569479Y-88518714D01*
X91569480Y-88518716D01*
X91681284Y-88630520D01*
X91681286Y-88630521D01*
X91681290Y-88630524D01*
X91818209Y-88709573D01*
X91818216Y-88709577D01*
X91970943Y-88750500D01*
X91970945Y-88750500D01*
X92129055Y-88750500D01*
X92129057Y-88750500D01*
X92281784Y-88709577D01*
X92418716Y-88630520D01*
X92530520Y-88518716D01*
X92609577Y-88381784D01*
X92650500Y-88229057D01*
X92650500Y-88070943D01*
X92609577Y-87918216D01*
X92609573Y-87918209D01*
X92530524Y-87781290D01*
X92530518Y-87781282D01*
X92418717Y-87669481D01*
X92418712Y-87669477D01*
X92314861Y-87609519D01*
X92266645Y-87558952D01*
X92253422Y-87490345D01*
X92279390Y-87425480D01*
X92314865Y-87394743D01*
X92318716Y-87392520D01*
X92430520Y-87280716D01*
X92509577Y-87143784D01*
X92550500Y-86991057D01*
X92550500Y-86832943D01*
X92509577Y-86680216D01*
X92509573Y-86680209D01*
X92430524Y-86543290D01*
X92430518Y-86543282D01*
X92318717Y-86431481D01*
X92318709Y-86431475D01*
X92181790Y-86352426D01*
X92181786Y-86352424D01*
X92181784Y-86352423D01*
X92029057Y-86311500D01*
X91870943Y-86311500D01*
X91718216Y-86352423D01*
X91718209Y-86352426D01*
X91581290Y-86431475D01*
X91581282Y-86431481D01*
X91469481Y-86543282D01*
X91469475Y-86543290D01*
X91390426Y-86680209D01*
X91390423Y-86680216D01*
X91349500Y-86832943D01*
X76472664Y-86832943D01*
X76500500Y-86729057D01*
X76500500Y-86570943D01*
X76459577Y-86418216D01*
X76438258Y-86381290D01*
X76380524Y-86281290D01*
X76380518Y-86281282D01*
X76268717Y-86169481D01*
X76268716Y-86169480D01*
X76131784Y-86090423D01*
X75979057Y-86049500D01*
X75820943Y-86049500D01*
X75668216Y-86090423D01*
X75668209Y-86090426D01*
X75531290Y-86169475D01*
X75531282Y-86169481D01*
X75419481Y-86281282D01*
X75419475Y-86281290D01*
X75340426Y-86418209D01*
X75340423Y-86418216D01*
X75299500Y-86570943D01*
X74559471Y-86570943D01*
X74557100Y-86020943D01*
X110899500Y-86020943D01*
X110899500Y-86179057D01*
X110940086Y-86330524D01*
X110940423Y-86331783D01*
X110940426Y-86331790D01*
X111019475Y-86468709D01*
X111019481Y-86468717D01*
X111088083Y-86537319D01*
X111121568Y-86598642D01*
X111116584Y-86668334D01*
X111088083Y-86712681D01*
X111019481Y-86781282D01*
X111019475Y-86781290D01*
X110940426Y-86918209D01*
X110940423Y-86918216D01*
X110899500Y-87070943D01*
X110899500Y-87229057D01*
X110932041Y-87350500D01*
X110940423Y-87381783D01*
X110940426Y-87381790D01*
X111019475Y-87518709D01*
X111019479Y-87518714D01*
X111019480Y-87518716D01*
X111131284Y-87630520D01*
X111131286Y-87630521D01*
X111131290Y-87630524D01*
X111194906Y-87667252D01*
X111268216Y-87709577D01*
X111420943Y-87750500D01*
X111420945Y-87750500D01*
X111579055Y-87750500D01*
X111579057Y-87750500D01*
X111731784Y-87709577D01*
X111868716Y-87630520D01*
X111980520Y-87518716D01*
X112059577Y-87381784D01*
X112100500Y-87229057D01*
X112100500Y-87070943D01*
X112059577Y-86918216D01*
X112038543Y-86881783D01*
X111980524Y-86781290D01*
X111980518Y-86781282D01*
X111911917Y-86712681D01*
X111889126Y-86670943D01*
X124199500Y-86670943D01*
X124199500Y-86829057D01*
X124200542Y-86832943D01*
X124240423Y-86981783D01*
X124240426Y-86981790D01*
X124319475Y-87118709D01*
X124319479Y-87118714D01*
X124319480Y-87118716D01*
X124431284Y-87230520D01*
X124431286Y-87230521D01*
X124431290Y-87230524D01*
X124568209Y-87309573D01*
X124568216Y-87309577D01*
X124720943Y-87350500D01*
X124720945Y-87350500D01*
X124879055Y-87350500D01*
X124879057Y-87350500D01*
X125031784Y-87309577D01*
X125168716Y-87230520D01*
X125280520Y-87118716D01*
X125359577Y-86981784D01*
X125400500Y-86829057D01*
X125400500Y-86670943D01*
X125359577Y-86518216D01*
X125330999Y-86468717D01*
X125280524Y-86381290D01*
X125280518Y-86381282D01*
X125168717Y-86269481D01*
X125168709Y-86269475D01*
X125031790Y-86190426D01*
X125031786Y-86190424D01*
X125031784Y-86190423D01*
X124879057Y-86149500D01*
X124720943Y-86149500D01*
X124568216Y-86190423D01*
X124568209Y-86190426D01*
X124431290Y-86269475D01*
X124431282Y-86269481D01*
X124319481Y-86381282D01*
X124319475Y-86381290D01*
X124240426Y-86518209D01*
X124240423Y-86518216D01*
X124199500Y-86670943D01*
X111889126Y-86670943D01*
X111878432Y-86651358D01*
X111883416Y-86581666D01*
X111911917Y-86537319D01*
X111931027Y-86518209D01*
X111980520Y-86468716D01*
X112059577Y-86331784D01*
X112100500Y-86179057D01*
X112100500Y-86020943D01*
X112059577Y-85868216D01*
X112003417Y-85770943D01*
X114599500Y-85770943D01*
X114599500Y-85929057D01*
X114624122Y-86020945D01*
X114640423Y-86081783D01*
X114640426Y-86081790D01*
X114719475Y-86218709D01*
X114719479Y-86218714D01*
X114719480Y-86218716D01*
X114831284Y-86330520D01*
X114831286Y-86330521D01*
X114831290Y-86330524D01*
X114919221Y-86381290D01*
X114968216Y-86409577D01*
X115120943Y-86450500D01*
X115120945Y-86450500D01*
X115279055Y-86450500D01*
X115279057Y-86450500D01*
X115431784Y-86409577D01*
X115568716Y-86330520D01*
X115680520Y-86218716D01*
X115759577Y-86081784D01*
X115800500Y-85929057D01*
X115800500Y-85770943D01*
X115759577Y-85618216D01*
X115745439Y-85593728D01*
X115680524Y-85481290D01*
X115680518Y-85481282D01*
X115562969Y-85363733D01*
X115564987Y-85361714D01*
X115531933Y-85316431D01*
X115527788Y-85246684D01*
X115562009Y-85185769D01*
X115623731Y-85153025D01*
X115648628Y-85150500D01*
X115679055Y-85150500D01*
X115679057Y-85150500D01*
X115831784Y-85109577D01*
X115968716Y-85030520D01*
X116080520Y-84918716D01*
X116159577Y-84781784D01*
X116200500Y-84629057D01*
X116200500Y-84470943D01*
X116159577Y-84318216D01*
X116123778Y-84256209D01*
X116080524Y-84181290D01*
X116080518Y-84181282D01*
X115968717Y-84069481D01*
X115968709Y-84069475D01*
X115831790Y-83990426D01*
X115831786Y-83990424D01*
X115831784Y-83990423D01*
X115679057Y-83949500D01*
X115520943Y-83949500D01*
X115368216Y-83990423D01*
X115368209Y-83990426D01*
X115231290Y-84069475D01*
X115231282Y-84069481D01*
X115119481Y-84181282D01*
X115119475Y-84181290D01*
X115040426Y-84318209D01*
X115040423Y-84318216D01*
X114999500Y-84470943D01*
X114999500Y-84629056D01*
X115040423Y-84781783D01*
X115040426Y-84781790D01*
X115119475Y-84918709D01*
X115119481Y-84918717D01*
X115237031Y-85036267D01*
X115235012Y-85038285D01*
X115268067Y-85083569D01*
X115272212Y-85153316D01*
X115237991Y-85214231D01*
X115176269Y-85246975D01*
X115151372Y-85249500D01*
X115120943Y-85249500D01*
X114968216Y-85290423D01*
X114968209Y-85290426D01*
X114831290Y-85369475D01*
X114831282Y-85369481D01*
X114719481Y-85481282D01*
X114719475Y-85481290D01*
X114640426Y-85618209D01*
X114640423Y-85618216D01*
X114599500Y-85770943D01*
X112003417Y-85770943D01*
X111980520Y-85731284D01*
X111868716Y-85619480D01*
X111868714Y-85619479D01*
X111868709Y-85619475D01*
X111731790Y-85540426D01*
X111731786Y-85540424D01*
X111731784Y-85540423D01*
X111579057Y-85499500D01*
X111420943Y-85499500D01*
X111268216Y-85540423D01*
X111268209Y-85540426D01*
X111131290Y-85619475D01*
X111131282Y-85619481D01*
X111019481Y-85731282D01*
X111019475Y-85731290D01*
X110940426Y-85868209D01*
X110940423Y-85868216D01*
X110899500Y-86020943D01*
X74557100Y-86020943D01*
X74556033Y-85773364D01*
X74553122Y-85747464D01*
X74551104Y-85729503D01*
X74539567Y-85677796D01*
X74536974Y-85667450D01*
X74536973Y-85667446D01*
X74493455Y-85587007D01*
X74447367Y-85534493D01*
X74429660Y-85516649D01*
X74365487Y-85481284D01*
X74349559Y-85472506D01*
X74282411Y-85453250D01*
X74282396Y-85453246D01*
X74224455Y-85445290D01*
X74224451Y-85445290D01*
X55461992Y-85564040D01*
X50771377Y-85593727D01*
X50771369Y-85593728D01*
X50728788Y-85598464D01*
X50678566Y-85609443D01*
X50669433Y-85611659D01*
X50668375Y-85612060D01*
X50667511Y-85612125D01*
X50661980Y-85613468D01*
X50661760Y-85612564D01*
X50598708Y-85617370D01*
X50537229Y-85584171D01*
X50503458Y-85523005D01*
X50500500Y-85496082D01*
X50500500Y-84408943D01*
X90937500Y-84408943D01*
X90937500Y-84567057D01*
X90954113Y-84629055D01*
X90978423Y-84719783D01*
X90978426Y-84719790D01*
X91057475Y-84856709D01*
X91057479Y-84856714D01*
X91057480Y-84856716D01*
X91169284Y-84968520D01*
X91169286Y-84968521D01*
X91169290Y-84968524D01*
X91306209Y-85047573D01*
X91306216Y-85047577D01*
X91458943Y-85088500D01*
X91458945Y-85088500D01*
X91617055Y-85088500D01*
X91617057Y-85088500D01*
X91769784Y-85047577D01*
X91906716Y-84968520D01*
X92018520Y-84856716D01*
X92097577Y-84719784D01*
X92138500Y-84567057D01*
X92138500Y-84408943D01*
X92097577Y-84256216D01*
X92054319Y-84181290D01*
X92018524Y-84119290D01*
X92018518Y-84119282D01*
X91906717Y-84007481D01*
X91906709Y-84007475D01*
X91769790Y-83928426D01*
X91769786Y-83928424D01*
X91769784Y-83928423D01*
X91617057Y-83887500D01*
X91458943Y-83887500D01*
X91306216Y-83928423D01*
X91306209Y-83928426D01*
X91169290Y-84007475D01*
X91169282Y-84007481D01*
X91057481Y-84119282D01*
X91057475Y-84119290D01*
X90978426Y-84256209D01*
X90978423Y-84256216D01*
X90937500Y-84408943D01*
X50500500Y-84408943D01*
X50500500Y-83370943D01*
X110949500Y-83370943D01*
X110949500Y-83529057D01*
X110973525Y-83618717D01*
X110990423Y-83681783D01*
X110990426Y-83681790D01*
X111069475Y-83818709D01*
X111069479Y-83818714D01*
X111069480Y-83818716D01*
X111181284Y-83930520D01*
X111181286Y-83930521D01*
X111181290Y-83930524D01*
X111318209Y-84009573D01*
X111318216Y-84009577D01*
X111470943Y-84050500D01*
X111470945Y-84050500D01*
X111629055Y-84050500D01*
X111629057Y-84050500D01*
X111781784Y-84009577D01*
X111918716Y-83930520D01*
X112030520Y-83818716D01*
X112109577Y-83681784D01*
X112150500Y-83529057D01*
X112150500Y-83370943D01*
X112109577Y-83218216D01*
X112082285Y-83170945D01*
X112082284Y-83170943D01*
X112612631Y-83170943D01*
X112612631Y-83329057D01*
X112623855Y-83370943D01*
X112653554Y-83481783D01*
X112653557Y-83481790D01*
X112732606Y-83618709D01*
X112732610Y-83618714D01*
X112732611Y-83618716D01*
X112844415Y-83730520D01*
X112844417Y-83730521D01*
X112844421Y-83730524D01*
X112981340Y-83809573D01*
X112981347Y-83809577D01*
X113134074Y-83850500D01*
X113134076Y-83850500D01*
X113292186Y-83850500D01*
X113292188Y-83850500D01*
X113444915Y-83809577D01*
X113581847Y-83730520D01*
X113625452Y-83686914D01*
X113686773Y-83653430D01*
X113756464Y-83658414D01*
X113800813Y-83686915D01*
X113844418Y-83730520D01*
X113844420Y-83730521D01*
X113844424Y-83730524D01*
X113981343Y-83809573D01*
X113981350Y-83809577D01*
X114134077Y-83850500D01*
X114134079Y-83850500D01*
X114292189Y-83850500D01*
X114292191Y-83850500D01*
X114444918Y-83809577D01*
X114581850Y-83730520D01*
X114693654Y-83618716D01*
X114772711Y-83481784D01*
X114813634Y-83329057D01*
X114813634Y-83170943D01*
X114772711Y-83018216D01*
X114744571Y-82969475D01*
X114693658Y-82881290D01*
X114693652Y-82881282D01*
X114581851Y-82769481D01*
X114581843Y-82769475D01*
X114444924Y-82690426D01*
X114444920Y-82690424D01*
X114444918Y-82690423D01*
X114292191Y-82649500D01*
X114134077Y-82649500D01*
X113981350Y-82690423D01*
X113981343Y-82690426D01*
X113844424Y-82769475D01*
X113844416Y-82769481D01*
X113800812Y-82813085D01*
X113739489Y-82846569D01*
X113669797Y-82841584D01*
X113625451Y-82813084D01*
X113581848Y-82769481D01*
X113581840Y-82769475D01*
X113444921Y-82690426D01*
X113444917Y-82690424D01*
X113444915Y-82690423D01*
X113292188Y-82649500D01*
X113134074Y-82649500D01*
X112981347Y-82690423D01*
X112981340Y-82690426D01*
X112844421Y-82769475D01*
X112844413Y-82769481D01*
X112732612Y-82881282D01*
X112732606Y-82881290D01*
X112653557Y-83018209D01*
X112653554Y-83018216D01*
X112612631Y-83170943D01*
X112082284Y-83170943D01*
X112030522Y-83081287D01*
X112030518Y-83081282D01*
X111918717Y-82969481D01*
X111918709Y-82969475D01*
X111781790Y-82890426D01*
X111781786Y-82890424D01*
X111781784Y-82890423D01*
X111629057Y-82849500D01*
X111470943Y-82849500D01*
X111318216Y-82890423D01*
X111318209Y-82890426D01*
X111181290Y-82969475D01*
X111181282Y-82969481D01*
X111069481Y-83081282D01*
X111069475Y-83081290D01*
X110990426Y-83218209D01*
X110990426Y-83218210D01*
X110990423Y-83218216D01*
X110949500Y-83370943D01*
X50500500Y-83370943D01*
X50500500Y-82370943D01*
X124949500Y-82370943D01*
X124949500Y-82529056D01*
X124990423Y-82681783D01*
X124990426Y-82681790D01*
X125069475Y-82818709D01*
X125069479Y-82818714D01*
X125069480Y-82818716D01*
X125181284Y-82930520D01*
X125181286Y-82930521D01*
X125181290Y-82930524D01*
X125248765Y-82969480D01*
X125318216Y-83009577D01*
X125470943Y-83050500D01*
X125470945Y-83050500D01*
X125629055Y-83050500D01*
X125629057Y-83050500D01*
X125781784Y-83009577D01*
X125918716Y-82930520D01*
X126030520Y-82818716D01*
X126109577Y-82681784D01*
X126150500Y-82529057D01*
X126150500Y-82370943D01*
X126109577Y-82218216D01*
X126109573Y-82218209D01*
X126030524Y-82081290D01*
X126030518Y-82081282D01*
X125918717Y-81969481D01*
X125918709Y-81969475D01*
X125781790Y-81890426D01*
X125781786Y-81890424D01*
X125781784Y-81890423D01*
X125629057Y-81849500D01*
X125470943Y-81849500D01*
X125318216Y-81890423D01*
X125318209Y-81890426D01*
X125181290Y-81969475D01*
X125181282Y-81969481D01*
X125069481Y-82081282D01*
X125069475Y-82081290D01*
X124990426Y-82218209D01*
X124990423Y-82218216D01*
X124949500Y-82370943D01*
X50500500Y-82370943D01*
X50500500Y-76920943D01*
X92799500Y-76920943D01*
X92799500Y-77079057D01*
X92836922Y-77218716D01*
X92840423Y-77231783D01*
X92840426Y-77231790D01*
X92919475Y-77368709D01*
X92919479Y-77368714D01*
X92919480Y-77368716D01*
X93031284Y-77480520D01*
X93031286Y-77480521D01*
X93031290Y-77480524D01*
X93168209Y-77559573D01*
X93168216Y-77559577D01*
X93320943Y-77600500D01*
X93320945Y-77600500D01*
X93479055Y-77600500D01*
X93479057Y-77600500D01*
X93631784Y-77559577D01*
X93768716Y-77480520D01*
X93880520Y-77368716D01*
X93959577Y-77231784D01*
X94000500Y-77079057D01*
X94000500Y-76920943D01*
X93959577Y-76768216D01*
X93920665Y-76700817D01*
X93880524Y-76631290D01*
X93880518Y-76631282D01*
X93768717Y-76519481D01*
X93768709Y-76519475D01*
X93631790Y-76440426D01*
X93631786Y-76440424D01*
X93631784Y-76440423D01*
X93479057Y-76399500D01*
X93320943Y-76399500D01*
X93168216Y-76440423D01*
X93168209Y-76440426D01*
X93031290Y-76519475D01*
X93031282Y-76519481D01*
X92919481Y-76631282D01*
X92919475Y-76631290D01*
X92840426Y-76768209D01*
X92840423Y-76768216D01*
X92799500Y-76920943D01*
X50500500Y-76920943D01*
X50500500Y-75820943D01*
X97349500Y-75820943D01*
X97349500Y-75979056D01*
X97390423Y-76131783D01*
X97390426Y-76131790D01*
X97469475Y-76268709D01*
X97469479Y-76268714D01*
X97469480Y-76268716D01*
X97581284Y-76380520D01*
X97581286Y-76380521D01*
X97581290Y-76380524D01*
X97685040Y-76440423D01*
X97718216Y-76459577D01*
X97870943Y-76500500D01*
X97870945Y-76500500D01*
X98029055Y-76500500D01*
X98029057Y-76500500D01*
X98181784Y-76459577D01*
X98318716Y-76380520D01*
X98430520Y-76268716D01*
X98509577Y-76131784D01*
X98550500Y-75979057D01*
X98550500Y-75820943D01*
X98509577Y-75668216D01*
X98509573Y-75668209D01*
X98430524Y-75531290D01*
X98430518Y-75531282D01*
X98318717Y-75419481D01*
X98318716Y-75419480D01*
X98181784Y-75340423D01*
X98109084Y-75320943D01*
X99799500Y-75320943D01*
X99799500Y-75479057D01*
X99824617Y-75572793D01*
X99840423Y-75631783D01*
X99840426Y-75631790D01*
X99919475Y-75768709D01*
X99919481Y-75768717D01*
X99963083Y-75812319D01*
X99996568Y-75873642D01*
X99991584Y-75943334D01*
X99963083Y-75987681D01*
X99919481Y-76031282D01*
X99919475Y-76031290D01*
X99840426Y-76168209D01*
X99840423Y-76168216D01*
X99799500Y-76320943D01*
X99799500Y-76479057D01*
X99840289Y-76631282D01*
X99840423Y-76631783D01*
X99840426Y-76631790D01*
X99919475Y-76768709D01*
X99919479Y-76768714D01*
X99919480Y-76768716D01*
X100031284Y-76880520D01*
X100031286Y-76880521D01*
X100031290Y-76880524D01*
X100115353Y-76929057D01*
X100168216Y-76959577D01*
X100320943Y-77000500D01*
X100320945Y-77000500D01*
X100479055Y-77000500D01*
X100479057Y-77000500D01*
X100631784Y-76959577D01*
X100768716Y-76880520D01*
X100878293Y-76770943D01*
X108487500Y-76770943D01*
X108487500Y-76929057D01*
X108527693Y-77079057D01*
X108528423Y-77081783D01*
X108528426Y-77081790D01*
X108607475Y-77218709D01*
X108607479Y-77218714D01*
X108607480Y-77218716D01*
X108719284Y-77330520D01*
X108719286Y-77330521D01*
X108719290Y-77330524D01*
X108856209Y-77409573D01*
X108856216Y-77409577D01*
X109008943Y-77450500D01*
X109008945Y-77450500D01*
X109167055Y-77450500D01*
X109167057Y-77450500D01*
X109319784Y-77409577D01*
X109456716Y-77330520D01*
X109568520Y-77218716D01*
X109647577Y-77081784D01*
X109688500Y-76929057D01*
X109688500Y-76770943D01*
X109647577Y-76618216D01*
X109590573Y-76519481D01*
X109568524Y-76481290D01*
X109568518Y-76481282D01*
X109456717Y-76369481D01*
X109456709Y-76369475D01*
X109319790Y-76290426D01*
X109319786Y-76290424D01*
X109319784Y-76290423D01*
X109167057Y-76249500D01*
X109008943Y-76249500D01*
X108856216Y-76290423D01*
X108856209Y-76290426D01*
X108719290Y-76369475D01*
X108719282Y-76369481D01*
X108607481Y-76481282D01*
X108607475Y-76481290D01*
X108528426Y-76618209D01*
X108528423Y-76618216D01*
X108487500Y-76770943D01*
X100878293Y-76770943D01*
X100880520Y-76768716D01*
X100959577Y-76631784D01*
X101000500Y-76479057D01*
X101000500Y-76320943D01*
X100959577Y-76168216D01*
X100938543Y-76131783D01*
X100880524Y-76031290D01*
X100880518Y-76031282D01*
X100836917Y-75987681D01*
X100803432Y-75926358D01*
X100808416Y-75856666D01*
X100836917Y-75812319D01*
X100848737Y-75800499D01*
X100880520Y-75768716D01*
X100959577Y-75631784D01*
X101000500Y-75479057D01*
X101000500Y-75320943D01*
X100959577Y-75168216D01*
X100932285Y-75120945D01*
X100932284Y-75120943D01*
X112399500Y-75120943D01*
X112399500Y-75279057D01*
X112437127Y-75419481D01*
X112440423Y-75431783D01*
X112440426Y-75431790D01*
X112519475Y-75568709D01*
X112519479Y-75568714D01*
X112519480Y-75568716D01*
X112631284Y-75680520D01*
X112631286Y-75680521D01*
X112631290Y-75680524D01*
X112709192Y-75725500D01*
X112768216Y-75759577D01*
X112920943Y-75800500D01*
X112920945Y-75800500D01*
X113079055Y-75800500D01*
X113079057Y-75800500D01*
X113231784Y-75759577D01*
X113368716Y-75680520D01*
X113476445Y-75572790D01*
X113537764Y-75539308D01*
X113607456Y-75544292D01*
X113663390Y-75586163D01*
X113687807Y-75651627D01*
X113683898Y-75692567D01*
X113649500Y-75820943D01*
X113649500Y-75979056D01*
X113690423Y-76131783D01*
X113690426Y-76131790D01*
X113769475Y-76268709D01*
X113769479Y-76268714D01*
X113769480Y-76268716D01*
X113881284Y-76380520D01*
X113881286Y-76380521D01*
X113881290Y-76380524D01*
X113985040Y-76440423D01*
X114018216Y-76459577D01*
X114170943Y-76500500D01*
X114170945Y-76500500D01*
X114329055Y-76500500D01*
X114329057Y-76500500D01*
X114481784Y-76459577D01*
X114618716Y-76380520D01*
X114730520Y-76268716D01*
X114809577Y-76131784D01*
X114850500Y-75979057D01*
X114850500Y-75820943D01*
X114809577Y-75668216D01*
X114809573Y-75668209D01*
X114730524Y-75531290D01*
X114730518Y-75531282D01*
X114618717Y-75419481D01*
X114618709Y-75419475D01*
X114481790Y-75340426D01*
X114481786Y-75340424D01*
X114481784Y-75340423D01*
X114329057Y-75299500D01*
X114170943Y-75299500D01*
X114018216Y-75340423D01*
X114018209Y-75340426D01*
X113881290Y-75419475D01*
X113881286Y-75419478D01*
X113773557Y-75527207D01*
X113712234Y-75560691D01*
X113642542Y-75555707D01*
X113586609Y-75513835D01*
X113562192Y-75448371D01*
X113566100Y-75407438D01*
X113600500Y-75279057D01*
X113600500Y-75120943D01*
X113559577Y-74968216D01*
X113516272Y-74893209D01*
X113480524Y-74831290D01*
X113480518Y-74831282D01*
X113368717Y-74719481D01*
X113368709Y-74719475D01*
X113231790Y-74640426D01*
X113231786Y-74640424D01*
X113231784Y-74640423D01*
X113079057Y-74599500D01*
X112920943Y-74599500D01*
X112768216Y-74640423D01*
X112768209Y-74640426D01*
X112631290Y-74719475D01*
X112631282Y-74719481D01*
X112519481Y-74831282D01*
X112519475Y-74831290D01*
X112440426Y-74968209D01*
X112440423Y-74968216D01*
X112399500Y-75120943D01*
X100932284Y-75120943D01*
X100880522Y-75031287D01*
X100880518Y-75031282D01*
X100768717Y-74919481D01*
X100768709Y-74919475D01*
X100631790Y-74840426D01*
X100631786Y-74840424D01*
X100631784Y-74840423D01*
X100479057Y-74799500D01*
X100320943Y-74799500D01*
X100168216Y-74840423D01*
X100168209Y-74840426D01*
X100031290Y-74919475D01*
X100031282Y-74919481D01*
X99919481Y-75031282D01*
X99919475Y-75031290D01*
X99840426Y-75168209D01*
X99840426Y-75168210D01*
X99840423Y-75168216D01*
X99799500Y-75320943D01*
X98109084Y-75320943D01*
X98029057Y-75299500D01*
X97870943Y-75299500D01*
X97718216Y-75340423D01*
X97718209Y-75340426D01*
X97581290Y-75419475D01*
X97581282Y-75419481D01*
X97469481Y-75531282D01*
X97469475Y-75531290D01*
X97390426Y-75668209D01*
X97390423Y-75668216D01*
X97349500Y-75820943D01*
X50500500Y-75820943D01*
X50500500Y-75045943D01*
X53774500Y-75045943D01*
X53774500Y-75204057D01*
X53805820Y-75320943D01*
X53815423Y-75356783D01*
X53815426Y-75356790D01*
X53894475Y-75493709D01*
X53894479Y-75493714D01*
X53894480Y-75493716D01*
X54006284Y-75605520D01*
X54006286Y-75605521D01*
X54006290Y-75605524D01*
X54136189Y-75680520D01*
X54143216Y-75684577D01*
X54295943Y-75725500D01*
X54295945Y-75725500D01*
X54454055Y-75725500D01*
X54454057Y-75725500D01*
X54606784Y-75684577D01*
X54743716Y-75605520D01*
X54855520Y-75493716D01*
X54934577Y-75356784D01*
X54975500Y-75204057D01*
X54975500Y-75045943D01*
X58774500Y-75045943D01*
X58774500Y-75204057D01*
X58805820Y-75320943D01*
X58815423Y-75356783D01*
X58815426Y-75356790D01*
X58894475Y-75493709D01*
X58894479Y-75493714D01*
X58894480Y-75493716D01*
X59006284Y-75605520D01*
X59006286Y-75605521D01*
X59006290Y-75605524D01*
X59136189Y-75680520D01*
X59143216Y-75684577D01*
X59295943Y-75725500D01*
X59295945Y-75725500D01*
X59454055Y-75725500D01*
X59454057Y-75725500D01*
X59606784Y-75684577D01*
X59743716Y-75605520D01*
X59855520Y-75493716D01*
X59934577Y-75356784D01*
X59975500Y-75204057D01*
X59975500Y-75045943D01*
X59934577Y-74893216D01*
X59904097Y-74840423D01*
X59855524Y-74756290D01*
X59855518Y-74756282D01*
X59743717Y-74644481D01*
X59743709Y-74644475D01*
X59606790Y-74565426D01*
X59606786Y-74565424D01*
X59606784Y-74565423D01*
X59454057Y-74524500D01*
X59295943Y-74524500D01*
X59143216Y-74565423D01*
X59143209Y-74565426D01*
X59006290Y-74644475D01*
X59006282Y-74644481D01*
X58894481Y-74756282D01*
X58894475Y-74756290D01*
X58815426Y-74893209D01*
X58815423Y-74893216D01*
X58774500Y-75045943D01*
X54975500Y-75045943D01*
X54934577Y-74893216D01*
X54904097Y-74840423D01*
X54855524Y-74756290D01*
X54855518Y-74756282D01*
X54743717Y-74644481D01*
X54743709Y-74644475D01*
X54606790Y-74565426D01*
X54606786Y-74565424D01*
X54606784Y-74565423D01*
X54454057Y-74524500D01*
X54295943Y-74524500D01*
X54143216Y-74565423D01*
X54143209Y-74565426D01*
X54006290Y-74644475D01*
X54006282Y-74644481D01*
X53894481Y-74756282D01*
X53894475Y-74756290D01*
X53815426Y-74893209D01*
X53815423Y-74893216D01*
X53774500Y-75045943D01*
X50500500Y-75045943D01*
X50500500Y-73820943D01*
X101399500Y-73820943D01*
X101399500Y-73979056D01*
X101440423Y-74131783D01*
X101440426Y-74131790D01*
X101519475Y-74268709D01*
X101519479Y-74268714D01*
X101519480Y-74268716D01*
X101631284Y-74380520D01*
X101631286Y-74380521D01*
X101631290Y-74380524D01*
X101768209Y-74459573D01*
X101768216Y-74459577D01*
X101920943Y-74500500D01*
X101920945Y-74500500D01*
X102079055Y-74500500D01*
X102079057Y-74500500D01*
X102231784Y-74459577D01*
X102368716Y-74380520D01*
X102480520Y-74268716D01*
X102559577Y-74131784D01*
X102600500Y-73979057D01*
X102600500Y-73820943D01*
X102559577Y-73668216D01*
X102537816Y-73630524D01*
X102480524Y-73531290D01*
X102480518Y-73531282D01*
X102368717Y-73419481D01*
X102368709Y-73419475D01*
X102231790Y-73340426D01*
X102231786Y-73340424D01*
X102231784Y-73340423D01*
X102079057Y-73299500D01*
X101920943Y-73299500D01*
X101768216Y-73340423D01*
X101768209Y-73340426D01*
X101631290Y-73419475D01*
X101631282Y-73419481D01*
X101519481Y-73531282D01*
X101519475Y-73531290D01*
X101440426Y-73668209D01*
X101440423Y-73668216D01*
X101399500Y-73820943D01*
X50500500Y-73820943D01*
X50500500Y-73070943D01*
X103099500Y-73070943D01*
X103099500Y-73229057D01*
X103129341Y-73340423D01*
X103140423Y-73381783D01*
X103140426Y-73381790D01*
X103219475Y-73518709D01*
X103219479Y-73518714D01*
X103219480Y-73518716D01*
X103331284Y-73630520D01*
X103331286Y-73630521D01*
X103331290Y-73630524D01*
X103468209Y-73709573D01*
X103468216Y-73709577D01*
X103620943Y-73750500D01*
X103620945Y-73750500D01*
X103779055Y-73750500D01*
X103779057Y-73750500D01*
X103931784Y-73709577D01*
X104068716Y-73630520D01*
X104180520Y-73518716D01*
X104259577Y-73381784D01*
X104300500Y-73229057D01*
X104300500Y-73070943D01*
X104259577Y-72918216D01*
X104236897Y-72878932D01*
X104180524Y-72781290D01*
X104180518Y-72781282D01*
X104068717Y-72669481D01*
X104068709Y-72669475D01*
X103931790Y-72590426D01*
X103931786Y-72590424D01*
X103931784Y-72590423D01*
X103779057Y-72549500D01*
X103620943Y-72549500D01*
X103468216Y-72590423D01*
X103468209Y-72590426D01*
X103331290Y-72669475D01*
X103331282Y-72669481D01*
X103219481Y-72781282D01*
X103219475Y-72781290D01*
X103140426Y-72918209D01*
X103140423Y-72918216D01*
X103099500Y-73070943D01*
X50500500Y-73070943D01*
X50500500Y-71820943D01*
X94249500Y-71820943D01*
X94249500Y-71979057D01*
X94261593Y-72024186D01*
X94290423Y-72131783D01*
X94290426Y-72131790D01*
X94369475Y-72268709D01*
X94369479Y-72268714D01*
X94369480Y-72268716D01*
X94481284Y-72380520D01*
X94481286Y-72380521D01*
X94481290Y-72380524D01*
X94618209Y-72459573D01*
X94618216Y-72459577D01*
X94770943Y-72500500D01*
X94770945Y-72500500D01*
X94929055Y-72500500D01*
X94929057Y-72500500D01*
X95081784Y-72459577D01*
X95218716Y-72380520D01*
X95227293Y-72371943D01*
X105849500Y-72371943D01*
X105849500Y-72530057D01*
X105886859Y-72669481D01*
X105890423Y-72682783D01*
X105890426Y-72682790D01*
X105969475Y-72819709D01*
X105969479Y-72819714D01*
X105969480Y-72819716D01*
X106081284Y-72931520D01*
X106081286Y-72931521D01*
X106081290Y-72931524D01*
X106166155Y-72980520D01*
X106218216Y-73010577D01*
X106370943Y-73051500D01*
X106370945Y-73051500D01*
X106529055Y-73051500D01*
X106529057Y-73051500D01*
X106681784Y-73010577D01*
X106818716Y-72931520D01*
X106837819Y-72912417D01*
X106899142Y-72878932D01*
X106968834Y-72883916D01*
X107013181Y-72912417D01*
X107081284Y-72980520D01*
X107081286Y-72980521D01*
X107081290Y-72980524D01*
X107148112Y-73019103D01*
X107218216Y-73059577D01*
X107370943Y-73100500D01*
X107370945Y-73100500D01*
X107529055Y-73100500D01*
X107529057Y-73100500D01*
X107681784Y-73059577D01*
X107818716Y-72980520D01*
X107901359Y-72897877D01*
X107962682Y-72864392D01*
X108032374Y-72869376D01*
X108071338Y-72894417D01*
X108071523Y-72894178D01*
X108074396Y-72896383D01*
X108076721Y-72897877D01*
X108077968Y-72899124D01*
X108077970Y-72899125D01*
X108077974Y-72899128D01*
X108214893Y-72978177D01*
X108214900Y-72978181D01*
X108367627Y-73019104D01*
X108367629Y-73019104D01*
X108525739Y-73019104D01*
X108525741Y-73019104D01*
X108678468Y-72978181D01*
X108815400Y-72899124D01*
X108927204Y-72787320D01*
X109006261Y-72650388D01*
X109047184Y-72497661D01*
X109047184Y-72339547D01*
X109006261Y-72186820D01*
X108970043Y-72124088D01*
X108927208Y-72049894D01*
X108927202Y-72049886D01*
X108815401Y-71938085D01*
X108815393Y-71938079D01*
X108678474Y-71859030D01*
X108678470Y-71859028D01*
X108678468Y-71859027D01*
X108525741Y-71818104D01*
X108367627Y-71818104D01*
X108214900Y-71859027D01*
X108214893Y-71859030D01*
X108077974Y-71938079D01*
X108077966Y-71938085D01*
X107995325Y-72020727D01*
X107934002Y-72054212D01*
X107864310Y-72049228D01*
X107825345Y-72024186D01*
X107825161Y-72024426D01*
X107822287Y-72022220D01*
X107819963Y-72020727D01*
X107818717Y-72019481D01*
X107818709Y-72019475D01*
X107681790Y-71940426D01*
X107681786Y-71940424D01*
X107681784Y-71940423D01*
X107529057Y-71899500D01*
X107370943Y-71899500D01*
X107218216Y-71940423D01*
X107218209Y-71940426D01*
X107081290Y-72019475D01*
X107081285Y-72019479D01*
X107062177Y-72038586D01*
X107000852Y-72072068D01*
X106931161Y-72067081D01*
X106886818Y-72038582D01*
X106818717Y-71970481D01*
X106818709Y-71970475D01*
X106681790Y-71891426D01*
X106681786Y-71891424D01*
X106681784Y-71891423D01*
X106529057Y-71850500D01*
X106370943Y-71850500D01*
X106218216Y-71891423D01*
X106218209Y-71891426D01*
X106081290Y-71970475D01*
X106081282Y-71970481D01*
X105969481Y-72082282D01*
X105969475Y-72082290D01*
X105890426Y-72219209D01*
X105890423Y-72219216D01*
X105849500Y-72371943D01*
X95227293Y-72371943D01*
X95330520Y-72268716D01*
X95409577Y-72131784D01*
X95450500Y-71979057D01*
X95450500Y-71820943D01*
X95409577Y-71668216D01*
X95404587Y-71659573D01*
X95330524Y-71531290D01*
X95330518Y-71531282D01*
X95218717Y-71419481D01*
X95218709Y-71419475D01*
X95081790Y-71340426D01*
X95081786Y-71340424D01*
X95081784Y-71340423D01*
X94929057Y-71299500D01*
X94770943Y-71299500D01*
X94618216Y-71340423D01*
X94618209Y-71340426D01*
X94481290Y-71419475D01*
X94481282Y-71419481D01*
X94369481Y-71531282D01*
X94369475Y-71531290D01*
X94290426Y-71668209D01*
X94290423Y-71668216D01*
X94249500Y-71820943D01*
X50500500Y-71820943D01*
X50500500Y-71020943D01*
X97249500Y-71020943D01*
X97249500Y-71179056D01*
X97290423Y-71331783D01*
X97290426Y-71331790D01*
X97369475Y-71468709D01*
X97369479Y-71468714D01*
X97369480Y-71468716D01*
X97481284Y-71580520D01*
X97481286Y-71580521D01*
X97481290Y-71580524D01*
X97618209Y-71659573D01*
X97618216Y-71659577D01*
X97770943Y-71700500D01*
X97770945Y-71700500D01*
X97929055Y-71700500D01*
X97929057Y-71700500D01*
X98081784Y-71659577D01*
X98218716Y-71580520D01*
X98330520Y-71468716D01*
X98409577Y-71331784D01*
X98450500Y-71179057D01*
X98450500Y-71020943D01*
X98409577Y-70868216D01*
X98346855Y-70759577D01*
X98330524Y-70731290D01*
X98330518Y-70731282D01*
X98218717Y-70619481D01*
X98218709Y-70619475D01*
X98081790Y-70540426D01*
X98081786Y-70540424D01*
X98081784Y-70540423D01*
X97929057Y-70499500D01*
X97770943Y-70499500D01*
X97618216Y-70540423D01*
X97618209Y-70540426D01*
X97481290Y-70619475D01*
X97481282Y-70619481D01*
X97369481Y-70731282D01*
X97369475Y-70731290D01*
X97290426Y-70868209D01*
X97290423Y-70868216D01*
X97249500Y-71020943D01*
X50500500Y-71020943D01*
X50500500Y-70120943D01*
X75249500Y-70120943D01*
X75249500Y-70279056D01*
X75290423Y-70431783D01*
X75290426Y-70431790D01*
X75369475Y-70568709D01*
X75369479Y-70568714D01*
X75369480Y-70568716D01*
X75481284Y-70680520D01*
X75481286Y-70680521D01*
X75481290Y-70680524D01*
X75569221Y-70731290D01*
X75618216Y-70759577D01*
X75770943Y-70800500D01*
X75770945Y-70800500D01*
X75929055Y-70800500D01*
X75929057Y-70800500D01*
X76081784Y-70759577D01*
X76218716Y-70680520D01*
X76330520Y-70568716D01*
X76409577Y-70431784D01*
X76450500Y-70279057D01*
X76450500Y-70120943D01*
X76423705Y-70020943D01*
X113149500Y-70020943D01*
X113149500Y-70179057D01*
X113176295Y-70279055D01*
X113190423Y-70331783D01*
X113190426Y-70331790D01*
X113269475Y-70468709D01*
X113269479Y-70468714D01*
X113269480Y-70468716D01*
X113381284Y-70580520D01*
X113381286Y-70580521D01*
X113381290Y-70580524D01*
X113448765Y-70619480D01*
X113518216Y-70659577D01*
X113670943Y-70700500D01*
X113670945Y-70700500D01*
X113829055Y-70700500D01*
X113829057Y-70700500D01*
X113981784Y-70659577D01*
X114118716Y-70580520D01*
X114230520Y-70468716D01*
X114309577Y-70331784D01*
X114350500Y-70179057D01*
X114350500Y-70020943D01*
X114309577Y-69868216D01*
X114288258Y-69831290D01*
X114230524Y-69731290D01*
X114230518Y-69731282D01*
X114118717Y-69619481D01*
X114118709Y-69619475D01*
X113981790Y-69540426D01*
X113981786Y-69540424D01*
X113981784Y-69540423D01*
X113829057Y-69499500D01*
X113670943Y-69499500D01*
X113518216Y-69540423D01*
X113518209Y-69540426D01*
X113381290Y-69619475D01*
X113381282Y-69619481D01*
X113269481Y-69731282D01*
X113269475Y-69731290D01*
X113190426Y-69868209D01*
X113190423Y-69868216D01*
X113149500Y-70020943D01*
X76423705Y-70020943D01*
X76409577Y-69968216D01*
X76351843Y-69868216D01*
X76330524Y-69831290D01*
X76330518Y-69831282D01*
X76218717Y-69719481D01*
X76218709Y-69719475D01*
X76081790Y-69640426D01*
X76081786Y-69640424D01*
X76081784Y-69640423D01*
X75929057Y-69599500D01*
X75770943Y-69599500D01*
X75618216Y-69640423D01*
X75618209Y-69640426D01*
X75481290Y-69719475D01*
X75481282Y-69719481D01*
X75369481Y-69831282D01*
X75369475Y-69831290D01*
X75290426Y-69968209D01*
X75290423Y-69968216D01*
X75249500Y-70120943D01*
X50500500Y-70120943D01*
X50500500Y-64820943D01*
X83699500Y-64820943D01*
X83699500Y-64979056D01*
X83740423Y-65131783D01*
X83740426Y-65131790D01*
X83819475Y-65268709D01*
X83819479Y-65268714D01*
X83819480Y-65268716D01*
X83931284Y-65380520D01*
X83931286Y-65380521D01*
X83931290Y-65380524D01*
X84068209Y-65459573D01*
X84068216Y-65459577D01*
X84220943Y-65500500D01*
X84220945Y-65500500D01*
X84379055Y-65500500D01*
X84379057Y-65500500D01*
X84531784Y-65459577D01*
X84668716Y-65380520D01*
X84780520Y-65268716D01*
X84859577Y-65131784D01*
X84900500Y-64979057D01*
X84900500Y-64820943D01*
X84859577Y-64668216D01*
X84796855Y-64559577D01*
X84780524Y-64531290D01*
X84780518Y-64531282D01*
X84668717Y-64419481D01*
X84668709Y-64419475D01*
X84531790Y-64340426D01*
X84531786Y-64340424D01*
X84531784Y-64340423D01*
X84379057Y-64299500D01*
X84220943Y-64299500D01*
X84068216Y-64340423D01*
X84068209Y-64340426D01*
X83931290Y-64419475D01*
X83931282Y-64419481D01*
X83819481Y-64531282D01*
X83819475Y-64531290D01*
X83740426Y-64668209D01*
X83740423Y-64668216D01*
X83699500Y-64820943D01*
X50500500Y-64820943D01*
X50500500Y-63920943D01*
X78549500Y-63920943D01*
X78549500Y-64079056D01*
X78590423Y-64231783D01*
X78590426Y-64231790D01*
X78669475Y-64368709D01*
X78669479Y-64368714D01*
X78669480Y-64368716D01*
X78781284Y-64480520D01*
X78781286Y-64480521D01*
X78781290Y-64480524D01*
X78869221Y-64531290D01*
X78918216Y-64559577D01*
X79070943Y-64600500D01*
X79070945Y-64600500D01*
X79229055Y-64600500D01*
X79229057Y-64600500D01*
X79381784Y-64559577D01*
X79518716Y-64480520D01*
X79630520Y-64368716D01*
X79709577Y-64231784D01*
X79750500Y-64079057D01*
X79750500Y-63920943D01*
X79709577Y-63768216D01*
X79687816Y-63730524D01*
X79630524Y-63631290D01*
X79630518Y-63631282D01*
X79518717Y-63519481D01*
X79518709Y-63519475D01*
X79381790Y-63440426D01*
X79381786Y-63440424D01*
X79381784Y-63440423D01*
X79229057Y-63399500D01*
X79070943Y-63399500D01*
X78918216Y-63440423D01*
X78918209Y-63440426D01*
X78781290Y-63519475D01*
X78781282Y-63519481D01*
X78669481Y-63631282D01*
X78669475Y-63631290D01*
X78590426Y-63768209D01*
X78590423Y-63768216D01*
X78549500Y-63920943D01*
X50500500Y-63920943D01*
X50500500Y-63170943D01*
X88849500Y-63170943D01*
X88849500Y-63329057D01*
X88879341Y-63440423D01*
X88890423Y-63481783D01*
X88890426Y-63481790D01*
X88969475Y-63618709D01*
X88969479Y-63618714D01*
X88969480Y-63618716D01*
X89081284Y-63730520D01*
X89081286Y-63730521D01*
X89081290Y-63730524D01*
X89218209Y-63809573D01*
X89218216Y-63809577D01*
X89370943Y-63850500D01*
X89370945Y-63850500D01*
X89529055Y-63850500D01*
X89529057Y-63850500D01*
X89681784Y-63809577D01*
X89818716Y-63730520D01*
X89930520Y-63618716D01*
X90009577Y-63481784D01*
X90050500Y-63329057D01*
X90050500Y-63170943D01*
X90009577Y-63018216D01*
X90009573Y-63018209D01*
X89930524Y-62881290D01*
X89930518Y-62881282D01*
X89818717Y-62769481D01*
X89818709Y-62769475D01*
X89681790Y-62690426D01*
X89681786Y-62690424D01*
X89681784Y-62690423D01*
X89529057Y-62649500D01*
X89370943Y-62649500D01*
X89218216Y-62690423D01*
X89218209Y-62690426D01*
X89081290Y-62769475D01*
X89081282Y-62769481D01*
X88969481Y-62881282D01*
X88969475Y-62881290D01*
X88890426Y-63018209D01*
X88890423Y-63018216D01*
X88849500Y-63170943D01*
X50500500Y-63170943D01*
X50500500Y-59580720D01*
X102570000Y-59580720D01*
X102570000Y-59789279D01*
X102602626Y-59995272D01*
X102667075Y-60193627D01*
X102761759Y-60379451D01*
X102797627Y-60428818D01*
X102797627Y-60428819D01*
X103371212Y-59855234D01*
X103382482Y-59897292D01*
X103454890Y-60022708D01*
X103557292Y-60125110D01*
X103682708Y-60197518D01*
X103724765Y-60208787D01*
X103151179Y-60782371D01*
X103151180Y-60782372D01*
X103200543Y-60818236D01*
X103200556Y-60818244D01*
X103386372Y-60912924D01*
X103584727Y-60977373D01*
X103637087Y-60985667D01*
X103700222Y-61015596D01*
X103737153Y-61074908D01*
X103736155Y-61144770D01*
X103697545Y-61203003D01*
X103641881Y-61229757D01*
X103595878Y-61238907D01*
X103595872Y-61238909D01*
X103409247Y-61316212D01*
X103409237Y-61316217D01*
X103241281Y-61428441D01*
X103098441Y-61571281D01*
X102986217Y-61739237D01*
X102986212Y-61739247D01*
X102908909Y-61925872D01*
X102908907Y-61925880D01*
X102869500Y-62123992D01*
X102869500Y-62326007D01*
X102908907Y-62524119D01*
X102908909Y-62524127D01*
X102986212Y-62710752D01*
X102986217Y-62710762D01*
X103098441Y-62878718D01*
X103241281Y-63021558D01*
X103409237Y-63133782D01*
X103409241Y-63133784D01*
X103409244Y-63133786D01*
X103595873Y-63211091D01*
X103793992Y-63250499D01*
X103793996Y-63250500D01*
X103793997Y-63250500D01*
X103996004Y-63250500D01*
X103996005Y-63250499D01*
X104194127Y-63211091D01*
X104380756Y-63133786D01*
X104548718Y-63021558D01*
X104691558Y-62878718D01*
X104803786Y-62710756D01*
X104881091Y-62524127D01*
X104920500Y-62326003D01*
X104920500Y-62123997D01*
X104881091Y-61925873D01*
X104803786Y-61739244D01*
X104803784Y-61739241D01*
X104803782Y-61739237D01*
X104691558Y-61571281D01*
X104548718Y-61428441D01*
X104380762Y-61316217D01*
X104380752Y-61316212D01*
X104194127Y-61238909D01*
X104194119Y-61238907D01*
X104148119Y-61229757D01*
X104086208Y-61197372D01*
X104051634Y-61136657D01*
X104055373Y-61066887D01*
X104096239Y-61010215D01*
X104152912Y-60985667D01*
X104205273Y-60977373D01*
X104403627Y-60912924D01*
X104589451Y-60818240D01*
X104638818Y-60782372D01*
X104638818Y-60782371D01*
X104065234Y-60208787D01*
X104107292Y-60197518D01*
X104232708Y-60125110D01*
X104335110Y-60022708D01*
X104407518Y-59897292D01*
X104418787Y-59855234D01*
X104992371Y-60428818D01*
X104992372Y-60428818D01*
X105028240Y-60379451D01*
X105054515Y-60327885D01*
X105102489Y-60277089D01*
X105170310Y-60260294D01*
X105236445Y-60282831D01*
X105275485Y-60327885D01*
X105301759Y-60379451D01*
X105337627Y-60428818D01*
X105337627Y-60428819D01*
X105911212Y-59855234D01*
X105922482Y-59897292D01*
X105994890Y-60022708D01*
X106097292Y-60125110D01*
X106222708Y-60197518D01*
X106264765Y-60208787D01*
X105691179Y-60782371D01*
X105691180Y-60782372D01*
X105740543Y-60818236D01*
X105740556Y-60818244D01*
X105926372Y-60912924D01*
X106124727Y-60977373D01*
X106177087Y-60985667D01*
X106240222Y-61015596D01*
X106277153Y-61074908D01*
X106276155Y-61144770D01*
X106237545Y-61203003D01*
X106181881Y-61229757D01*
X106135878Y-61238907D01*
X106135872Y-61238909D01*
X105949247Y-61316212D01*
X105949237Y-61316217D01*
X105781281Y-61428441D01*
X105638441Y-61571281D01*
X105526217Y-61739237D01*
X105526212Y-61739247D01*
X105448909Y-61925872D01*
X105448907Y-61925880D01*
X105409500Y-62123992D01*
X105409500Y-62326007D01*
X105448907Y-62524119D01*
X105448909Y-62524127D01*
X105526212Y-62710752D01*
X105526217Y-62710762D01*
X105638441Y-62878718D01*
X105781281Y-63021558D01*
X105949237Y-63133782D01*
X105949241Y-63133784D01*
X105949244Y-63133786D01*
X106135873Y-63211091D01*
X106333992Y-63250499D01*
X106333996Y-63250500D01*
X106333997Y-63250500D01*
X106536004Y-63250500D01*
X106536005Y-63250499D01*
X106734127Y-63211091D01*
X106920756Y-63133786D01*
X107088718Y-63021558D01*
X107231558Y-62878718D01*
X107343786Y-62710756D01*
X107421091Y-62524127D01*
X107460500Y-62326003D01*
X107460500Y-62123997D01*
X107421091Y-61925873D01*
X107343786Y-61739244D01*
X107343784Y-61739241D01*
X107343782Y-61739237D01*
X107231558Y-61571281D01*
X107088718Y-61428441D01*
X106920762Y-61316217D01*
X106920752Y-61316212D01*
X106734127Y-61238909D01*
X106734119Y-61238907D01*
X106688119Y-61229757D01*
X106626208Y-61197372D01*
X106591634Y-61136657D01*
X106595373Y-61066887D01*
X106636239Y-61010215D01*
X106692912Y-60985667D01*
X106745273Y-60977373D01*
X106943627Y-60912924D01*
X107129451Y-60818240D01*
X107178818Y-60782372D01*
X107178818Y-60782371D01*
X106605234Y-60208787D01*
X106647292Y-60197518D01*
X106772708Y-60125110D01*
X106875110Y-60022708D01*
X106947518Y-59897292D01*
X106958787Y-59855234D01*
X107532371Y-60428818D01*
X107532372Y-60428818D01*
X107568240Y-60379451D01*
X107594515Y-60327885D01*
X107642489Y-60277089D01*
X107710310Y-60260294D01*
X107776445Y-60282831D01*
X107815485Y-60327885D01*
X107841759Y-60379451D01*
X107877627Y-60428818D01*
X107877627Y-60428819D01*
X108451212Y-59855234D01*
X108462482Y-59897292D01*
X108534890Y-60022708D01*
X108637292Y-60125110D01*
X108762708Y-60197518D01*
X108804765Y-60208787D01*
X108231179Y-60782371D01*
X108231180Y-60782372D01*
X108280543Y-60818236D01*
X108280556Y-60818244D01*
X108466372Y-60912924D01*
X108664727Y-60977373D01*
X108717087Y-60985667D01*
X108780222Y-61015596D01*
X108817153Y-61074908D01*
X108816155Y-61144770D01*
X108777545Y-61203003D01*
X108721881Y-61229757D01*
X108675878Y-61238907D01*
X108675872Y-61238909D01*
X108489247Y-61316212D01*
X108489237Y-61316217D01*
X108321281Y-61428441D01*
X108178441Y-61571281D01*
X108066217Y-61739237D01*
X108066212Y-61739247D01*
X107988909Y-61925872D01*
X107988907Y-61925880D01*
X107949500Y-62123992D01*
X107949500Y-62326007D01*
X107988907Y-62524119D01*
X107988909Y-62524127D01*
X108066212Y-62710752D01*
X108066217Y-62710762D01*
X108178441Y-62878718D01*
X108321281Y-63021558D01*
X108489237Y-63133782D01*
X108489241Y-63133784D01*
X108489244Y-63133786D01*
X108675873Y-63211091D01*
X108873992Y-63250499D01*
X108873996Y-63250500D01*
X108873997Y-63250500D01*
X109076004Y-63250500D01*
X109076005Y-63250499D01*
X109274127Y-63211091D01*
X109460756Y-63133786D01*
X109628718Y-63021558D01*
X109771558Y-62878718D01*
X109883786Y-62710756D01*
X109961091Y-62524127D01*
X110000500Y-62326003D01*
X110000500Y-62123997D01*
X109961091Y-61925873D01*
X109883786Y-61739244D01*
X109883784Y-61739241D01*
X109883782Y-61739237D01*
X109771558Y-61571281D01*
X109628718Y-61428441D01*
X109460762Y-61316217D01*
X109460752Y-61316212D01*
X109274127Y-61238909D01*
X109274119Y-61238907D01*
X109228119Y-61229757D01*
X109166208Y-61197372D01*
X109131634Y-61136657D01*
X109135373Y-61066887D01*
X109176239Y-61010215D01*
X109232912Y-60985667D01*
X109285273Y-60977373D01*
X109483627Y-60912924D01*
X109669451Y-60818240D01*
X109718818Y-60782372D01*
X109718818Y-60782371D01*
X109145234Y-60208787D01*
X109187292Y-60197518D01*
X109312708Y-60125110D01*
X109415110Y-60022708D01*
X109487518Y-59897292D01*
X109498787Y-59855234D01*
X110072371Y-60428818D01*
X110072372Y-60428818D01*
X110108240Y-60379451D01*
X110134515Y-60327885D01*
X110182489Y-60277089D01*
X110250310Y-60260294D01*
X110316445Y-60282831D01*
X110355485Y-60327885D01*
X110381759Y-60379451D01*
X110417627Y-60428818D01*
X110417627Y-60428819D01*
X110991212Y-59855234D01*
X111002482Y-59897292D01*
X111074890Y-60022708D01*
X111177292Y-60125110D01*
X111302708Y-60197518D01*
X111344765Y-60208787D01*
X110771179Y-60782371D01*
X110771180Y-60782372D01*
X110820543Y-60818236D01*
X110820556Y-60818244D01*
X111006372Y-60912924D01*
X111204727Y-60977373D01*
X111257087Y-60985667D01*
X111320222Y-61015596D01*
X111357153Y-61074908D01*
X111356155Y-61144770D01*
X111317545Y-61203003D01*
X111261881Y-61229757D01*
X111215878Y-61238907D01*
X111215872Y-61238909D01*
X111029247Y-61316212D01*
X111029237Y-61316217D01*
X110861281Y-61428441D01*
X110718441Y-61571281D01*
X110606217Y-61739237D01*
X110606212Y-61739247D01*
X110528909Y-61925872D01*
X110528907Y-61925880D01*
X110489500Y-62123992D01*
X110489500Y-62326007D01*
X110528907Y-62524119D01*
X110528909Y-62524127D01*
X110606212Y-62710752D01*
X110606217Y-62710762D01*
X110718441Y-62878718D01*
X110861281Y-63021558D01*
X111029237Y-63133782D01*
X111029241Y-63133784D01*
X111029244Y-63133786D01*
X111215873Y-63211091D01*
X111413992Y-63250499D01*
X111413996Y-63250500D01*
X111413997Y-63250500D01*
X111616004Y-63250500D01*
X111616005Y-63250499D01*
X111814127Y-63211091D01*
X112000756Y-63133786D01*
X112168718Y-63021558D01*
X112311558Y-62878718D01*
X112423786Y-62710756D01*
X112501091Y-62524127D01*
X112540500Y-62326003D01*
X112540500Y-62123997D01*
X112540499Y-62123992D01*
X113029500Y-62123992D01*
X113029500Y-62326007D01*
X113068907Y-62524119D01*
X113068909Y-62524127D01*
X113146212Y-62710752D01*
X113146217Y-62710762D01*
X113258441Y-62878718D01*
X113401281Y-63021558D01*
X113569237Y-63133782D01*
X113569241Y-63133784D01*
X113569244Y-63133786D01*
X113755873Y-63211091D01*
X113953992Y-63250499D01*
X113953996Y-63250500D01*
X113953997Y-63250500D01*
X114156004Y-63250500D01*
X114156005Y-63250499D01*
X114354127Y-63211091D01*
X114540756Y-63133786D01*
X114708718Y-63021558D01*
X114851558Y-62878718D01*
X114963786Y-62710756D01*
X115041091Y-62524127D01*
X115080500Y-62326003D01*
X115080500Y-62123997D01*
X115041091Y-61925873D01*
X114963786Y-61739244D01*
X114963784Y-61739241D01*
X114963782Y-61739237D01*
X114851558Y-61571281D01*
X114708718Y-61428441D01*
X114540762Y-61316217D01*
X114540752Y-61316212D01*
X114354127Y-61238909D01*
X114354119Y-61238907D01*
X114156007Y-61199500D01*
X114156003Y-61199500D01*
X113953997Y-61199500D01*
X113953992Y-61199500D01*
X113755880Y-61238907D01*
X113755872Y-61238909D01*
X113569247Y-61316212D01*
X113569237Y-61316217D01*
X113401281Y-61428441D01*
X113258441Y-61571281D01*
X113146217Y-61739237D01*
X113146212Y-61739247D01*
X113068909Y-61925872D01*
X113068907Y-61925880D01*
X113029500Y-62123992D01*
X112540499Y-62123992D01*
X112501091Y-61925873D01*
X112423786Y-61739244D01*
X112423784Y-61739241D01*
X112423782Y-61739237D01*
X112311558Y-61571281D01*
X112168718Y-61428441D01*
X112000762Y-61316217D01*
X112000752Y-61316212D01*
X111814127Y-61238909D01*
X111814119Y-61238907D01*
X111768119Y-61229757D01*
X111706208Y-61197372D01*
X111671634Y-61136657D01*
X111675373Y-61066887D01*
X111716239Y-61010215D01*
X111772912Y-60985667D01*
X111825273Y-60977373D01*
X112023627Y-60912924D01*
X112209451Y-60818240D01*
X112258818Y-60782372D01*
X112258818Y-60782371D01*
X111685234Y-60208787D01*
X111727292Y-60197518D01*
X111852708Y-60125110D01*
X111955110Y-60022708D01*
X112027518Y-59897292D01*
X112038787Y-59855234D01*
X112612371Y-60428818D01*
X112612372Y-60428818D01*
X112648240Y-60379451D01*
X112742924Y-60193625D01*
X112787569Y-60056226D01*
X112827007Y-59998550D01*
X112891365Y-59971352D01*
X112960212Y-59983267D01*
X113011687Y-60030511D01*
X113029500Y-60094544D01*
X113029500Y-60529752D01*
X113041131Y-60588229D01*
X113041132Y-60588230D01*
X113085447Y-60654552D01*
X113151769Y-60698867D01*
X113151770Y-60698868D01*
X113210247Y-60710499D01*
X113210250Y-60710500D01*
X113210252Y-60710500D01*
X114899750Y-60710500D01*
X114899751Y-60710499D01*
X114914568Y-60707552D01*
X114958229Y-60698868D01*
X114958229Y-60698867D01*
X114958231Y-60698867D01*
X115024552Y-60654552D01*
X115068867Y-60588231D01*
X115068867Y-60588229D01*
X115068868Y-60588229D01*
X115080499Y-60529752D01*
X115080500Y-60529750D01*
X115080500Y-58840249D01*
X115080499Y-58840247D01*
X115068868Y-58781770D01*
X115068867Y-58781769D01*
X115024552Y-58715447D01*
X114958230Y-58671132D01*
X114958229Y-58671131D01*
X114899752Y-58659500D01*
X114899748Y-58659500D01*
X113210252Y-58659500D01*
X113210247Y-58659500D01*
X113151770Y-58671131D01*
X113151769Y-58671132D01*
X113085447Y-58715447D01*
X113041132Y-58781769D01*
X113041131Y-58781770D01*
X113029500Y-58840247D01*
X113029500Y-59275455D01*
X113009815Y-59342494D01*
X112957011Y-59388249D01*
X112887853Y-59398193D01*
X112824297Y-59369168D01*
X112787569Y-59313774D01*
X112742924Y-59176372D01*
X112648244Y-58990556D01*
X112648236Y-58990543D01*
X112612372Y-58941180D01*
X112612371Y-58941179D01*
X112038787Y-59514764D01*
X112027518Y-59472708D01*
X111955110Y-59347292D01*
X111852708Y-59244890D01*
X111727292Y-59172482D01*
X111685233Y-59161212D01*
X112258819Y-58587627D01*
X112209451Y-58551759D01*
X112023627Y-58457075D01*
X111825272Y-58392626D01*
X111619279Y-58360000D01*
X111410721Y-58360000D01*
X111204727Y-58392626D01*
X111006372Y-58457075D01*
X110820552Y-58551757D01*
X110771180Y-58587627D01*
X111344766Y-59161212D01*
X111302708Y-59172482D01*
X111177292Y-59244890D01*
X111074890Y-59347292D01*
X111002482Y-59472708D01*
X110991212Y-59514765D01*
X110417627Y-58941180D01*
X110381755Y-58990555D01*
X110355484Y-59042115D01*
X110307510Y-59092910D01*
X110239689Y-59109705D01*
X110173554Y-59087167D01*
X110134516Y-59042115D01*
X110108247Y-58990561D01*
X110108236Y-58990543D01*
X110072372Y-58941180D01*
X110072371Y-58941179D01*
X109498787Y-59514764D01*
X109487518Y-59472708D01*
X109415110Y-59347292D01*
X109312708Y-59244890D01*
X109187292Y-59172482D01*
X109145233Y-59161212D01*
X109718819Y-58587627D01*
X109669451Y-58551759D01*
X109483627Y-58457075D01*
X109285272Y-58392626D01*
X109079279Y-58360000D01*
X108870721Y-58360000D01*
X108664727Y-58392626D01*
X108466372Y-58457075D01*
X108280552Y-58551757D01*
X108231180Y-58587627D01*
X108804766Y-59161212D01*
X108762708Y-59172482D01*
X108637292Y-59244890D01*
X108534890Y-59347292D01*
X108462482Y-59472708D01*
X108451212Y-59514765D01*
X107877627Y-58941180D01*
X107841755Y-58990555D01*
X107815484Y-59042115D01*
X107767510Y-59092910D01*
X107699689Y-59109705D01*
X107633554Y-59087167D01*
X107594516Y-59042115D01*
X107568247Y-58990561D01*
X107568236Y-58990543D01*
X107532372Y-58941180D01*
X107532371Y-58941179D01*
X106958787Y-59514764D01*
X106947518Y-59472708D01*
X106875110Y-59347292D01*
X106772708Y-59244890D01*
X106647292Y-59172482D01*
X106605233Y-59161212D01*
X107178819Y-58587627D01*
X107129451Y-58551759D01*
X106943627Y-58457075D01*
X106745272Y-58392626D01*
X106539279Y-58360000D01*
X106330721Y-58360000D01*
X106124727Y-58392626D01*
X105926372Y-58457075D01*
X105740552Y-58551757D01*
X105691180Y-58587627D01*
X106264766Y-59161212D01*
X106222708Y-59172482D01*
X106097292Y-59244890D01*
X105994890Y-59347292D01*
X105922482Y-59472708D01*
X105911212Y-59514765D01*
X105337627Y-58941180D01*
X105301755Y-58990555D01*
X105275484Y-59042115D01*
X105227510Y-59092910D01*
X105159689Y-59109705D01*
X105093554Y-59087167D01*
X105054516Y-59042115D01*
X105028247Y-58990561D01*
X105028236Y-58990543D01*
X104992372Y-58941180D01*
X104992371Y-58941179D01*
X104418787Y-59514764D01*
X104407518Y-59472708D01*
X104335110Y-59347292D01*
X104232708Y-59244890D01*
X104107292Y-59172482D01*
X104065233Y-59161212D01*
X104638819Y-58587627D01*
X104589451Y-58551759D01*
X104403627Y-58457075D01*
X104205272Y-58392626D01*
X103999279Y-58360000D01*
X103790721Y-58360000D01*
X103584727Y-58392626D01*
X103386372Y-58457075D01*
X103200552Y-58551757D01*
X103151180Y-58587627D01*
X103724766Y-59161212D01*
X103682708Y-59172482D01*
X103557292Y-59244890D01*
X103454890Y-59347292D01*
X103382482Y-59472708D01*
X103371212Y-59514765D01*
X102797627Y-58941180D01*
X102761757Y-58990552D01*
X102667075Y-59176372D01*
X102602626Y-59374727D01*
X102570000Y-59580720D01*
X50500500Y-59580720D01*
X50500500Y-56720943D01*
X100499500Y-56720943D01*
X100499500Y-56879057D01*
X100523525Y-56968717D01*
X100540423Y-57031783D01*
X100540426Y-57031790D01*
X100619475Y-57168709D01*
X100619479Y-57168714D01*
X100619480Y-57168716D01*
X100731284Y-57280520D01*
X100731286Y-57280521D01*
X100731290Y-57280524D01*
X100868209Y-57359573D01*
X100868216Y-57359577D01*
X101020943Y-57400500D01*
X101020945Y-57400500D01*
X101179055Y-57400500D01*
X101179057Y-57400500D01*
X101331784Y-57359577D01*
X101468716Y-57280520D01*
X101580520Y-57168716D01*
X101659577Y-57031784D01*
X101700500Y-56879057D01*
X101700500Y-56720943D01*
X101659577Y-56568216D01*
X101636592Y-56528405D01*
X101632284Y-56520943D01*
X104249500Y-56520943D01*
X104249500Y-56679057D01*
X104260724Y-56720943D01*
X104290423Y-56831783D01*
X104290426Y-56831790D01*
X104369475Y-56968709D01*
X104369479Y-56968714D01*
X104369480Y-56968716D01*
X104481284Y-57080520D01*
X104481286Y-57080521D01*
X104481290Y-57080524D01*
X104618209Y-57159573D01*
X104618216Y-57159577D01*
X104770943Y-57200500D01*
X104770945Y-57200500D01*
X104929055Y-57200500D01*
X104929057Y-57200500D01*
X105081784Y-57159577D01*
X105218716Y-57080520D01*
X105330520Y-56968716D01*
X105409577Y-56831784D01*
X105450500Y-56679057D01*
X105450500Y-56520943D01*
X105409577Y-56368216D01*
X105381437Y-56319475D01*
X105330524Y-56231290D01*
X105330518Y-56231282D01*
X105218717Y-56119481D01*
X105218709Y-56119475D01*
X105081790Y-56040426D01*
X105081786Y-56040424D01*
X105081784Y-56040423D01*
X104929057Y-55999500D01*
X104770943Y-55999500D01*
X104618216Y-56040423D01*
X104618209Y-56040426D01*
X104481290Y-56119475D01*
X104481282Y-56119481D01*
X104369481Y-56231282D01*
X104369475Y-56231290D01*
X104290426Y-56368209D01*
X104290423Y-56368216D01*
X104249500Y-56520943D01*
X101632284Y-56520943D01*
X101580522Y-56431287D01*
X101580518Y-56431282D01*
X101468717Y-56319481D01*
X101468709Y-56319475D01*
X101331790Y-56240426D01*
X101331786Y-56240424D01*
X101331784Y-56240423D01*
X101179057Y-56199500D01*
X101020943Y-56199500D01*
X100868216Y-56240423D01*
X100868209Y-56240426D01*
X100731290Y-56319475D01*
X100731282Y-56319481D01*
X100619481Y-56431282D01*
X100619475Y-56431290D01*
X100540426Y-56568209D01*
X100540426Y-56568210D01*
X100540423Y-56568216D01*
X100499500Y-56720943D01*
X50500500Y-56720943D01*
X50500500Y-54888549D01*
X53299500Y-54888549D01*
X53299500Y-55111450D01*
X53299501Y-55111466D01*
X53328594Y-55332452D01*
X53328595Y-55332457D01*
X53328596Y-55332463D01*
X53328597Y-55332465D01*
X53386290Y-55547780D01*
X53386293Y-55547790D01*
X53471593Y-55753722D01*
X53471595Y-55753726D01*
X53583052Y-55946774D01*
X53583057Y-55946780D01*
X53583058Y-55946782D01*
X53718751Y-56123622D01*
X53718757Y-56123629D01*
X53876370Y-56281242D01*
X53876377Y-56281248D01*
X53926204Y-56319481D01*
X54053226Y-56416948D01*
X54246274Y-56528405D01*
X54452219Y-56613710D01*
X54667537Y-56671404D01*
X54888543Y-56700500D01*
X54888550Y-56700500D01*
X55111450Y-56700500D01*
X55111457Y-56700500D01*
X55332463Y-56671404D01*
X55547781Y-56613710D01*
X55753726Y-56528405D01*
X55946774Y-56416948D01*
X56123624Y-56281247D01*
X56281247Y-56123624D01*
X56416948Y-55946774D01*
X56528405Y-55753726D01*
X56613710Y-55547781D01*
X56671404Y-55332463D01*
X56700500Y-55111457D01*
X56700500Y-54888549D01*
X133299500Y-54888549D01*
X133299500Y-55111450D01*
X133299501Y-55111466D01*
X133328594Y-55332452D01*
X133328595Y-55332457D01*
X133328596Y-55332463D01*
X133328597Y-55332465D01*
X133386290Y-55547780D01*
X133386293Y-55547790D01*
X133471593Y-55753722D01*
X133471595Y-55753726D01*
X133583052Y-55946774D01*
X133583057Y-55946780D01*
X133583058Y-55946782D01*
X133718751Y-56123622D01*
X133718757Y-56123629D01*
X133876370Y-56281242D01*
X133876377Y-56281248D01*
X133926204Y-56319481D01*
X134053226Y-56416948D01*
X134246274Y-56528405D01*
X134452219Y-56613710D01*
X134667537Y-56671404D01*
X134888543Y-56700500D01*
X134888550Y-56700500D01*
X135111450Y-56700500D01*
X135111457Y-56700500D01*
X135332463Y-56671404D01*
X135547781Y-56613710D01*
X135753726Y-56528405D01*
X135946774Y-56416948D01*
X136123624Y-56281247D01*
X136281247Y-56123624D01*
X136416948Y-55946774D01*
X136528405Y-55753726D01*
X136613710Y-55547781D01*
X136671404Y-55332463D01*
X136700500Y-55111457D01*
X136700500Y-54888543D01*
X136671404Y-54667537D01*
X136613710Y-54452219D01*
X136528405Y-54246274D01*
X136416948Y-54053226D01*
X136281247Y-53876376D01*
X136281242Y-53876370D01*
X136123629Y-53718757D01*
X136123622Y-53718751D01*
X135946782Y-53583058D01*
X135946780Y-53583057D01*
X135946774Y-53583052D01*
X135753726Y-53471595D01*
X135753722Y-53471593D01*
X135547790Y-53386293D01*
X135547783Y-53386291D01*
X135547781Y-53386290D01*
X135332463Y-53328596D01*
X135332457Y-53328595D01*
X135332452Y-53328594D01*
X135111466Y-53299501D01*
X135111463Y-53299500D01*
X135111457Y-53299500D01*
X134888543Y-53299500D01*
X134888537Y-53299500D01*
X134888533Y-53299501D01*
X134667547Y-53328594D01*
X134667540Y-53328595D01*
X134667537Y-53328596D01*
X134551914Y-53359577D01*
X134452219Y-53386290D01*
X134452209Y-53386293D01*
X134246277Y-53471593D01*
X134246273Y-53471595D01*
X134053226Y-53583052D01*
X134053217Y-53583058D01*
X133876377Y-53718751D01*
X133876370Y-53718757D01*
X133718757Y-53876370D01*
X133718751Y-53876377D01*
X133583058Y-54053217D01*
X133583052Y-54053226D01*
X133471595Y-54246273D01*
X133471593Y-54246277D01*
X133386293Y-54452209D01*
X133386290Y-54452219D01*
X133358615Y-54555506D01*
X133328597Y-54667534D01*
X133328594Y-54667547D01*
X133299501Y-54888533D01*
X133299500Y-54888549D01*
X56700500Y-54888549D01*
X56700500Y-54888543D01*
X56671404Y-54667537D01*
X56613710Y-54452219D01*
X56528405Y-54246274D01*
X56528403Y-54246271D01*
X56528401Y-54246266D01*
X56441874Y-54096398D01*
X56441873Y-54096396D01*
X56416955Y-54053238D01*
X56416954Y-54053237D01*
X56416948Y-54053226D01*
X56408737Y-54042525D01*
X93199500Y-54042525D01*
X93199500Y-54187475D01*
X93237016Y-54327485D01*
X93237017Y-54327488D01*
X93309488Y-54453011D01*
X93309490Y-54453013D01*
X93309491Y-54453015D01*
X93411985Y-54555509D01*
X93411986Y-54555510D01*
X93411988Y-54555511D01*
X93537511Y-54627982D01*
X93537512Y-54627982D01*
X93537515Y-54627984D01*
X93677525Y-54665500D01*
X93677528Y-54665500D01*
X93822472Y-54665500D01*
X93822475Y-54665500D01*
X93962485Y-54627984D01*
X94088015Y-54555509D01*
X94190509Y-54453015D01*
X94262984Y-54327485D01*
X94300500Y-54187475D01*
X94300500Y-54042525D01*
X96199500Y-54042525D01*
X96199500Y-54187475D01*
X96237016Y-54327485D01*
X96237017Y-54327488D01*
X96309488Y-54453011D01*
X96309490Y-54453013D01*
X96309491Y-54453015D01*
X96411985Y-54555509D01*
X96411986Y-54555510D01*
X96411988Y-54555511D01*
X96537511Y-54627982D01*
X96537512Y-54627982D01*
X96537515Y-54627984D01*
X96677525Y-54665500D01*
X96677528Y-54665500D01*
X96822472Y-54665500D01*
X96822475Y-54665500D01*
X96962485Y-54627984D01*
X97088015Y-54555509D01*
X97190509Y-54453015D01*
X97262984Y-54327485D01*
X97300500Y-54187475D01*
X97300500Y-54042525D01*
X97262984Y-53902515D01*
X97190509Y-53776985D01*
X97088015Y-53674491D01*
X97088013Y-53674490D01*
X97088011Y-53674488D01*
X96962488Y-53602017D01*
X96962489Y-53602017D01*
X96951006Y-53598940D01*
X96822475Y-53564500D01*
X96677525Y-53564500D01*
X96548993Y-53598940D01*
X96537511Y-53602017D01*
X96411988Y-53674488D01*
X96411982Y-53674493D01*
X96309493Y-53776982D01*
X96309488Y-53776988D01*
X96237017Y-53902511D01*
X96237016Y-53902515D01*
X96199500Y-54042525D01*
X94300500Y-54042525D01*
X94262984Y-53902515D01*
X94190509Y-53776985D01*
X94088015Y-53674491D01*
X94088013Y-53674490D01*
X94088011Y-53674488D01*
X93962488Y-53602017D01*
X93962489Y-53602017D01*
X93951006Y-53598940D01*
X93822475Y-53564500D01*
X93677525Y-53564500D01*
X93548993Y-53598940D01*
X93537511Y-53602017D01*
X93411988Y-53674488D01*
X93411982Y-53674493D01*
X93309493Y-53776982D01*
X93309488Y-53776988D01*
X93237017Y-53902511D01*
X93237016Y-53902515D01*
X93199500Y-54042525D01*
X56408737Y-54042525D01*
X56281247Y-53876376D01*
X56281242Y-53876370D01*
X56123629Y-53718757D01*
X56123622Y-53718751D01*
X55946782Y-53583058D01*
X55946780Y-53583057D01*
X55946774Y-53583052D01*
X55753726Y-53471595D01*
X55753722Y-53471593D01*
X55547790Y-53386293D01*
X55547783Y-53386291D01*
X55547781Y-53386290D01*
X55332463Y-53328596D01*
X55332457Y-53328595D01*
X55332452Y-53328594D01*
X55111466Y-53299501D01*
X55111463Y-53299500D01*
X55111457Y-53299500D01*
X54888543Y-53299500D01*
X54888537Y-53299500D01*
X54888533Y-53299501D01*
X54667547Y-53328594D01*
X54667540Y-53328595D01*
X54667537Y-53328596D01*
X54551914Y-53359577D01*
X54452219Y-53386290D01*
X54452209Y-53386293D01*
X54246277Y-53471593D01*
X54246273Y-53471595D01*
X54053226Y-53583052D01*
X54053217Y-53583058D01*
X53876377Y-53718751D01*
X53876370Y-53718757D01*
X53718757Y-53876370D01*
X53718751Y-53876377D01*
X53583058Y-54053217D01*
X53583052Y-54053226D01*
X53471595Y-54246273D01*
X53471593Y-54246277D01*
X53386293Y-54452209D01*
X53386290Y-54452219D01*
X53358615Y-54555506D01*
X53328597Y-54667534D01*
X53328594Y-54667547D01*
X53299501Y-54888533D01*
X53299500Y-54888549D01*
X50500500Y-54888549D01*
X50500500Y-52720943D01*
X82599500Y-52720943D01*
X82599500Y-52879056D01*
X82640423Y-53031783D01*
X82640426Y-53031790D01*
X82719475Y-53168709D01*
X82719479Y-53168714D01*
X82719480Y-53168716D01*
X82831284Y-53280520D01*
X82831286Y-53280521D01*
X82831290Y-53280524D01*
X82968209Y-53359573D01*
X82968216Y-53359577D01*
X83120943Y-53400500D01*
X83120945Y-53400500D01*
X83279055Y-53400500D01*
X83279057Y-53400500D01*
X83431784Y-53359577D01*
X83568716Y-53280520D01*
X83680520Y-53168716D01*
X83759577Y-53031784D01*
X83800500Y-52879057D01*
X83800500Y-52720943D01*
X83759577Y-52568216D01*
X83696855Y-52459577D01*
X83680524Y-52431290D01*
X83680518Y-52431282D01*
X83568717Y-52319481D01*
X83568709Y-52319475D01*
X83431790Y-52240426D01*
X83431786Y-52240424D01*
X83431784Y-52240423D01*
X83279057Y-52199500D01*
X83120943Y-52199500D01*
X82968216Y-52240423D01*
X82968209Y-52240426D01*
X82831290Y-52319475D01*
X82831282Y-52319481D01*
X82719481Y-52431282D01*
X82719475Y-52431290D01*
X82640426Y-52568209D01*
X82640423Y-52568216D01*
X82599500Y-52720943D01*
X50500500Y-52720943D01*
X50500500Y-51820943D01*
X104999500Y-51820943D01*
X104999500Y-51979056D01*
X105040423Y-52131783D01*
X105040426Y-52131790D01*
X105119475Y-52268709D01*
X105119479Y-52268714D01*
X105119480Y-52268716D01*
X105231284Y-52380520D01*
X105231286Y-52380521D01*
X105231290Y-52380524D01*
X105319221Y-52431290D01*
X105368216Y-52459577D01*
X105520943Y-52500500D01*
X105520945Y-52500500D01*
X105679055Y-52500500D01*
X105679057Y-52500500D01*
X105831784Y-52459577D01*
X105968716Y-52380520D01*
X106080520Y-52268716D01*
X106159577Y-52131784D01*
X106200500Y-51979057D01*
X106200500Y-51820943D01*
X106159577Y-51668216D01*
X106159573Y-51668209D01*
X106080524Y-51531290D01*
X106080518Y-51531282D01*
X105968717Y-51419481D01*
X105968709Y-51419475D01*
X105831790Y-51340426D01*
X105831786Y-51340424D01*
X105831784Y-51340423D01*
X105679057Y-51299500D01*
X105520943Y-51299500D01*
X105368216Y-51340423D01*
X105368209Y-51340426D01*
X105231290Y-51419475D01*
X105231282Y-51419481D01*
X105119481Y-51531282D01*
X105119475Y-51531290D01*
X105040426Y-51668209D01*
X105040423Y-51668216D01*
X104999500Y-51820943D01*
X50500500Y-51820943D01*
X50500500Y-50624500D01*
X50520185Y-50557461D01*
X50572989Y-50511706D01*
X50624500Y-50500500D01*
X139375500Y-50500500D01*
X139442539Y-50520185D01*
G37*
%TD.AperFunction*%
%TD*%
M02*
