M48
; DRILL file {KiCad 9.0.7} date 2026-02-08T15:08:52+0000
; FORMAT={-:-/ absolute / metric / decimal}
; #@! TF.CreationDate,2026-02-08T15:08:52+00:00
; #@! TF.GenerationSoftware,Kicad,Pcbnew,9.0.7
; #@! TF.FileFunction,Plated,1,4,PTH
FMAT,2
METRIC
; #@! TA.AperFunction,Plated,PTH,ViaDrill
T1C0.350
; #@! TA.AperFunction,Plated,PTH,ComponentDrill
T2C0.460
; #@! TA.AperFunction,Plated,PTH,ComponentDrill
T3C1.100
%
G90
G05
T1
X53.025Y-67.975
X53.05Y-82.475
X55.002Y-129.615
X56.37Y-99.22
X56.452Y-128.615
X56.452Y-130.815
X57.375Y-67.9
X60.125Y-82.575
X61.102Y-132.815
X61.202Y-126.515
X61.352Y-128.065
X61.352Y-129.115
X61.352Y-130.265
X63.157Y-77.3
X63.188Y-72.052
X63.85Y-58.6
X65.902Y-131.415
X67.502Y-128.565
X67.502Y-129.615
X68.47Y-98.0
X68.47Y-99.3
X68.5Y-90.3
X70.29Y-118.74
X70.57Y-104.26
X73.45Y-91.05
X74.93Y-58.0
X75.85Y-70.2
X75.9Y-86.65
X76.45Y-93.85
X77.75Y-104.95
X79.15Y-64.0
X79.4Y-104.95
X79.85Y-70.3
X80.45Y-130.1
X80.95Y-104.95
X80.95Y-141.0
X81.031Y-133.222
X82.6Y-104.95
X83.2Y-52.8
X83.456Y-142.622
X83.65Y-97.85
X84.3Y-64.9
X84.4Y-139.55
X86.15Y-55.2
X87.6Y-88.35
X88.55Y-110.95
X88.55Y-122.65
X89.231Y-137.722
X89.45Y-53.15
X89.45Y-55.1
X89.45Y-63.25
X89.55Y-110.95
X89.95Y-107.35
X90.0Y-119.6
X90.7Y-110.5
X90.781Y-145.422
X90.95Y-107.35
X91.538Y-79.938
X91.538Y-84.488
X91.55Y-109.85
X91.8Y-90.4
X91.8Y-91.5
X91.95Y-86.912
X92.05Y-88.15
X92.25Y-107.0
X92.431Y-144.672
X92.75Y-106.05
X92.8Y-115.25
X92.881Y-138.172
X93.4Y-77.0
X94.35Y-95.85
X94.581Y-137.222
X94.7Y-73.3
X94.7Y-116.4
X94.85Y-71.9
X95.2Y-143.15
X95.7Y-104.0
X95.75Y-117.0
X95.981Y-139.572
X96.0Y-144.3
X97.05Y-104.2
X97.181Y-137.172
X97.55Y-96.8
X97.85Y-71.1
X97.95Y-75.9
X98.4Y-144.722
X99.15Y-142.9
X100.05Y-147.4
X100.4Y-75.4
X100.4Y-76.4
X101.0Y-53.15
X101.05Y-55.1
X101.1Y-56.8
X101.15Y-101.8
X101.95Y-68.35
X102.0Y-73.9
X103.05Y-96.7
X103.631Y-126.322
X103.7Y-73.15
X104.05Y-96.7
X104.2Y-101.25
X104.3Y-113.8
X104.3Y-114.9
X104.45Y-103.612
X104.85Y-56.6
X105.6Y-51.9
X105.85Y-107.2
X106.166Y-108.149
X106.277Y-109.715
X106.45Y-72.451
X106.839Y-108.888
X107.131Y-113.631
X107.45Y-72.5
X108.447Y-72.419
X108.55Y-113.8
X108.85Y-100.2
X108.95Y-95.551
X109.088Y-76.85
X110.923Y-90.251
X111.239Y-91.2
X111.35Y-93.25
X111.5Y-86.1
X111.5Y-87.15
X111.55Y-83.45
X111.55Y-92.15
X112.2Y-77.925
X113.0Y-75.2
X113.213Y-83.25
X113.75Y-70.1
X114.213Y-83.25
X114.25Y-75.9
X115.2Y-85.85
X115.6Y-84.55
X115.95Y-87.0
X116.35Y-52.4
X117.45Y-89.5
X120.65Y-90.75
X124.8Y-86.75
X124.95Y-84.45
X125.55Y-82.45
X127.2Y-92.7
X127.25Y-135.6
X128.05Y-120.0
T2
X133.51Y-115.27
X133.51Y-124.03
X133.51Y-128.49
X133.51Y-137.25
T3
X103.895Y-59.685
X103.895Y-62.225
X106.435Y-59.685
X106.435Y-62.225
X108.975Y-59.685
X108.975Y-62.225
X111.515Y-59.685
X111.515Y-62.225
X114.055Y-59.685
X114.055Y-62.225
M30
